<?xml version="1.0" encoding="utf-8" standalone="no"?>
<!DOCTYPE svg PUBLIC "-//W3C//DTD SVG 1.1//EN"
  "http://www.w3.org/Graphics/SVG/1.1/DTD/svg11.dtd">
<!-- Created with matplotlib (https://matplotlib.org/) -->
<svg height="216.479688pt" version="1.1" viewBox="0 0 828.522187 216.479688" width="828.522187pt" xmlns="http://www.w3.org/2000/svg" xmlns:xlink="http://www.w3.org/1999/xlink">
 <metadata>
  <rdf:RDF xmlns:cc="http://creativecommons.org/ns#" xmlns:dc="http://purl.org/dc/elements/1.1/" xmlns:rdf="http://www.w3.org/1999/02/22-rdf-syntax-ns#">
   <cc:Work>
    <dc:type rdf:resource="http://purl.org/dc/dcmitype/StillImage"/>
    <dc:date>2020-08-24T16:09:49.616997</dc:date>
    <dc:format>image/svg+xml</dc:format>
    <dc:creator>
     <cc:Agent>
      <dc:title>Matplotlib v3.3.1, https://matplotlib.org/</dc:title>
     </cc:Agent>
    </dc:creator>
   </cc:Work>
  </rdf:RDF>
 </metadata>
 <defs>
  <style type="text/css">*{stroke-linecap:butt;stroke-linejoin:round;}</style>
 </defs>
 <g id="figure_1">
  <g id="patch_1">
   <path d="M 0 216.479688 
L 828.522187 216.479688 
L 828.522187 0 
L 0 0 
z
" style="fill:none;"/>
  </g>
  <g id="axes_1">
   <g id="patch_2">
    <path d="M 151.722188 173.52 
L 821.322188 173.52 
L 821.322188 7.2 
L 151.722188 7.2 
z
" style="fill:none;"/>
   </g>
   <g id="matplotlib.axis_1">
    <g id="xtick_1">
     <g id="line2d_1">
      <path clip-path="url(#p1995b5cd6c)" d="M 152.162904 173.52 
L 152.162904 7.2 
" style="fill:none;stroke:#cccccc;stroke-linecap:round;"/>
     </g>
     <g id="line2d_2">
      <defs>
       <path d="M 0 0 
L 0 6 
" id="m9d2c2413b5" style="stroke:#262626;stroke-width:1.25;"/>
      </defs>
      <g>
       <use style="fill:#262626;stroke:#262626;stroke-width:1.25;" x="152.162904" xlink:href="#m9d2c2413b5" y="173.52"/>
      </g>
     </g>
     <g id="text_1">
      <!-- 0 -->
      <g style="fill:#262626;" transform="translate(148.663529 191.378281)scale(0.11 -0.11)">
       <defs>
        <path d="M 31.78125 66.40625 
Q 24.171875 66.40625 20.328125 58.90625 
Q 16.5 51.421875 16.5 36.375 
Q 16.5 21.390625 20.328125 13.890625 
Q 24.171875 6.390625 31.78125 6.390625 
Q 39.453125 6.390625 43.28125 13.890625 
Q 47.125 21.390625 47.125 36.375 
Q 47.125 51.421875 43.28125 58.90625 
Q 39.453125 66.40625 31.78125 66.40625 
z
M 31.78125 74.21875 
Q 44.046875 74.21875 50.515625 64.515625 
Q 56.984375 54.828125 56.984375 36.375 
Q 56.984375 17.96875 50.515625 8.265625 
Q 44.046875 -1.421875 31.78125 -1.421875 
Q 19.53125 -1.421875 13.0625 8.265625 
Q 6.59375 17.96875 6.59375 36.375 
Q 6.59375 54.828125 13.0625 64.515625 
Q 19.53125 74.21875 31.78125 74.21875 
z
" id="DejaVuSans-48"/>
       </defs>
       <use xlink:href="#DejaVuSans-48"/>
      </g>
     </g>
    </g>
    <g id="xtick_2">
     <g id="line2d_3">
      <path clip-path="url(#p1995b5cd6c)" d="M 240.306279 173.52 
L 240.306279 7.2 
" style="fill:none;stroke:#cccccc;stroke-linecap:round;"/>
     </g>
     <g id="line2d_4">
      <g>
       <use style="fill:#262626;stroke:#262626;stroke-width:1.25;" x="240.306279" xlink:href="#m9d2c2413b5" y="173.52"/>
      </g>
     </g>
     <g id="text_2">
      <!-- 200 -->
      <g style="fill:#262626;" transform="translate(229.808154 191.378281)scale(0.11 -0.11)">
       <defs>
        <path d="M 19.1875 8.296875 
L 53.609375 8.296875 
L 53.609375 0 
L 7.328125 0 
L 7.328125 8.296875 
Q 12.9375 14.109375 22.625 23.890625 
Q 32.328125 33.6875 34.8125 36.53125 
Q 39.546875 41.84375 41.421875 45.53125 
Q 43.3125 49.21875 43.3125 52.78125 
Q 43.3125 58.59375 39.234375 62.25 
Q 35.15625 65.921875 28.609375 65.921875 
Q 23.96875 65.921875 18.8125 64.3125 
Q 13.671875 62.703125 7.8125 59.421875 
L 7.8125 69.390625 
Q 13.765625 71.78125 18.9375 73 
Q 24.125 74.21875 28.421875 74.21875 
Q 39.75 74.21875 46.484375 68.546875 
Q 53.21875 62.890625 53.21875 53.421875 
Q 53.21875 48.921875 51.53125 44.890625 
Q 49.859375 40.875 45.40625 35.40625 
Q 44.1875 33.984375 37.640625 27.21875 
Q 31.109375 20.453125 19.1875 8.296875 
z
" id="DejaVuSans-50"/>
       </defs>
       <use xlink:href="#DejaVuSans-50"/>
       <use x="63.623047" xlink:href="#DejaVuSans-48"/>
       <use x="127.246094" xlink:href="#DejaVuSans-48"/>
      </g>
     </g>
    </g>
    <g id="xtick_3">
     <g id="line2d_5">
      <path clip-path="url(#p1995b5cd6c)" d="M 328.449654 173.52 
L 328.449654 7.2 
" style="fill:none;stroke:#cccccc;stroke-linecap:round;"/>
     </g>
     <g id="line2d_6">
      <g>
       <use style="fill:#262626;stroke:#262626;stroke-width:1.25;" x="328.449654" xlink:href="#m9d2c2413b5" y="173.52"/>
      </g>
     </g>
     <g id="text_3">
      <!-- 400 -->
      <g style="fill:#262626;" transform="translate(317.951529 191.378281)scale(0.11 -0.11)">
       <defs>
        <path d="M 37.796875 64.3125 
L 12.890625 25.390625 
L 37.796875 25.390625 
z
M 35.203125 72.90625 
L 47.609375 72.90625 
L 47.609375 25.390625 
L 58.015625 25.390625 
L 58.015625 17.1875 
L 47.609375 17.1875 
L 47.609375 0 
L 37.796875 0 
L 37.796875 17.1875 
L 4.890625 17.1875 
L 4.890625 26.703125 
z
" id="DejaVuSans-52"/>
       </defs>
       <use xlink:href="#DejaVuSans-52"/>
       <use x="63.623047" xlink:href="#DejaVuSans-48"/>
       <use x="127.246094" xlink:href="#DejaVuSans-48"/>
      </g>
     </g>
    </g>
    <g id="xtick_4">
     <g id="line2d_7">
      <path clip-path="url(#p1995b5cd6c)" d="M 416.593028 173.52 
L 416.593028 7.2 
" style="fill:none;stroke:#cccccc;stroke-linecap:round;"/>
     </g>
     <g id="line2d_8">
      <g>
       <use style="fill:#262626;stroke:#262626;stroke-width:1.25;" x="416.593028" xlink:href="#m9d2c2413b5" y="173.52"/>
      </g>
     </g>
     <g id="text_4">
      <!-- 600 -->
      <g style="fill:#262626;" transform="translate(406.094903 191.378281)scale(0.11 -0.11)">
       <defs>
        <path d="M 33.015625 40.375 
Q 26.375 40.375 22.484375 35.828125 
Q 18.609375 31.296875 18.609375 23.390625 
Q 18.609375 15.53125 22.484375 10.953125 
Q 26.375 6.390625 33.015625 6.390625 
Q 39.65625 6.390625 43.53125 10.953125 
Q 47.40625 15.53125 47.40625 23.390625 
Q 47.40625 31.296875 43.53125 35.828125 
Q 39.65625 40.375 33.015625 40.375 
z
M 52.59375 71.296875 
L 52.59375 62.3125 
Q 48.875 64.0625 45.09375 64.984375 
Q 41.3125 65.921875 37.59375 65.921875 
Q 27.828125 65.921875 22.671875 59.328125 
Q 17.53125 52.734375 16.796875 39.40625 
Q 19.671875 43.65625 24.015625 45.921875 
Q 28.375 48.1875 33.59375 48.1875 
Q 44.578125 48.1875 50.953125 41.515625 
Q 57.328125 34.859375 57.328125 23.390625 
Q 57.328125 12.15625 50.6875 5.359375 
Q 44.046875 -1.421875 33.015625 -1.421875 
Q 20.359375 -1.421875 13.671875 8.265625 
Q 6.984375 17.96875 6.984375 36.375 
Q 6.984375 53.65625 15.1875 63.9375 
Q 23.390625 74.21875 37.203125 74.21875 
Q 40.921875 74.21875 44.703125 73.484375 
Q 48.484375 72.75 52.59375 71.296875 
z
" id="DejaVuSans-54"/>
       </defs>
       <use xlink:href="#DejaVuSans-54"/>
       <use x="63.623047" xlink:href="#DejaVuSans-48"/>
       <use x="127.246094" xlink:href="#DejaVuSans-48"/>
      </g>
     </g>
    </g>
    <g id="xtick_5">
     <g id="line2d_9">
      <path clip-path="url(#p1995b5cd6c)" d="M 504.736403 173.52 
L 504.736403 7.2 
" style="fill:none;stroke:#cccccc;stroke-linecap:round;"/>
     </g>
     <g id="line2d_10">
      <g>
       <use style="fill:#262626;stroke:#262626;stroke-width:1.25;" x="504.736403" xlink:href="#m9d2c2413b5" y="173.52"/>
      </g>
     </g>
     <g id="text_5">
      <!-- 800 -->
      <g style="fill:#262626;" transform="translate(494.238278 191.378281)scale(0.11 -0.11)">
       <defs>
        <path d="M 31.78125 34.625 
Q 24.75 34.625 20.71875 30.859375 
Q 16.703125 27.09375 16.703125 20.515625 
Q 16.703125 13.921875 20.71875 10.15625 
Q 24.75 6.390625 31.78125 6.390625 
Q 38.8125 6.390625 42.859375 10.171875 
Q 46.921875 13.96875 46.921875 20.515625 
Q 46.921875 27.09375 42.890625 30.859375 
Q 38.875 34.625 31.78125 34.625 
z
M 21.921875 38.8125 
Q 15.578125 40.375 12.03125 44.71875 
Q 8.5 49.078125 8.5 55.328125 
Q 8.5 64.0625 14.71875 69.140625 
Q 20.953125 74.21875 31.78125 74.21875 
Q 42.671875 74.21875 48.875 69.140625 
Q 55.078125 64.0625 55.078125 55.328125 
Q 55.078125 49.078125 51.53125 44.71875 
Q 48 40.375 41.703125 38.8125 
Q 48.828125 37.15625 52.796875 32.3125 
Q 56.78125 27.484375 56.78125 20.515625 
Q 56.78125 9.90625 50.3125 4.234375 
Q 43.84375 -1.421875 31.78125 -1.421875 
Q 19.734375 -1.421875 13.25 4.234375 
Q 6.78125 9.90625 6.78125 20.515625 
Q 6.78125 27.484375 10.78125 32.3125 
Q 14.796875 37.15625 21.921875 38.8125 
z
M 18.3125 54.390625 
Q 18.3125 48.734375 21.84375 45.5625 
Q 25.390625 42.390625 31.78125 42.390625 
Q 38.140625 42.390625 41.71875 45.5625 
Q 45.3125 48.734375 45.3125 54.390625 
Q 45.3125 60.0625 41.71875 63.234375 
Q 38.140625 66.40625 31.78125 66.40625 
Q 25.390625 66.40625 21.84375 63.234375 
Q 18.3125 60.0625 18.3125 54.390625 
z
" id="DejaVuSans-56"/>
       </defs>
       <use xlink:href="#DejaVuSans-56"/>
       <use x="63.623047" xlink:href="#DejaVuSans-48"/>
       <use x="127.246094" xlink:href="#DejaVuSans-48"/>
      </g>
     </g>
    </g>
    <g id="xtick_6">
     <g id="line2d_11">
      <path clip-path="url(#p1995b5cd6c)" d="M 592.879778 173.52 
L 592.879778 7.2 
" style="fill:none;stroke:#cccccc;stroke-linecap:round;"/>
     </g>
     <g id="line2d_12">
      <g>
       <use style="fill:#262626;stroke:#262626;stroke-width:1.25;" x="592.879778" xlink:href="#m9d2c2413b5" y="173.52"/>
      </g>
     </g>
     <g id="text_6">
      <!-- 1000 -->
      <g style="fill:#262626;" transform="translate(578.882278 191.378281)scale(0.11 -0.11)">
       <defs>
        <path d="M 12.40625 8.296875 
L 28.515625 8.296875 
L 28.515625 63.921875 
L 10.984375 60.40625 
L 10.984375 69.390625 
L 28.421875 72.90625 
L 38.28125 72.90625 
L 38.28125 8.296875 
L 54.390625 8.296875 
L 54.390625 0 
L 12.40625 0 
z
" id="DejaVuSans-49"/>
       </defs>
       <use xlink:href="#DejaVuSans-49"/>
       <use x="63.623047" xlink:href="#DejaVuSans-48"/>
       <use x="127.246094" xlink:href="#DejaVuSans-48"/>
       <use x="190.869141" xlink:href="#DejaVuSans-48"/>
      </g>
     </g>
    </g>
    <g id="xtick_7">
     <g id="line2d_13">
      <path clip-path="url(#p1995b5cd6c)" d="M 681.023152 173.52 
L 681.023152 7.2 
" style="fill:none;stroke:#cccccc;stroke-linecap:round;"/>
     </g>
     <g id="line2d_14">
      <g>
       <use style="fill:#262626;stroke:#262626;stroke-width:1.25;" x="681.023152" xlink:href="#m9d2c2413b5" y="173.52"/>
      </g>
     </g>
     <g id="text_7">
      <!-- 1200 -->
      <g style="fill:#262626;" transform="translate(667.025652 191.378281)scale(0.11 -0.11)">
       <use xlink:href="#DejaVuSans-49"/>
       <use x="63.623047" xlink:href="#DejaVuSans-50"/>
       <use x="127.246094" xlink:href="#DejaVuSans-48"/>
       <use x="190.869141" xlink:href="#DejaVuSans-48"/>
      </g>
     </g>
    </g>
    <g id="xtick_8">
     <g id="line2d_15">
      <path clip-path="url(#p1995b5cd6c)" d="M 769.166527 173.52 
L 769.166527 7.2 
" style="fill:none;stroke:#cccccc;stroke-linecap:round;"/>
     </g>
     <g id="line2d_16">
      <g>
       <use style="fill:#262626;stroke:#262626;stroke-width:1.25;" x="769.166527" xlink:href="#m9d2c2413b5" y="173.52"/>
      </g>
     </g>
     <g id="text_8">
      <!-- 1400 -->
      <g style="fill:#262626;" transform="translate(755.169027 191.378281)scale(0.11 -0.11)">
       <use xlink:href="#DejaVuSans-49"/>
       <use x="63.623047" xlink:href="#DejaVuSans-52"/>
       <use x="127.246094" xlink:href="#DejaVuSans-48"/>
       <use x="190.869141" xlink:href="#DejaVuSans-48"/>
      </g>
     </g>
    </g>
    <g id="text_9">
     <!-- Time to All Containers Handle Requests (TACHR) [s] -->
     <g style="fill:#262626;" transform="translate(331.369688 206.784063)scale(0.12 -0.12)">
      <defs>
       <path d="M -0.296875 72.90625 
L 61.375 72.90625 
L 61.375 64.59375 
L 35.5 64.59375 
L 35.5 0 
L 25.59375 0 
L 25.59375 64.59375 
L -0.296875 64.59375 
z
" id="DejaVuSans-84"/>
       <path d="M 9.421875 54.6875 
L 18.40625 54.6875 
L 18.40625 0 
L 9.421875 0 
z
M 9.421875 75.984375 
L 18.40625 75.984375 
L 18.40625 64.59375 
L 9.421875 64.59375 
z
" id="DejaVuSans-105"/>
       <path d="M 52 44.1875 
Q 55.375 50.25 60.0625 53.125 
Q 64.75 56 71.09375 56 
Q 79.640625 56 84.28125 50.015625 
Q 88.921875 44.046875 88.921875 33.015625 
L 88.921875 0 
L 79.890625 0 
L 79.890625 32.71875 
Q 79.890625 40.578125 77.09375 44.375 
Q 74.3125 48.1875 68.609375 48.1875 
Q 61.625 48.1875 57.5625 43.546875 
Q 53.515625 38.921875 53.515625 30.90625 
L 53.515625 0 
L 44.484375 0 
L 44.484375 32.71875 
Q 44.484375 40.625 41.703125 44.40625 
Q 38.921875 48.1875 33.109375 48.1875 
Q 26.21875 48.1875 22.15625 43.53125 
Q 18.109375 38.875 18.109375 30.90625 
L 18.109375 0 
L 9.078125 0 
L 9.078125 54.6875 
L 18.109375 54.6875 
L 18.109375 46.1875 
Q 21.1875 51.21875 25.484375 53.609375 
Q 29.78125 56 35.6875 56 
Q 41.65625 56 45.828125 52.96875 
Q 50 49.953125 52 44.1875 
z
" id="DejaVuSans-109"/>
       <path d="M 56.203125 29.59375 
L 56.203125 25.203125 
L 14.890625 25.203125 
Q 15.484375 15.921875 20.484375 11.0625 
Q 25.484375 6.203125 34.421875 6.203125 
Q 39.59375 6.203125 44.453125 7.46875 
Q 49.3125 8.734375 54.109375 11.28125 
L 54.109375 2.78125 
Q 49.265625 0.734375 44.1875 -0.34375 
Q 39.109375 -1.421875 33.890625 -1.421875 
Q 20.796875 -1.421875 13.15625 6.1875 
Q 5.515625 13.8125 5.515625 26.8125 
Q 5.515625 40.234375 12.765625 48.109375 
Q 20.015625 56 32.328125 56 
Q 43.359375 56 49.78125 48.890625 
Q 56.203125 41.796875 56.203125 29.59375 
z
M 47.21875 32.234375 
Q 47.125 39.59375 43.09375 43.984375 
Q 39.0625 48.390625 32.421875 48.390625 
Q 24.90625 48.390625 20.390625 44.140625 
Q 15.875 39.890625 15.1875 32.171875 
z
" id="DejaVuSans-101"/>
       <path id="DejaVuSans-32"/>
       <path d="M 18.3125 70.21875 
L 18.3125 54.6875 
L 36.8125 54.6875 
L 36.8125 47.703125 
L 18.3125 47.703125 
L 18.3125 18.015625 
Q 18.3125 11.328125 20.140625 9.421875 
Q 21.96875 7.515625 27.59375 7.515625 
L 36.8125 7.515625 
L 36.8125 0 
L 27.59375 0 
Q 17.1875 0 13.234375 3.875 
Q 9.28125 7.765625 9.28125 18.015625 
L 9.28125 47.703125 
L 2.6875 47.703125 
L 2.6875 54.6875 
L 9.28125 54.6875 
L 9.28125 70.21875 
z
" id="DejaVuSans-116"/>
       <path d="M 30.609375 48.390625 
Q 23.390625 48.390625 19.1875 42.75 
Q 14.984375 37.109375 14.984375 27.296875 
Q 14.984375 17.484375 19.15625 11.84375 
Q 23.34375 6.203125 30.609375 6.203125 
Q 37.796875 6.203125 41.984375 11.859375 
Q 46.1875 17.53125 46.1875 27.296875 
Q 46.1875 37.015625 41.984375 42.703125 
Q 37.796875 48.390625 30.609375 48.390625 
z
M 30.609375 56 
Q 42.328125 56 49.015625 48.375 
Q 55.71875 40.765625 55.71875 27.296875 
Q 55.71875 13.875 49.015625 6.21875 
Q 42.328125 -1.421875 30.609375 -1.421875 
Q 18.84375 -1.421875 12.171875 6.21875 
Q 5.515625 13.875 5.515625 27.296875 
Q 5.515625 40.765625 12.171875 48.375 
Q 18.84375 56 30.609375 56 
z
" id="DejaVuSans-111"/>
       <path d="M 34.1875 63.1875 
L 20.796875 26.90625 
L 47.609375 26.90625 
z
M 28.609375 72.90625 
L 39.796875 72.90625 
L 67.578125 0 
L 57.328125 0 
L 50.6875 18.703125 
L 17.828125 18.703125 
L 11.1875 0 
L 0.78125 0 
z
" id="DejaVuSans-65"/>
       <path d="M 9.421875 75.984375 
L 18.40625 75.984375 
L 18.40625 0 
L 9.421875 0 
z
" id="DejaVuSans-108"/>
       <path d="M 64.40625 67.28125 
L 64.40625 56.890625 
Q 59.421875 61.53125 53.78125 63.8125 
Q 48.140625 66.109375 41.796875 66.109375 
Q 29.296875 66.109375 22.65625 58.46875 
Q 16.015625 50.828125 16.015625 36.375 
Q 16.015625 21.96875 22.65625 14.328125 
Q 29.296875 6.6875 41.796875 6.6875 
Q 48.140625 6.6875 53.78125 8.984375 
Q 59.421875 11.28125 64.40625 15.921875 
L 64.40625 5.609375 
Q 59.234375 2.09375 53.4375 0.328125 
Q 47.65625 -1.421875 41.21875 -1.421875 
Q 24.65625 -1.421875 15.125 8.703125 
Q 5.609375 18.84375 5.609375 36.375 
Q 5.609375 53.953125 15.125 64.078125 
Q 24.65625 74.21875 41.21875 74.21875 
Q 47.75 74.21875 53.53125 72.484375 
Q 59.328125 70.75 64.40625 67.28125 
z
" id="DejaVuSans-67"/>
       <path d="M 54.890625 33.015625 
L 54.890625 0 
L 45.90625 0 
L 45.90625 32.71875 
Q 45.90625 40.484375 42.875 44.328125 
Q 39.84375 48.1875 33.796875 48.1875 
Q 26.515625 48.1875 22.3125 43.546875 
Q 18.109375 38.921875 18.109375 30.90625 
L 18.109375 0 
L 9.078125 0 
L 9.078125 54.6875 
L 18.109375 54.6875 
L 18.109375 46.1875 
Q 21.34375 51.125 25.703125 53.5625 
Q 30.078125 56 35.796875 56 
Q 45.21875 56 50.046875 50.171875 
Q 54.890625 44.34375 54.890625 33.015625 
z
" id="DejaVuSans-110"/>
       <path d="M 34.28125 27.484375 
Q 23.390625 27.484375 19.1875 25 
Q 14.984375 22.515625 14.984375 16.5 
Q 14.984375 11.71875 18.140625 8.90625 
Q 21.296875 6.109375 26.703125 6.109375 
Q 34.1875 6.109375 38.703125 11.40625 
Q 43.21875 16.703125 43.21875 25.484375 
L 43.21875 27.484375 
z
M 52.203125 31.203125 
L 52.203125 0 
L 43.21875 0 
L 43.21875 8.296875 
Q 40.140625 3.328125 35.546875 0.953125 
Q 30.953125 -1.421875 24.3125 -1.421875 
Q 15.921875 -1.421875 10.953125 3.296875 
Q 6 8.015625 6 15.921875 
Q 6 25.140625 12.171875 29.828125 
Q 18.359375 34.515625 30.609375 34.515625 
L 43.21875 34.515625 
L 43.21875 35.40625 
Q 43.21875 41.609375 39.140625 45 
Q 35.0625 48.390625 27.6875 48.390625 
Q 23 48.390625 18.546875 47.265625 
Q 14.109375 46.140625 10.015625 43.890625 
L 10.015625 52.203125 
Q 14.9375 54.109375 19.578125 55.046875 
Q 24.21875 56 28.609375 56 
Q 40.484375 56 46.34375 49.84375 
Q 52.203125 43.703125 52.203125 31.203125 
z
" id="DejaVuSans-97"/>
       <path d="M 41.109375 46.296875 
Q 39.59375 47.171875 37.8125 47.578125 
Q 36.03125 48 33.890625 48 
Q 26.265625 48 22.1875 43.046875 
Q 18.109375 38.09375 18.109375 28.8125 
L 18.109375 0 
L 9.078125 0 
L 9.078125 54.6875 
L 18.109375 54.6875 
L 18.109375 46.1875 
Q 20.953125 51.171875 25.484375 53.578125 
Q 30.03125 56 36.53125 56 
Q 37.453125 56 38.578125 55.875 
Q 39.703125 55.765625 41.0625 55.515625 
z
" id="DejaVuSans-114"/>
       <path d="M 44.28125 53.078125 
L 44.28125 44.578125 
Q 40.484375 46.53125 36.375 47.5 
Q 32.28125 48.484375 27.875 48.484375 
Q 21.1875 48.484375 17.84375 46.4375 
Q 14.5 44.390625 14.5 40.28125 
Q 14.5 37.15625 16.890625 35.375 
Q 19.28125 33.59375 26.515625 31.984375 
L 29.59375 31.296875 
Q 39.15625 29.25 43.1875 25.515625 
Q 47.21875 21.78125 47.21875 15.09375 
Q 47.21875 7.46875 41.1875 3.015625 
Q 35.15625 -1.421875 24.609375 -1.421875 
Q 20.21875 -1.421875 15.453125 -0.5625 
Q 10.6875 0.296875 5.421875 2 
L 5.421875 11.28125 
Q 10.40625 8.6875 15.234375 7.390625 
Q 20.0625 6.109375 24.8125 6.109375 
Q 31.15625 6.109375 34.5625 8.28125 
Q 37.984375 10.453125 37.984375 14.40625 
Q 37.984375 18.0625 35.515625 20.015625 
Q 33.0625 21.96875 24.703125 23.78125 
L 21.578125 24.515625 
Q 13.234375 26.265625 9.515625 29.90625 
Q 5.8125 33.546875 5.8125 39.890625 
Q 5.8125 47.609375 11.28125 51.796875 
Q 16.75 56 26.8125 56 
Q 31.78125 56 36.171875 55.265625 
Q 40.578125 54.546875 44.28125 53.078125 
z
" id="DejaVuSans-115"/>
       <path d="M 9.8125 72.90625 
L 19.671875 72.90625 
L 19.671875 43.015625 
L 55.515625 43.015625 
L 55.515625 72.90625 
L 65.375 72.90625 
L 65.375 0 
L 55.515625 0 
L 55.515625 34.71875 
L 19.671875 34.71875 
L 19.671875 0 
L 9.8125 0 
z
" id="DejaVuSans-72"/>
       <path d="M 45.40625 46.390625 
L 45.40625 75.984375 
L 54.390625 75.984375 
L 54.390625 0 
L 45.40625 0 
L 45.40625 8.203125 
Q 42.578125 3.328125 38.25 0.953125 
Q 33.9375 -1.421875 27.875 -1.421875 
Q 17.96875 -1.421875 11.734375 6.484375 
Q 5.515625 14.40625 5.515625 27.296875 
Q 5.515625 40.1875 11.734375 48.09375 
Q 17.96875 56 27.875 56 
Q 33.9375 56 38.25 53.625 
Q 42.578125 51.265625 45.40625 46.390625 
z
M 14.796875 27.296875 
Q 14.796875 17.390625 18.875 11.75 
Q 22.953125 6.109375 30.078125 6.109375 
Q 37.203125 6.109375 41.296875 11.75 
Q 45.40625 17.390625 45.40625 27.296875 
Q 45.40625 37.203125 41.296875 42.84375 
Q 37.203125 48.484375 30.078125 48.484375 
Q 22.953125 48.484375 18.875 42.84375 
Q 14.796875 37.203125 14.796875 27.296875 
z
" id="DejaVuSans-100"/>
       <path d="M 44.390625 34.1875 
Q 47.5625 33.109375 50.5625 29.59375 
Q 53.5625 26.078125 56.59375 19.921875 
L 66.609375 0 
L 56 0 
L 46.6875 18.703125 
Q 43.0625 26.03125 39.671875 28.421875 
Q 36.28125 30.8125 30.421875 30.8125 
L 19.671875 30.8125 
L 19.671875 0 
L 9.8125 0 
L 9.8125 72.90625 
L 32.078125 72.90625 
Q 44.578125 72.90625 50.734375 67.671875 
Q 56.890625 62.453125 56.890625 51.90625 
Q 56.890625 45.015625 53.6875 40.46875 
Q 50.484375 35.9375 44.390625 34.1875 
z
M 19.671875 64.796875 
L 19.671875 38.921875 
L 32.078125 38.921875 
Q 39.203125 38.921875 42.84375 42.21875 
Q 46.484375 45.515625 46.484375 51.90625 
Q 46.484375 58.296875 42.84375 61.546875 
Q 39.203125 64.796875 32.078125 64.796875 
z
" id="DejaVuSans-82"/>
       <path d="M 14.796875 27.296875 
Q 14.796875 17.390625 18.875 11.75 
Q 22.953125 6.109375 30.078125 6.109375 
Q 37.203125 6.109375 41.296875 11.75 
Q 45.40625 17.390625 45.40625 27.296875 
Q 45.40625 37.203125 41.296875 42.84375 
Q 37.203125 48.484375 30.078125 48.484375 
Q 22.953125 48.484375 18.875 42.84375 
Q 14.796875 37.203125 14.796875 27.296875 
z
M 45.40625 8.203125 
Q 42.578125 3.328125 38.25 0.953125 
Q 33.9375 -1.421875 27.875 -1.421875 
Q 17.96875 -1.421875 11.734375 6.484375 
Q 5.515625 14.40625 5.515625 27.296875 
Q 5.515625 40.1875 11.734375 48.09375 
Q 17.96875 56 27.875 56 
Q 33.9375 56 38.25 53.625 
Q 42.578125 51.265625 45.40625 46.390625 
L 45.40625 54.6875 
L 54.390625 54.6875 
L 54.390625 -20.796875 
L 45.40625 -20.796875 
z
" id="DejaVuSans-113"/>
       <path d="M 8.5 21.578125 
L 8.5 54.6875 
L 17.484375 54.6875 
L 17.484375 21.921875 
Q 17.484375 14.15625 20.5 10.265625 
Q 23.53125 6.390625 29.59375 6.390625 
Q 36.859375 6.390625 41.078125 11.03125 
Q 45.3125 15.671875 45.3125 23.6875 
L 45.3125 54.6875 
L 54.296875 54.6875 
L 54.296875 0 
L 45.3125 0 
L 45.3125 8.40625 
Q 42.046875 3.421875 37.71875 1 
Q 33.40625 -1.421875 27.6875 -1.421875 
Q 18.265625 -1.421875 13.375 4.4375 
Q 8.5 10.296875 8.5 21.578125 
z
M 31.109375 56 
z
" id="DejaVuSans-117"/>
       <path d="M 31 75.875 
Q 24.46875 64.65625 21.28125 53.65625 
Q 18.109375 42.671875 18.109375 31.390625 
Q 18.109375 20.125 21.3125 9.0625 
Q 24.515625 -2 31 -13.1875 
L 23.1875 -13.1875 
Q 15.875 -1.703125 12.234375 9.375 
Q 8.59375 20.453125 8.59375 31.390625 
Q 8.59375 42.28125 12.203125 53.3125 
Q 15.828125 64.359375 23.1875 75.875 
z
" id="DejaVuSans-40"/>
       <path d="M 8.015625 75.875 
L 15.828125 75.875 
Q 23.140625 64.359375 26.78125 53.3125 
Q 30.421875 42.28125 30.421875 31.390625 
Q 30.421875 20.453125 26.78125 9.375 
Q 23.140625 -1.703125 15.828125 -13.1875 
L 8.015625 -13.1875 
Q 14.5 -2 17.703125 9.0625 
Q 20.90625 20.125 20.90625 31.390625 
Q 20.90625 42.671875 17.703125 53.65625 
Q 14.5 64.65625 8.015625 75.875 
z
" id="DejaVuSans-41"/>
       <path d="M 8.59375 75.984375 
L 29.296875 75.984375 
L 29.296875 69 
L 17.578125 69 
L 17.578125 -6.203125 
L 29.296875 -6.203125 
L 29.296875 -13.1875 
L 8.59375 -13.1875 
z
" id="DejaVuSans-91"/>
       <path d="M 30.421875 75.984375 
L 30.421875 -13.1875 
L 9.71875 -13.1875 
L 9.71875 -6.203125 
L 21.390625 -6.203125 
L 21.390625 69 
L 9.71875 69 
L 9.71875 75.984375 
z
" id="DejaVuSans-93"/>
      </defs>
      <use xlink:href="#DejaVuSans-84"/>
      <use x="57.958984" xlink:href="#DejaVuSans-105"/>
      <use x="85.742188" xlink:href="#DejaVuSans-109"/>
      <use x="183.154297" xlink:href="#DejaVuSans-101"/>
      <use x="244.677734" xlink:href="#DejaVuSans-32"/>
      <use x="276.464844" xlink:href="#DejaVuSans-116"/>
      <use x="315.673828" xlink:href="#DejaVuSans-111"/>
      <use x="376.855469" xlink:href="#DejaVuSans-32"/>
      <use x="408.642578" xlink:href="#DejaVuSans-65"/>
      <use x="477.050781" xlink:href="#DejaVuSans-108"/>
      <use x="504.833984" xlink:href="#DejaVuSans-108"/>
      <use x="532.617188" xlink:href="#DejaVuSans-32"/>
      <use x="564.404297" xlink:href="#DejaVuSans-67"/>
      <use x="634.228516" xlink:href="#DejaVuSans-111"/>
      <use x="695.410156" xlink:href="#DejaVuSans-110"/>
      <use x="758.789062" xlink:href="#DejaVuSans-116"/>
      <use x="797.998047" xlink:href="#DejaVuSans-97"/>
      <use x="859.277344" xlink:href="#DejaVuSans-105"/>
      <use x="887.060547" xlink:href="#DejaVuSans-110"/>
      <use x="950.439453" xlink:href="#DejaVuSans-101"/>
      <use x="1011.962891" xlink:href="#DejaVuSans-114"/>
      <use x="1053.076172" xlink:href="#DejaVuSans-115"/>
      <use x="1105.175781" xlink:href="#DejaVuSans-32"/>
      <use x="1136.962891" xlink:href="#DejaVuSans-72"/>
      <use x="1212.158203" xlink:href="#DejaVuSans-97"/>
      <use x="1273.4375" xlink:href="#DejaVuSans-110"/>
      <use x="1336.816406" xlink:href="#DejaVuSans-100"/>
      <use x="1400.292969" xlink:href="#DejaVuSans-108"/>
      <use x="1428.076172" xlink:href="#DejaVuSans-101"/>
      <use x="1489.599609" xlink:href="#DejaVuSans-32"/>
      <use x="1521.386719" xlink:href="#DejaVuSans-82"/>
      <use x="1586.369141" xlink:href="#DejaVuSans-101"/>
      <use x="1647.892578" xlink:href="#DejaVuSans-113"/>
      <use x="1711.369141" xlink:href="#DejaVuSans-117"/>
      <use x="1774.748047" xlink:href="#DejaVuSans-101"/>
      <use x="1836.271484" xlink:href="#DejaVuSans-115"/>
      <use x="1888.371094" xlink:href="#DejaVuSans-116"/>
      <use x="1927.580078" xlink:href="#DejaVuSans-115"/>
      <use x="1979.679688" xlink:href="#DejaVuSans-32"/>
      <use x="2011.466797" xlink:href="#DejaVuSans-40"/>
      <use x="2050.480469" xlink:href="#DejaVuSans-84"/>
      <use x="2103.814453" xlink:href="#DejaVuSans-65"/>
      <use x="2170.472656" xlink:href="#DejaVuSans-67"/>
      <use x="2240.296875" xlink:href="#DejaVuSans-72"/>
      <use x="2315.492188" xlink:href="#DejaVuSans-82"/>
      <use x="2384.974609" xlink:href="#DejaVuSans-41"/>
      <use x="2423.988281" xlink:href="#DejaVuSans-32"/>
      <use x="2455.775391" xlink:href="#DejaVuSans-91"/>
      <use x="2494.789062" xlink:href="#DejaVuSans-115"/>
      <use x="2546.888672" xlink:href="#DejaVuSans-93"/>
     </g>
    </g>
   </g>
   <g id="matplotlib.axis_2">
    <g id="ytick_1">
     <g id="line2d_17">
      <defs>
       <path d="M 0 0 
L -6 0 
" id="ma1d98c02c0" style="stroke:#262626;stroke-width:1.25;"/>
      </defs>
      <g>
       <use style="fill:#262626;stroke:#262626;stroke-width:1.25;" x="151.722188" xlink:href="#ma1d98c02c0" y="23.832"/>
      </g>
     </g>
     <g id="text_10">
      <!-- Control Test -->
      <g style="fill:#262626;" transform="translate(77.310156 28.011141)scale(0.11 -0.11)">
       <use xlink:href="#DejaVuSans-67"/>
       <use x="69.824219" xlink:href="#DejaVuSans-111"/>
       <use x="131.005859" xlink:href="#DejaVuSans-110"/>
       <use x="194.384766" xlink:href="#DejaVuSans-116"/>
       <use x="233.59375" xlink:href="#DejaVuSans-114"/>
       <use x="272.457031" xlink:href="#DejaVuSans-111"/>
       <use x="333.638672" xlink:href="#DejaVuSans-108"/>
       <use x="361.421875" xlink:href="#DejaVuSans-32"/>
       <use x="393.208984" xlink:href="#DejaVuSans-84"/>
       <use x="437.292969" xlink:href="#DejaVuSans-101"/>
       <use x="498.816406" xlink:href="#DejaVuSans-115"/>
       <use x="550.916016" xlink:href="#DejaVuSans-116"/>
      </g>
     </g>
    </g>
    <g id="ytick_2">
     <g id="line2d_18">
      <g>
       <use style="fill:#262626;stroke:#262626;stroke-width:1.25;" x="151.722188" xlink:href="#ma1d98c02c0" y="57.096"/>
      </g>
     </g>
     <g id="text_11">
      <!-- Perturbation Disabled -->
      <g style="fill:#262626;" transform="translate(22.81375 61.275141)scale(0.11 -0.11)">
       <defs>
        <path d="M 19.671875 64.796875 
L 19.671875 37.40625 
L 32.078125 37.40625 
Q 38.96875 37.40625 42.71875 40.96875 
Q 46.484375 44.53125 46.484375 51.125 
Q 46.484375 57.671875 42.71875 61.234375 
Q 38.96875 64.796875 32.078125 64.796875 
z
M 9.8125 72.90625 
L 32.078125 72.90625 
Q 44.34375 72.90625 50.609375 67.359375 
Q 56.890625 61.8125 56.890625 51.125 
Q 56.890625 40.328125 50.609375 34.8125 
Q 44.34375 29.296875 32.078125 29.296875 
L 19.671875 29.296875 
L 19.671875 0 
L 9.8125 0 
z
" id="DejaVuSans-80"/>
        <path d="M 48.6875 27.296875 
Q 48.6875 37.203125 44.609375 42.84375 
Q 40.53125 48.484375 33.40625 48.484375 
Q 26.265625 48.484375 22.1875 42.84375 
Q 18.109375 37.203125 18.109375 27.296875 
Q 18.109375 17.390625 22.1875 11.75 
Q 26.265625 6.109375 33.40625 6.109375 
Q 40.53125 6.109375 44.609375 11.75 
Q 48.6875 17.390625 48.6875 27.296875 
z
M 18.109375 46.390625 
Q 20.953125 51.265625 25.265625 53.625 
Q 29.59375 56 35.59375 56 
Q 45.5625 56 51.78125 48.09375 
Q 58.015625 40.1875 58.015625 27.296875 
Q 58.015625 14.40625 51.78125 6.484375 
Q 45.5625 -1.421875 35.59375 -1.421875 
Q 29.59375 -1.421875 25.265625 0.953125 
Q 20.953125 3.328125 18.109375 8.203125 
L 18.109375 0 
L 9.078125 0 
L 9.078125 75.984375 
L 18.109375 75.984375 
z
" id="DejaVuSans-98"/>
        <path d="M 19.671875 64.796875 
L 19.671875 8.109375 
L 31.59375 8.109375 
Q 46.6875 8.109375 53.6875 14.9375 
Q 60.6875 21.78125 60.6875 36.53125 
Q 60.6875 51.171875 53.6875 57.984375 
Q 46.6875 64.796875 31.59375 64.796875 
z
M 9.8125 72.90625 
L 30.078125 72.90625 
Q 51.265625 72.90625 61.171875 64.09375 
Q 71.09375 55.28125 71.09375 36.53125 
Q 71.09375 17.671875 61.125 8.828125 
Q 51.171875 0 30.078125 0 
L 9.8125 0 
z
" id="DejaVuSans-68"/>
       </defs>
       <use xlink:href="#DejaVuSans-80"/>
       <use x="56.677734" xlink:href="#DejaVuSans-101"/>
       <use x="118.201172" xlink:href="#DejaVuSans-114"/>
       <use x="159.314453" xlink:href="#DejaVuSans-116"/>
       <use x="198.523438" xlink:href="#DejaVuSans-117"/>
       <use x="261.902344" xlink:href="#DejaVuSans-114"/>
       <use x="303.015625" xlink:href="#DejaVuSans-98"/>
       <use x="366.492188" xlink:href="#DejaVuSans-97"/>
       <use x="427.771484" xlink:href="#DejaVuSans-116"/>
       <use x="466.980469" xlink:href="#DejaVuSans-105"/>
       <use x="494.763672" xlink:href="#DejaVuSans-111"/>
       <use x="555.945312" xlink:href="#DejaVuSans-110"/>
       <use x="619.324219" xlink:href="#DejaVuSans-32"/>
       <use x="651.111328" xlink:href="#DejaVuSans-68"/>
       <use x="728.113281" xlink:href="#DejaVuSans-105"/>
       <use x="755.896484" xlink:href="#DejaVuSans-115"/>
       <use x="807.996094" xlink:href="#DejaVuSans-97"/>
       <use x="869.275391" xlink:href="#DejaVuSans-98"/>
       <use x="932.751953" xlink:href="#DejaVuSans-108"/>
       <use x="960.535156" xlink:href="#DejaVuSans-101"/>
       <use x="1022.058594" xlink:href="#DejaVuSans-100"/>
      </g>
     </g>
    </g>
    <g id="ytick_3">
     <g id="line2d_19">
      <g>
       <use style="fill:#262626;stroke:#262626;stroke-width:1.25;" x="151.722188" xlink:href="#ma1d98c02c0" y="90.36"/>
      </g>
     </g>
     <g id="text_12">
      <!-- Vary Build -->
      <g style="fill:#262626;" transform="translate(86.667031 94.539141)scale(0.11 -0.11)">
       <defs>
        <path d="M 28.609375 0 
L 0.78125 72.90625 
L 11.078125 72.90625 
L 34.1875 11.53125 
L 57.328125 72.90625 
L 67.578125 72.90625 
L 39.796875 0 
z
" id="DejaVuSans-86"/>
        <path d="M 32.171875 -5.078125 
Q 28.375 -14.84375 24.75 -17.8125 
Q 21.140625 -20.796875 15.09375 -20.796875 
L 7.90625 -20.796875 
L 7.90625 -13.28125 
L 13.1875 -13.28125 
Q 16.890625 -13.28125 18.9375 -11.515625 
Q 21 -9.765625 23.484375 -3.21875 
L 25.09375 0.875 
L 2.984375 54.6875 
L 12.5 54.6875 
L 29.59375 11.921875 
L 46.6875 54.6875 
L 56.203125 54.6875 
z
" id="DejaVuSans-121"/>
        <path d="M 19.671875 34.8125 
L 19.671875 8.109375 
L 35.5 8.109375 
Q 43.453125 8.109375 47.28125 11.40625 
Q 51.125 14.703125 51.125 21.484375 
Q 51.125 28.328125 47.28125 31.5625 
Q 43.453125 34.8125 35.5 34.8125 
z
M 19.671875 64.796875 
L 19.671875 42.828125 
L 34.28125 42.828125 
Q 41.5 42.828125 45.03125 45.53125 
Q 48.578125 48.25 48.578125 53.8125 
Q 48.578125 59.328125 45.03125 62.0625 
Q 41.5 64.796875 34.28125 64.796875 
z
M 9.8125 72.90625 
L 35.015625 72.90625 
Q 46.296875 72.90625 52.390625 68.21875 
Q 58.5 63.53125 58.5 54.890625 
Q 58.5 48.1875 55.375 44.234375 
Q 52.25 40.28125 46.1875 39.3125 
Q 53.46875 37.75 57.5 32.78125 
Q 61.53125 27.828125 61.53125 20.40625 
Q 61.53125 10.640625 54.890625 5.3125 
Q 48.25 0 35.984375 0 
L 9.8125 0 
z
" id="DejaVuSans-66"/>
       </defs>
       <use xlink:href="#DejaVuSans-86"/>
       <use x="60.658203" xlink:href="#DejaVuSans-97"/>
       <use x="121.9375" xlink:href="#DejaVuSans-114"/>
       <use x="163.050781" xlink:href="#DejaVuSans-121"/>
       <use x="222.230469" xlink:href="#DejaVuSans-32"/>
       <use x="254.017578" xlink:href="#DejaVuSans-66"/>
       <use x="322.621094" xlink:href="#DejaVuSans-117"/>
       <use x="386" xlink:href="#DejaVuSans-105"/>
       <use x="413.783203" xlink:href="#DejaVuSans-108"/>
       <use x="441.566406" xlink:href="#DejaVuSans-100"/>
      </g>
     </g>
    </g>
    <g id="ytick_4">
     <g id="line2d_20">
      <g>
       <use style="fill:#262626;stroke:#262626;stroke-width:1.25;" x="151.722188" xlink:href="#ma1d98c02c0" y="123.624"/>
      </g>
     </g>
     <g id="text_13">
      <!-- Vary Patch -->
      <g style="fill:#262626;" transform="translate(84.07 127.803141)scale(0.11 -0.11)">
       <defs>
        <path d="M 48.78125 52.59375 
L 48.78125 44.1875 
Q 44.96875 46.296875 41.140625 47.34375 
Q 37.3125 48.390625 33.40625 48.390625 
Q 24.65625 48.390625 19.8125 42.84375 
Q 14.984375 37.3125 14.984375 27.296875 
Q 14.984375 17.28125 19.8125 11.734375 
Q 24.65625 6.203125 33.40625 6.203125 
Q 37.3125 6.203125 41.140625 7.25 
Q 44.96875 8.296875 48.78125 10.40625 
L 48.78125 2.09375 
Q 45.015625 0.34375 40.984375 -0.53125 
Q 36.96875 -1.421875 32.421875 -1.421875 
Q 20.0625 -1.421875 12.78125 6.34375 
Q 5.515625 14.109375 5.515625 27.296875 
Q 5.515625 40.671875 12.859375 48.328125 
Q 20.21875 56 33.015625 56 
Q 37.15625 56 41.109375 55.140625 
Q 45.0625 54.296875 48.78125 52.59375 
z
" id="DejaVuSans-99"/>
        <path d="M 54.890625 33.015625 
L 54.890625 0 
L 45.90625 0 
L 45.90625 32.71875 
Q 45.90625 40.484375 42.875 44.328125 
Q 39.84375 48.1875 33.796875 48.1875 
Q 26.515625 48.1875 22.3125 43.546875 
Q 18.109375 38.921875 18.109375 30.90625 
L 18.109375 0 
L 9.078125 0 
L 9.078125 75.984375 
L 18.109375 75.984375 
L 18.109375 46.1875 
Q 21.34375 51.125 25.703125 53.5625 
Q 30.078125 56 35.796875 56 
Q 45.21875 56 50.046875 50.171875 
Q 54.890625 44.34375 54.890625 33.015625 
z
" id="DejaVuSans-104"/>
       </defs>
       <use xlink:href="#DejaVuSans-86"/>
       <use x="60.658203" xlink:href="#DejaVuSans-97"/>
       <use x="121.9375" xlink:href="#DejaVuSans-114"/>
       <use x="163.050781" xlink:href="#DejaVuSans-121"/>
       <use x="222.230469" xlink:href="#DejaVuSans-32"/>
       <use x="254.017578" xlink:href="#DejaVuSans-80"/>
       <use x="309.820312" xlink:href="#DejaVuSans-97"/>
       <use x="371.099609" xlink:href="#DejaVuSans-116"/>
       <use x="410.308594" xlink:href="#DejaVuSans-99"/>
       <use x="465.289062" xlink:href="#DejaVuSans-104"/>
      </g>
     </g>
    </g>
    <g id="ytick_5">
     <g id="line2d_21">
      <g>
       <use style="fill:#262626;stroke:#262626;stroke-width:1.25;" x="151.722188" xlink:href="#ma1d98c02c0" y="156.888"/>
      </g>
     </g>
     <g id="text_14">
      <!-- Vary Minor -->
      <g style="fill:#262626;" transform="translate(83.509688 161.067141)scale(0.11 -0.11)">
       <defs>
        <path d="M 9.8125 72.90625 
L 24.515625 72.90625 
L 43.109375 23.296875 
L 61.8125 72.90625 
L 76.515625 72.90625 
L 76.515625 0 
L 66.890625 0 
L 66.890625 64.015625 
L 48.09375 14.015625 
L 38.1875 14.015625 
L 19.390625 64.015625 
L 19.390625 0 
L 9.8125 0 
z
" id="DejaVuSans-77"/>
       </defs>
       <use xlink:href="#DejaVuSans-86"/>
       <use x="60.658203" xlink:href="#DejaVuSans-97"/>
       <use x="121.9375" xlink:href="#DejaVuSans-114"/>
       <use x="163.050781" xlink:href="#DejaVuSans-121"/>
       <use x="222.230469" xlink:href="#DejaVuSans-32"/>
       <use x="254.017578" xlink:href="#DejaVuSans-77"/>
       <use x="340.296875" xlink:href="#DejaVuSans-105"/>
       <use x="368.080078" xlink:href="#DejaVuSans-110"/>
       <use x="431.458984" xlink:href="#DejaVuSans-111"/>
       <use x="492.640625" xlink:href="#DejaVuSans-114"/>
      </g>
     </g>
    </g>
    <g id="text_15">
     <!-- Experiment -->
     <g style="fill:#262626;" transform="translate(16.318125 125.027812)rotate(-90)scale(0.12 -0.12)">
      <defs>
       <path d="M 9.8125 72.90625 
L 55.90625 72.90625 
L 55.90625 64.59375 
L 19.671875 64.59375 
L 19.671875 43.015625 
L 54.390625 43.015625 
L 54.390625 34.71875 
L 19.671875 34.71875 
L 19.671875 8.296875 
L 56.78125 8.296875 
L 56.78125 0 
L 9.8125 0 
z
" id="DejaVuSans-69"/>
       <path d="M 54.890625 54.6875 
L 35.109375 28.078125 
L 55.90625 0 
L 45.3125 0 
L 29.390625 21.484375 
L 13.484375 0 
L 2.875 0 
L 24.125 28.609375 
L 4.6875 54.6875 
L 15.28125 54.6875 
L 29.78125 35.203125 
L 44.28125 54.6875 
z
" id="DejaVuSans-120"/>
       <path d="M 18.109375 8.203125 
L 18.109375 -20.796875 
L 9.078125 -20.796875 
L 9.078125 54.6875 
L 18.109375 54.6875 
L 18.109375 46.390625 
Q 20.953125 51.265625 25.265625 53.625 
Q 29.59375 56 35.59375 56 
Q 45.5625 56 51.78125 48.09375 
Q 58.015625 40.1875 58.015625 27.296875 
Q 58.015625 14.40625 51.78125 6.484375 
Q 45.5625 -1.421875 35.59375 -1.421875 
Q 29.59375 -1.421875 25.265625 0.953125 
Q 20.953125 3.328125 18.109375 8.203125 
z
M 48.6875 27.296875 
Q 48.6875 37.203125 44.609375 42.84375 
Q 40.53125 48.484375 33.40625 48.484375 
Q 26.265625 48.484375 22.1875 42.84375 
Q 18.109375 37.203125 18.109375 27.296875 
Q 18.109375 17.390625 22.1875 11.75 
Q 26.265625 6.109375 33.40625 6.109375 
Q 40.53125 6.109375 44.609375 11.75 
Q 48.6875 17.390625 48.6875 27.296875 
z
" id="DejaVuSans-112"/>
      </defs>
      <use xlink:href="#DejaVuSans-69"/>
      <use x="63.183594" xlink:href="#DejaVuSans-120"/>
      <use x="122.363281" xlink:href="#DejaVuSans-112"/>
      <use x="185.839844" xlink:href="#DejaVuSans-101"/>
      <use x="247.363281" xlink:href="#DejaVuSans-114"/>
      <use x="288.476562" xlink:href="#DejaVuSans-105"/>
      <use x="316.259766" xlink:href="#DejaVuSans-109"/>
      <use x="413.671875" xlink:href="#DejaVuSans-101"/>
      <use x="475.195312" xlink:href="#DejaVuSans-110"/>
      <use x="538.574219" xlink:href="#DejaVuSans-116"/>
     </g>
    </g>
   </g>
   <g id="patch_3">
    <path clip-path="url(#p1995b5cd6c)" d="M 166.874472 10.659456 
L 166.874472 23.698944 
L 172.267204 23.698944 
L 172.267204 10.659456 
L 166.874472 10.659456 
z
" style="fill:#5875a4;stroke:#4c4c4c;stroke-linejoin:miter;stroke-width:1.5;"/>
   </g>
   <g id="patch_4">
    <path clip-path="url(#p1995b5cd6c)" d="M 162.450237 23.965056 
L 162.450237 37.004544 
L 169.3866 37.004544 
L 169.3866 23.965056 
L 162.450237 23.965056 
z
" style="fill:#cc8963;stroke:#4c4c4c;stroke-linejoin:miter;stroke-width:1.5;"/>
   </g>
   <g id="patch_5">
    <path clip-path="url(#p1995b5cd6c)" d="M 169.219369 43.923456 
L 169.219369 56.962944 
L 175.074738 56.962944 
L 175.074738 43.923456 
L 169.219369 43.923456 
z
" style="fill:#5875a4;stroke:#4c4c4c;stroke-linejoin:miter;stroke-width:1.5;"/>
   </g>
   <g id="patch_6">
    <path clip-path="url(#p1995b5cd6c)" d="M 162.481286 57.229056 
L 162.481286 70.268544 
L 165.110992 70.268544 
L 165.110992 57.229056 
L 162.481286 57.229056 
z
" style="fill:#cc8963;stroke:#4c4c4c;stroke-linejoin:miter;stroke-width:1.5;"/>
   </g>
   <g id="patch_7">
    <path clip-path="url(#p1995b5cd6c)" d="M 167.48681 77.187456 
L 167.48681 90.226944 
L 173.805028 90.226944 
L 173.805028 77.187456 
L 167.48681 77.187456 
z
" style="fill:#5875a4;stroke:#4c4c4c;stroke-linejoin:miter;stroke-width:1.5;"/>
   </g>
   <g id="patch_8">
    <path clip-path="url(#p1995b5cd6c)" d="M 163.612829 90.493056 
L 163.612829 103.532544 
L 167.719199 103.532544 
L 167.719199 90.493056 
L 163.612829 90.493056 
z
" style="fill:#cc8963;stroke:#4c4c4c;stroke-linejoin:miter;stroke-width:1.5;"/>
   </g>
   <g id="patch_9">
    <path clip-path="url(#p1995b5cd6c)" d="M 189.60673 110.451456 
L 189.60673 123.490944 
L 226.252353 123.490944 
L 226.252353 110.451456 
L 189.60673 110.451456 
z
" style="fill:#5875a4;stroke:#4c4c4c;stroke-linejoin:miter;stroke-width:1.5;"/>
   </g>
   <g id="patch_10">
    <path clip-path="url(#p1995b5cd6c)" d="M 164.286201 123.757056 
L 164.286201 136.796544 
L 169.418815 136.796544 
L 169.418815 123.757056 
L 164.286201 123.757056 
z
" style="fill:#cc8963;stroke:#4c4c4c;stroke-linejoin:miter;stroke-width:1.5;"/>
   </g>
   <g id="patch_11">
    <path clip-path="url(#p1995b5cd6c)" d="M 202.701833 143.715456 
L 202.701833 156.754944 
L 314.225248 156.754944 
L 314.225248 143.715456 
L 202.701833 143.715456 
z
" style="fill:#5875a4;stroke:#4c4c4c;stroke-linejoin:miter;stroke-width:1.5;"/>
   </g>
   <g id="PathCollection_1"/>
   <g id="PathCollection_2"/>
   <g id="patch_12">
    <path clip-path="url(#p1995b5cd6c)" d="M 152.162904 23.832 
L 152.162904 23.832 
L 152.162904 23.832 
L 152.162904 23.832 
z
" style="fill:#5875a4;stroke:#4c4c4c;stroke-linejoin:miter;stroke-width:0.75;"/>
   </g>
   <g id="patch_13">
    <path clip-path="url(#p1995b5cd6c)" d="M 152.162904 23.832 
L 152.162904 23.832 
L 152.162904 23.832 
L 152.162904 23.832 
z
" style="fill:#cc8963;stroke:#4c4c4c;stroke-linejoin:miter;stroke-width:0.75;"/>
   </g>
   <g id="line2d_22">
    <path clip-path="url(#p1995b5cd6c)" d="M 166.874472 17.1792 
L 166.349284 17.1792 
" style="fill:none;stroke:#4c4c4c;stroke-linecap:round;stroke-width:1.5;"/>
   </g>
   <g id="line2d_23">
    <path clip-path="url(#p1995b5cd6c)" d="M 172.267204 17.1792 
L 179.310738 17.1792 
" style="fill:none;stroke:#4c4c4c;stroke-linecap:round;stroke-width:1.5;"/>
   </g>
   <g id="line2d_24">
    <path clip-path="url(#p1995b5cd6c)" d="M 166.349284 13.919328 
L 166.349284 20.439072 
" style="fill:none;stroke:#4c4c4c;stroke-linecap:round;stroke-width:1.5;"/>
   </g>
   <g id="line2d_25">
    <path clip-path="url(#p1995b5cd6c)" d="M 179.310738 13.919328 
L 179.310738 20.439072 
" style="fill:none;stroke:#4c4c4c;stroke-linecap:round;stroke-width:1.5;"/>
   </g>
   <g id="line2d_26">
    <defs>
     <path d="M -0 3.535534 
L 2.12132 0 
L -0 -3.535534 
L -2.12132 -0 
z
" id="mf0a0380e9b" style="stroke:#4c4c4c;stroke-linejoin:miter;"/>
    </defs>
    <g clip-path="url(#p1995b5cd6c)">
     <use style="fill:#4c4c4c;stroke:#4c4c4c;stroke-linejoin:miter;" x="183.022348" xlink:href="#mf0a0380e9b" y="17.1792"/>
     <use style="fill:#4c4c4c;stroke:#4c4c4c;stroke-linejoin:miter;" x="182.272337" xlink:href="#mf0a0380e9b" y="17.1792"/>
    </g>
   </g>
   <g id="line2d_27">
    <path clip-path="url(#p1995b5cd6c)" d="M 162.450237 30.4848 
L 160.623604 30.4848 
" style="fill:none;stroke:#4c4c4c;stroke-linecap:round;stroke-width:1.5;"/>
   </g>
   <g id="line2d_28">
    <path clip-path="url(#p1995b5cd6c)" d="M 169.3866 30.4848 
L 171.18116 30.4848 
" style="fill:none;stroke:#4c4c4c;stroke-linecap:round;stroke-width:1.5;"/>
   </g>
   <g id="line2d_29">
    <path clip-path="url(#p1995b5cd6c)" d="M 160.623604 27.224928 
L 160.623604 33.744672 
" style="fill:none;stroke:#4c4c4c;stroke-linecap:round;stroke-width:1.5;"/>
   </g>
   <g id="line2d_30">
    <path clip-path="url(#p1995b5cd6c)" d="M 171.18116 27.224928 
L 171.18116 33.744672 
" style="fill:none;stroke:#4c4c4c;stroke-linecap:round;stroke-width:1.5;"/>
   </g>
   <g id="line2d_31">
    <g clip-path="url(#p1995b5cd6c)">
     <use style="fill:#4c4c4c;stroke:#4c4c4c;stroke-linejoin:miter;" x="189.586094" xlink:href="#mf0a0380e9b" y="30.4848"/>
     <use style="fill:#4c4c4c;stroke:#4c4c4c;stroke-linejoin:miter;" x="187.934195" xlink:href="#mf0a0380e9b" y="30.4848"/>
    </g>
   </g>
   <g id="line2d_32">
    <path clip-path="url(#p1995b5cd6c)" d="M 169.219369 50.4432 
L 167.165794 50.4432 
" style="fill:none;stroke:#4c4c4c;stroke-linecap:round;stroke-width:1.5;"/>
   </g>
   <g id="line2d_33">
    <path clip-path="url(#p1995b5cd6c)" d="M 175.074738 50.4432 
L 177.471248 50.4432 
" style="fill:none;stroke:#4c4c4c;stroke-linecap:round;stroke-width:1.5;"/>
   </g>
   <g id="line2d_34">
    <path clip-path="url(#p1995b5cd6c)" d="M 167.165794 47.183328 
L 167.165794 53.703072 
" style="fill:none;stroke:#4c4c4c;stroke-linecap:round;stroke-width:1.5;"/>
   </g>
   <g id="line2d_35">
    <path clip-path="url(#p1995b5cd6c)" d="M 177.471248 47.183328 
L 177.471248 53.703072 
" style="fill:none;stroke:#4c4c4c;stroke-linecap:round;stroke-width:1.5;"/>
   </g>
   <g id="line2d_36"/>
   <g id="line2d_37">
    <path clip-path="url(#p1995b5cd6c)" d="M 162.481286 63.7488 
L 160.48853 63.7488 
" style="fill:none;stroke:#4c4c4c;stroke-linecap:round;stroke-width:1.5;"/>
   </g>
   <g id="line2d_38">
    <path clip-path="url(#p1995b5cd6c)" d="M 165.110992 63.7488 
L 168.076238 63.7488 
" style="fill:none;stroke:#4c4c4c;stroke-linecap:round;stroke-width:1.5;"/>
   </g>
   <g id="line2d_39">
    <path clip-path="url(#p1995b5cd6c)" d="M 160.48853 60.488928 
L 160.48853 67.008672 
" style="fill:none;stroke:#4c4c4c;stroke-linecap:round;stroke-width:1.5;"/>
   </g>
   <g id="line2d_40">
    <path clip-path="url(#p1995b5cd6c)" d="M 168.076238 60.488928 
L 168.076238 67.008672 
" style="fill:none;stroke:#4c4c4c;stroke-linecap:round;stroke-width:1.5;"/>
   </g>
   <g id="line2d_41"/>
   <g id="line2d_42">
    <path clip-path="url(#p1995b5cd6c)" d="M 167.48681 83.7072 
L 165.918382 83.7072 
" style="fill:none;stroke:#4c4c4c;stroke-linecap:round;stroke-width:1.5;"/>
   </g>
   <g id="line2d_43">
    <path clip-path="url(#p1995b5cd6c)" d="M 173.805028 83.7072 
L 181.755534 83.7072 
" style="fill:none;stroke:#4c4c4c;stroke-linecap:round;stroke-width:1.5;"/>
   </g>
   <g id="line2d_44">
    <path clip-path="url(#p1995b5cd6c)" d="M 165.918382 80.447328 
L 165.918382 86.967072 
" style="fill:none;stroke:#4c4c4c;stroke-linecap:round;stroke-width:1.5;"/>
   </g>
   <g id="line2d_45">
    <path clip-path="url(#p1995b5cd6c)" d="M 181.755534 80.447328 
L 181.755534 86.967072 
" style="fill:none;stroke:#4c4c4c;stroke-linecap:round;stroke-width:1.5;"/>
   </g>
   <g id="line2d_46"/>
   <g id="line2d_47">
    <path clip-path="url(#p1995b5cd6c)" d="M 163.612829 97.0128 
L 161.554111 97.0128 
" style="fill:none;stroke:#4c4c4c;stroke-linecap:round;stroke-width:1.5;"/>
   </g>
   <g id="line2d_48">
    <path clip-path="url(#p1995b5cd6c)" d="M 167.719199 97.0128 
L 171.708351 97.0128 
" style="fill:none;stroke:#4c4c4c;stroke-linecap:round;stroke-width:1.5;"/>
   </g>
   <g id="line2d_49">
    <path clip-path="url(#p1995b5cd6c)" d="M 161.554111 93.752928 
L 161.554111 100.272672 
" style="fill:none;stroke:#4c4c4c;stroke-linecap:round;stroke-width:1.5;"/>
   </g>
   <g id="line2d_50">
    <path clip-path="url(#p1995b5cd6c)" d="M 171.708351 93.752928 
L 171.708351 100.272672 
" style="fill:none;stroke:#4c4c4c;stroke-linecap:round;stroke-width:1.5;"/>
   </g>
   <g id="line2d_51">
    <g clip-path="url(#p1995b5cd6c)">
     <use style="fill:#4c4c4c;stroke:#4c4c4c;stroke-linejoin:miter;" x="179.806629" xlink:href="#mf0a0380e9b" y="97.0128"/>
    </g>
   </g>
   <g id="line2d_52">
    <path clip-path="url(#p1995b5cd6c)" d="M 189.60673 116.9712 
L 171.123113 116.9712 
" style="fill:none;stroke:#4c4c4c;stroke-linecap:round;stroke-width:1.5;"/>
   </g>
   <g id="line2d_53">
    <path clip-path="url(#p1995b5cd6c)" d="M 226.252353 116.9712 
L 241.850392 116.9712 
" style="fill:none;stroke:#4c4c4c;stroke-linecap:round;stroke-width:1.5;"/>
   </g>
   <g id="line2d_54">
    <path clip-path="url(#p1995b5cd6c)" d="M 171.123113 113.711328 
L 171.123113 120.231072 
" style="fill:none;stroke:#4c4c4c;stroke-linecap:round;stroke-width:1.5;"/>
   </g>
   <g id="line2d_55">
    <path clip-path="url(#p1995b5cd6c)" d="M 241.850392 113.711328 
L 241.850392 120.231072 
" style="fill:none;stroke:#4c4c4c;stroke-linecap:round;stroke-width:1.5;"/>
   </g>
   <g id="line2d_56">
    <g clip-path="url(#p1995b5cd6c)">
     <use style="fill:#4c4c4c;stroke:#4c4c4c;stroke-linejoin:miter;" x="290.061696" xlink:href="#mf0a0380e9b" y="116.9712"/>
    </g>
   </g>
   <g id="line2d_57">
    <path clip-path="url(#p1995b5cd6c)" d="M 164.286201 130.2768 
L 162.055679 130.2768 
" style="fill:none;stroke:#4c4c4c;stroke-linecap:round;stroke-width:1.5;"/>
   </g>
   <g id="line2d_58">
    <path clip-path="url(#p1995b5cd6c)" d="M 169.418815 130.2768 
L 174.773012 130.2768 
" style="fill:none;stroke:#4c4c4c;stroke-linecap:round;stroke-width:1.5;"/>
   </g>
   <g id="line2d_59">
    <path clip-path="url(#p1995b5cd6c)" d="M 162.055679 127.016928 
L 162.055679 133.536672 
" style="fill:none;stroke:#4c4c4c;stroke-linecap:round;stroke-width:1.5;"/>
   </g>
   <g id="line2d_60">
    <path clip-path="url(#p1995b5cd6c)" d="M 174.773012 127.016928 
L 174.773012 133.536672 
" style="fill:none;stroke:#4c4c4c;stroke-linecap:round;stroke-width:1.5;"/>
   </g>
   <g id="line2d_61"/>
   <g id="line2d_62">
    <path clip-path="url(#p1995b5cd6c)" d="M 202.701833 150.2352 
L 176.090487 150.2352 
" style="fill:none;stroke:#4c4c4c;stroke-linecap:round;stroke-width:1.5;"/>
   </g>
   <g id="line2d_63">
    <path clip-path="url(#p1995b5cd6c)" d="M 314.225248 150.2352 
L 359.656116 150.2352 
" style="fill:none;stroke:#4c4c4c;stroke-linecap:round;stroke-width:1.5;"/>
   </g>
   <g id="line2d_64">
    <path clip-path="url(#p1995b5cd6c)" d="M 176.090487 146.975328 
L 176.090487 153.495072 
" style="fill:none;stroke:#4c4c4c;stroke-linecap:round;stroke-width:1.5;"/>
   </g>
   <g id="line2d_65">
    <path clip-path="url(#p1995b5cd6c)" d="M 359.656116 146.975328 
L 359.656116 153.495072 
" style="fill:none;stroke:#4c4c4c;stroke-linecap:round;stroke-width:1.5;"/>
   </g>
   <g id="line2d_66">
    <g clip-path="url(#p1995b5cd6c)">
     <use style="fill:#4c4c4c;stroke:#4c4c4c;stroke-linejoin:miter;" x="506.150009" xlink:href="#mf0a0380e9b" y="150.2352"/>
     <use style="fill:#4c4c4c;stroke:#4c4c4c;stroke-linejoin:miter;" x="520.620765" xlink:href="#mf0a0380e9b" y="150.2352"/>
     <use style="fill:#4c4c4c;stroke:#4c4c4c;stroke-linejoin:miter;" x="789.853918" xlink:href="#mf0a0380e9b" y="150.2352"/>
    </g>
   </g>
   <g id="line2d_67">
    <path clip-path="url(#p1995b5cd6c)" d="M 168.443118 10.659456 
L 168.443118 23.698944 
" style="fill:none;stroke:#4c4c4c;stroke-linecap:round;stroke-width:1.5;"/>
   </g>
   <g id="line2d_68">
    <path clip-path="url(#p1995b5cd6c)" d="M 164.88855 23.965056 
L 164.88855 37.004544 
" style="fill:none;stroke:#4c4c4c;stroke-linecap:round;stroke-width:1.5;"/>
   </g>
   <g id="line2d_69">
    <path clip-path="url(#p1995b5cd6c)" d="M 171.508317 43.923456 
L 171.508317 56.962944 
" style="fill:none;stroke:#4c4c4c;stroke-linecap:round;stroke-width:1.5;"/>
   </g>
   <g id="line2d_70">
    <path clip-path="url(#p1995b5cd6c)" d="M 164.678436 57.229056 
L 164.678436 70.268544 
" style="fill:none;stroke:#4c4c4c;stroke-linecap:round;stroke-width:1.5;"/>
   </g>
   <g id="line2d_71">
    <path clip-path="url(#p1995b5cd6c)" d="M 169.726123 77.187456 
L 169.726123 90.226944 
" style="fill:none;stroke:#4c4c4c;stroke-linecap:round;stroke-width:1.5;"/>
   </g>
   <g id="line2d_72">
    <path clip-path="url(#p1995b5cd6c)" d="M 165.351276 90.493056 
L 165.351276 103.532544 
" style="fill:none;stroke:#4c4c4c;stroke-linecap:round;stroke-width:1.5;"/>
   </g>
   <g id="line2d_73">
    <path clip-path="url(#p1995b5cd6c)" d="M 206.327559 110.451456 
L 206.327559 123.490944 
" style="fill:none;stroke:#4c4c4c;stroke-linecap:round;stroke-width:1.5;"/>
   </g>
   <g id="line2d_74">
    <path clip-path="url(#p1995b5cd6c)" d="M 165.728321 123.757056 
L 165.728321 136.796544 
" style="fill:none;stroke:#4c4c4c;stroke-linecap:round;stroke-width:1.5;"/>
   </g>
   <g id="line2d_75">
    <path clip-path="url(#p1995b5cd6c)" d="M 241.074802 143.715456 
L 241.074802 156.754944 
" style="fill:none;stroke:#4c4c4c;stroke-linecap:round;stroke-width:1.5;"/>
   </g>
   <g id="patch_14">
    <path d="M 151.722188 173.52 
L 151.722188 7.2 
" style="fill:none;stroke:#262626;stroke-linecap:square;stroke-linejoin:miter;stroke-width:1.25;"/>
   </g>
   <g id="patch_15">
    <path d="M 821.322188 173.52 
L 821.322188 7.2 
" style="fill:none;stroke:#262626;stroke-linecap:square;stroke-linejoin:miter;stroke-width:1.25;"/>
   </g>
   <g id="patch_16">
    <path d="M 151.722188 173.52 
L 821.322188 173.52 
" style="fill:none;stroke:#262626;stroke-linecap:square;stroke-linejoin:miter;stroke-width:1.25;"/>
   </g>
   <g id="patch_17">
    <path d="M 151.722188 7.2 
L 821.322188 7.2 
" style="fill:none;stroke:#262626;stroke-linecap:square;stroke-linejoin:miter;stroke-width:1.25;"/>
   </g>
   <g id="PathCollection_3">
    <defs>
     <path d="M 0 1.5 
C 0.397805 1.5 0.77937 1.341951 1.06066 1.06066 
C 1.341951 0.77937 1.5 0.397805 1.5 -0 
C 1.5 -0.397805 1.341951 -0.77937 1.06066 -1.06066 
C 0.77937 -1.341951 0.397805 -1.5 0 -1.5 
C -0.397805 -1.5 -0.77937 -1.341951 -1.06066 -1.06066 
C -1.341951 -0.77937 -1.5 -0.397805 -1.5 0 
C -1.5 0.397805 -1.341951 0.77937 -1.06066 1.06066 
C -0.77937 1.341951 -0.397805 1.5 0 1.5 
z
" id="C0_0_83165c246c"/>
    </defs>
    <g clip-path="url(#p1995b5cd6c)">
     <use style="fill:#dd8452;fill-opacity:0.5;" x="160.623604" xlink:href="#C0_0_83165c246c" y="23.832"/>
    </g>
    <g clip-path="url(#p1995b5cd6c)">
     <use style="fill:#dd8452;fill-opacity:0.5;" x="161.23165" xlink:href="#C0_0_83165c246c" y="20.74312"/>
    </g>
    <g clip-path="url(#p1995b5cd6c)">
     <use style="fill:#dd8452;fill-opacity:0.5;" x="161.442656" xlink:href="#C0_0_83165c246c" y="26.870191"/>
    </g>
    <g clip-path="url(#p1995b5cd6c)">
     <use style="fill:#dd8452;fill-opacity:0.5;" x="161.973762" xlink:href="#C0_0_83165c246c" y="29.973669"/>
    </g>
    <g clip-path="url(#p1995b5cd6c)">
     <use style="fill:#dd8452;fill-opacity:0.5;" x="162.926711" xlink:href="#C0_0_83165c246c" y="18.105108"/>
    </g>
    <g clip-path="url(#p1995b5cd6c)">
     <use style="fill:#dd8452;fill-opacity:0.5;" x="163.215356" xlink:href="#C0_0_83165c246c" y="14.968778"/>
    </g>
    <g clip-path="url(#p1995b5cd6c)">
     <use style="fill:#dd8452;fill-opacity:0.5;" x="163.710154" xlink:href="#C0_0_83165c246c" y="23.520933"/>
    </g>
    <g clip-path="url(#p1995b5cd6c)">
     <use style="fill:#dd8452;fill-opacity:0.5;" x="164.88855" xlink:href="#C0_0_83165c246c" y="26.434747"/>
    </g>
    <g clip-path="url(#p1995b5cd6c)">
     <use style="fill:#dd8452;fill-opacity:0.5;" x="164.964199" xlink:href="#C0_0_83165c246c" y="20.639871"/>
    </g>
    <g clip-path="url(#p1995b5cd6c)">
     <use style="fill:#4c72b0;fill-opacity:0.5;" x="166.349284" xlink:href="#C0_0_83165c246c" y="29.21356"/>
    </g>
    <g clip-path="url(#p1995b5cd6c)">
     <use style="fill:#4c72b0;fill-opacity:0.5;" x="166.391815" xlink:href="#C0_0_83165c246c" y="17.843362"/>
    </g>
    <g clip-path="url(#p1995b5cd6c)">
     <use style="fill:#4c72b0;fill-opacity:0.5;" x="166.40794" xlink:href="#C0_0_83165c246c" y="32.362997"/>
    </g>
    <g clip-path="url(#p1995b5cd6c)">
     <use style="fill:#4c72b0;fill-opacity:0.5;" x="166.552309" xlink:href="#C0_0_83165c246c" y="14.697582"/>
    </g>
    <g clip-path="url(#p1995b5cd6c)">
     <use style="fill:#dd8452;fill-opacity:0.5;" x="167.18129" xlink:href="#C0_0_83165c246c" y="23.832"/>
    </g>
    <g clip-path="url(#p1995b5cd6c)">
     <use style="fill:#4c72b0;fill-opacity:0.5;" x="167.196634" xlink:href="#C0_0_83165c246c" y="35.40946"/>
    </g>
    <g clip-path="url(#p1995b5cd6c)">
     <use style="fill:#4c72b0;fill-opacity:0.5;" x="167.378841" xlink:href="#C0_0_83165c246c" y="11.661481"/>
    </g>
    <g clip-path="url(#p1995b5cd6c)">
     <use style="fill:#4c72b0;fill-opacity:0.5;" x="167.895238" xlink:href="#C0_0_83165c246c" y="37.1376"/>
    </g>
    <g clip-path="url(#p1995b5cd6c)">
     <use style="fill:#4c72b0;fill-opacity:0.5;" x="168.443118" xlink:href="#C0_0_83165c246c" y="20.954444"/>
    </g>
    <g clip-path="url(#p1995b5cd6c)">
     <use style="fill:#4c72b0;fill-opacity:0.5;" x="168.712262" xlink:href="#C0_0_83165c246c" y="26.571539"/>
    </g>
    <g clip-path="url(#p1995b5cd6c)">
     <use style="fill:#dd8452;fill-opacity:0.5;" x="168.907116" xlink:href="#C0_0_83165c246c" y="10.5264"/>
    </g>
    <g clip-path="url(#p1995b5cd6c)">
     <use style="fill:#4c72b0;fill-opacity:0.5;" x="169.004879" xlink:href="#C0_0_83165c246c" y="37.1376"/>
    </g>
    <g clip-path="url(#p1995b5cd6c)">
     <use style="fill:#dd8452;fill-opacity:0.5;" x="169.866083" xlink:href="#C0_0_83165c246c" y="29.495478"/>
    </g>
    <g clip-path="url(#p1995b5cd6c)">
     <use style="fill:#4c72b0;fill-opacity:0.5;" x="171.098206" xlink:href="#C0_0_83165c246c" y="23.832"/>
    </g>
    <g clip-path="url(#p1995b5cd6c)">
     <use style="fill:#dd8452;fill-opacity:0.5;" x="171.18116" xlink:href="#C0_0_83165c246c" y="19.474452"/>
    </g>
    <g clip-path="url(#p1995b5cd6c)">
     <use style="fill:#4c72b0;fill-opacity:0.5;" x="173.436201" xlink:href="#C0_0_83165c246c" y="21.762035"/>
    </g>
    <g clip-path="url(#p1995b5cd6c)">
     <use style="fill:#4c72b0;fill-opacity:0.5;" x="179.310738" xlink:href="#C0_0_83165c246c" y="23.832"/>
    </g>
    <g clip-path="url(#p1995b5cd6c)">
     <use style="fill:#4c72b0;fill-opacity:0.5;" x="182.272337" xlink:href="#C0_0_83165c246c" y="22.895945"/>
    </g>
    <g clip-path="url(#p1995b5cd6c)">
     <use style="fill:#4c72b0;fill-opacity:0.5;" x="183.022348" xlink:href="#C0_0_83165c246c" y="25.952468"/>
    </g>
    <g clip-path="url(#p1995b5cd6c)">
     <use style="fill:#dd8452;fill-opacity:0.5;" x="187.934195" xlink:href="#C0_0_83165c246c" y="23.832"/>
    </g>
    <g clip-path="url(#p1995b5cd6c)">
     <use style="fill:#dd8452;fill-opacity:0.5;" x="189.586094" xlink:href="#C0_0_83165c246c" y="21.165897"/>
    </g>
   </g>
   <g id="PathCollection_4">
    <defs>
     <path d="M 0 1.5 
C 0.397805 1.5 0.77937 1.341951 1.06066 1.06066 
C 1.341951 0.77937 1.5 0.397805 1.5 -0 
C 1.5 -0.397805 1.341951 -0.77937 1.06066 -1.06066 
C 0.77937 -1.341951 0.397805 -1.5 0 -1.5 
C -0.397805 -1.5 -0.77937 -1.341951 -1.06066 -1.06066 
C -1.341951 -0.77937 -1.5 -0.397805 -1.5 0 
C -1.5 0.397805 -1.341951 0.77937 -1.06066 1.06066 
C -0.77937 1.341951 -0.397805 1.5 0 1.5 
z
" id="C1_0_1a5ae096e7"/>
    </defs>
    <g clip-path="url(#p1995b5cd6c)">
     <use style="fill:#dd8452;fill-opacity:0.5;" x="160.48853" xlink:href="#C1_0_1a5ae096e7" y="57.096"/>
    </g>
    <g clip-path="url(#p1995b5cd6c)">
     <use style="fill:#dd8452;fill-opacity:0.5;" x="160.886891" xlink:href="#C1_0_1a5ae096e7" y="53.972088"/>
    </g>
    <g clip-path="url(#p1995b5cd6c)">
     <use style="fill:#dd8452;fill-opacity:0.5;" x="161.892142" xlink:href="#C1_0_1a5ae096e7" y="59.905013"/>
    </g>
    <g clip-path="url(#p1995b5cd6c)">
     <use style="fill:#dd8452;fill-opacity:0.5;" x="162.29801" xlink:href="#C1_0_1a5ae096e7" y="51.166957"/>
    </g>
    <g clip-path="url(#p1995b5cd6c)">
     <use style="fill:#dd8452;fill-opacity:0.5;" x="162.664562" xlink:href="#C1_0_1a5ae096e7" y="62.955774"/>
    </g>
    <g clip-path="url(#p1995b5cd6c)">
     <use style="fill:#dd8452;fill-opacity:0.5;" x="163.794265" xlink:href="#C1_0_1a5ae096e7" y="57.096"/>
    </g>
    <g clip-path="url(#p1995b5cd6c)">
     <use style="fill:#dd8452;fill-opacity:0.5;" x="164.170707" xlink:href="#C1_0_1a5ae096e7" y="53.969285"/>
    </g>
    <g clip-path="url(#p1995b5cd6c)">
     <use style="fill:#dd8452;fill-opacity:0.5;" x="164.678436" xlink:href="#C1_0_1a5ae096e7" y="49.147486"/>
    </g>
    <g clip-path="url(#p1995b5cd6c)">
     <use style="fill:#dd8452;fill-opacity:0.5;" x="164.880435" xlink:href="#C1_0_1a5ae096e7" y="60.749043"/>
    </g>
    <g clip-path="url(#p1995b5cd6c)">
     <use style="fill:#dd8452;fill-opacity:0.5;" x="164.941358" xlink:href="#C1_0_1a5ae096e7" y="65.094941"/>
    </g>
    <g clip-path="url(#p1995b5cd6c)">
     <use style="fill:#dd8452;fill-opacity:0.5;" x="165.039931" xlink:href="#C1_0_1a5ae096e7" y="46.018953"/>
    </g>
    <g clip-path="url(#p1995b5cd6c)">
     <use style="fill:#dd8452;fill-opacity:0.5;" x="165.182052" xlink:href="#C1_0_1a5ae096e7" y="68.235442"/>
    </g>
    <g clip-path="url(#p1995b5cd6c)">
     <use style="fill:#dd8452;fill-opacity:0.5;" x="165.736221" xlink:href="#C1_0_1a5ae096e7" y="43.7904"/>
    </g>
    <g clip-path="url(#p1995b5cd6c)">
     <use style="fill:#dd8452;fill-opacity:0.5;" x="166.766965" xlink:href="#C1_0_1a5ae096e7" y="56.196967"/>
    </g>
    <g clip-path="url(#p1995b5cd6c)">
     <use style="fill:#4c72b0;fill-opacity:0.5;" x="167.165794" xlink:href="#C1_0_1a5ae096e7" y="53.150467"/>
    </g>
    <g clip-path="url(#p1995b5cd6c)">
     <use style="fill:#dd8452;fill-opacity:0.5;" x="168.076238" xlink:href="#C1_0_1a5ae096e7" y="59.052578"/>
    </g>
    <g clip-path="url(#p1995b5cd6c)">
     <use style="fill:#4c72b0;fill-opacity:0.5;" x="168.178973" xlink:href="#C1_0_1a5ae096e7" y="62.20085"/>
    </g>
    <g clip-path="url(#p1995b5cd6c)">
     <use style="fill:#4c72b0;fill-opacity:0.5;" x="168.244854" xlink:href="#C1_0_1a5ae096e7" y="50.197233"/>
    </g>
    <g clip-path="url(#p1995b5cd6c)">
     <use style="fill:#4c72b0;fill-opacity:0.5;" x="168.890263" xlink:href="#C1_0_1a5ae096e7" y="65.266904"/>
    </g>
    <g clip-path="url(#p1995b5cd6c)">
     <use style="fill:#4c72b0;fill-opacity:0.5;" x="169.548475" xlink:href="#C1_0_1a5ae096e7" y="47.338956"/>
    </g>
    <g clip-path="url(#p1995b5cd6c)">
     <use style="fill:#4c72b0;fill-opacity:0.5;" x="169.767578" xlink:href="#C1_0_1a5ae096e7" y="55.399291"/>
    </g>
    <g clip-path="url(#p1995b5cd6c)">
     <use style="fill:#4c72b0;fill-opacity:0.5;" x="170.83178" xlink:href="#C1_0_1a5ae096e7" y="60.498685"/>
    </g>
    <g clip-path="url(#p1995b5cd6c)">
     <use style="fill:#4c72b0;fill-opacity:0.5;" x="171.508317" xlink:href="#C1_0_1a5ae096e7" y="52.792138"/>
    </g>
    <g clip-path="url(#p1995b5cd6c)">
     <use style="fill:#4c72b0;fill-opacity:0.5;" x="171.509394" xlink:href="#C1_0_1a5ae096e7" y="63.572596"/>
    </g>
    <g clip-path="url(#p1995b5cd6c)">
     <use style="fill:#4c72b0;fill-opacity:0.5;" x="174.644773" xlink:href="#C1_0_1a5ae096e7" y="57.096"/>
    </g>
    <g clip-path="url(#p1995b5cd6c)">
     <use style="fill:#4c72b0;fill-opacity:0.5;" x="175.009629" xlink:href="#C1_0_1a5ae096e7" y="53.967869"/>
    </g>
    <g clip-path="url(#p1995b5cd6c)">
     <use style="fill:#4c72b0;fill-opacity:0.5;" x="175.139848" xlink:href="#C1_0_1a5ae096e7" y="60.205616"/>
    </g>
    <g clip-path="url(#p1995b5cd6c)">
     <use style="fill:#4c72b0;fill-opacity:0.5;" x="175.158753" xlink:href="#C1_0_1a5ae096e7" y="63.355557"/>
    </g>
    <g clip-path="url(#p1995b5cd6c)">
     <use style="fill:#4c72b0;fill-opacity:0.5;" x="176.598753" xlink:href="#C1_0_1a5ae096e7" y="51.2627"/>
    </g>
    <g clip-path="url(#p1995b5cd6c)">
     <use style="fill:#4c72b0;fill-opacity:0.5;" x="177.471248" xlink:href="#C1_0_1a5ae096e7" y="55.798752"/>
    </g>
   </g>
   <g id="PathCollection_5">
    <defs>
     <path d="M 0 1.5 
C 0.397805 1.5 0.77937 1.341951 1.06066 1.06066 
C 1.341951 0.77937 1.5 0.397805 1.5 -0 
C 1.5 -0.397805 1.341951 -0.77937 1.06066 -1.06066 
C 0.77937 -1.341951 0.397805 -1.5 0 -1.5 
C -0.397805 -1.5 -0.77937 -1.341951 -1.06066 -1.06066 
C -1.341951 -0.77937 -1.5 -0.397805 -1.5 0 
C -1.5 0.397805 -1.341951 0.77937 -1.06066 1.06066 
C -0.77937 1.341951 -0.397805 1.5 0 1.5 
z
" id="C2_0_abdded1744"/>
    </defs>
    <g clip-path="url(#p1995b5cd6c)">
     <use style="fill:#dd8452;fill-opacity:0.5;" x="161.554111" xlink:href="#C2_0_abdded1744" y="90.36"/>
    </g>
    <g clip-path="url(#p1995b5cd6c)">
     <use style="fill:#dd8452;fill-opacity:0.5;" x="162.143818" xlink:href="#C2_0_abdded1744" y="87.267455"/>
    </g>
    <g clip-path="url(#p1995b5cd6c)">
     <use style="fill:#dd8452;fill-opacity:0.5;" x="162.669952" xlink:href="#C2_0_abdded1744" y="93.299103"/>
    </g>
    <g clip-path="url(#p1995b5cd6c)">
     <use style="fill:#dd8452;fill-opacity:0.5;" x="163.43716" xlink:href="#C2_0_abdded1744" y="84.404366"/>
    </g>
    <g clip-path="url(#p1995b5cd6c)">
     <use style="fill:#dd8452;fill-opacity:0.5;" x="163.788499" xlink:href="#C2_0_abdded1744" y="96.237145"/>
    </g>
    <g clip-path="url(#p1995b5cd6c)">
     <use style="fill:#dd8452;fill-opacity:0.5;" x="164.52388" xlink:href="#C2_0_abdded1744" y="89.451032"/>
    </g>
    <g clip-path="url(#p1995b5cd6c)">
     <use style="fill:#dd8452;fill-opacity:0.5;" x="164.572322" xlink:href="#C2_0_abdded1744" y="81.472904"/>
    </g>
    <g clip-path="url(#p1995b5cd6c)">
     <use style="fill:#dd8452;fill-opacity:0.5;" x="165.351276" xlink:href="#C2_0_abdded1744" y="98.9581"/>
    </g>
    <g clip-path="url(#p1995b5cd6c)">
     <use style="fill:#dd8452;fill-opacity:0.5;" x="165.904789" xlink:href="#C2_0_abdded1744" y="92.271627"/>
    </g>
    <g clip-path="url(#p1995b5cd6c)">
     <use style="fill:#4c72b0;fill-opacity:0.5;" x="165.918382" xlink:href="#C2_0_abdded1744" y="86.637344"/>
    </g>
    <g clip-path="url(#p1995b5cd6c)">
     <use style="fill:#4c72b0;fill-opacity:0.5;" x="165.983562" xlink:href="#C2_0_abdded1744" y="102.041956"/>
    </g>
    <g clip-path="url(#p1995b5cd6c)">
     <use style="fill:#dd8452;fill-opacity:0.5;" x="166.210745" xlink:href="#C2_0_abdded1744" y="78.798239"/>
    </g>
    <g clip-path="url(#p1995b5cd6c)">
     <use style="fill:#4c72b0;fill-opacity:0.5;" x="166.479281" xlink:href="#C2_0_abdded1744" y="77.0544"/>
    </g>
    <g clip-path="url(#p1995b5cd6c)">
     <use style="fill:#4c72b0;fill-opacity:0.5;" x="166.693664" xlink:href="#C2_0_abdded1744" y="103.6656"/>
    </g>
    <g clip-path="url(#p1995b5cd6c)">
     <use style="fill:#dd8452;fill-opacity:0.5;" x="167.465068" xlink:href="#C2_0_abdded1744" y="94.994059"/>
    </g>
    <g clip-path="url(#p1995b5cd6c)">
     <use style="fill:#dd8452;fill-opacity:0.5;" x="167.973331" xlink:href="#C2_0_abdded1744" y="89.924422"/>
    </g>
    <g clip-path="url(#p1995b5cd6c)">
     <use style="fill:#4c72b0;fill-opacity:0.5;" x="168.279956" xlink:href="#C2_0_abdded1744" y="84.595172"/>
    </g>
    <g clip-path="url(#p1995b5cd6c)">
     <use style="fill:#4c72b0;fill-opacity:0.5;" x="168.96438" xlink:href="#C2_0_abdded1744" y="97.751598"/>
    </g>
    <g clip-path="url(#p1995b5cd6c)">
     <use style="fill:#4c72b0;fill-opacity:0.5;" x="169.582225" xlink:href="#C2_0_abdded1744" y="92.617512"/>
    </g>
    <g clip-path="url(#p1995b5cd6c)">
     <use style="fill:#4c72b0;fill-opacity:0.5;" x="169.726123" xlink:href="#C2_0_abdded1744" y="87.381832"/>
    </g>
    <g clip-path="url(#p1995b5cd6c)">
     <use style="fill:#dd8452;fill-opacity:0.5;" x="170.071402" xlink:href="#C2_0_abdded1744" y="82.023691"/>
    </g>
    <g clip-path="url(#p1995b5cd6c)">
     <use style="fill:#4c72b0;fill-opacity:0.5;" x="171.377713" xlink:href="#C2_0_abdded1744" y="90.048939"/>
    </g>
    <g clip-path="url(#p1995b5cd6c)">
     <use style="fill:#dd8452;fill-opacity:0.5;" x="171.708351" xlink:href="#C2_0_abdded1744" y="94.911034"/>
    </g>
    <g clip-path="url(#p1995b5cd6c)">
     <use style="fill:#4c72b0;fill-opacity:0.5;" x="172.38462" xlink:href="#C2_0_abdded1744" y="85.759145"/>
    </g>
    <g clip-path="url(#p1995b5cd6c)">
     <use style="fill:#4c72b0;fill-opacity:0.5;" x="173.784095" xlink:href="#C2_0_abdded1744" y="92.036429"/>
    </g>
    <g clip-path="url(#p1995b5cd6c)">
     <use style="fill:#4c72b0;fill-opacity:0.5;" x="173.825961" xlink:href="#C2_0_abdded1744" y="97.212666"/>
    </g>
    <g clip-path="url(#p1995b5cd6c)">
     <use style="fill:#4c72b0;fill-opacity:0.5;" x="173.875218" xlink:href="#C2_0_abdded1744" y="82.996737"/>
    </g>
    <g clip-path="url(#p1995b5cd6c)">
     <use style="fill:#4c72b0;fill-opacity:0.5;" x="174.806881" xlink:href="#C2_0_abdded1744" y="89.062613"/>
    </g>
    <g clip-path="url(#p1995b5cd6c)">
     <use style="fill:#dd8452;fill-opacity:0.5;" x="179.806629" xlink:href="#C2_0_abdded1744" y="90.36"/>
    </g>
    <g clip-path="url(#p1995b5cd6c)">
     <use style="fill:#4c72b0;fill-opacity:0.5;" x="181.755534" xlink:href="#C2_0_abdded1744" y="87.909473"/>
    </g>
   </g>
   <g id="PathCollection_6">
    <defs>
     <path d="M 0 1.5 
C 0.397805 1.5 0.77937 1.341951 1.06066 1.06066 
C 1.341951 0.77937 1.5 0.397805 1.5 -0 
C 1.5 -0.397805 1.341951 -0.77937 1.06066 -1.06066 
C 0.77937 -1.341951 0.397805 -1.5 0 -1.5 
C -0.397805 -1.5 -0.77937 -1.341951 -1.06066 -1.06066 
C -1.341951 -0.77937 -1.5 -0.397805 -1.5 0 
C -1.5 0.397805 -1.341951 0.77937 -1.06066 1.06066 
C -0.77937 1.341951 -0.397805 1.5 0 1.5 
z
" id="C3_0_0a22626f34"/>
    </defs>
    <g clip-path="url(#p1995b5cd6c)">
     <use style="fill:#dd8452;fill-opacity:0.5;" x="162.055679" xlink:href="#C3_0_0a22626f34" y="123.624"/>
    </g>
    <g clip-path="url(#p1995b5cd6c)">
     <use style="fill:#dd8452;fill-opacity:0.5;" x="162.145031" xlink:href="#C3_0_0a22626f34" y="120.475307"/>
    </g>
    <g clip-path="url(#p1995b5cd6c)">
     <use style="fill:#dd8452;fill-opacity:0.5;" x="163.678985" xlink:href="#C3_0_0a22626f34" y="126.308155"/>
    </g>
    <g clip-path="url(#p1995b5cd6c)">
     <use style="fill:#dd8452;fill-opacity:0.5;" x="164.285987" xlink:href="#C3_0_0a22626f34" y="118.196058"/>
    </g>
    <g clip-path="url(#p1995b5cd6c)">
     <use style="fill:#dd8452;fill-opacity:0.5;" x="164.286414" xlink:href="#C3_0_0a22626f34" y="129.39716"/>
    </g>
    <g clip-path="url(#p1995b5cd6c)">
     <use style="fill:#dd8452;fill-opacity:0.5;" x="164.808681" xlink:href="#C3_0_0a22626f34" y="122.172911"/>
    </g>
    <g clip-path="url(#p1995b5cd6c)">
     <use style="fill:#dd8452;fill-opacity:0.5;" x="165.317741" xlink:href="#C3_0_0a22626f34" y="115.225439"/>
    </g>
    <g clip-path="url(#p1995b5cd6c)">
     <use style="fill:#dd8452;fill-opacity:0.5;" x="165.728321" xlink:href="#C3_0_0a22626f34" y="132.186097"/>
    </g>
    <g clip-path="url(#p1995b5cd6c)">
     <use style="fill:#dd8452;fill-opacity:0.5;" x="165.967537" xlink:href="#C3_0_0a22626f34" y="112.145339"/>
    </g>
    <g clip-path="url(#p1995b5cd6c)">
     <use style="fill:#dd8452;fill-opacity:0.5;" x="166.644776" xlink:href="#C3_0_0a22626f34" y="124.711704"/>
    </g>
    <g clip-path="url(#p1995b5cd6c)">
     <use style="fill:#dd8452;fill-opacity:0.5;" x="168.919978" xlink:href="#C3_0_0a22626f34" y="122.570789"/>
    </g>
    <g clip-path="url(#p1995b5cd6c)">
     <use style="fill:#dd8452;fill-opacity:0.5;" x="169.917651" xlink:href="#C3_0_0a22626f34" y="125.553391"/>
    </g>
    <g clip-path="url(#p1995b5cd6c)">
     <use style="fill:#dd8452;fill-opacity:0.5;" x="170.655887" xlink:href="#C3_0_0a22626f34" y="119.960317"/>
    </g>
    <g clip-path="url(#p1995b5cd6c)">
     <use style="fill:#4c72b0;fill-opacity:0.5;" x="171.123113" xlink:href="#C3_0_0a22626f34" y="128.455763"/>
    </g>
    <g clip-path="url(#p1995b5cd6c)">
     <use style="fill:#dd8452;fill-opacity:0.5;" x="173.96507" xlink:href="#C3_0_0a22626f34" y="123.624"/>
    </g>
    <g clip-path="url(#p1995b5cd6c)">
     <use style="fill:#dd8452;fill-opacity:0.5;" x="174.773012" xlink:href="#C3_0_0a22626f34" y="120.582743"/>
    </g>
    <g clip-path="url(#p1995b5cd6c)">
     <use style="fill:#4c72b0;fill-opacity:0.5;" x="177.028093" xlink:href="#C3_0_0a22626f34" y="123.128034"/>
    </g>
    <g clip-path="url(#p1995b5cd6c)">
     <use style="fill:#4c72b0;fill-opacity:0.5;" x="180.019698" xlink:href="#C3_0_0a22626f34" y="123.959882"/>
    </g>
    <g clip-path="url(#p1995b5cd6c)">
     <use style="fill:#4c72b0;fill-opacity:0.5;" x="186.529092" xlink:href="#C3_0_0a22626f34" y="123.624"/>
    </g>
    <g clip-path="url(#p1995b5cd6c)">
     <use style="fill:#4c72b0;fill-opacity:0.5;" x="192.684368" xlink:href="#C3_0_0a22626f34" y="123.624"/>
    </g>
    <g clip-path="url(#p1995b5cd6c)">
     <use style="fill:#4c72b0;fill-opacity:0.5;" x="195.040075" xlink:href="#C3_0_0a22626f34" y="121.574852"/>
    </g>
    <g clip-path="url(#p1995b5cd6c)">
     <use style="fill:#4c72b0;fill-opacity:0.5;" x="201.799191" xlink:href="#C3_0_0a22626f34" y="123.624"/>
    </g>
    <g clip-path="url(#p1995b5cd6c)">
     <use style="fill:#4c72b0;fill-opacity:0.5;" x="206.327559" xlink:href="#C3_0_0a22626f34" y="123.624"/>
    </g>
    <g clip-path="url(#p1995b5cd6c)">
     <use style="fill:#4c72b0;fill-opacity:0.5;" x="207.652788" xlink:href="#C3_0_0a22626f34" y="120.77599"/>
    </g>
    <g clip-path="url(#p1995b5cd6c)">
     <use style="fill:#4c72b0;fill-opacity:0.5;" x="219.987335" xlink:href="#C3_0_0a22626f34" y="123.624"/>
    </g>
    <g clip-path="url(#p1995b5cd6c)">
     <use style="fill:#4c72b0;fill-opacity:0.5;" x="225.736256" xlink:href="#C3_0_0a22626f34" y="123.624"/>
    </g>
    <g clip-path="url(#p1995b5cd6c)">
     <use style="fill:#4c72b0;fill-opacity:0.5;" x="226.76845" xlink:href="#C3_0_0a22626f34" y="120.653538"/>
    </g>
    <g clip-path="url(#p1995b5cd6c)">
     <use style="fill:#4c72b0;fill-opacity:0.5;" x="228.237733" xlink:href="#C3_0_0a22626f34" y="125.486462"/>
    </g>
    <g clip-path="url(#p1995b5cd6c)">
     <use style="fill:#4c72b0;fill-opacity:0.5;" x="241.850392" xlink:href="#C3_0_0a22626f34" y="123.624"/>
    </g>
    <g clip-path="url(#p1995b5cd6c)">
     <use style="fill:#4c72b0;fill-opacity:0.5;" x="290.061696" xlink:href="#C3_0_0a22626f34" y="123.624"/>
    </g>
   </g>
   <g id="PathCollection_7">
    <defs>
     <path d="M 0 1.5 
C 0.397805 1.5 0.77937 1.341951 1.06066 1.06066 
C 1.341951 0.77937 1.5 0.397805 1.5 -0 
C 1.5 -0.397805 1.341951 -0.77937 1.06066 -1.06066 
C 0.77937 -1.341951 0.397805 -1.5 0 -1.5 
C -0.397805 -1.5 -0.77937 -1.341951 -1.06066 -1.06066 
C -1.341951 -0.77937 -1.5 -0.397805 -1.5 0 
C -1.5 0.397805 -1.341951 0.77937 -1.06066 1.06066 
C -0.77937 1.341951 -0.397805 1.5 0 1.5 
z
" id="C4_0_4947d3f073"/>
    </defs>
    <g clip-path="url(#p1995b5cd6c)">
     <use style="fill:#4c72b0;fill-opacity:0.5;" x="176.090487" xlink:href="#C4_0_4947d3f073" y="156.888"/>
    </g>
    <g clip-path="url(#p1995b5cd6c)">
     <use style="fill:#4c72b0;fill-opacity:0.5;" x="182.302675" xlink:href="#C4_0_4947d3f073" y="156.888"/>
    </g>
    <g clip-path="url(#p1995b5cd6c)">
     <use style="fill:#4c72b0;fill-opacity:0.5;" x="196.146776" xlink:href="#C4_0_4947d3f073" y="156.888"/>
    </g>
    <g clip-path="url(#p1995b5cd6c)">
     <use style="fill:#4c72b0;fill-opacity:0.5;" x="201.0822" xlink:href="#C4_0_4947d3f073" y="156.888"/>
    </g>
    <g clip-path="url(#p1995b5cd6c)">
     <use style="fill:#4c72b0;fill-opacity:0.5;" x="204.321467" xlink:href="#C4_0_4947d3f073" y="156.888"/>
    </g>
    <g clip-path="url(#p1995b5cd6c)">
     <use style="fill:#4c72b0;fill-opacity:0.5;" x="209.235921" xlink:href="#C4_0_4947d3f073" y="156.888"/>
    </g>
    <g clip-path="url(#p1995b5cd6c)">
     <use style="fill:#4c72b0;fill-opacity:0.5;" x="214.198691" xlink:href="#C4_0_4947d3f073" y="156.888"/>
    </g>
    <g clip-path="url(#p1995b5cd6c)">
     <use style="fill:#4c72b0;fill-opacity:0.5;" x="241.074802" xlink:href="#C4_0_4947d3f073" y="156.888"/>
    </g>
    <g clip-path="url(#p1995b5cd6c)">
     <use style="fill:#4c72b0;fill-opacity:0.5;" x="252.639593" xlink:href="#C4_0_4947d3f073" y="156.888"/>
    </g>
    <g clip-path="url(#p1995b5cd6c)">
     <use style="fill:#4c72b0;fill-opacity:0.5;" x="260.339544" xlink:href="#C4_0_4947d3f073" y="156.888"/>
    </g>
    <g clip-path="url(#p1995b5cd6c)">
     <use style="fill:#4c72b0;fill-opacity:0.5;" x="268.794381" xlink:href="#C4_0_4947d3f073" y="156.888"/>
    </g>
    <g clip-path="url(#p1995b5cd6c)">
     <use style="fill:#4c72b0;fill-opacity:0.5;" x="359.656116" xlink:href="#C4_0_4947d3f073" y="156.888"/>
    </g>
    <g clip-path="url(#p1995b5cd6c)">
     <use style="fill:#4c72b0;fill-opacity:0.5;" x="506.150009" xlink:href="#C4_0_4947d3f073" y="156.888"/>
    </g>
    <g clip-path="url(#p1995b5cd6c)">
     <use style="fill:#4c72b0;fill-opacity:0.5;" x="520.620765" xlink:href="#C4_0_4947d3f073" y="156.888"/>
    </g>
    <g clip-path="url(#p1995b5cd6c)">
     <use style="fill:#4c72b0;fill-opacity:0.5;" x="789.853918" xlink:href="#C4_0_4947d3f073" y="156.888"/>
    </g>
   </g>
   <g id="legend_1">
    <g id="patch_18">
     <path d="M 715.617344 97.6975 
L 813.622188 97.6975 
Q 815.822188 97.6975 815.822188 95.4975 
L 815.822188 14.9 
Q 815.822188 12.7 813.622188 12.7 
L 715.617344 12.7 
Q 713.417344 12.7 713.417344 14.9 
L 713.417344 95.4975 
Q 713.417344 97.6975 715.617344 97.6975 
z
" style="fill:#ffffff;opacity:0.8;stroke:#cccccc;stroke-linejoin:miter;"/>
    </g>
    <g id="text_16">
     <!-- Application -->
     <g style="fill:#262626;" transform="translate(731.094766 26.218125)scale(0.12 -0.12)">
      <use xlink:href="#DejaVuSans-65"/>
      <use x="68.408203" xlink:href="#DejaVuSans-112"/>
      <use x="131.884766" xlink:href="#DejaVuSans-112"/>
      <use x="195.361328" xlink:href="#DejaVuSans-108"/>
      <use x="223.144531" xlink:href="#DejaVuSans-105"/>
      <use x="250.927734" xlink:href="#DejaVuSans-99"/>
      <use x="305.908203" xlink:href="#DejaVuSans-97"/>
      <use x="367.1875" xlink:href="#DejaVuSans-116"/>
      <use x="406.396484" xlink:href="#DejaVuSans-105"/>
      <use x="434.179688" xlink:href="#DejaVuSans-111"/>
      <use x="495.361328" xlink:href="#DejaVuSans-110"/>
     </g>
    </g>
    <g id="patch_19">
     <path d="M 717.817344 42.572031 
L 739.817344 42.572031 
L 739.817344 34.872031 
L 717.817344 34.872031 
z
" style="fill:#5875a4;stroke:#4c4c4c;stroke-linejoin:miter;stroke-width:0.75;"/>
    </g>
    <g id="text_17">
     <!-- PostgreSQL -->
     <g style="fill:#262626;" transform="translate(748.617344 42.572031)scale(0.11 -0.11)">
      <defs>
       <path d="M 45.40625 27.984375 
Q 45.40625 37.75 41.375 43.109375 
Q 37.359375 48.484375 30.078125 48.484375 
Q 22.859375 48.484375 18.828125 43.109375 
Q 14.796875 37.75 14.796875 27.984375 
Q 14.796875 18.265625 18.828125 12.890625 
Q 22.859375 7.515625 30.078125 7.515625 
Q 37.359375 7.515625 41.375 12.890625 
Q 45.40625 18.265625 45.40625 27.984375 
z
M 54.390625 6.78125 
Q 54.390625 -7.171875 48.1875 -13.984375 
Q 42 -20.796875 29.203125 -20.796875 
Q 24.46875 -20.796875 20.265625 -20.09375 
Q 16.0625 -19.390625 12.109375 -17.921875 
L 12.109375 -9.1875 
Q 16.0625 -11.328125 19.921875 -12.34375 
Q 23.78125 -13.375 27.78125 -13.375 
Q 36.625 -13.375 41.015625 -8.765625 
Q 45.40625 -4.15625 45.40625 5.171875 
L 45.40625 9.625 
Q 42.625 4.78125 38.28125 2.390625 
Q 33.9375 0 27.875 0 
Q 17.828125 0 11.671875 7.65625 
Q 5.515625 15.328125 5.515625 27.984375 
Q 5.515625 40.671875 11.671875 48.328125 
Q 17.828125 56 27.875 56 
Q 33.9375 56 38.28125 53.609375 
Q 42.625 51.21875 45.40625 46.390625 
L 45.40625 54.6875 
L 54.390625 54.6875 
z
" id="DejaVuSans-103"/>
       <path d="M 53.515625 70.515625 
L 53.515625 60.890625 
Q 47.90625 63.578125 42.921875 64.890625 
Q 37.9375 66.21875 33.296875 66.21875 
Q 25.25 66.21875 20.875 63.09375 
Q 16.5 59.96875 16.5 54.203125 
Q 16.5 49.359375 19.40625 46.890625 
Q 22.3125 44.4375 30.421875 42.921875 
L 36.375 41.703125 
Q 47.40625 39.59375 52.65625 34.296875 
Q 57.90625 29 57.90625 20.125 
Q 57.90625 9.515625 50.796875 4.046875 
Q 43.703125 -1.421875 29.984375 -1.421875 
Q 24.8125 -1.421875 18.96875 -0.25 
Q 13.140625 0.921875 6.890625 3.21875 
L 6.890625 13.375 
Q 12.890625 10.015625 18.65625 8.296875 
Q 24.421875 6.59375 29.984375 6.59375 
Q 38.421875 6.59375 43.015625 9.90625 
Q 47.609375 13.234375 47.609375 19.390625 
Q 47.609375 24.75 44.3125 27.78125 
Q 41.015625 30.8125 33.5 32.328125 
L 27.484375 33.5 
Q 16.453125 35.6875 11.515625 40.375 
Q 6.59375 45.0625 6.59375 53.421875 
Q 6.59375 63.09375 13.40625 68.65625 
Q 20.21875 74.21875 32.171875 74.21875 
Q 37.3125 74.21875 42.625 73.28125 
Q 47.953125 72.359375 53.515625 70.515625 
z
" id="DejaVuSans-83"/>
       <path d="M 39.40625 66.21875 
Q 28.65625 66.21875 22.328125 58.203125 
Q 16.015625 50.203125 16.015625 36.375 
Q 16.015625 22.609375 22.328125 14.59375 
Q 28.65625 6.59375 39.40625 6.59375 
Q 50.140625 6.59375 56.421875 14.59375 
Q 62.703125 22.609375 62.703125 36.375 
Q 62.703125 50.203125 56.421875 58.203125 
Q 50.140625 66.21875 39.40625 66.21875 
z
M 53.21875 1.3125 
L 66.21875 -12.890625 
L 54.296875 -12.890625 
L 43.5 -1.21875 
Q 41.890625 -1.3125 41.03125 -1.359375 
Q 40.1875 -1.421875 39.40625 -1.421875 
Q 24.03125 -1.421875 14.8125 8.859375 
Q 5.609375 19.140625 5.609375 36.375 
Q 5.609375 53.65625 14.8125 63.9375 
Q 24.03125 74.21875 39.40625 74.21875 
Q 54.734375 74.21875 63.90625 63.9375 
Q 73.09375 53.65625 73.09375 36.375 
Q 73.09375 23.6875 67.984375 14.640625 
Q 62.890625 5.609375 53.21875 1.3125 
z
" id="DejaVuSans-81"/>
       <path d="M 9.8125 72.90625 
L 19.671875 72.90625 
L 19.671875 8.296875 
L 55.171875 8.296875 
L 55.171875 0 
L 9.8125 0 
z
" id="DejaVuSans-76"/>
      </defs>
      <use xlink:href="#DejaVuSans-80"/>
      <use x="56.677734" xlink:href="#DejaVuSans-111"/>
      <use x="117.859375" xlink:href="#DejaVuSans-115"/>
      <use x="169.958984" xlink:href="#DejaVuSans-116"/>
      <use x="209.167969" xlink:href="#DejaVuSans-103"/>
      <use x="272.644531" xlink:href="#DejaVuSans-114"/>
      <use x="311.507812" xlink:href="#DejaVuSans-101"/>
      <use x="373.03125" xlink:href="#DejaVuSans-83"/>
      <use x="436.507812" xlink:href="#DejaVuSans-81"/>
      <use x="515.21875" xlink:href="#DejaVuSans-76"/>
     </g>
    </g>
    <g id="patch_20">
     <path d="M 717.817344 58.717969 
L 739.817344 58.717969 
L 739.817344 51.017969 
L 717.817344 51.017969 
z
" style="fill:#cc8963;stroke:#4c4c4c;stroke-linejoin:miter;stroke-width:0.75;"/>
    </g>
    <g id="text_18">
     <!-- Redis -->
     <g style="fill:#262626;" transform="translate(748.617344 58.717969)scale(0.11 -0.11)">
      <use xlink:href="#DejaVuSans-82"/>
      <use x="64.982422" xlink:href="#DejaVuSans-101"/>
      <use x="126.505859" xlink:href="#DejaVuSans-100"/>
      <use x="189.982422" xlink:href="#DejaVuSans-105"/>
      <use x="217.765625" xlink:href="#DejaVuSans-115"/>
     </g>
    </g>
    <g id="PathCollection_8">
     <defs>
      <path d="M 0 3.872983 
C 1.027127 3.872983 2.012324 3.464901 2.738613 2.738613 
C 3.464901 2.012324 3.872983 1.027127 3.872983 0 
C 3.872983 -1.027127 3.464901 -2.012324 2.738613 -2.738613 
C 2.012324 -3.464901 1.027127 -3.872983 0 -3.872983 
C -1.027127 -3.872983 -2.012324 -3.464901 -2.738613 -2.738613 
C -3.464901 -2.012324 -3.872983 -1.027127 -3.872983 0 
C -3.872983 1.027127 -3.464901 2.012324 -2.738613 2.738613 
C -2.012324 3.464901 -1.027127 3.872983 0 3.872983 
z
" id="me6c68970a8" style="stroke:#4c72b0;"/>
     </defs>
     <g>
      <use style="fill:#4c72b0;stroke:#4c72b0;" x="728.817344" xlink:href="#me6c68970a8" y="71.976406"/>
     </g>
    </g>
    <g id="text_19">
     <!-- PostgreSQL -->
     <g style="fill:#262626;" transform="translate(748.617344 74.863906)scale(0.11 -0.11)">
      <use xlink:href="#DejaVuSans-80"/>
      <use x="56.677734" xlink:href="#DejaVuSans-111"/>
      <use x="117.859375" xlink:href="#DejaVuSans-115"/>
      <use x="169.958984" xlink:href="#DejaVuSans-116"/>
      <use x="209.167969" xlink:href="#DejaVuSans-103"/>
      <use x="272.644531" xlink:href="#DejaVuSans-114"/>
      <use x="311.507812" xlink:href="#DejaVuSans-101"/>
      <use x="373.03125" xlink:href="#DejaVuSans-83"/>
      <use x="436.507812" xlink:href="#DejaVuSans-81"/>
      <use x="515.21875" xlink:href="#DejaVuSans-76"/>
     </g>
    </g>
    <g id="PathCollection_9">
     <defs>
      <path d="M 0 3.872983 
C 1.027127 3.872983 2.012324 3.464901 2.738613 2.738613 
C 3.464901 2.012324 3.872983 1.027127 3.872983 0 
C 3.872983 -1.027127 3.464901 -2.012324 2.738613 -2.738613 
C 2.012324 -3.464901 1.027127 -3.872983 0 -3.872983 
C -1.027127 -3.872983 -2.012324 -3.464901 -2.738613 -2.738613 
C -3.464901 -2.012324 -3.872983 -1.027127 -3.872983 0 
C -3.872983 1.027127 -3.464901 2.012324 -2.738613 2.738613 
C -2.012324 3.464901 -1.027127 3.872983 0 3.872983 
z
" id="macd6a2313d" style="stroke:#dd8452;"/>
     </defs>
     <g>
      <use style="fill:#dd8452;stroke:#dd8452;" x="728.817344" xlink:href="#macd6a2313d" y="88.122344"/>
     </g>
    </g>
    <g id="text_20">
     <!-- Redis -->
     <g style="fill:#262626;" transform="translate(748.617344 91.009844)scale(0.11 -0.11)">
      <use xlink:href="#DejaVuSans-82"/>
      <use x="64.982422" xlink:href="#DejaVuSans-101"/>
      <use x="126.505859" xlink:href="#DejaVuSans-100"/>
      <use x="189.982422" xlink:href="#DejaVuSans-105"/>
      <use x="217.765625" xlink:href="#DejaVuSans-115"/>
     </g>
    </g>
   </g>
  </g>
 </g>
 <defs>
  <clipPath id="p1995b5cd6c">
   <rect height="166.32" width="669.6" x="151.722188" y="7.2"/>
  </clipPath>
 </defs>
</svg>
