<?xml version="1.0" encoding="utf-8" standalone="no"?>
<!DOCTYPE svg PUBLIC "-//W3C//DTD SVG 1.1//EN"
  "http://www.w3.org/Graphics/SVG/1.1/DTD/svg11.dtd">
<!-- Created with matplotlib (https://matplotlib.org/) -->
<svg height="216.479688pt" version="1.1" viewBox="0 0 828.522187 216.479688" width="828.522187pt" xmlns="http://www.w3.org/2000/svg" xmlns:xlink="http://www.w3.org/1999/xlink">
 <metadata>
  <rdf:RDF xmlns:cc="http://creativecommons.org/ns#" xmlns:dc="http://purl.org/dc/elements/1.1/" xmlns:rdf="http://www.w3.org/1999/02/22-rdf-syntax-ns#">
   <cc:Work>
    <dc:type rdf:resource="http://purl.org/dc/dcmitype/StillImage"/>
    <dc:date>2020-08-18T13:49:02.004262</dc:date>
    <dc:format>image/svg+xml</dc:format>
    <dc:creator>
     <cc:Agent>
      <dc:title>Matplotlib v3.3.1, https://matplotlib.org/</dc:title>
     </cc:Agent>
    </dc:creator>
   </cc:Work>
  </rdf:RDF>
 </metadata>
 <defs>
  <style type="text/css">*{stroke-linecap:butt;stroke-linejoin:round;}</style>
 </defs>
 <g id="figure_1">
  <g id="patch_1">
   <path d="M 0 216.479688 
L 828.522187 216.479688 
L 828.522187 0 
L 0 0 
z
" style="fill:none;"/>
  </g>
  <g id="axes_1">
   <g id="patch_2">
    <path d="M 151.722188 173.52 
L 821.322188 173.52 
L 821.322188 7.2 
L 151.722188 7.2 
z
" style="fill:none;"/>
   </g>
   <g id="matplotlib.axis_1">
    <g id="xtick_1">
     <g id="line2d_1">
      <path clip-path="url(#pf656a675ce)" d="M 154.813514 173.52 
L 154.813514 7.2 
" style="fill:none;stroke:#cccccc;stroke-linecap:round;"/>
     </g>
     <g id="line2d_2">
      <defs>
       <path d="M 0 0 
L 0 6 
" id="m635f2f5721" style="stroke:#262626;stroke-width:1.25;"/>
      </defs>
      <g>
       <use style="fill:#262626;stroke:#262626;stroke-width:1.25;" x="154.813514" xlink:href="#m635f2f5721" y="173.52"/>
      </g>
     </g>
     <g id="text_1">
      <!-- 0 -->
      <g style="fill:#262626;" transform="translate(151.314139 191.378281)scale(0.11 -0.11)">
       <defs>
        <path d="M 31.78125 66.40625 
Q 24.171875 66.40625 20.328125 58.90625 
Q 16.5 51.421875 16.5 36.375 
Q 16.5 21.390625 20.328125 13.890625 
Q 24.171875 6.390625 31.78125 6.390625 
Q 39.453125 6.390625 43.28125 13.890625 
Q 47.125 21.390625 47.125 36.375 
Q 47.125 51.421875 43.28125 58.90625 
Q 39.453125 66.40625 31.78125 66.40625 
z
M 31.78125 74.21875 
Q 44.046875 74.21875 50.515625 64.515625 
Q 56.984375 54.828125 56.984375 36.375 
Q 56.984375 17.96875 50.515625 8.265625 
Q 44.046875 -1.421875 31.78125 -1.421875 
Q 19.53125 -1.421875 13.0625 8.265625 
Q 6.59375 17.96875 6.59375 36.375 
Q 6.59375 54.828125 13.0625 64.515625 
Q 19.53125 74.21875 31.78125 74.21875 
z
" id="DejaVuSans-48"/>
       </defs>
       <use xlink:href="#DejaVuSans-48"/>
      </g>
     </g>
    </g>
    <g id="xtick_2">
     <g id="line2d_3">
      <path clip-path="url(#pf656a675ce)" d="M 232.096675 173.52 
L 232.096675 7.2 
" style="fill:none;stroke:#cccccc;stroke-linecap:round;"/>
     </g>
     <g id="line2d_4">
      <g>
       <use style="fill:#262626;stroke:#262626;stroke-width:1.25;" x="232.096675" xlink:href="#m635f2f5721" y="173.52"/>
      </g>
     </g>
     <g id="text_2">
      <!-- 25 -->
      <g style="fill:#262626;" transform="translate(225.097925 191.378281)scale(0.11 -0.11)">
       <defs>
        <path d="M 19.1875 8.296875 
L 53.609375 8.296875 
L 53.609375 0 
L 7.328125 0 
L 7.328125 8.296875 
Q 12.9375 14.109375 22.625 23.890625 
Q 32.328125 33.6875 34.8125 36.53125 
Q 39.546875 41.84375 41.421875 45.53125 
Q 43.3125 49.21875 43.3125 52.78125 
Q 43.3125 58.59375 39.234375 62.25 
Q 35.15625 65.921875 28.609375 65.921875 
Q 23.96875 65.921875 18.8125 64.3125 
Q 13.671875 62.703125 7.8125 59.421875 
L 7.8125 69.390625 
Q 13.765625 71.78125 18.9375 73 
Q 24.125 74.21875 28.421875 74.21875 
Q 39.75 74.21875 46.484375 68.546875 
Q 53.21875 62.890625 53.21875 53.421875 
Q 53.21875 48.921875 51.53125 44.890625 
Q 49.859375 40.875 45.40625 35.40625 
Q 44.1875 33.984375 37.640625 27.21875 
Q 31.109375 20.453125 19.1875 8.296875 
z
" id="DejaVuSans-50"/>
        <path d="M 10.796875 72.90625 
L 49.515625 72.90625 
L 49.515625 64.59375 
L 19.828125 64.59375 
L 19.828125 46.734375 
Q 21.96875 47.46875 24.109375 47.828125 
Q 26.265625 48.1875 28.421875 48.1875 
Q 40.625 48.1875 47.75 41.5 
Q 54.890625 34.8125 54.890625 23.390625 
Q 54.890625 11.625 47.5625 5.09375 
Q 40.234375 -1.421875 26.90625 -1.421875 
Q 22.3125 -1.421875 17.546875 -0.640625 
Q 12.796875 0.140625 7.71875 1.703125 
L 7.71875 11.625 
Q 12.109375 9.234375 16.796875 8.0625 
Q 21.484375 6.890625 26.703125 6.890625 
Q 35.15625 6.890625 40.078125 11.328125 
Q 45.015625 15.765625 45.015625 23.390625 
Q 45.015625 31 40.078125 35.4375 
Q 35.15625 39.890625 26.703125 39.890625 
Q 22.75 39.890625 18.8125 39.015625 
Q 14.890625 38.140625 10.796875 36.28125 
z
" id="DejaVuSans-53"/>
       </defs>
       <use xlink:href="#DejaVuSans-50"/>
       <use x="63.623047" xlink:href="#DejaVuSans-53"/>
      </g>
     </g>
    </g>
    <g id="xtick_3">
     <g id="line2d_5">
      <path clip-path="url(#pf656a675ce)" d="M 309.379836 173.52 
L 309.379836 7.2 
" style="fill:none;stroke:#cccccc;stroke-linecap:round;"/>
     </g>
     <g id="line2d_6">
      <g>
       <use style="fill:#262626;stroke:#262626;stroke-width:1.25;" x="309.379836" xlink:href="#m635f2f5721" y="173.52"/>
      </g>
     </g>
     <g id="text_3">
      <!-- 50 -->
      <g style="fill:#262626;" transform="translate(302.381086 191.378281)scale(0.11 -0.11)">
       <use xlink:href="#DejaVuSans-53"/>
       <use x="63.623047" xlink:href="#DejaVuSans-48"/>
      </g>
     </g>
    </g>
    <g id="xtick_4">
     <g id="line2d_7">
      <path clip-path="url(#pf656a675ce)" d="M 386.662997 173.52 
L 386.662997 7.2 
" style="fill:none;stroke:#cccccc;stroke-linecap:round;"/>
     </g>
     <g id="line2d_8">
      <g>
       <use style="fill:#262626;stroke:#262626;stroke-width:1.25;" x="386.662997" xlink:href="#m635f2f5721" y="173.52"/>
      </g>
     </g>
     <g id="text_4">
      <!-- 75 -->
      <g style="fill:#262626;" transform="translate(379.664247 191.378281)scale(0.11 -0.11)">
       <defs>
        <path d="M 8.203125 72.90625 
L 55.078125 72.90625 
L 55.078125 68.703125 
L 28.609375 0 
L 18.3125 0 
L 43.21875 64.59375 
L 8.203125 64.59375 
z
" id="DejaVuSans-55"/>
       </defs>
       <use xlink:href="#DejaVuSans-55"/>
       <use x="63.623047" xlink:href="#DejaVuSans-53"/>
      </g>
     </g>
    </g>
    <g id="xtick_5">
     <g id="line2d_9">
      <path clip-path="url(#pf656a675ce)" d="M 463.946158 173.52 
L 463.946158 7.2 
" style="fill:none;stroke:#cccccc;stroke-linecap:round;"/>
     </g>
     <g id="line2d_10">
      <g>
       <use style="fill:#262626;stroke:#262626;stroke-width:1.25;" x="463.946158" xlink:href="#m635f2f5721" y="173.52"/>
      </g>
     </g>
     <g id="text_5">
      <!-- 100 -->
      <g style="fill:#262626;" transform="translate(453.448033 191.378281)scale(0.11 -0.11)">
       <defs>
        <path d="M 12.40625 8.296875 
L 28.515625 8.296875 
L 28.515625 63.921875 
L 10.984375 60.40625 
L 10.984375 69.390625 
L 28.421875 72.90625 
L 38.28125 72.90625 
L 38.28125 8.296875 
L 54.390625 8.296875 
L 54.390625 0 
L 12.40625 0 
z
" id="DejaVuSans-49"/>
       </defs>
       <use xlink:href="#DejaVuSans-49"/>
       <use x="63.623047" xlink:href="#DejaVuSans-48"/>
       <use x="127.246094" xlink:href="#DejaVuSans-48"/>
      </g>
     </g>
    </g>
    <g id="xtick_6">
     <g id="line2d_11">
      <path clip-path="url(#pf656a675ce)" d="M 541.229319 173.52 
L 541.229319 7.2 
" style="fill:none;stroke:#cccccc;stroke-linecap:round;"/>
     </g>
     <g id="line2d_12">
      <g>
       <use style="fill:#262626;stroke:#262626;stroke-width:1.25;" x="541.229319" xlink:href="#m635f2f5721" y="173.52"/>
      </g>
     </g>
     <g id="text_6">
      <!-- 125 -->
      <g style="fill:#262626;" transform="translate(530.731194 191.378281)scale(0.11 -0.11)">
       <use xlink:href="#DejaVuSans-49"/>
       <use x="63.623047" xlink:href="#DejaVuSans-50"/>
       <use x="127.246094" xlink:href="#DejaVuSans-53"/>
      </g>
     </g>
    </g>
    <g id="xtick_7">
     <g id="line2d_13">
      <path clip-path="url(#pf656a675ce)" d="M 618.512481 173.52 
L 618.512481 7.2 
" style="fill:none;stroke:#cccccc;stroke-linecap:round;"/>
     </g>
     <g id="line2d_14">
      <g>
       <use style="fill:#262626;stroke:#262626;stroke-width:1.25;" x="618.512481" xlink:href="#m635f2f5721" y="173.52"/>
      </g>
     </g>
     <g id="text_7">
      <!-- 150 -->
      <g style="fill:#262626;" transform="translate(608.014356 191.378281)scale(0.11 -0.11)">
       <use xlink:href="#DejaVuSans-49"/>
       <use x="63.623047" xlink:href="#DejaVuSans-53"/>
       <use x="127.246094" xlink:href="#DejaVuSans-48"/>
      </g>
     </g>
    </g>
    <g id="xtick_8">
     <g id="line2d_15">
      <path clip-path="url(#pf656a675ce)" d="M 695.795642 173.52 
L 695.795642 7.2 
" style="fill:none;stroke:#cccccc;stroke-linecap:round;"/>
     </g>
     <g id="line2d_16">
      <g>
       <use style="fill:#262626;stroke:#262626;stroke-width:1.25;" x="695.795642" xlink:href="#m635f2f5721" y="173.52"/>
      </g>
     </g>
     <g id="text_8">
      <!-- 175 -->
      <g style="fill:#262626;" transform="translate(685.297517 191.378281)scale(0.11 -0.11)">
       <use xlink:href="#DejaVuSans-49"/>
       <use x="63.623047" xlink:href="#DejaVuSans-55"/>
       <use x="127.246094" xlink:href="#DejaVuSans-53"/>
      </g>
     </g>
    </g>
    <g id="xtick_9">
     <g id="line2d_17">
      <path clip-path="url(#pf656a675ce)" d="M 773.078803 173.52 
L 773.078803 7.2 
" style="fill:none;stroke:#cccccc;stroke-linecap:round;"/>
     </g>
     <g id="line2d_18">
      <g>
       <use style="fill:#262626;stroke:#262626;stroke-width:1.25;" x="773.078803" xlink:href="#m635f2f5721" y="173.52"/>
      </g>
     </g>
     <g id="text_9">
      <!-- 200 -->
      <g style="fill:#262626;" transform="translate(762.580678 191.378281)scale(0.11 -0.11)">
       <use xlink:href="#DejaVuSans-50"/>
       <use x="63.623047" xlink:href="#DejaVuSans-48"/>
       <use x="127.246094" xlink:href="#DejaVuSans-48"/>
      </g>
     </g>
    </g>
    <g id="text_10">
     <!-- Time to First Request (TFR) [s] -->
     <g style="fill:#262626;" transform="translate(395.510625 206.784063)scale(0.12 -0.12)">
      <defs>
       <path d="M -0.296875 72.90625 
L 61.375 72.90625 
L 61.375 64.59375 
L 35.5 64.59375 
L 35.5 0 
L 25.59375 0 
L 25.59375 64.59375 
L -0.296875 64.59375 
z
" id="DejaVuSans-84"/>
       <path d="M 9.421875 54.6875 
L 18.40625 54.6875 
L 18.40625 0 
L 9.421875 0 
z
M 9.421875 75.984375 
L 18.40625 75.984375 
L 18.40625 64.59375 
L 9.421875 64.59375 
z
" id="DejaVuSans-105"/>
       <path d="M 52 44.1875 
Q 55.375 50.25 60.0625 53.125 
Q 64.75 56 71.09375 56 
Q 79.640625 56 84.28125 50.015625 
Q 88.921875 44.046875 88.921875 33.015625 
L 88.921875 0 
L 79.890625 0 
L 79.890625 32.71875 
Q 79.890625 40.578125 77.09375 44.375 
Q 74.3125 48.1875 68.609375 48.1875 
Q 61.625 48.1875 57.5625 43.546875 
Q 53.515625 38.921875 53.515625 30.90625 
L 53.515625 0 
L 44.484375 0 
L 44.484375 32.71875 
Q 44.484375 40.625 41.703125 44.40625 
Q 38.921875 48.1875 33.109375 48.1875 
Q 26.21875 48.1875 22.15625 43.53125 
Q 18.109375 38.875 18.109375 30.90625 
L 18.109375 0 
L 9.078125 0 
L 9.078125 54.6875 
L 18.109375 54.6875 
L 18.109375 46.1875 
Q 21.1875 51.21875 25.484375 53.609375 
Q 29.78125 56 35.6875 56 
Q 41.65625 56 45.828125 52.96875 
Q 50 49.953125 52 44.1875 
z
" id="DejaVuSans-109"/>
       <path d="M 56.203125 29.59375 
L 56.203125 25.203125 
L 14.890625 25.203125 
Q 15.484375 15.921875 20.484375 11.0625 
Q 25.484375 6.203125 34.421875 6.203125 
Q 39.59375 6.203125 44.453125 7.46875 
Q 49.3125 8.734375 54.109375 11.28125 
L 54.109375 2.78125 
Q 49.265625 0.734375 44.1875 -0.34375 
Q 39.109375 -1.421875 33.890625 -1.421875 
Q 20.796875 -1.421875 13.15625 6.1875 
Q 5.515625 13.8125 5.515625 26.8125 
Q 5.515625 40.234375 12.765625 48.109375 
Q 20.015625 56 32.328125 56 
Q 43.359375 56 49.78125 48.890625 
Q 56.203125 41.796875 56.203125 29.59375 
z
M 47.21875 32.234375 
Q 47.125 39.59375 43.09375 43.984375 
Q 39.0625 48.390625 32.421875 48.390625 
Q 24.90625 48.390625 20.390625 44.140625 
Q 15.875 39.890625 15.1875 32.171875 
z
" id="DejaVuSans-101"/>
       <path id="DejaVuSans-32"/>
       <path d="M 18.3125 70.21875 
L 18.3125 54.6875 
L 36.8125 54.6875 
L 36.8125 47.703125 
L 18.3125 47.703125 
L 18.3125 18.015625 
Q 18.3125 11.328125 20.140625 9.421875 
Q 21.96875 7.515625 27.59375 7.515625 
L 36.8125 7.515625 
L 36.8125 0 
L 27.59375 0 
Q 17.1875 0 13.234375 3.875 
Q 9.28125 7.765625 9.28125 18.015625 
L 9.28125 47.703125 
L 2.6875 47.703125 
L 2.6875 54.6875 
L 9.28125 54.6875 
L 9.28125 70.21875 
z
" id="DejaVuSans-116"/>
       <path d="M 30.609375 48.390625 
Q 23.390625 48.390625 19.1875 42.75 
Q 14.984375 37.109375 14.984375 27.296875 
Q 14.984375 17.484375 19.15625 11.84375 
Q 23.34375 6.203125 30.609375 6.203125 
Q 37.796875 6.203125 41.984375 11.859375 
Q 46.1875 17.53125 46.1875 27.296875 
Q 46.1875 37.015625 41.984375 42.703125 
Q 37.796875 48.390625 30.609375 48.390625 
z
M 30.609375 56 
Q 42.328125 56 49.015625 48.375 
Q 55.71875 40.765625 55.71875 27.296875 
Q 55.71875 13.875 49.015625 6.21875 
Q 42.328125 -1.421875 30.609375 -1.421875 
Q 18.84375 -1.421875 12.171875 6.21875 
Q 5.515625 13.875 5.515625 27.296875 
Q 5.515625 40.765625 12.171875 48.375 
Q 18.84375 56 30.609375 56 
z
" id="DejaVuSans-111"/>
       <path d="M 9.8125 72.90625 
L 51.703125 72.90625 
L 51.703125 64.59375 
L 19.671875 64.59375 
L 19.671875 43.109375 
L 48.578125 43.109375 
L 48.578125 34.8125 
L 19.671875 34.8125 
L 19.671875 0 
L 9.8125 0 
z
" id="DejaVuSans-70"/>
       <path d="M 41.109375 46.296875 
Q 39.59375 47.171875 37.8125 47.578125 
Q 36.03125 48 33.890625 48 
Q 26.265625 48 22.1875 43.046875 
Q 18.109375 38.09375 18.109375 28.8125 
L 18.109375 0 
L 9.078125 0 
L 9.078125 54.6875 
L 18.109375 54.6875 
L 18.109375 46.1875 
Q 20.953125 51.171875 25.484375 53.578125 
Q 30.03125 56 36.53125 56 
Q 37.453125 56 38.578125 55.875 
Q 39.703125 55.765625 41.0625 55.515625 
z
" id="DejaVuSans-114"/>
       <path d="M 44.28125 53.078125 
L 44.28125 44.578125 
Q 40.484375 46.53125 36.375 47.5 
Q 32.28125 48.484375 27.875 48.484375 
Q 21.1875 48.484375 17.84375 46.4375 
Q 14.5 44.390625 14.5 40.28125 
Q 14.5 37.15625 16.890625 35.375 
Q 19.28125 33.59375 26.515625 31.984375 
L 29.59375 31.296875 
Q 39.15625 29.25 43.1875 25.515625 
Q 47.21875 21.78125 47.21875 15.09375 
Q 47.21875 7.46875 41.1875 3.015625 
Q 35.15625 -1.421875 24.609375 -1.421875 
Q 20.21875 -1.421875 15.453125 -0.5625 
Q 10.6875 0.296875 5.421875 2 
L 5.421875 11.28125 
Q 10.40625 8.6875 15.234375 7.390625 
Q 20.0625 6.109375 24.8125 6.109375 
Q 31.15625 6.109375 34.5625 8.28125 
Q 37.984375 10.453125 37.984375 14.40625 
Q 37.984375 18.0625 35.515625 20.015625 
Q 33.0625 21.96875 24.703125 23.78125 
L 21.578125 24.515625 
Q 13.234375 26.265625 9.515625 29.90625 
Q 5.8125 33.546875 5.8125 39.890625 
Q 5.8125 47.609375 11.28125 51.796875 
Q 16.75 56 26.8125 56 
Q 31.78125 56 36.171875 55.265625 
Q 40.578125 54.546875 44.28125 53.078125 
z
" id="DejaVuSans-115"/>
       <path d="M 44.390625 34.1875 
Q 47.5625 33.109375 50.5625 29.59375 
Q 53.5625 26.078125 56.59375 19.921875 
L 66.609375 0 
L 56 0 
L 46.6875 18.703125 
Q 43.0625 26.03125 39.671875 28.421875 
Q 36.28125 30.8125 30.421875 30.8125 
L 19.671875 30.8125 
L 19.671875 0 
L 9.8125 0 
L 9.8125 72.90625 
L 32.078125 72.90625 
Q 44.578125 72.90625 50.734375 67.671875 
Q 56.890625 62.453125 56.890625 51.90625 
Q 56.890625 45.015625 53.6875 40.46875 
Q 50.484375 35.9375 44.390625 34.1875 
z
M 19.671875 64.796875 
L 19.671875 38.921875 
L 32.078125 38.921875 
Q 39.203125 38.921875 42.84375 42.21875 
Q 46.484375 45.515625 46.484375 51.90625 
Q 46.484375 58.296875 42.84375 61.546875 
Q 39.203125 64.796875 32.078125 64.796875 
z
" id="DejaVuSans-82"/>
       <path d="M 14.796875 27.296875 
Q 14.796875 17.390625 18.875 11.75 
Q 22.953125 6.109375 30.078125 6.109375 
Q 37.203125 6.109375 41.296875 11.75 
Q 45.40625 17.390625 45.40625 27.296875 
Q 45.40625 37.203125 41.296875 42.84375 
Q 37.203125 48.484375 30.078125 48.484375 
Q 22.953125 48.484375 18.875 42.84375 
Q 14.796875 37.203125 14.796875 27.296875 
z
M 45.40625 8.203125 
Q 42.578125 3.328125 38.25 0.953125 
Q 33.9375 -1.421875 27.875 -1.421875 
Q 17.96875 -1.421875 11.734375 6.484375 
Q 5.515625 14.40625 5.515625 27.296875 
Q 5.515625 40.1875 11.734375 48.09375 
Q 17.96875 56 27.875 56 
Q 33.9375 56 38.25 53.625 
Q 42.578125 51.265625 45.40625 46.390625 
L 45.40625 54.6875 
L 54.390625 54.6875 
L 54.390625 -20.796875 
L 45.40625 -20.796875 
z
" id="DejaVuSans-113"/>
       <path d="M 8.5 21.578125 
L 8.5 54.6875 
L 17.484375 54.6875 
L 17.484375 21.921875 
Q 17.484375 14.15625 20.5 10.265625 
Q 23.53125 6.390625 29.59375 6.390625 
Q 36.859375 6.390625 41.078125 11.03125 
Q 45.3125 15.671875 45.3125 23.6875 
L 45.3125 54.6875 
L 54.296875 54.6875 
L 54.296875 0 
L 45.3125 0 
L 45.3125 8.40625 
Q 42.046875 3.421875 37.71875 1 
Q 33.40625 -1.421875 27.6875 -1.421875 
Q 18.265625 -1.421875 13.375 4.4375 
Q 8.5 10.296875 8.5 21.578125 
z
M 31.109375 56 
z
" id="DejaVuSans-117"/>
       <path d="M 31 75.875 
Q 24.46875 64.65625 21.28125 53.65625 
Q 18.109375 42.671875 18.109375 31.390625 
Q 18.109375 20.125 21.3125 9.0625 
Q 24.515625 -2 31 -13.1875 
L 23.1875 -13.1875 
Q 15.875 -1.703125 12.234375 9.375 
Q 8.59375 20.453125 8.59375 31.390625 
Q 8.59375 42.28125 12.203125 53.3125 
Q 15.828125 64.359375 23.1875 75.875 
z
" id="DejaVuSans-40"/>
       <path d="M 8.015625 75.875 
L 15.828125 75.875 
Q 23.140625 64.359375 26.78125 53.3125 
Q 30.421875 42.28125 30.421875 31.390625 
Q 30.421875 20.453125 26.78125 9.375 
Q 23.140625 -1.703125 15.828125 -13.1875 
L 8.015625 -13.1875 
Q 14.5 -2 17.703125 9.0625 
Q 20.90625 20.125 20.90625 31.390625 
Q 20.90625 42.671875 17.703125 53.65625 
Q 14.5 64.65625 8.015625 75.875 
z
" id="DejaVuSans-41"/>
       <path d="M 8.59375 75.984375 
L 29.296875 75.984375 
L 29.296875 69 
L 17.578125 69 
L 17.578125 -6.203125 
L 29.296875 -6.203125 
L 29.296875 -13.1875 
L 8.59375 -13.1875 
z
" id="DejaVuSans-91"/>
       <path d="M 30.421875 75.984375 
L 30.421875 -13.1875 
L 9.71875 -13.1875 
L 9.71875 -6.203125 
L 21.390625 -6.203125 
L 21.390625 69 
L 9.71875 69 
L 9.71875 75.984375 
z
" id="DejaVuSans-93"/>
      </defs>
      <use xlink:href="#DejaVuSans-84"/>
      <use x="57.958984" xlink:href="#DejaVuSans-105"/>
      <use x="85.742188" xlink:href="#DejaVuSans-109"/>
      <use x="183.154297" xlink:href="#DejaVuSans-101"/>
      <use x="244.677734" xlink:href="#DejaVuSans-32"/>
      <use x="276.464844" xlink:href="#DejaVuSans-116"/>
      <use x="315.673828" xlink:href="#DejaVuSans-111"/>
      <use x="376.855469" xlink:href="#DejaVuSans-32"/>
      <use x="408.642578" xlink:href="#DejaVuSans-70"/>
      <use x="458.912109" xlink:href="#DejaVuSans-105"/>
      <use x="486.695312" xlink:href="#DejaVuSans-114"/>
      <use x="527.808594" xlink:href="#DejaVuSans-115"/>
      <use x="579.908203" xlink:href="#DejaVuSans-116"/>
      <use x="619.117188" xlink:href="#DejaVuSans-32"/>
      <use x="650.904297" xlink:href="#DejaVuSans-82"/>
      <use x="715.886719" xlink:href="#DejaVuSans-101"/>
      <use x="777.410156" xlink:href="#DejaVuSans-113"/>
      <use x="840.886719" xlink:href="#DejaVuSans-117"/>
      <use x="904.265625" xlink:href="#DejaVuSans-101"/>
      <use x="965.789062" xlink:href="#DejaVuSans-115"/>
      <use x="1017.888672" xlink:href="#DejaVuSans-116"/>
      <use x="1057.097656" xlink:href="#DejaVuSans-32"/>
      <use x="1088.884766" xlink:href="#DejaVuSans-40"/>
      <use x="1127.898438" xlink:href="#DejaVuSans-84"/>
      <use x="1188.982422" xlink:href="#DejaVuSans-70"/>
      <use x="1246.501953" xlink:href="#DejaVuSans-82"/>
      <use x="1315.984375" xlink:href="#DejaVuSans-41"/>
      <use x="1354.998047" xlink:href="#DejaVuSans-32"/>
      <use x="1386.785156" xlink:href="#DejaVuSans-91"/>
      <use x="1425.798828" xlink:href="#DejaVuSans-115"/>
      <use x="1477.898438" xlink:href="#DejaVuSans-93"/>
     </g>
    </g>
   </g>
   <g id="matplotlib.axis_2">
    <g id="ytick_1">
     <g id="line2d_19">
      <defs>
       <path d="M 0 0 
L -6 0 
" id="mb0d46fe0f4" style="stroke:#262626;stroke-width:1.25;"/>
      </defs>
      <g>
       <use style="fill:#262626;stroke:#262626;stroke-width:1.25;" x="151.722188" xlink:href="#mb0d46fe0f4" y="23.832"/>
      </g>
     </g>
     <g id="text_11">
      <!-- Control Test -->
      <g style="fill:#262626;" transform="translate(77.310156 28.011141)scale(0.11 -0.11)">
       <defs>
        <path d="M 64.40625 67.28125 
L 64.40625 56.890625 
Q 59.421875 61.53125 53.78125 63.8125 
Q 48.140625 66.109375 41.796875 66.109375 
Q 29.296875 66.109375 22.65625 58.46875 
Q 16.015625 50.828125 16.015625 36.375 
Q 16.015625 21.96875 22.65625 14.328125 
Q 29.296875 6.6875 41.796875 6.6875 
Q 48.140625 6.6875 53.78125 8.984375 
Q 59.421875 11.28125 64.40625 15.921875 
L 64.40625 5.609375 
Q 59.234375 2.09375 53.4375 0.328125 
Q 47.65625 -1.421875 41.21875 -1.421875 
Q 24.65625 -1.421875 15.125 8.703125 
Q 5.609375 18.84375 5.609375 36.375 
Q 5.609375 53.953125 15.125 64.078125 
Q 24.65625 74.21875 41.21875 74.21875 
Q 47.75 74.21875 53.53125 72.484375 
Q 59.328125 70.75 64.40625 67.28125 
z
" id="DejaVuSans-67"/>
        <path d="M 54.890625 33.015625 
L 54.890625 0 
L 45.90625 0 
L 45.90625 32.71875 
Q 45.90625 40.484375 42.875 44.328125 
Q 39.84375 48.1875 33.796875 48.1875 
Q 26.515625 48.1875 22.3125 43.546875 
Q 18.109375 38.921875 18.109375 30.90625 
L 18.109375 0 
L 9.078125 0 
L 9.078125 54.6875 
L 18.109375 54.6875 
L 18.109375 46.1875 
Q 21.34375 51.125 25.703125 53.5625 
Q 30.078125 56 35.796875 56 
Q 45.21875 56 50.046875 50.171875 
Q 54.890625 44.34375 54.890625 33.015625 
z
" id="DejaVuSans-110"/>
        <path d="M 9.421875 75.984375 
L 18.40625 75.984375 
L 18.40625 0 
L 9.421875 0 
z
" id="DejaVuSans-108"/>
       </defs>
       <use xlink:href="#DejaVuSans-67"/>
       <use x="69.824219" xlink:href="#DejaVuSans-111"/>
       <use x="131.005859" xlink:href="#DejaVuSans-110"/>
       <use x="194.384766" xlink:href="#DejaVuSans-116"/>
       <use x="233.59375" xlink:href="#DejaVuSans-114"/>
       <use x="272.457031" xlink:href="#DejaVuSans-111"/>
       <use x="333.638672" xlink:href="#DejaVuSans-108"/>
       <use x="361.421875" xlink:href="#DejaVuSans-32"/>
       <use x="393.208984" xlink:href="#DejaVuSans-84"/>
       <use x="437.292969" xlink:href="#DejaVuSans-101"/>
       <use x="498.816406" xlink:href="#DejaVuSans-115"/>
       <use x="550.916016" xlink:href="#DejaVuSans-116"/>
      </g>
     </g>
    </g>
    <g id="ytick_2">
     <g id="line2d_20">
      <g>
       <use style="fill:#262626;stroke:#262626;stroke-width:1.25;" x="151.722188" xlink:href="#mb0d46fe0f4" y="57.096"/>
      </g>
     </g>
     <g id="text_12">
      <!-- Perturbation Disabled -->
      <g style="fill:#262626;" transform="translate(22.81375 61.275141)scale(0.11 -0.11)">
       <defs>
        <path d="M 19.671875 64.796875 
L 19.671875 37.40625 
L 32.078125 37.40625 
Q 38.96875 37.40625 42.71875 40.96875 
Q 46.484375 44.53125 46.484375 51.125 
Q 46.484375 57.671875 42.71875 61.234375 
Q 38.96875 64.796875 32.078125 64.796875 
z
M 9.8125 72.90625 
L 32.078125 72.90625 
Q 44.34375 72.90625 50.609375 67.359375 
Q 56.890625 61.8125 56.890625 51.125 
Q 56.890625 40.328125 50.609375 34.8125 
Q 44.34375 29.296875 32.078125 29.296875 
L 19.671875 29.296875 
L 19.671875 0 
L 9.8125 0 
z
" id="DejaVuSans-80"/>
        <path d="M 48.6875 27.296875 
Q 48.6875 37.203125 44.609375 42.84375 
Q 40.53125 48.484375 33.40625 48.484375 
Q 26.265625 48.484375 22.1875 42.84375 
Q 18.109375 37.203125 18.109375 27.296875 
Q 18.109375 17.390625 22.1875 11.75 
Q 26.265625 6.109375 33.40625 6.109375 
Q 40.53125 6.109375 44.609375 11.75 
Q 48.6875 17.390625 48.6875 27.296875 
z
M 18.109375 46.390625 
Q 20.953125 51.265625 25.265625 53.625 
Q 29.59375 56 35.59375 56 
Q 45.5625 56 51.78125 48.09375 
Q 58.015625 40.1875 58.015625 27.296875 
Q 58.015625 14.40625 51.78125 6.484375 
Q 45.5625 -1.421875 35.59375 -1.421875 
Q 29.59375 -1.421875 25.265625 0.953125 
Q 20.953125 3.328125 18.109375 8.203125 
L 18.109375 0 
L 9.078125 0 
L 9.078125 75.984375 
L 18.109375 75.984375 
z
" id="DejaVuSans-98"/>
        <path d="M 34.28125 27.484375 
Q 23.390625 27.484375 19.1875 25 
Q 14.984375 22.515625 14.984375 16.5 
Q 14.984375 11.71875 18.140625 8.90625 
Q 21.296875 6.109375 26.703125 6.109375 
Q 34.1875 6.109375 38.703125 11.40625 
Q 43.21875 16.703125 43.21875 25.484375 
L 43.21875 27.484375 
z
M 52.203125 31.203125 
L 52.203125 0 
L 43.21875 0 
L 43.21875 8.296875 
Q 40.140625 3.328125 35.546875 0.953125 
Q 30.953125 -1.421875 24.3125 -1.421875 
Q 15.921875 -1.421875 10.953125 3.296875 
Q 6 8.015625 6 15.921875 
Q 6 25.140625 12.171875 29.828125 
Q 18.359375 34.515625 30.609375 34.515625 
L 43.21875 34.515625 
L 43.21875 35.40625 
Q 43.21875 41.609375 39.140625 45 
Q 35.0625 48.390625 27.6875 48.390625 
Q 23 48.390625 18.546875 47.265625 
Q 14.109375 46.140625 10.015625 43.890625 
L 10.015625 52.203125 
Q 14.9375 54.109375 19.578125 55.046875 
Q 24.21875 56 28.609375 56 
Q 40.484375 56 46.34375 49.84375 
Q 52.203125 43.703125 52.203125 31.203125 
z
" id="DejaVuSans-97"/>
        <path d="M 19.671875 64.796875 
L 19.671875 8.109375 
L 31.59375 8.109375 
Q 46.6875 8.109375 53.6875 14.9375 
Q 60.6875 21.78125 60.6875 36.53125 
Q 60.6875 51.171875 53.6875 57.984375 
Q 46.6875 64.796875 31.59375 64.796875 
z
M 9.8125 72.90625 
L 30.078125 72.90625 
Q 51.265625 72.90625 61.171875 64.09375 
Q 71.09375 55.28125 71.09375 36.53125 
Q 71.09375 17.671875 61.125 8.828125 
Q 51.171875 0 30.078125 0 
L 9.8125 0 
z
" id="DejaVuSans-68"/>
        <path d="M 45.40625 46.390625 
L 45.40625 75.984375 
L 54.390625 75.984375 
L 54.390625 0 
L 45.40625 0 
L 45.40625 8.203125 
Q 42.578125 3.328125 38.25 0.953125 
Q 33.9375 -1.421875 27.875 -1.421875 
Q 17.96875 -1.421875 11.734375 6.484375 
Q 5.515625 14.40625 5.515625 27.296875 
Q 5.515625 40.1875 11.734375 48.09375 
Q 17.96875 56 27.875 56 
Q 33.9375 56 38.25 53.625 
Q 42.578125 51.265625 45.40625 46.390625 
z
M 14.796875 27.296875 
Q 14.796875 17.390625 18.875 11.75 
Q 22.953125 6.109375 30.078125 6.109375 
Q 37.203125 6.109375 41.296875 11.75 
Q 45.40625 17.390625 45.40625 27.296875 
Q 45.40625 37.203125 41.296875 42.84375 
Q 37.203125 48.484375 30.078125 48.484375 
Q 22.953125 48.484375 18.875 42.84375 
Q 14.796875 37.203125 14.796875 27.296875 
z
" id="DejaVuSans-100"/>
       </defs>
       <use xlink:href="#DejaVuSans-80"/>
       <use x="56.677734" xlink:href="#DejaVuSans-101"/>
       <use x="118.201172" xlink:href="#DejaVuSans-114"/>
       <use x="159.314453" xlink:href="#DejaVuSans-116"/>
       <use x="198.523438" xlink:href="#DejaVuSans-117"/>
       <use x="261.902344" xlink:href="#DejaVuSans-114"/>
       <use x="303.015625" xlink:href="#DejaVuSans-98"/>
       <use x="366.492188" xlink:href="#DejaVuSans-97"/>
       <use x="427.771484" xlink:href="#DejaVuSans-116"/>
       <use x="466.980469" xlink:href="#DejaVuSans-105"/>
       <use x="494.763672" xlink:href="#DejaVuSans-111"/>
       <use x="555.945312" xlink:href="#DejaVuSans-110"/>
       <use x="619.324219" xlink:href="#DejaVuSans-32"/>
       <use x="651.111328" xlink:href="#DejaVuSans-68"/>
       <use x="728.113281" xlink:href="#DejaVuSans-105"/>
       <use x="755.896484" xlink:href="#DejaVuSans-115"/>
       <use x="807.996094" xlink:href="#DejaVuSans-97"/>
       <use x="869.275391" xlink:href="#DejaVuSans-98"/>
       <use x="932.751953" xlink:href="#DejaVuSans-108"/>
       <use x="960.535156" xlink:href="#DejaVuSans-101"/>
       <use x="1022.058594" xlink:href="#DejaVuSans-100"/>
      </g>
     </g>
    </g>
    <g id="ytick_3">
     <g id="line2d_21">
      <g>
       <use style="fill:#262626;stroke:#262626;stroke-width:1.25;" x="151.722188" xlink:href="#mb0d46fe0f4" y="90.36"/>
      </g>
     </g>
     <g id="text_13">
      <!-- Vary Build -->
      <g style="fill:#262626;" transform="translate(86.667031 94.539141)scale(0.11 -0.11)">
       <defs>
        <path d="M 28.609375 0 
L 0.78125 72.90625 
L 11.078125 72.90625 
L 34.1875 11.53125 
L 57.328125 72.90625 
L 67.578125 72.90625 
L 39.796875 0 
z
" id="DejaVuSans-86"/>
        <path d="M 32.171875 -5.078125 
Q 28.375 -14.84375 24.75 -17.8125 
Q 21.140625 -20.796875 15.09375 -20.796875 
L 7.90625 -20.796875 
L 7.90625 -13.28125 
L 13.1875 -13.28125 
Q 16.890625 -13.28125 18.9375 -11.515625 
Q 21 -9.765625 23.484375 -3.21875 
L 25.09375 0.875 
L 2.984375 54.6875 
L 12.5 54.6875 
L 29.59375 11.921875 
L 46.6875 54.6875 
L 56.203125 54.6875 
z
" id="DejaVuSans-121"/>
        <path d="M 19.671875 34.8125 
L 19.671875 8.109375 
L 35.5 8.109375 
Q 43.453125 8.109375 47.28125 11.40625 
Q 51.125 14.703125 51.125 21.484375 
Q 51.125 28.328125 47.28125 31.5625 
Q 43.453125 34.8125 35.5 34.8125 
z
M 19.671875 64.796875 
L 19.671875 42.828125 
L 34.28125 42.828125 
Q 41.5 42.828125 45.03125 45.53125 
Q 48.578125 48.25 48.578125 53.8125 
Q 48.578125 59.328125 45.03125 62.0625 
Q 41.5 64.796875 34.28125 64.796875 
z
M 9.8125 72.90625 
L 35.015625 72.90625 
Q 46.296875 72.90625 52.390625 68.21875 
Q 58.5 63.53125 58.5 54.890625 
Q 58.5 48.1875 55.375 44.234375 
Q 52.25 40.28125 46.1875 39.3125 
Q 53.46875 37.75 57.5 32.78125 
Q 61.53125 27.828125 61.53125 20.40625 
Q 61.53125 10.640625 54.890625 5.3125 
Q 48.25 0 35.984375 0 
L 9.8125 0 
z
" id="DejaVuSans-66"/>
       </defs>
       <use xlink:href="#DejaVuSans-86"/>
       <use x="60.658203" xlink:href="#DejaVuSans-97"/>
       <use x="121.9375" xlink:href="#DejaVuSans-114"/>
       <use x="163.050781" xlink:href="#DejaVuSans-121"/>
       <use x="222.230469" xlink:href="#DejaVuSans-32"/>
       <use x="254.017578" xlink:href="#DejaVuSans-66"/>
       <use x="322.621094" xlink:href="#DejaVuSans-117"/>
       <use x="386" xlink:href="#DejaVuSans-105"/>
       <use x="413.783203" xlink:href="#DejaVuSans-108"/>
       <use x="441.566406" xlink:href="#DejaVuSans-100"/>
      </g>
     </g>
    </g>
    <g id="ytick_4">
     <g id="line2d_22">
      <g>
       <use style="fill:#262626;stroke:#262626;stroke-width:1.25;" x="151.722188" xlink:href="#mb0d46fe0f4" y="123.624"/>
      </g>
     </g>
     <g id="text_14">
      <!-- Vary Patch -->
      <g style="fill:#262626;" transform="translate(84.07 127.803141)scale(0.11 -0.11)">
       <defs>
        <path d="M 48.78125 52.59375 
L 48.78125 44.1875 
Q 44.96875 46.296875 41.140625 47.34375 
Q 37.3125 48.390625 33.40625 48.390625 
Q 24.65625 48.390625 19.8125 42.84375 
Q 14.984375 37.3125 14.984375 27.296875 
Q 14.984375 17.28125 19.8125 11.734375 
Q 24.65625 6.203125 33.40625 6.203125 
Q 37.3125 6.203125 41.140625 7.25 
Q 44.96875 8.296875 48.78125 10.40625 
L 48.78125 2.09375 
Q 45.015625 0.34375 40.984375 -0.53125 
Q 36.96875 -1.421875 32.421875 -1.421875 
Q 20.0625 -1.421875 12.78125 6.34375 
Q 5.515625 14.109375 5.515625 27.296875 
Q 5.515625 40.671875 12.859375 48.328125 
Q 20.21875 56 33.015625 56 
Q 37.15625 56 41.109375 55.140625 
Q 45.0625 54.296875 48.78125 52.59375 
z
" id="DejaVuSans-99"/>
        <path d="M 54.890625 33.015625 
L 54.890625 0 
L 45.90625 0 
L 45.90625 32.71875 
Q 45.90625 40.484375 42.875 44.328125 
Q 39.84375 48.1875 33.796875 48.1875 
Q 26.515625 48.1875 22.3125 43.546875 
Q 18.109375 38.921875 18.109375 30.90625 
L 18.109375 0 
L 9.078125 0 
L 9.078125 75.984375 
L 18.109375 75.984375 
L 18.109375 46.1875 
Q 21.34375 51.125 25.703125 53.5625 
Q 30.078125 56 35.796875 56 
Q 45.21875 56 50.046875 50.171875 
Q 54.890625 44.34375 54.890625 33.015625 
z
" id="DejaVuSans-104"/>
       </defs>
       <use xlink:href="#DejaVuSans-86"/>
       <use x="60.658203" xlink:href="#DejaVuSans-97"/>
       <use x="121.9375" xlink:href="#DejaVuSans-114"/>
       <use x="163.050781" xlink:href="#DejaVuSans-121"/>
       <use x="222.230469" xlink:href="#DejaVuSans-32"/>
       <use x="254.017578" xlink:href="#DejaVuSans-80"/>
       <use x="309.820312" xlink:href="#DejaVuSans-97"/>
       <use x="371.099609" xlink:href="#DejaVuSans-116"/>
       <use x="410.308594" xlink:href="#DejaVuSans-99"/>
       <use x="465.289062" xlink:href="#DejaVuSans-104"/>
      </g>
     </g>
    </g>
    <g id="ytick_5">
     <g id="line2d_23">
      <g>
       <use style="fill:#262626;stroke:#262626;stroke-width:1.25;" x="151.722188" xlink:href="#mb0d46fe0f4" y="156.888"/>
      </g>
     </g>
     <g id="text_15">
      <!-- Vary Minor -->
      <g style="fill:#262626;" transform="translate(83.509688 161.067141)scale(0.11 -0.11)">
       <defs>
        <path d="M 9.8125 72.90625 
L 24.515625 72.90625 
L 43.109375 23.296875 
L 61.8125 72.90625 
L 76.515625 72.90625 
L 76.515625 0 
L 66.890625 0 
L 66.890625 64.015625 
L 48.09375 14.015625 
L 38.1875 14.015625 
L 19.390625 64.015625 
L 19.390625 0 
L 9.8125 0 
z
" id="DejaVuSans-77"/>
       </defs>
       <use xlink:href="#DejaVuSans-86"/>
       <use x="60.658203" xlink:href="#DejaVuSans-97"/>
       <use x="121.9375" xlink:href="#DejaVuSans-114"/>
       <use x="163.050781" xlink:href="#DejaVuSans-121"/>
       <use x="222.230469" xlink:href="#DejaVuSans-32"/>
       <use x="254.017578" xlink:href="#DejaVuSans-77"/>
       <use x="340.296875" xlink:href="#DejaVuSans-105"/>
       <use x="368.080078" xlink:href="#DejaVuSans-110"/>
       <use x="431.458984" xlink:href="#DejaVuSans-111"/>
       <use x="492.640625" xlink:href="#DejaVuSans-114"/>
      </g>
     </g>
    </g>
    <g id="text_16">
     <!-- Experiment -->
     <g style="fill:#262626;" transform="translate(16.318125 125.027812)rotate(-90)scale(0.12 -0.12)">
      <defs>
       <path d="M 9.8125 72.90625 
L 55.90625 72.90625 
L 55.90625 64.59375 
L 19.671875 64.59375 
L 19.671875 43.015625 
L 54.390625 43.015625 
L 54.390625 34.71875 
L 19.671875 34.71875 
L 19.671875 8.296875 
L 56.78125 8.296875 
L 56.78125 0 
L 9.8125 0 
z
" id="DejaVuSans-69"/>
       <path d="M 54.890625 54.6875 
L 35.109375 28.078125 
L 55.90625 0 
L 45.3125 0 
L 29.390625 21.484375 
L 13.484375 0 
L 2.875 0 
L 24.125 28.609375 
L 4.6875 54.6875 
L 15.28125 54.6875 
L 29.78125 35.203125 
L 44.28125 54.6875 
z
" id="DejaVuSans-120"/>
       <path d="M 18.109375 8.203125 
L 18.109375 -20.796875 
L 9.078125 -20.796875 
L 9.078125 54.6875 
L 18.109375 54.6875 
L 18.109375 46.390625 
Q 20.953125 51.265625 25.265625 53.625 
Q 29.59375 56 35.59375 56 
Q 45.5625 56 51.78125 48.09375 
Q 58.015625 40.1875 58.015625 27.296875 
Q 58.015625 14.40625 51.78125 6.484375 
Q 45.5625 -1.421875 35.59375 -1.421875 
Q 29.59375 -1.421875 25.265625 0.953125 
Q 20.953125 3.328125 18.109375 8.203125 
z
M 48.6875 27.296875 
Q 48.6875 37.203125 44.609375 42.84375 
Q 40.53125 48.484375 33.40625 48.484375 
Q 26.265625 48.484375 22.1875 42.84375 
Q 18.109375 37.203125 18.109375 27.296875 
Q 18.109375 17.390625 22.1875 11.75 
Q 26.265625 6.109375 33.40625 6.109375 
Q 40.53125 6.109375 44.609375 11.75 
Q 48.6875 17.390625 48.6875 27.296875 
z
" id="DejaVuSans-112"/>
      </defs>
      <use xlink:href="#DejaVuSans-69"/>
      <use x="63.183594" xlink:href="#DejaVuSans-120"/>
      <use x="122.363281" xlink:href="#DejaVuSans-112"/>
      <use x="185.839844" xlink:href="#DejaVuSans-101"/>
      <use x="247.363281" xlink:href="#DejaVuSans-114"/>
      <use x="288.476562" xlink:href="#DejaVuSans-105"/>
      <use x="316.259766" xlink:href="#DejaVuSans-109"/>
      <use x="413.671875" xlink:href="#DejaVuSans-101"/>
      <use x="475.195312" xlink:href="#DejaVuSans-110"/>
      <use x="538.574219" xlink:href="#DejaVuSans-116"/>
     </g>
    </g>
   </g>
   <g id="patch_3">
    <path clip-path="url(#pf656a675ce)" d="M 233.646948 10.659456 
L 233.646948 23.698944 
L 256.548304 23.698944 
L 256.548304 10.659456 
L 233.646948 10.659456 
z
" style="fill:#c0c7d4;stroke:#797979;stroke-linejoin:miter;stroke-width:1.5;"/>
   </g>
   <g id="patch_4">
    <path clip-path="url(#pf656a675ce)" d="M 210.761562 23.965056 
L 210.761562 37.004544 
L 226.161803 37.004544 
L 226.161803 23.965056 
L 210.761562 23.965056 
z
" style="fill:#dbbdbc;stroke:#797979;stroke-linejoin:miter;stroke-width:1.5;"/>
   </g>
   <g id="patch_5">
    <path clip-path="url(#pf656a675ce)" d="M 242.724128 43.923456 
L 242.724128 56.962944 
L 263.502436 56.962944 
L 263.502436 43.923456 
L 242.724128 43.923456 
z
" style="fill:#c0c7d4;stroke:#797979;stroke-linejoin:miter;stroke-width:1.5;"/>
   </g>
   <g id="patch_6">
    <path clip-path="url(#pf656a675ce)" d="M 210.449229 57.229056 
L 210.449229 70.268544 
L 231.144369 70.268544 
L 231.144369 57.229056 
L 210.449229 57.229056 
z
" style="fill:#dbbdbc;stroke:#797979;stroke-linejoin:miter;stroke-width:1.5;"/>
   </g>
   <g id="patch_7">
    <path clip-path="url(#pf656a675ce)" d="M 240.072664 77.187456 
L 240.072664 90.226944 
L 269.800842 90.226944 
L 269.800842 77.187456 
L 240.072664 77.187456 
z
" style="fill:#c0c7d4;stroke:#797979;stroke-linejoin:miter;stroke-width:1.5;"/>
   </g>
   <g id="patch_8">
    <path clip-path="url(#pf656a675ce)" d="M 215.739182 90.493056 
L 215.739182 103.532544 
L 235.534882 103.532544 
L 235.534882 90.493056 
L 215.739182 90.493056 
z
" style="fill:#dbbdbc;stroke:#797979;stroke-linejoin:miter;stroke-width:1.5;"/>
   </g>
   <g id="patch_9">
    <path clip-path="url(#pf656a675ce)" d="M 267.658144 110.451456 
L 267.658144 123.490944 
L 318.148394 123.490944 
L 318.148394 110.451456 
L 267.658144 110.451456 
z
" style="fill:#c0c7d4;stroke:#797979;stroke-linejoin:miter;stroke-width:1.5;"/>
   </g>
   <g id="patch_10">
    <path clip-path="url(#pf656a675ce)" d="M 215.227163 123.757056 
L 215.227163 136.796544 
L 236.030217 136.796544 
L 236.030217 123.757056 
L 215.227163 123.757056 
z
" style="fill:#dbbdbc;stroke:#797979;stroke-linejoin:miter;stroke-width:1.5;"/>
   </g>
   <g id="patch_11">
    <path clip-path="url(#pf656a675ce)" d="M 273.187823 143.715456 
L 273.187823 156.754944 
L 360.605179 156.754944 
L 360.605179 143.715456 
L 273.187823 143.715456 
z
" style="fill:#c0c7d4;stroke:#797979;stroke-linejoin:miter;stroke-width:1.5;"/>
   </g>
   <g id="PathCollection_1"/>
   <g id="PathCollection_2"/>
   <g id="patch_12">
    <path clip-path="url(#pf656a675ce)" d="M 154.813514 23.832 
L 154.813514 23.832 
L 154.813514 23.832 
L 154.813514 23.832 
z
" style="fill:#c0c7d4;stroke:#797979;stroke-linejoin:miter;stroke-width:0.75;"/>
   </g>
   <g id="patch_13">
    <path clip-path="url(#pf656a675ce)" d="M 154.813514 23.832 
L 154.813514 23.832 
L 154.813514 23.832 
L 154.813514 23.832 
z
" style="fill:#dbbdbc;stroke:#797979;stroke-linejoin:miter;stroke-width:0.75;"/>
   </g>
   <g id="line2d_24">
    <path clip-path="url(#pf656a675ce)" d="M 233.646948 17.1792 
L 228.489116 17.1792 
" style="fill:none;stroke:#797979;stroke-linecap:round;stroke-width:1.5;"/>
   </g>
   <g id="line2d_25">
    <path clip-path="url(#pf656a675ce)" d="M 256.548304 17.1792 
L 284.860532 17.1792 
" style="fill:none;stroke:#797979;stroke-linecap:round;stroke-width:1.5;"/>
   </g>
   <g id="line2d_26">
    <path clip-path="url(#pf656a675ce)" d="M 228.489116 13.919328 
L 228.489116 20.439072 
" style="fill:none;stroke:#797979;stroke-linecap:round;stroke-width:1.5;"/>
   </g>
   <g id="line2d_27">
    <path clip-path="url(#pf656a675ce)" d="M 284.860532 13.919328 
L 284.860532 20.439072 
" style="fill:none;stroke:#797979;stroke-linecap:round;stroke-width:1.5;"/>
   </g>
   <g id="line2d_28">
    <defs>
     <path d="M -0 3.535534 
L 2.12132 0 
L -0 -3.535534 
L -2.12132 -0 
z
" id="m9c2cd2b791" style="stroke:#797979;stroke-linejoin:miter;"/>
    </defs>
    <g clip-path="url(#pf656a675ce)">
     <use style="fill:#797979;stroke:#797979;stroke-linejoin:miter;" x="296.234901" xlink:href="#m9c2cd2b791" y="17.1792"/>
    </g>
   </g>
   <g id="line2d_29">
    <path clip-path="url(#pf656a675ce)" d="M 210.761562 30.4848 
L 204.281344 30.4848 
" style="fill:none;stroke:#797979;stroke-linecap:round;stroke-width:1.5;"/>
   </g>
   <g id="line2d_30">
    <path clip-path="url(#pf656a675ce)" d="M 226.161803 30.4848 
L 235.590817 30.4848 
" style="fill:none;stroke:#797979;stroke-linecap:round;stroke-width:1.5;"/>
   </g>
   <g id="line2d_31">
    <path clip-path="url(#pf656a675ce)" d="M 204.281344 27.224928 
L 204.281344 33.744672 
" style="fill:none;stroke:#797979;stroke-linecap:round;stroke-width:1.5;"/>
   </g>
   <g id="line2d_32">
    <path clip-path="url(#pf656a675ce)" d="M 235.590817 27.224928 
L 235.590817 33.744672 
" style="fill:none;stroke:#797979;stroke-linecap:round;stroke-width:1.5;"/>
   </g>
   <g id="line2d_33">
    <g clip-path="url(#pf656a675ce)">
     <use style="fill:#797979;stroke:#797979;stroke-linejoin:miter;" x="251.328961" xlink:href="#m9c2cd2b791" y="30.4848"/>
     <use style="fill:#797979;stroke:#797979;stroke-linejoin:miter;" x="383.09087" xlink:href="#m9c2cd2b791" y="30.4848"/>
    </g>
   </g>
   <g id="line2d_34">
    <path clip-path="url(#pf656a675ce)" d="M 242.724128 50.4432 
L 236.092545 50.4432 
" style="fill:none;stroke:#797979;stroke-linecap:round;stroke-width:1.5;"/>
   </g>
   <g id="line2d_35">
    <path clip-path="url(#pf656a675ce)" d="M 263.502436 50.4432 
L 284.58537 50.4432 
" style="fill:none;stroke:#797979;stroke-linecap:round;stroke-width:1.5;"/>
   </g>
   <g id="line2d_36">
    <path clip-path="url(#pf656a675ce)" d="M 236.092545 47.183328 
L 236.092545 53.703072 
" style="fill:none;stroke:#797979;stroke-linecap:round;stroke-width:1.5;"/>
   </g>
   <g id="line2d_37">
    <path clip-path="url(#pf656a675ce)" d="M 284.58537 47.183328 
L 284.58537 53.703072 
" style="fill:none;stroke:#797979;stroke-linecap:round;stroke-width:1.5;"/>
   </g>
   <g id="line2d_38"/>
   <g id="line2d_39">
    <path clip-path="url(#pf656a675ce)" d="M 210.449229 63.7488 
L 203.485252 63.7488 
" style="fill:none;stroke:#797979;stroke-linecap:round;stroke-width:1.5;"/>
   </g>
   <g id="line2d_40">
    <path clip-path="url(#pf656a675ce)" d="M 231.144369 63.7488 
L 237.42802 63.7488 
" style="fill:none;stroke:#797979;stroke-linecap:round;stroke-width:1.5;"/>
   </g>
   <g id="line2d_41">
    <path clip-path="url(#pf656a675ce)" d="M 203.485252 60.488928 
L 203.485252 67.008672 
" style="fill:none;stroke:#797979;stroke-linecap:round;stroke-width:1.5;"/>
   </g>
   <g id="line2d_42">
    <path clip-path="url(#pf656a675ce)" d="M 237.42802 60.488928 
L 237.42802 67.008672 
" style="fill:none;stroke:#797979;stroke-linecap:round;stroke-width:1.5;"/>
   </g>
   <g id="line2d_43"/>
   <g id="line2d_44">
    <path clip-path="url(#pf656a675ce)" d="M 240.072664 83.7072 
L 225.620161 83.7072 
" style="fill:none;stroke:#797979;stroke-linecap:round;stroke-width:1.5;"/>
   </g>
   <g id="line2d_45">
    <path clip-path="url(#pf656a675ce)" d="M 269.800842 83.7072 
L 298.064323 83.7072 
" style="fill:none;stroke:#797979;stroke-linecap:round;stroke-width:1.5;"/>
   </g>
   <g id="line2d_46">
    <path clip-path="url(#pf656a675ce)" d="M 225.620161 80.447328 
L 225.620161 86.967072 
" style="fill:none;stroke:#797979;stroke-linecap:round;stroke-width:1.5;"/>
   </g>
   <g id="line2d_47">
    <path clip-path="url(#pf656a675ce)" d="M 298.064323 80.447328 
L 298.064323 86.967072 
" style="fill:none;stroke:#797979;stroke-linecap:round;stroke-width:1.5;"/>
   </g>
   <g id="line2d_48"/>
   <g id="line2d_49">
    <path clip-path="url(#pf656a675ce)" d="M 215.739182 97.0128 
L 205.586757 97.0128 
" style="fill:none;stroke:#797979;stroke-linecap:round;stroke-width:1.5;"/>
   </g>
   <g id="line2d_50">
    <path clip-path="url(#pf656a675ce)" d="M 235.534882 97.0128 
L 258.83343 97.0128 
" style="fill:none;stroke:#797979;stroke-linecap:round;stroke-width:1.5;"/>
   </g>
   <g id="line2d_51">
    <path clip-path="url(#pf656a675ce)" d="M 205.586757 93.752928 
L 205.586757 100.272672 
" style="fill:none;stroke:#797979;stroke-linecap:round;stroke-width:1.5;"/>
   </g>
   <g id="line2d_52">
    <path clip-path="url(#pf656a675ce)" d="M 258.83343 93.752928 
L 258.83343 100.272672 
" style="fill:none;stroke:#797979;stroke-linecap:round;stroke-width:1.5;"/>
   </g>
   <g id="line2d_53">
    <g clip-path="url(#pf656a675ce)">
     <use style="fill:#797979;stroke:#797979;stroke-linejoin:miter;" x="282.510278" xlink:href="#m9c2cd2b791" y="97.0128"/>
    </g>
   </g>
   <g id="line2d_54">
    <path clip-path="url(#pf656a675ce)" d="M 267.658144 116.9712 
L 226.138837 116.9712 
" style="fill:none;stroke:#797979;stroke-linecap:round;stroke-width:1.5;"/>
   </g>
   <g id="line2d_55">
    <path clip-path="url(#pf656a675ce)" d="M 318.148394 116.9712 
L 388.387459 116.9712 
" style="fill:none;stroke:#797979;stroke-linecap:round;stroke-width:1.5;"/>
   </g>
   <g id="line2d_56">
    <path clip-path="url(#pf656a675ce)" d="M 226.138837 113.711328 
L 226.138837 120.231072 
" style="fill:none;stroke:#797979;stroke-linecap:round;stroke-width:1.5;"/>
   </g>
   <g id="line2d_57">
    <path clip-path="url(#pf656a675ce)" d="M 388.387459 113.711328 
L 388.387459 120.231072 
" style="fill:none;stroke:#797979;stroke-linecap:round;stroke-width:1.5;"/>
   </g>
   <g id="line2d_58">
    <g clip-path="url(#pf656a675ce)">
     <use style="fill:#797979;stroke:#797979;stroke-linejoin:miter;" x="397.880574" xlink:href="#m9c2cd2b791" y="116.9712"/>
    </g>
   </g>
   <g id="line2d_59">
    <path clip-path="url(#pf656a675ce)" d="M 215.227163 130.2768 
L 201.140326 130.2768 
" style="fill:none;stroke:#797979;stroke-linecap:round;stroke-width:1.5;"/>
   </g>
   <g id="line2d_60">
    <path clip-path="url(#pf656a675ce)" d="M 236.030217 130.2768 
L 245.691636 130.2768 
" style="fill:none;stroke:#797979;stroke-linecap:round;stroke-width:1.5;"/>
   </g>
   <g id="line2d_61">
    <path clip-path="url(#pf656a675ce)" d="M 201.140326 127.016928 
L 201.140326 133.536672 
" style="fill:none;stroke:#797979;stroke-linecap:round;stroke-width:1.5;"/>
   </g>
   <g id="line2d_62">
    <path clip-path="url(#pf656a675ce)" d="M 245.691636 127.016928 
L 245.691636 133.536672 
" style="fill:none;stroke:#797979;stroke-linecap:round;stroke-width:1.5;"/>
   </g>
   <g id="line2d_63">
    <g clip-path="url(#pf656a675ce)">
     <use style="fill:#797979;stroke:#797979;stroke-linejoin:miter;" x="268.590794" xlink:href="#m9c2cd2b791" y="130.2768"/>
    </g>
   </g>
   <g id="line2d_64">
    <path clip-path="url(#pf656a675ce)" d="M 273.187823 150.2352 
L 234.816993 150.2352 
" style="fill:none;stroke:#797979;stroke-linecap:round;stroke-width:1.5;"/>
   </g>
   <g id="line2d_65">
    <path clip-path="url(#pf656a675ce)" d="M 360.605179 150.2352 
L 456.195442 150.2352 
" style="fill:none;stroke:#797979;stroke-linecap:round;stroke-width:1.5;"/>
   </g>
   <g id="line2d_66">
    <path clip-path="url(#pf656a675ce)" d="M 234.816993 146.975328 
L 234.816993 153.495072 
" style="fill:none;stroke:#797979;stroke-linecap:round;stroke-width:1.5;"/>
   </g>
   <g id="line2d_67">
    <path clip-path="url(#pf656a675ce)" d="M 456.195442 146.975328 
L 456.195442 153.495072 
" style="fill:none;stroke:#797979;stroke-linecap:round;stroke-width:1.5;"/>
   </g>
   <g id="line2d_68">
    <g clip-path="url(#pf656a675ce)">
     <use style="fill:#797979;stroke:#797979;stroke-linejoin:miter;" x="791.789718" xlink:href="#m9c2cd2b791" y="150.2352"/>
    </g>
   </g>
   <g id="line2d_69">
    <path clip-path="url(#pf656a675ce)" d="M 236.732475 10.659456 
L 236.732475 23.698944 
" style="fill:none;stroke:#797979;stroke-linecap:round;stroke-width:1.5;"/>
   </g>
   <g id="line2d_70">
    <path clip-path="url(#pf656a675ce)" d="M 217.081131 23.965056 
L 217.081131 37.004544 
" style="fill:none;stroke:#797979;stroke-linecap:round;stroke-width:1.5;"/>
   </g>
   <g id="line2d_71">
    <path clip-path="url(#pf656a675ce)" d="M 250.715978 43.923456 
L 250.715978 56.962944 
" style="fill:none;stroke:#797979;stroke-linecap:round;stroke-width:1.5;"/>
   </g>
   <g id="line2d_72">
    <path clip-path="url(#pf656a675ce)" d="M 220.034177 57.229056 
L 220.034177 70.268544 
" style="fill:none;stroke:#797979;stroke-linecap:round;stroke-width:1.5;"/>
   </g>
   <g id="line2d_73">
    <path clip-path="url(#pf656a675ce)" d="M 259.272842 77.187456 
L 259.272842 90.226944 
" style="fill:none;stroke:#797979;stroke-linecap:round;stroke-width:1.5;"/>
   </g>
   <g id="line2d_74">
    <path clip-path="url(#pf656a675ce)" d="M 221.236766 90.493056 
L 221.236766 103.532544 
" style="fill:none;stroke:#797979;stroke-linecap:round;stroke-width:1.5;"/>
   </g>
   <g id="line2d_75">
    <path clip-path="url(#pf656a675ce)" d="M 288.690512 110.451456 
L 288.690512 123.490944 
" style="fill:none;stroke:#797979;stroke-linecap:round;stroke-width:1.5;"/>
   </g>
   <g id="line2d_76">
    <path clip-path="url(#pf656a675ce)" d="M 224.241624 123.757056 
L 224.241624 136.796544 
" style="fill:none;stroke:#797979;stroke-linecap:round;stroke-width:1.5;"/>
   </g>
   <g id="line2d_77">
    <path clip-path="url(#pf656a675ce)" d="M 291.442378 143.715456 
L 291.442378 156.754944 
" style="fill:none;stroke:#797979;stroke-linecap:round;stroke-width:1.5;"/>
   </g>
   <g id="patch_14">
    <path d="M 151.722188 173.52 
L 151.722188 7.2 
" style="fill:none;stroke:#262626;stroke-linecap:square;stroke-linejoin:miter;stroke-width:1.25;"/>
   </g>
   <g id="patch_15">
    <path d="M 821.322188 173.52 
L 821.322188 7.2 
" style="fill:none;stroke:#262626;stroke-linecap:square;stroke-linejoin:miter;stroke-width:1.25;"/>
   </g>
   <g id="patch_16">
    <path d="M 151.722188 173.52 
L 821.322188 173.52 
" style="fill:none;stroke:#262626;stroke-linecap:square;stroke-linejoin:miter;stroke-width:1.25;"/>
   </g>
   <g id="patch_17">
    <path d="M 151.722188 7.2 
L 821.322188 7.2 
" style="fill:none;stroke:#262626;stroke-linecap:square;stroke-linejoin:miter;stroke-width:1.25;"/>
   </g>
   <g id="PathCollection_3">
    <defs>
     <path d="M 0 1.5 
C 0.397805 1.5 0.77937 1.341951 1.06066 1.06066 
C 1.341951 0.77937 1.5 0.397805 1.5 -0 
C 1.5 -0.397805 1.341951 -0.77937 1.06066 -1.06066 
C 0.77937 -1.341951 0.397805 -1.5 0 -1.5 
C -0.397805 -1.5 -0.77937 -1.341951 -1.06066 -1.06066 
C -1.341951 -0.77937 -1.5 -0.397805 -1.5 0 
C -1.5 0.397805 -1.341951 0.77937 -1.06066 1.06066 
C -0.77937 1.341951 -0.397805 1.5 0 1.5 
z
" id="C0_0_6526cb76e4"/>
    </defs>
    <g clip-path="url(#pf656a675ce)">
     <use style="fill:#dd8452;fill-opacity:0.5;" x="204.281344" xlink:href="#C0_0_6526cb76e4" y="23.832"/>
    </g>
    <g clip-path="url(#pf656a675ce)">
     <use style="fill:#dd8452;fill-opacity:0.5;" x="208.969776" xlink:href="#C0_0_6526cb76e4" y="23.832"/>
    </g>
    <g clip-path="url(#pf656a675ce)">
     <use style="fill:#dd8452;fill-opacity:0.5;" x="210.132686" xlink:href="#C0_0_6526cb76e4" y="20.944292"/>
    </g>
    <g clip-path="url(#pf656a675ce)">
     <use style="fill:#dd8452;fill-opacity:0.5;" x="210.657062" xlink:href="#C0_0_6526cb76e4" y="26.398843"/>
    </g>
    <g clip-path="url(#pf656a675ce)">
     <use style="fill:#dd8452;fill-opacity:0.5;" x="210.866063" xlink:href="#C0_0_6526cb76e4" y="29.540713"/>
    </g>
    <g clip-path="url(#pf656a675ce)">
     <use style="fill:#dd8452;fill-opacity:0.5;" x="212.367614" xlink:href="#C0_0_6526cb76e4" y="23.832"/>
    </g>
    <g clip-path="url(#pf656a675ce)">
     <use style="fill:#dd8452;fill-opacity:0.5;" x="216.410058" xlink:href="#C0_0_6526cb76e4" y="23.832"/>
    </g>
    <g clip-path="url(#pf656a675ce)">
     <use style="fill:#dd8452;fill-opacity:0.5;" x="217.081131" xlink:href="#C0_0_6526cb76e4" y="20.76685"/>
    </g>
    <g clip-path="url(#pf656a675ce)">
     <use style="fill:#dd8452;fill-opacity:0.5;" x="218.452574" xlink:href="#C0_0_6526cb76e4" y="26.07636"/>
    </g>
    <g clip-path="url(#pf656a675ce)">
     <use style="fill:#dd8452;fill-opacity:0.5;" x="220.290952" xlink:href="#C0_0_6526cb76e4" y="23.63405"/>
    </g>
    <g clip-path="url(#pf656a675ce)">
     <use style="fill:#dd8452;fill-opacity:0.5;" x="224.838333" xlink:href="#C0_0_6526cb76e4" y="23.832"/>
    </g>
    <g clip-path="url(#pf656a675ce)">
     <use style="fill:#dd8452;fill-opacity:0.5;" x="227.485272" xlink:href="#C0_0_6526cb76e4" y="22.521277"/>
    </g>
    <g clip-path="url(#pf656a675ce)">
     <use style="fill:#4c72b0;fill-opacity:0.5;" x="228.489116" xlink:href="#C0_0_6526cb76e4" y="25.478042"/>
    </g>
    <g clip-path="url(#pf656a675ce)">
     <use style="fill:#4c72b0;fill-opacity:0.5;" x="230.243561" xlink:href="#C0_0_6526cb76e4" y="21.514703"/>
    </g>
    <g clip-path="url(#pf656a675ce)">
     <use style="fill:#4c72b0;fill-opacity:0.5;" x="231.525173" xlink:href="#C0_0_6526cb76e4" y="24.342964"/>
    </g>
    <g clip-path="url(#pf656a675ce)">
     <use style="fill:#4c72b0;fill-opacity:0.5;" x="232.73841" xlink:href="#C0_0_6526cb76e4" y="27.206323"/>
    </g>
    <g clip-path="url(#pf656a675ce)">
     <use style="fill:#4c72b0;fill-opacity:0.5;" x="234.555486" xlink:href="#C0_0_6526cb76e4" y="23.832"/>
    </g>
    <g clip-path="url(#pf656a675ce)">
     <use style="fill:#dd8452;fill-opacity:0.5;" x="235.590817" xlink:href="#C0_0_6526cb76e4" y="20.887977"/>
    </g>
    <g clip-path="url(#pf656a675ce)">
     <use style="fill:#4c72b0;fill-opacity:0.5;" x="236.550572" xlink:href="#C0_0_6526cb76e4" y="26.125775"/>
    </g>
    <g clip-path="url(#pf656a675ce)">
     <use style="fill:#4c72b0;fill-opacity:0.5;" x="236.599786" xlink:href="#C0_0_6526cb76e4" y="29.275325"/>
    </g>
    <g clip-path="url(#pf656a675ce)">
     <use style="fill:#4c72b0;fill-opacity:0.5;" x="236.732475" xlink:href="#C0_0_6526cb76e4" y="17.990356"/>
    </g>
    <g clip-path="url(#pf656a675ce)">
     <use style="fill:#4c72b0;fill-opacity:0.5;" x="239.705724" xlink:href="#C0_0_6526cb76e4" y="23.832"/>
    </g>
    <g clip-path="url(#pf656a675ce)">
     <use style="fill:#4c72b0;fill-opacity:0.5;" x="240.643184" xlink:href="#C0_0_6526cb76e4" y="20.849824"/>
    </g>
    <g clip-path="url(#pf656a675ce)">
     <use style="fill:#4c72b0;fill-opacity:0.5;" x="246.020337" xlink:href="#C0_0_6526cb76e4" y="23.832"/>
    </g>
    <g clip-path="url(#pf656a675ce)">
     <use style="fill:#dd8452;fill-opacity:0.5;" x="251.328961" xlink:href="#C0_0_6526cb76e4" y="23.832"/>
    </g>
    <g clip-path="url(#pf656a675ce)">
     <use style="fill:#4c72b0;fill-opacity:0.5;" x="267.076271" xlink:href="#C0_0_6526cb76e4" y="23.832"/>
    </g>
    <g clip-path="url(#pf656a675ce)">
     <use style="fill:#4c72b0;fill-opacity:0.5;" x="273.556788" xlink:href="#C0_0_6526cb76e4" y="23.832"/>
    </g>
    <g clip-path="url(#pf656a675ce)">
     <use style="fill:#4c72b0;fill-opacity:0.5;" x="284.860532" xlink:href="#C0_0_6526cb76e4" y="23.832"/>
    </g>
    <g clip-path="url(#pf656a675ce)">
     <use style="fill:#4c72b0;fill-opacity:0.5;" x="296.234901" xlink:href="#C0_0_6526cb76e4" y="23.832"/>
    </g>
    <g clip-path="url(#pf656a675ce)">
     <use style="fill:#dd8452;fill-opacity:0.5;" x="383.09087" xlink:href="#C0_0_6526cb76e4" y="23.832"/>
    </g>
   </g>
   <g id="PathCollection_4">
    <defs>
     <path d="M 0 1.5 
C 0.397805 1.5 0.77937 1.341951 1.06066 1.06066 
C 1.341951 0.77937 1.5 0.397805 1.5 -0 
C 1.5 -0.397805 1.341951 -0.77937 1.06066 -1.06066 
C 0.77937 -1.341951 0.397805 -1.5 0 -1.5 
C -0.397805 -1.5 -0.77937 -1.341951 -1.06066 -1.06066 
C -1.341951 -0.77937 -1.5 -0.397805 -1.5 0 
C -1.5 0.397805 -1.341951 0.77937 -1.06066 1.06066 
C -0.77937 1.341951 -0.397805 1.5 0 1.5 
z
" id="C1_0_a344b16aca"/>
    </defs>
    <g clip-path="url(#pf656a675ce)">
     <use style="fill:#dd8452;fill-opacity:0.5;" x="203.485252" xlink:href="#C1_0_a344b16aca" y="57.096"/>
    </g>
    <g clip-path="url(#pf656a675ce)">
     <use style="fill:#dd8452;fill-opacity:0.5;" x="204.93383" xlink:href="#C1_0_a344b16aca" y="54.363738"/>
    </g>
    <g clip-path="url(#pf656a675ce)">
     <use style="fill:#dd8452;fill-opacity:0.5;" x="206.3127" xlink:href="#C1_0_a344b16aca" y="57.844876"/>
    </g>
    <g clip-path="url(#pf656a675ce)">
     <use style="fill:#dd8452;fill-opacity:0.5;" x="206.51257" xlink:href="#C1_0_a344b16aca" y="60.987442"/>
    </g>
    <g clip-path="url(#pf656a675ce)">
     <use style="fill:#dd8452;fill-opacity:0.5;" x="214.385888" xlink:href="#C1_0_a344b16aca" y="57.096"/>
    </g>
    <g clip-path="url(#pf656a675ce)">
     <use style="fill:#dd8452;fill-opacity:0.5;" x="218.422224" xlink:href="#C1_0_a344b16aca" y="57.096"/>
    </g>
    <g clip-path="url(#pf656a675ce)">
     <use style="fill:#dd8452;fill-opacity:0.5;" x="219.615476" xlink:href="#C1_0_a344b16aca" y="54.222824"/>
    </g>
    <g clip-path="url(#pf656a675ce)">
     <use style="fill:#dd8452;fill-opacity:0.5;" x="220.034177" xlink:href="#C1_0_a344b16aca" y="59.718924"/>
    </g>
    <g clip-path="url(#pf656a675ce)">
     <use style="fill:#dd8452;fill-opacity:0.5;" x="224.512372" xlink:href="#C1_0_a344b16aca" y="57.096"/>
    </g>
    <g clip-path="url(#pf656a675ce)">
     <use style="fill:#dd8452;fill-opacity:0.5;" x="226.94744" xlink:href="#C1_0_a344b16aca" y="55.37006"/>
    </g>
    <g clip-path="url(#pf656a675ce)">
     <use style="fill:#dd8452;fill-opacity:0.5;" x="229.056541" xlink:href="#C1_0_a344b16aca" y="57.541106"/>
    </g>
    <g clip-path="url(#pf656a675ce)">
     <use style="fill:#dd8452;fill-opacity:0.5;" x="233.232196" xlink:href="#C1_0_a344b16aca" y="57.096"/>
    </g>
    <g clip-path="url(#pf656a675ce)">
     <use style="fill:#dd8452;fill-opacity:0.5;" x="234.524687" xlink:href="#C1_0_a344b16aca" y="54.273542"/>
    </g>
    <g clip-path="url(#pf656a675ce)">
     <use style="fill:#4c72b0;fill-opacity:0.5;" x="236.092545" xlink:href="#C1_0_a344b16aca" y="57.680532"/>
    </g>
    <g clip-path="url(#pf656a675ce)">
     <use style="fill:#dd8452;fill-opacity:0.5;" x="237.12354" xlink:href="#C1_0_a344b16aca" y="60.626336"/>
    </g>
    <g clip-path="url(#pf656a675ce)">
     <use style="fill:#dd8452;fill-opacity:0.5;" x="237.42802" xlink:href="#C1_0_a344b16aca" y="54.881605"/>
    </g>
    <g clip-path="url(#pf656a675ce)">
     <use style="fill:#4c72b0;fill-opacity:0.5;" x="240.337518" xlink:href="#C1_0_a344b16aca" y="57.096"/>
    </g>
    <g clip-path="url(#pf656a675ce)">
     <use style="fill:#4c72b0;fill-opacity:0.5;" x="241.413992" xlink:href="#C1_0_a344b16aca" y="54.169308"/>
    </g>
    <g clip-path="url(#pf656a675ce)">
     <use style="fill:#4c72b0;fill-opacity:0.5;" x="242.65544" xlink:href="#C1_0_a344b16aca" y="59.001488"/>
    </g>
    <g clip-path="url(#pf656a675ce)">
     <use style="fill:#4c72b0;fill-opacity:0.5;" x="242.792816" xlink:href="#C1_0_a344b16aca" y="62.147978"/>
    </g>
    <g clip-path="url(#pf656a675ce)">
     <use style="fill:#4c72b0;fill-opacity:0.5;" x="247.054111" xlink:href="#C1_0_a344b16aca" y="57.096"/>
    </g>
    <g clip-path="url(#pf656a675ce)">
     <use style="fill:#4c72b0;fill-opacity:0.5;" x="248.329088" xlink:href="#C1_0_a344b16aca" y="54.264229"/>
    </g>
    <g clip-path="url(#pf656a675ce)">
     <use style="fill:#4c72b0;fill-opacity:0.5;" x="250.715978" xlink:href="#C1_0_a344b16aca" y="57.096"/>
    </g>
    <g clip-path="url(#pf656a675ce)">
     <use style="fill:#4c72b0;fill-opacity:0.5;" x="253.629918" xlink:href="#C1_0_a344b16aca" y="57.096"/>
    </g>
    <g clip-path="url(#pf656a675ce)">
     <use style="fill:#4c72b0;fill-opacity:0.5;" x="256.320628" xlink:href="#C1_0_a344b16aca" y="55.894168"/>
    </g>
    <g clip-path="url(#pf656a675ce)">
     <use style="fill:#4c72b0;fill-opacity:0.5;" x="260.537972" xlink:href="#C1_0_a344b16aca" y="57.096"/>
    </g>
    <g clip-path="url(#pf656a675ce)">
     <use style="fill:#4c72b0;fill-opacity:0.5;" x="266.466899" xlink:href="#C1_0_a344b16aca" y="57.096"/>
    </g>
    <g clip-path="url(#pf656a675ce)">
     <use style="fill:#4c72b0;fill-opacity:0.5;" x="267.857347" xlink:href="#C1_0_a344b16aca" y="54.328598"/>
    </g>
    <g clip-path="url(#pf656a675ce)">
     <use style="fill:#4c72b0;fill-opacity:0.5;" x="278.673799" xlink:href="#C1_0_a344b16aca" y="57.096"/>
    </g>
    <g clip-path="url(#pf656a675ce)">
     <use style="fill:#4c72b0;fill-opacity:0.5;" x="284.58537" xlink:href="#C1_0_a344b16aca" y="57.096"/>
    </g>
   </g>
   <g id="PathCollection_5">
    <defs>
     <path d="M 0 1.5 
C 0.397805 1.5 0.77937 1.341951 1.06066 1.06066 
C 1.341951 0.77937 1.5 0.397805 1.5 -0 
C 1.5 -0.397805 1.341951 -0.77937 1.06066 -1.06066 
C 0.77937 -1.341951 0.397805 -1.5 0 -1.5 
C -0.397805 -1.5 -0.77937 -1.341951 -1.06066 -1.06066 
C -1.341951 -0.77937 -1.5 -0.397805 -1.5 0 
C -1.5 0.397805 -1.341951 0.77937 -1.06066 1.06066 
C -0.77937 1.341951 -0.397805 1.5 0 1.5 
z
" id="C2_0_d9c4fd700b"/>
    </defs>
    <g clip-path="url(#pf656a675ce)">
     <use style="fill:#dd8452;fill-opacity:0.5;" x="205.586757" xlink:href="#C2_0_d9c4fd700b" y="90.36"/>
    </g>
    <g clip-path="url(#pf656a675ce)">
     <use style="fill:#dd8452;fill-opacity:0.5;" x="210.596669" xlink:href="#C2_0_d9c4fd700b" y="90.36"/>
    </g>
    <g clip-path="url(#pf656a675ce)">
     <use style="fill:#dd8452;fill-opacity:0.5;" x="213.377756" xlink:href="#C2_0_d9c4fd700b" y="89.429783"/>
    </g>
    <g clip-path="url(#pf656a675ce)">
     <use style="fill:#dd8452;fill-opacity:0.5;" x="215.66365" xlink:href="#C2_0_d9c4fd700b" y="91.380053"/>
    </g>
    <g clip-path="url(#pf656a675ce)">
     <use style="fill:#dd8452;fill-opacity:0.5;" x="215.814714" xlink:href="#C2_0_d9c4fd700b" y="87.706969"/>
    </g>
    <g clip-path="url(#pf656a675ce)">
     <use style="fill:#dd8452;fill-opacity:0.5;" x="216.697359" xlink:href="#C2_0_d9c4fd700b" y="94.324743"/>
    </g>
    <g clip-path="url(#pf656a675ce)">
     <use style="fill:#dd8452;fill-opacity:0.5;" x="218.843816" xlink:href="#C2_0_d9c4fd700b" y="90.36"/>
    </g>
    <g clip-path="url(#pf656a675ce)">
     <use style="fill:#dd8452;fill-opacity:0.5;" x="221.236766" xlink:href="#C2_0_d9c4fd700b" y="88.566403"/>
    </g>
    <g clip-path="url(#pf656a675ce)">
     <use style="fill:#dd8452;fill-opacity:0.5;" x="224.542867" xlink:href="#C2_0_d9c4fd700b" y="90.36"/>
    </g>
    <g clip-path="url(#pf656a675ce)">
     <use style="fill:#4c72b0;fill-opacity:0.5;" x="225.620161" xlink:href="#C2_0_d9c4fd700b" y="87.433661"/>
    </g>
    <g clip-path="url(#pf656a675ce)">
     <use style="fill:#dd8452;fill-opacity:0.5;" x="229.712715" xlink:href="#C2_0_d9c4fd700b" y="90.36"/>
    </g>
    <g clip-path="url(#pf656a675ce)">
     <use style="fill:#4c72b0;fill-opacity:0.5;" x="232.499299" xlink:href="#C2_0_d9c4fd700b" y="89.44925"/>
    </g>
    <g clip-path="url(#pf656a675ce)">
     <use style="fill:#4c72b0;fill-opacity:0.5;" x="233.365204" xlink:href="#C2_0_d9c4fd700b" y="92.456654"/>
    </g>
    <g clip-path="url(#pf656a675ce)">
     <use style="fill:#dd8452;fill-opacity:0.5;" x="233.586002" xlink:href="#C2_0_d9c4fd700b" y="86.526988"/>
    </g>
    <g clip-path="url(#pf656a675ce)">
     <use style="fill:#dd8452;fill-opacity:0.5;" x="237.483763" xlink:href="#C2_0_d9c4fd700b" y="90.36"/>
    </g>
    <g clip-path="url(#pf656a675ce)">
     <use style="fill:#4c72b0;fill-opacity:0.5;" x="237.718626" xlink:href="#C2_0_d9c4fd700b" y="87.22027"/>
    </g>
    <g clip-path="url(#pf656a675ce)">
     <use style="fill:#dd8452;fill-opacity:0.5;" x="238.837053" xlink:href="#C2_0_d9c4fd700b" y="93.148888"/>
    </g>
    <g clip-path="url(#pf656a675ce)">
     <use style="fill:#4c72b0;fill-opacity:0.5;" x="242.426701" xlink:href="#C2_0_d9c4fd700b" y="90.36"/>
    </g>
    <g clip-path="url(#pf656a675ce)">
     <use style="fill:#4c72b0;fill-opacity:0.5;" x="249.353384" xlink:href="#C2_0_d9c4fd700b" y="90.36"/>
    </g>
    <g clip-path="url(#pf656a675ce)">
     <use style="fill:#4c72b0;fill-opacity:0.5;" x="254.522733" xlink:href="#C2_0_d9c4fd700b" y="90.36"/>
    </g>
    <g clip-path="url(#pf656a675ce)">
     <use style="fill:#dd8452;fill-opacity:0.5;" x="258.83343" xlink:href="#C2_0_d9c4fd700b" y="90.36"/>
    </g>
    <g clip-path="url(#pf656a675ce)">
     <use style="fill:#4c72b0;fill-opacity:0.5;" x="259.272842" xlink:href="#C2_0_d9c4fd700b" y="87.246096"/>
    </g>
    <g clip-path="url(#pf656a675ce)">
     <use style="fill:#4c72b0;fill-opacity:0.5;" x="259.313727" xlink:href="#C2_0_d9c4fd700b" y="93.466825"/>
    </g>
    <g clip-path="url(#pf656a675ce)">
     <use style="fill:#4c72b0;fill-opacity:0.5;" x="263.012947" xlink:href="#C2_0_d9c4fd700b" y="90.36"/>
    </g>
    <g clip-path="url(#pf656a675ce)">
     <use style="fill:#4c72b0;fill-opacity:0.5;" x="268.686836" xlink:href="#C2_0_d9c4fd700b" y="90.36"/>
    </g>
    <g clip-path="url(#pf656a675ce)">
     <use style="fill:#4c72b0;fill-opacity:0.5;" x="270.914847" xlink:href="#C2_0_d9c4fd700b" y="88.332807"/>
    </g>
    <g clip-path="url(#pf656a675ce)">
     <use style="fill:#4c72b0;fill-opacity:0.5;" x="275.823382" xlink:href="#C2_0_d9c4fd700b" y="90.36"/>
    </g>
    <g clip-path="url(#pf656a675ce)">
     <use style="fill:#dd8452;fill-opacity:0.5;" x="282.510278" xlink:href="#C2_0_d9c4fd700b" y="90.36"/>
    </g>
    <g clip-path="url(#pf656a675ce)">
     <use style="fill:#4c72b0;fill-opacity:0.5;" x="294.644101" xlink:href="#C2_0_d9c4fd700b" y="90.36"/>
    </g>
    <g clip-path="url(#pf656a675ce)">
     <use style="fill:#4c72b0;fill-opacity:0.5;" x="298.064323" xlink:href="#C2_0_d9c4fd700b" y="90.36"/>
    </g>
   </g>
   <g id="PathCollection_6">
    <defs>
     <path d="M 0 1.5 
C 0.397805 1.5 0.77937 1.341951 1.06066 1.06066 
C 1.341951 0.77937 1.5 0.397805 1.5 -0 
C 1.5 -0.397805 1.341951 -0.77937 1.06066 -1.06066 
C 0.77937 -1.341951 0.397805 -1.5 0 -1.5 
C -0.397805 -1.5 -0.77937 -1.341951 -1.06066 -1.06066 
C -1.341951 -0.77937 -1.5 -0.397805 -1.5 0 
C -1.5 0.397805 -1.341951 0.77937 -1.06066 1.06066 
C -0.77937 1.341951 -0.397805 1.5 0 1.5 
z
" id="C3_0_1f12db67ed"/>
    </defs>
    <g clip-path="url(#pf656a675ce)">
     <use style="fill:#dd8452;fill-opacity:0.5;" x="201.140326" xlink:href="#C3_0_1f12db67ed" y="123.624"/>
    </g>
    <g clip-path="url(#pf656a675ce)">
     <use style="fill:#dd8452;fill-opacity:0.5;" x="202.149342" xlink:href="#C3_0_1f12db67ed" y="120.669297"/>
    </g>
    <g clip-path="url(#pf656a675ce)">
     <use style="fill:#dd8452;fill-opacity:0.5;" x="209.299805" xlink:href="#C3_0_1f12db67ed" y="123.624"/>
    </g>
    <g clip-path="url(#pf656a675ce)">
     <use style="fill:#dd8452;fill-opacity:0.5;" x="214.877366" xlink:href="#C3_0_1f12db67ed" y="123.624"/>
    </g>
    <g clip-path="url(#pf656a675ce)">
     <use style="fill:#dd8452;fill-opacity:0.5;" x="215.57696" xlink:href="#C3_0_1f12db67ed" y="120.566327"/>
    </g>
    <g clip-path="url(#pf656a675ce)">
     <use style="fill:#dd8452;fill-opacity:0.5;" x="219.017072" xlink:href="#C3_0_1f12db67ed" y="123.624"/>
    </g>
    <g clip-path="url(#pf656a675ce)">
     <use style="fill:#dd8452;fill-opacity:0.5;" x="223.758789" xlink:href="#C3_0_1f12db67ed" y="123.624"/>
    </g>
    <g clip-path="url(#pf656a675ce)">
     <use style="fill:#dd8452;fill-opacity:0.5;" x="224.241624" xlink:href="#C3_0_1f12db67ed" y="120.517635"/>
    </g>
    <g clip-path="url(#pf656a675ce)">
     <use style="fill:#4c72b0;fill-opacity:0.5;" x="226.138837" xlink:href="#C3_0_1f12db67ed" y="125.437588"/>
    </g>
    <g clip-path="url(#pf656a675ce)">
     <use style="fill:#dd8452;fill-opacity:0.5;" x="229.054693" xlink:href="#C3_0_1f12db67ed" y="123.624"/>
    </g>
    <g clip-path="url(#pf656a675ce)">
     <use style="fill:#dd8452;fill-opacity:0.5;" x="229.832748" xlink:href="#C3_0_1f12db67ed" y="120.588609"/>
    </g>
    <g clip-path="url(#pf656a675ce)">
     <use style="fill:#dd8452;fill-opacity:0.5;" x="231.498942" xlink:href="#C3_0_1f12db67ed" y="125.334675"/>
    </g>
    <g clip-path="url(#pf656a675ce)">
     <use style="fill:#dd8452;fill-opacity:0.5;" x="240.561493" xlink:href="#C3_0_1f12db67ed" y="123.624"/>
    </g>
    <g clip-path="url(#pf656a675ce)">
     <use style="fill:#dd8452;fill-opacity:0.5;" x="242.623631" xlink:href="#C3_0_1f12db67ed" y="121.40075"/>
    </g>
    <g clip-path="url(#pf656a675ce)">
     <use style="fill:#dd8452;fill-opacity:0.5;" x="245.691636" xlink:href="#C3_0_1f12db67ed" y="123.624"/>
    </g>
    <g clip-path="url(#pf656a675ce)">
     <use style="fill:#4c72b0;fill-opacity:0.5;" x="258.903137" xlink:href="#C3_0_1f12db67ed" y="123.624"/>
    </g>
    <g clip-path="url(#pf656a675ce)">
     <use style="fill:#4c72b0;fill-opacity:0.5;" x="260.650055" xlink:href="#C3_0_1f12db67ed" y="121.104304"/>
    </g>
    <g clip-path="url(#pf656a675ce)">
     <use style="fill:#4c72b0;fill-opacity:0.5;" x="266.913907" xlink:href="#C3_0_1f12db67ed" y="123.624"/>
    </g>
    <g clip-path="url(#pf656a675ce)">
     <use style="fill:#4c72b0;fill-opacity:0.5;" x="268.402381" xlink:href="#C3_0_1f12db67ed" y="120.916964"/>
    </g>
    <g clip-path="url(#pf656a675ce)">
     <use style="fill:#dd8452;fill-opacity:0.5;" x="268.590794" xlink:href="#C3_0_1f12db67ed" y="126.19881"/>
    </g>
    <g clip-path="url(#pf656a675ce)">
     <use style="fill:#4c72b0;fill-opacity:0.5;" x="269.04244" xlink:href="#C3_0_1f12db67ed" y="129.310664"/>
    </g>
    <g clip-path="url(#pf656a675ce)">
     <use style="fill:#4c72b0;fill-opacity:0.5;" x="272.53031" xlink:href="#C3_0_1f12db67ed" y="123.624"/>
    </g>
    <g clip-path="url(#pf656a675ce)">
     <use style="fill:#4c72b0;fill-opacity:0.5;" x="288.690512" xlink:href="#C3_0_1f12db67ed" y="123.624"/>
    </g>
    <g clip-path="url(#pf656a675ce)">
     <use style="fill:#4c72b0;fill-opacity:0.5;" x="290.182534" xlink:href="#C3_0_1f12db67ed" y="120.919253"/>
    </g>
    <g clip-path="url(#pf656a675ce)">
     <use style="fill:#4c72b0;fill-opacity:0.5;" x="291.283196" xlink:href="#C3_0_1f12db67ed" y="125.056092"/>
    </g>
    <g clip-path="url(#pf656a675ce)">
     <use style="fill:#4c72b0;fill-opacity:0.5;" x="306.950183" xlink:href="#C3_0_1f12db67ed" y="123.624"/>
    </g>
    <g clip-path="url(#pf656a675ce)">
     <use style="fill:#4c72b0;fill-opacity:0.5;" x="329.346605" xlink:href="#C3_0_1f12db67ed" y="123.624"/>
    </g>
    <g clip-path="url(#pf656a675ce)">
     <use style="fill:#4c72b0;fill-opacity:0.5;" x="343.058517" xlink:href="#C3_0_1f12db67ed" y="123.624"/>
    </g>
    <g clip-path="url(#pf656a675ce)">
     <use style="fill:#4c72b0;fill-opacity:0.5;" x="388.387459" xlink:href="#C3_0_1f12db67ed" y="123.624"/>
    </g>
    <g clip-path="url(#pf656a675ce)">
     <use style="fill:#4c72b0;fill-opacity:0.5;" x="397.880574" xlink:href="#C3_0_1f12db67ed" y="123.624"/>
    </g>
   </g>
   <g id="PathCollection_7">
    <defs>
     <path d="M 0 1.5 
C 0.397805 1.5 0.77937 1.341951 1.06066 1.06066 
C 1.341951 0.77937 1.5 0.397805 1.5 -0 
C 1.5 -0.397805 1.341951 -0.77937 1.06066 -1.06066 
C 0.77937 -1.341951 0.397805 -1.5 0 -1.5 
C -0.397805 -1.5 -0.77937 -1.341951 -1.06066 -1.06066 
C -1.341951 -0.77937 -1.5 -0.397805 -1.5 0 
C -1.5 0.397805 -1.341951 0.77937 -1.06066 1.06066 
C -0.77937 1.341951 -0.397805 1.5 0 1.5 
z
" id="C4_0_1022a15bd2"/>
    </defs>
    <g clip-path="url(#pf656a675ce)">
     <use style="fill:#4c72b0;fill-opacity:0.5;" x="234.816993" xlink:href="#C4_0_1022a15bd2" y="156.888"/>
    </g>
    <g clip-path="url(#pf656a675ce)">
     <use style="fill:#4c72b0;fill-opacity:0.5;" x="250.868455" xlink:href="#C4_0_1022a15bd2" y="156.888"/>
    </g>
    <g clip-path="url(#pf656a675ce)">
     <use style="fill:#4c72b0;fill-opacity:0.5;" x="264.070533" xlink:href="#C4_0_1022a15bd2" y="156.888"/>
    </g>
    <g clip-path="url(#pf656a675ce)">
     <use style="fill:#4c72b0;fill-opacity:0.5;" x="268.79725" xlink:href="#C4_0_1022a15bd2" y="156.888"/>
    </g>
    <g clip-path="url(#pf656a675ce)">
     <use style="fill:#4c72b0;fill-opacity:0.5;" x="277.578397" xlink:href="#C4_0_1022a15bd2" y="156.888"/>
    </g>
    <g clip-path="url(#pf656a675ce)">
     <use style="fill:#4c72b0;fill-opacity:0.5;" x="279.242012" xlink:href="#C4_0_1022a15bd2" y="154.303127"/>
    </g>
    <g clip-path="url(#pf656a675ce)">
     <use style="fill:#4c72b0;fill-opacity:0.5;" x="289.706768" xlink:href="#C4_0_1022a15bd2" y="156.888"/>
    </g>
    <g clip-path="url(#pf656a675ce)">
     <use style="fill:#4c72b0;fill-opacity:0.5;" x="291.442378" xlink:href="#C4_0_1022a15bd2" y="154.359169"/>
    </g>
    <g clip-path="url(#pf656a675ce)">
     <use style="fill:#4c72b0;fill-opacity:0.5;" x="292.962859" xlink:href="#C4_0_1022a15bd2" y="157.045293"/>
    </g>
    <g clip-path="url(#pf656a675ce)">
     <use style="fill:#4c72b0;fill-opacity:0.5;" x="293.505083" xlink:href="#C4_0_1022a15bd2" y="160.140161"/>
    </g>
    <g clip-path="url(#pf656a675ce)">
     <use style="fill:#4c72b0;fill-opacity:0.5;" x="350.747215" xlink:href="#C4_0_1022a15bd2" y="156.888"/>
    </g>
    <g clip-path="url(#pf656a675ce)">
     <use style="fill:#4c72b0;fill-opacity:0.5;" x="370.463142" xlink:href="#C4_0_1022a15bd2" y="156.888"/>
    </g>
    <g clip-path="url(#pf656a675ce)">
     <use style="fill:#4c72b0;fill-opacity:0.5;" x="420.664642" xlink:href="#C4_0_1022a15bd2" y="156.888"/>
    </g>
    <g clip-path="url(#pf656a675ce)">
     <use style="fill:#4c72b0;fill-opacity:0.5;" x="456.195442" xlink:href="#C4_0_1022a15bd2" y="156.888"/>
    </g>
    <g clip-path="url(#pf656a675ce)">
     <use style="fill:#4c72b0;fill-opacity:0.5;" x="791.789718" xlink:href="#C4_0_1022a15bd2" y="156.888"/>
    </g>
   </g>
   <g id="legend_1">
    <g id="patch_18">
     <path d="M 715.617344 97.6975 
L 813.622188 97.6975 
Q 815.822188 97.6975 815.822188 95.4975 
L 815.822188 14.9 
Q 815.822188 12.7 813.622188 12.7 
L 715.617344 12.7 
Q 713.417344 12.7 713.417344 14.9 
L 713.417344 95.4975 
Q 713.417344 97.6975 715.617344 97.6975 
z
" style="fill:#ffffff;opacity:0.8;stroke:#cccccc;stroke-linejoin:miter;"/>
    </g>
    <g id="text_17">
     <!-- Application -->
     <g style="fill:#262626;" transform="translate(731.094766 26.218125)scale(0.12 -0.12)">
      <defs>
       <path d="M 34.1875 63.1875 
L 20.796875 26.90625 
L 47.609375 26.90625 
z
M 28.609375 72.90625 
L 39.796875 72.90625 
L 67.578125 0 
L 57.328125 0 
L 50.6875 18.703125 
L 17.828125 18.703125 
L 11.1875 0 
L 0.78125 0 
z
" id="DejaVuSans-65"/>
      </defs>
      <use xlink:href="#DejaVuSans-65"/>
      <use x="68.408203" xlink:href="#DejaVuSans-112"/>
      <use x="131.884766" xlink:href="#DejaVuSans-112"/>
      <use x="195.361328" xlink:href="#DejaVuSans-108"/>
      <use x="223.144531" xlink:href="#DejaVuSans-105"/>
      <use x="250.927734" xlink:href="#DejaVuSans-99"/>
      <use x="305.908203" xlink:href="#DejaVuSans-97"/>
      <use x="367.1875" xlink:href="#DejaVuSans-116"/>
      <use x="406.396484" xlink:href="#DejaVuSans-105"/>
      <use x="434.179688" xlink:href="#DejaVuSans-111"/>
      <use x="495.361328" xlink:href="#DejaVuSans-110"/>
     </g>
    </g>
    <g id="patch_19">
     <path d="M 717.817344 42.572031 
L 739.817344 42.572031 
L 739.817344 34.872031 
L 717.817344 34.872031 
z
" style="fill:#c0c7d4;stroke:#797979;stroke-linejoin:miter;stroke-width:0.75;"/>
    </g>
    <g id="text_18">
     <!-- PostgreSQL -->
     <g style="fill:#262626;" transform="translate(748.617344 42.572031)scale(0.11 -0.11)">
      <defs>
       <path d="M 45.40625 27.984375 
Q 45.40625 37.75 41.375 43.109375 
Q 37.359375 48.484375 30.078125 48.484375 
Q 22.859375 48.484375 18.828125 43.109375 
Q 14.796875 37.75 14.796875 27.984375 
Q 14.796875 18.265625 18.828125 12.890625 
Q 22.859375 7.515625 30.078125 7.515625 
Q 37.359375 7.515625 41.375 12.890625 
Q 45.40625 18.265625 45.40625 27.984375 
z
M 54.390625 6.78125 
Q 54.390625 -7.171875 48.1875 -13.984375 
Q 42 -20.796875 29.203125 -20.796875 
Q 24.46875 -20.796875 20.265625 -20.09375 
Q 16.0625 -19.390625 12.109375 -17.921875 
L 12.109375 -9.1875 
Q 16.0625 -11.328125 19.921875 -12.34375 
Q 23.78125 -13.375 27.78125 -13.375 
Q 36.625 -13.375 41.015625 -8.765625 
Q 45.40625 -4.15625 45.40625 5.171875 
L 45.40625 9.625 
Q 42.625 4.78125 38.28125 2.390625 
Q 33.9375 0 27.875 0 
Q 17.828125 0 11.671875 7.65625 
Q 5.515625 15.328125 5.515625 27.984375 
Q 5.515625 40.671875 11.671875 48.328125 
Q 17.828125 56 27.875 56 
Q 33.9375 56 38.28125 53.609375 
Q 42.625 51.21875 45.40625 46.390625 
L 45.40625 54.6875 
L 54.390625 54.6875 
z
" id="DejaVuSans-103"/>
       <path d="M 53.515625 70.515625 
L 53.515625 60.890625 
Q 47.90625 63.578125 42.921875 64.890625 
Q 37.9375 66.21875 33.296875 66.21875 
Q 25.25 66.21875 20.875 63.09375 
Q 16.5 59.96875 16.5 54.203125 
Q 16.5 49.359375 19.40625 46.890625 
Q 22.3125 44.4375 30.421875 42.921875 
L 36.375 41.703125 
Q 47.40625 39.59375 52.65625 34.296875 
Q 57.90625 29 57.90625 20.125 
Q 57.90625 9.515625 50.796875 4.046875 
Q 43.703125 -1.421875 29.984375 -1.421875 
Q 24.8125 -1.421875 18.96875 -0.25 
Q 13.140625 0.921875 6.890625 3.21875 
L 6.890625 13.375 
Q 12.890625 10.015625 18.65625 8.296875 
Q 24.421875 6.59375 29.984375 6.59375 
Q 38.421875 6.59375 43.015625 9.90625 
Q 47.609375 13.234375 47.609375 19.390625 
Q 47.609375 24.75 44.3125 27.78125 
Q 41.015625 30.8125 33.5 32.328125 
L 27.484375 33.5 
Q 16.453125 35.6875 11.515625 40.375 
Q 6.59375 45.0625 6.59375 53.421875 
Q 6.59375 63.09375 13.40625 68.65625 
Q 20.21875 74.21875 32.171875 74.21875 
Q 37.3125 74.21875 42.625 73.28125 
Q 47.953125 72.359375 53.515625 70.515625 
z
" id="DejaVuSans-83"/>
       <path d="M 39.40625 66.21875 
Q 28.65625 66.21875 22.328125 58.203125 
Q 16.015625 50.203125 16.015625 36.375 
Q 16.015625 22.609375 22.328125 14.59375 
Q 28.65625 6.59375 39.40625 6.59375 
Q 50.140625 6.59375 56.421875 14.59375 
Q 62.703125 22.609375 62.703125 36.375 
Q 62.703125 50.203125 56.421875 58.203125 
Q 50.140625 66.21875 39.40625 66.21875 
z
M 53.21875 1.3125 
L 66.21875 -12.890625 
L 54.296875 -12.890625 
L 43.5 -1.21875 
Q 41.890625 -1.3125 41.03125 -1.359375 
Q 40.1875 -1.421875 39.40625 -1.421875 
Q 24.03125 -1.421875 14.8125 8.859375 
Q 5.609375 19.140625 5.609375 36.375 
Q 5.609375 53.65625 14.8125 63.9375 
Q 24.03125 74.21875 39.40625 74.21875 
Q 54.734375 74.21875 63.90625 63.9375 
Q 73.09375 53.65625 73.09375 36.375 
Q 73.09375 23.6875 67.984375 14.640625 
Q 62.890625 5.609375 53.21875 1.3125 
z
" id="DejaVuSans-81"/>
       <path d="M 9.8125 72.90625 
L 19.671875 72.90625 
L 19.671875 8.296875 
L 55.171875 8.296875 
L 55.171875 0 
L 9.8125 0 
z
" id="DejaVuSans-76"/>
      </defs>
      <use xlink:href="#DejaVuSans-80"/>
      <use x="56.677734" xlink:href="#DejaVuSans-111"/>
      <use x="117.859375" xlink:href="#DejaVuSans-115"/>
      <use x="169.958984" xlink:href="#DejaVuSans-116"/>
      <use x="209.167969" xlink:href="#DejaVuSans-103"/>
      <use x="272.644531" xlink:href="#DejaVuSans-114"/>
      <use x="311.507812" xlink:href="#DejaVuSans-101"/>
      <use x="373.03125" xlink:href="#DejaVuSans-83"/>
      <use x="436.507812" xlink:href="#DejaVuSans-81"/>
      <use x="515.21875" xlink:href="#DejaVuSans-76"/>
     </g>
    </g>
    <g id="patch_20">
     <path d="M 717.817344 58.717969 
L 739.817344 58.717969 
L 739.817344 51.017969 
L 717.817344 51.017969 
z
" style="fill:#dbbdbc;stroke:#797979;stroke-linejoin:miter;stroke-width:0.75;"/>
    </g>
    <g id="text_19">
     <!-- Redis -->
     <g style="fill:#262626;" transform="translate(748.617344 58.717969)scale(0.11 -0.11)">
      <use xlink:href="#DejaVuSans-82"/>
      <use x="64.982422" xlink:href="#DejaVuSans-101"/>
      <use x="126.505859" xlink:href="#DejaVuSans-100"/>
      <use x="189.982422" xlink:href="#DejaVuSans-105"/>
      <use x="217.765625" xlink:href="#DejaVuSans-115"/>
     </g>
    </g>
    <g id="PathCollection_8">
     <defs>
      <path d="M 0 3.872983 
C 1.027127 3.872983 2.012324 3.464901 2.738613 2.738613 
C 3.464901 2.012324 3.872983 1.027127 3.872983 0 
C 3.872983 -1.027127 3.464901 -2.012324 2.738613 -2.738613 
C 2.012324 -3.464901 1.027127 -3.872983 0 -3.872983 
C -1.027127 -3.872983 -2.012324 -3.464901 -2.738613 -2.738613 
C -3.464901 -2.012324 -3.872983 -1.027127 -3.872983 0 
C -3.872983 1.027127 -3.464901 2.012324 -2.738613 2.738613 
C -2.012324 3.464901 -1.027127 3.872983 0 3.872983 
z
" id="m535e35fda7" style="stroke:#4c72b0;"/>
     </defs>
     <g>
      <use style="fill:#4c72b0;stroke:#4c72b0;" x="728.817344" xlink:href="#m535e35fda7" y="71.976406"/>
     </g>
    </g>
    <g id="text_20">
     <!-- PostgreSQL -->
     <g style="fill:#262626;" transform="translate(748.617344 74.863906)scale(0.11 -0.11)">
      <use xlink:href="#DejaVuSans-80"/>
      <use x="56.677734" xlink:href="#DejaVuSans-111"/>
      <use x="117.859375" xlink:href="#DejaVuSans-115"/>
      <use x="169.958984" xlink:href="#DejaVuSans-116"/>
      <use x="209.167969" xlink:href="#DejaVuSans-103"/>
      <use x="272.644531" xlink:href="#DejaVuSans-114"/>
      <use x="311.507812" xlink:href="#DejaVuSans-101"/>
      <use x="373.03125" xlink:href="#DejaVuSans-83"/>
      <use x="436.507812" xlink:href="#DejaVuSans-81"/>
      <use x="515.21875" xlink:href="#DejaVuSans-76"/>
     </g>
    </g>
    <g id="PathCollection_9">
     <defs>
      <path d="M 0 3.872983 
C 1.027127 3.872983 2.012324 3.464901 2.738613 2.738613 
C 3.464901 2.012324 3.872983 1.027127 3.872983 0 
C 3.872983 -1.027127 3.464901 -2.012324 2.738613 -2.738613 
C 2.012324 -3.464901 1.027127 -3.872983 0 -3.872983 
C -1.027127 -3.872983 -2.012324 -3.464901 -2.738613 -2.738613 
C -3.464901 -2.012324 -3.872983 -1.027127 -3.872983 0 
C -3.872983 1.027127 -3.464901 2.012324 -2.738613 2.738613 
C -2.012324 3.464901 -1.027127 3.872983 0 3.872983 
z
" id="m6304f7db2c" style="stroke:#dd8452;"/>
     </defs>
     <g>
      <use style="fill:#dd8452;stroke:#dd8452;" x="728.817344" xlink:href="#m6304f7db2c" y="88.122344"/>
     </g>
    </g>
    <g id="text_21">
     <!-- Redis -->
     <g style="fill:#262626;" transform="translate(748.617344 91.009844)scale(0.11 -0.11)">
      <use xlink:href="#DejaVuSans-82"/>
      <use x="64.982422" xlink:href="#DejaVuSans-101"/>
      <use x="126.505859" xlink:href="#DejaVuSans-100"/>
      <use x="189.982422" xlink:href="#DejaVuSans-105"/>
      <use x="217.765625" xlink:href="#DejaVuSans-115"/>
     </g>
    </g>
   </g>
  </g>
 </g>
 <defs>
  <clipPath id="pf656a675ce">
   <rect height="166.32" width="669.6" x="151.722188" y="7.2"/>
  </clipPath>
 </defs>
</svg>
