<?xml version="1.0" encoding="utf-8" standalone="no"?>
<!DOCTYPE svg PUBLIC "-//W3C//DTD SVG 1.1//EN"
  "http://www.w3.org/Graphics/SVG/1.1/DTD/svg11.dtd">
<!-- Created with matplotlib (https://matplotlib.org/) -->
<svg height="216.479688pt" version="1.1" viewBox="0 0 660.318594 216.479688" width="660.318594pt" xmlns="http://www.w3.org/2000/svg" xmlns:xlink="http://www.w3.org/1999/xlink">
 <metadata>
  <rdf:RDF xmlns:cc="http://creativecommons.org/ns#" xmlns:dc="http://purl.org/dc/elements/1.1/" xmlns:rdf="http://www.w3.org/1999/02/22-rdf-syntax-ns#">
   <cc:Work>
    <dc:type rdf:resource="http://purl.org/dc/dcmitype/StillImage"/>
    <dc:date>2020-09-23T09:21:44.677107</dc:date>
    <dc:format>image/svg+xml</dc:format>
    <dc:creator>
     <cc:Agent>
      <dc:title>Matplotlib v3.3.1, https://matplotlib.org/</dc:title>
     </cc:Agent>
    </dc:creator>
   </cc:Work>
  </rdf:RDF>
 </metadata>
 <defs>
  <style type="text/css">*{stroke-linecap:butt;stroke-linejoin:round;}</style>
 </defs>
 <g id="figure_1">
  <g id="patch_1">
   <path d="M 0 216.479688 
L 660.318594 216.479688 
L 660.318594 0 
L 0 0 
z
" style="fill:none;"/>
  </g>
  <g id="axes_1">
   <g id="patch_2">
    <path d="M 95.118594 173.52 
L 653.118594 173.52 
L 653.118594 7.2 
L 95.118594 7.2 
z
" style="fill:none;"/>
   </g>
   <g id="matplotlib.axis_1">
    <g id="xtick_1">
     <g id="line2d_1">
      <path clip-path="url(#pa6c7b0cb04)" d="M 98.754446 173.52 
L 98.754446 7.2 
" style="fill:none;stroke:#cccccc;stroke-linecap:round;"/>
     </g>
     <g id="line2d_2">
      <defs>
       <path d="M 0 0 
L 0 6 
" id="m7c0b5e2940" style="stroke:#262626;stroke-width:1.25;"/>
      </defs>
      <g>
       <use style="fill:#262626;stroke:#262626;stroke-width:1.25;" x="98.754446" xlink:href="#m7c0b5e2940" y="173.52"/>
      </g>
     </g>
     <g id="text_1">
      <!-- 0 -->
      <g style="fill:#262626;" transform="translate(95.255071 191.378281)scale(0.11 -0.11)">
       <defs>
        <path d="M 31.78125 66.40625 
Q 24.171875 66.40625 20.328125 58.90625 
Q 16.5 51.421875 16.5 36.375 
Q 16.5 21.390625 20.328125 13.890625 
Q 24.171875 6.390625 31.78125 6.390625 
Q 39.453125 6.390625 43.28125 13.890625 
Q 47.125 21.390625 47.125 36.375 
Q 47.125 51.421875 43.28125 58.90625 
Q 39.453125 66.40625 31.78125 66.40625 
z
M 31.78125 74.21875 
Q 44.046875 74.21875 50.515625 64.515625 
Q 56.984375 54.828125 56.984375 36.375 
Q 56.984375 17.96875 50.515625 8.265625 
Q 44.046875 -1.421875 31.78125 -1.421875 
Q 19.53125 -1.421875 13.0625 8.265625 
Q 6.59375 17.96875 6.59375 36.375 
Q 6.59375 54.828125 13.0625 64.515625 
Q 19.53125 74.21875 31.78125 74.21875 
z
" id="DejaVuSans-48"/>
       </defs>
       <use xlink:href="#DejaVuSans-48"/>
      </g>
     </g>
    </g>
    <g id="xtick_2">
     <g id="line2d_3">
      <path clip-path="url(#pa6c7b0cb04)" d="M 171.471494 173.52 
L 171.471494 7.2 
" style="fill:none;stroke:#cccccc;stroke-linecap:round;"/>
     </g>
     <g id="line2d_4">
      <g>
       <use style="fill:#262626;stroke:#262626;stroke-width:1.25;" x="171.471494" xlink:href="#m7c0b5e2940" y="173.52"/>
      </g>
     </g>
     <g id="text_2">
      <!-- 20 -->
      <g style="fill:#262626;" transform="translate(164.472744 191.378281)scale(0.11 -0.11)">
       <defs>
        <path d="M 19.1875 8.296875 
L 53.609375 8.296875 
L 53.609375 0 
L 7.328125 0 
L 7.328125 8.296875 
Q 12.9375 14.109375 22.625 23.890625 
Q 32.328125 33.6875 34.8125 36.53125 
Q 39.546875 41.84375 41.421875 45.53125 
Q 43.3125 49.21875 43.3125 52.78125 
Q 43.3125 58.59375 39.234375 62.25 
Q 35.15625 65.921875 28.609375 65.921875 
Q 23.96875 65.921875 18.8125 64.3125 
Q 13.671875 62.703125 7.8125 59.421875 
L 7.8125 69.390625 
Q 13.765625 71.78125 18.9375 73 
Q 24.125 74.21875 28.421875 74.21875 
Q 39.75 74.21875 46.484375 68.546875 
Q 53.21875 62.890625 53.21875 53.421875 
Q 53.21875 48.921875 51.53125 44.890625 
Q 49.859375 40.875 45.40625 35.40625 
Q 44.1875 33.984375 37.640625 27.21875 
Q 31.109375 20.453125 19.1875 8.296875 
z
" id="DejaVuSans-50"/>
       </defs>
       <use xlink:href="#DejaVuSans-50"/>
       <use x="63.623047" xlink:href="#DejaVuSans-48"/>
      </g>
     </g>
    </g>
    <g id="xtick_3">
     <g id="line2d_5">
      <path clip-path="url(#pa6c7b0cb04)" d="M 244.188542 173.52 
L 244.188542 7.2 
" style="fill:none;stroke:#cccccc;stroke-linecap:round;"/>
     </g>
     <g id="line2d_6">
      <g>
       <use style="fill:#262626;stroke:#262626;stroke-width:1.25;" x="244.188542" xlink:href="#m7c0b5e2940" y="173.52"/>
      </g>
     </g>
     <g id="text_3">
      <!-- 40 -->
      <g style="fill:#262626;" transform="translate(237.189792 191.378281)scale(0.11 -0.11)">
       <defs>
        <path d="M 37.796875 64.3125 
L 12.890625 25.390625 
L 37.796875 25.390625 
z
M 35.203125 72.90625 
L 47.609375 72.90625 
L 47.609375 25.390625 
L 58.015625 25.390625 
L 58.015625 17.1875 
L 47.609375 17.1875 
L 47.609375 0 
L 37.796875 0 
L 37.796875 17.1875 
L 4.890625 17.1875 
L 4.890625 26.703125 
z
" id="DejaVuSans-52"/>
       </defs>
       <use xlink:href="#DejaVuSans-52"/>
       <use x="63.623047" xlink:href="#DejaVuSans-48"/>
      </g>
     </g>
    </g>
    <g id="xtick_4">
     <g id="line2d_7">
      <path clip-path="url(#pa6c7b0cb04)" d="M 316.905589 173.52 
L 316.905589 7.2 
" style="fill:none;stroke:#cccccc;stroke-linecap:round;"/>
     </g>
     <g id="line2d_8">
      <g>
       <use style="fill:#262626;stroke:#262626;stroke-width:1.25;" x="316.905589" xlink:href="#m7c0b5e2940" y="173.52"/>
      </g>
     </g>
     <g id="text_4">
      <!-- 60 -->
      <g style="fill:#262626;" transform="translate(309.906839 191.378281)scale(0.11 -0.11)">
       <defs>
        <path d="M 33.015625 40.375 
Q 26.375 40.375 22.484375 35.828125 
Q 18.609375 31.296875 18.609375 23.390625 
Q 18.609375 15.53125 22.484375 10.953125 
Q 26.375 6.390625 33.015625 6.390625 
Q 39.65625 6.390625 43.53125 10.953125 
Q 47.40625 15.53125 47.40625 23.390625 
Q 47.40625 31.296875 43.53125 35.828125 
Q 39.65625 40.375 33.015625 40.375 
z
M 52.59375 71.296875 
L 52.59375 62.3125 
Q 48.875 64.0625 45.09375 64.984375 
Q 41.3125 65.921875 37.59375 65.921875 
Q 27.828125 65.921875 22.671875 59.328125 
Q 17.53125 52.734375 16.796875 39.40625 
Q 19.671875 43.65625 24.015625 45.921875 
Q 28.375 48.1875 33.59375 48.1875 
Q 44.578125 48.1875 50.953125 41.515625 
Q 57.328125 34.859375 57.328125 23.390625 
Q 57.328125 12.15625 50.6875 5.359375 
Q 44.046875 -1.421875 33.015625 -1.421875 
Q 20.359375 -1.421875 13.671875 8.265625 
Q 6.984375 17.96875 6.984375 36.375 
Q 6.984375 53.65625 15.1875 63.9375 
Q 23.390625 74.21875 37.203125 74.21875 
Q 40.921875 74.21875 44.703125 73.484375 
Q 48.484375 72.75 52.59375 71.296875 
z
" id="DejaVuSans-54"/>
       </defs>
       <use xlink:href="#DejaVuSans-54"/>
       <use x="63.623047" xlink:href="#DejaVuSans-48"/>
      </g>
     </g>
    </g>
    <g id="xtick_5">
     <g id="line2d_9">
      <path clip-path="url(#pa6c7b0cb04)" d="M 389.622637 173.52 
L 389.622637 7.2 
" style="fill:none;stroke:#cccccc;stroke-linecap:round;"/>
     </g>
     <g id="line2d_10">
      <g>
       <use style="fill:#262626;stroke:#262626;stroke-width:1.25;" x="389.622637" xlink:href="#m7c0b5e2940" y="173.52"/>
      </g>
     </g>
     <g id="text_5">
      <!-- 80 -->
      <g style="fill:#262626;" transform="translate(382.623887 191.378281)scale(0.11 -0.11)">
       <defs>
        <path d="M 31.78125 34.625 
Q 24.75 34.625 20.71875 30.859375 
Q 16.703125 27.09375 16.703125 20.515625 
Q 16.703125 13.921875 20.71875 10.15625 
Q 24.75 6.390625 31.78125 6.390625 
Q 38.8125 6.390625 42.859375 10.171875 
Q 46.921875 13.96875 46.921875 20.515625 
Q 46.921875 27.09375 42.890625 30.859375 
Q 38.875 34.625 31.78125 34.625 
z
M 21.921875 38.8125 
Q 15.578125 40.375 12.03125 44.71875 
Q 8.5 49.078125 8.5 55.328125 
Q 8.5 64.0625 14.71875 69.140625 
Q 20.953125 74.21875 31.78125 74.21875 
Q 42.671875 74.21875 48.875 69.140625 
Q 55.078125 64.0625 55.078125 55.328125 
Q 55.078125 49.078125 51.53125 44.71875 
Q 48 40.375 41.703125 38.8125 
Q 48.828125 37.15625 52.796875 32.3125 
Q 56.78125 27.484375 56.78125 20.515625 
Q 56.78125 9.90625 50.3125 4.234375 
Q 43.84375 -1.421875 31.78125 -1.421875 
Q 19.734375 -1.421875 13.25 4.234375 
Q 6.78125 9.90625 6.78125 20.515625 
Q 6.78125 27.484375 10.78125 32.3125 
Q 14.796875 37.15625 21.921875 38.8125 
z
M 18.3125 54.390625 
Q 18.3125 48.734375 21.84375 45.5625 
Q 25.390625 42.390625 31.78125 42.390625 
Q 38.140625 42.390625 41.71875 45.5625 
Q 45.3125 48.734375 45.3125 54.390625 
Q 45.3125 60.0625 41.71875 63.234375 
Q 38.140625 66.40625 31.78125 66.40625 
Q 25.390625 66.40625 21.84375 63.234375 
Q 18.3125 60.0625 18.3125 54.390625 
z
" id="DejaVuSans-56"/>
       </defs>
       <use xlink:href="#DejaVuSans-56"/>
       <use x="63.623047" xlink:href="#DejaVuSans-48"/>
      </g>
     </g>
    </g>
    <g id="xtick_6">
     <g id="line2d_11">
      <path clip-path="url(#pa6c7b0cb04)" d="M 462.339685 173.52 
L 462.339685 7.2 
" style="fill:none;stroke:#cccccc;stroke-linecap:round;"/>
     </g>
     <g id="line2d_12">
      <g>
       <use style="fill:#262626;stroke:#262626;stroke-width:1.25;" x="462.339685" xlink:href="#m7c0b5e2940" y="173.52"/>
      </g>
     </g>
     <g id="text_6">
      <!-- 100 -->
      <g style="fill:#262626;" transform="translate(451.84156 191.378281)scale(0.11 -0.11)">
       <defs>
        <path d="M 12.40625 8.296875 
L 28.515625 8.296875 
L 28.515625 63.921875 
L 10.984375 60.40625 
L 10.984375 69.390625 
L 28.421875 72.90625 
L 38.28125 72.90625 
L 38.28125 8.296875 
L 54.390625 8.296875 
L 54.390625 0 
L 12.40625 0 
z
" id="DejaVuSans-49"/>
       </defs>
       <use xlink:href="#DejaVuSans-49"/>
       <use x="63.623047" xlink:href="#DejaVuSans-48"/>
       <use x="127.246094" xlink:href="#DejaVuSans-48"/>
      </g>
     </g>
    </g>
    <g id="xtick_7">
     <g id="line2d_13">
      <path clip-path="url(#pa6c7b0cb04)" d="M 535.056733 173.52 
L 535.056733 7.2 
" style="fill:none;stroke:#cccccc;stroke-linecap:round;"/>
     </g>
     <g id="line2d_14">
      <g>
       <use style="fill:#262626;stroke:#262626;stroke-width:1.25;" x="535.056733" xlink:href="#m7c0b5e2940" y="173.52"/>
      </g>
     </g>
     <g id="text_7">
      <!-- 120 -->
      <g style="fill:#262626;" transform="translate(524.558608 191.378281)scale(0.11 -0.11)">
       <use xlink:href="#DejaVuSans-49"/>
       <use x="63.623047" xlink:href="#DejaVuSans-50"/>
       <use x="127.246094" xlink:href="#DejaVuSans-48"/>
      </g>
     </g>
    </g>
    <g id="xtick_8">
     <g id="line2d_15">
      <path clip-path="url(#pa6c7b0cb04)" d="M 607.77378 173.52 
L 607.77378 7.2 
" style="fill:none;stroke:#cccccc;stroke-linecap:round;"/>
     </g>
     <g id="line2d_16">
      <g>
       <use style="fill:#262626;stroke:#262626;stroke-width:1.25;" x="607.77378" xlink:href="#m7c0b5e2940" y="173.52"/>
      </g>
     </g>
     <g id="text_8">
      <!-- 140 -->
      <g style="fill:#262626;" transform="translate(597.275655 191.378281)scale(0.11 -0.11)">
       <use xlink:href="#DejaVuSans-49"/>
       <use x="63.623047" xlink:href="#DejaVuSans-52"/>
       <use x="127.246094" xlink:href="#DejaVuSans-48"/>
      </g>
     </g>
    </g>
    <g id="text_9">
     <!-- Time to All Containers Handle Requests (TACHR) [s] -->
     <g style="fill:#262626;" transform="translate(218.966094 206.784063)scale(0.12 -0.12)">
      <defs>
       <path d="M -0.296875 72.90625 
L 61.375 72.90625 
L 61.375 64.59375 
L 35.5 64.59375 
L 35.5 0 
L 25.59375 0 
L 25.59375 64.59375 
L -0.296875 64.59375 
z
" id="DejaVuSans-84"/>
       <path d="M 9.421875 54.6875 
L 18.40625 54.6875 
L 18.40625 0 
L 9.421875 0 
z
M 9.421875 75.984375 
L 18.40625 75.984375 
L 18.40625 64.59375 
L 9.421875 64.59375 
z
" id="DejaVuSans-105"/>
       <path d="M 52 44.1875 
Q 55.375 50.25 60.0625 53.125 
Q 64.75 56 71.09375 56 
Q 79.640625 56 84.28125 50.015625 
Q 88.921875 44.046875 88.921875 33.015625 
L 88.921875 0 
L 79.890625 0 
L 79.890625 32.71875 
Q 79.890625 40.578125 77.09375 44.375 
Q 74.3125 48.1875 68.609375 48.1875 
Q 61.625 48.1875 57.5625 43.546875 
Q 53.515625 38.921875 53.515625 30.90625 
L 53.515625 0 
L 44.484375 0 
L 44.484375 32.71875 
Q 44.484375 40.625 41.703125 44.40625 
Q 38.921875 48.1875 33.109375 48.1875 
Q 26.21875 48.1875 22.15625 43.53125 
Q 18.109375 38.875 18.109375 30.90625 
L 18.109375 0 
L 9.078125 0 
L 9.078125 54.6875 
L 18.109375 54.6875 
L 18.109375 46.1875 
Q 21.1875 51.21875 25.484375 53.609375 
Q 29.78125 56 35.6875 56 
Q 41.65625 56 45.828125 52.96875 
Q 50 49.953125 52 44.1875 
z
" id="DejaVuSans-109"/>
       <path d="M 56.203125 29.59375 
L 56.203125 25.203125 
L 14.890625 25.203125 
Q 15.484375 15.921875 20.484375 11.0625 
Q 25.484375 6.203125 34.421875 6.203125 
Q 39.59375 6.203125 44.453125 7.46875 
Q 49.3125 8.734375 54.109375 11.28125 
L 54.109375 2.78125 
Q 49.265625 0.734375 44.1875 -0.34375 
Q 39.109375 -1.421875 33.890625 -1.421875 
Q 20.796875 -1.421875 13.15625 6.1875 
Q 5.515625 13.8125 5.515625 26.8125 
Q 5.515625 40.234375 12.765625 48.109375 
Q 20.015625 56 32.328125 56 
Q 43.359375 56 49.78125 48.890625 
Q 56.203125 41.796875 56.203125 29.59375 
z
M 47.21875 32.234375 
Q 47.125 39.59375 43.09375 43.984375 
Q 39.0625 48.390625 32.421875 48.390625 
Q 24.90625 48.390625 20.390625 44.140625 
Q 15.875 39.890625 15.1875 32.171875 
z
" id="DejaVuSans-101"/>
       <path id="DejaVuSans-32"/>
       <path d="M 18.3125 70.21875 
L 18.3125 54.6875 
L 36.8125 54.6875 
L 36.8125 47.703125 
L 18.3125 47.703125 
L 18.3125 18.015625 
Q 18.3125 11.328125 20.140625 9.421875 
Q 21.96875 7.515625 27.59375 7.515625 
L 36.8125 7.515625 
L 36.8125 0 
L 27.59375 0 
Q 17.1875 0 13.234375 3.875 
Q 9.28125 7.765625 9.28125 18.015625 
L 9.28125 47.703125 
L 2.6875 47.703125 
L 2.6875 54.6875 
L 9.28125 54.6875 
L 9.28125 70.21875 
z
" id="DejaVuSans-116"/>
       <path d="M 30.609375 48.390625 
Q 23.390625 48.390625 19.1875 42.75 
Q 14.984375 37.109375 14.984375 27.296875 
Q 14.984375 17.484375 19.15625 11.84375 
Q 23.34375 6.203125 30.609375 6.203125 
Q 37.796875 6.203125 41.984375 11.859375 
Q 46.1875 17.53125 46.1875 27.296875 
Q 46.1875 37.015625 41.984375 42.703125 
Q 37.796875 48.390625 30.609375 48.390625 
z
M 30.609375 56 
Q 42.328125 56 49.015625 48.375 
Q 55.71875 40.765625 55.71875 27.296875 
Q 55.71875 13.875 49.015625 6.21875 
Q 42.328125 -1.421875 30.609375 -1.421875 
Q 18.84375 -1.421875 12.171875 6.21875 
Q 5.515625 13.875 5.515625 27.296875 
Q 5.515625 40.765625 12.171875 48.375 
Q 18.84375 56 30.609375 56 
z
" id="DejaVuSans-111"/>
       <path d="M 34.1875 63.1875 
L 20.796875 26.90625 
L 47.609375 26.90625 
z
M 28.609375 72.90625 
L 39.796875 72.90625 
L 67.578125 0 
L 57.328125 0 
L 50.6875 18.703125 
L 17.828125 18.703125 
L 11.1875 0 
L 0.78125 0 
z
" id="DejaVuSans-65"/>
       <path d="M 9.421875 75.984375 
L 18.40625 75.984375 
L 18.40625 0 
L 9.421875 0 
z
" id="DejaVuSans-108"/>
       <path d="M 64.40625 67.28125 
L 64.40625 56.890625 
Q 59.421875 61.53125 53.78125 63.8125 
Q 48.140625 66.109375 41.796875 66.109375 
Q 29.296875 66.109375 22.65625 58.46875 
Q 16.015625 50.828125 16.015625 36.375 
Q 16.015625 21.96875 22.65625 14.328125 
Q 29.296875 6.6875 41.796875 6.6875 
Q 48.140625 6.6875 53.78125 8.984375 
Q 59.421875 11.28125 64.40625 15.921875 
L 64.40625 5.609375 
Q 59.234375 2.09375 53.4375 0.328125 
Q 47.65625 -1.421875 41.21875 -1.421875 
Q 24.65625 -1.421875 15.125 8.703125 
Q 5.609375 18.84375 5.609375 36.375 
Q 5.609375 53.953125 15.125 64.078125 
Q 24.65625 74.21875 41.21875 74.21875 
Q 47.75 74.21875 53.53125 72.484375 
Q 59.328125 70.75 64.40625 67.28125 
z
" id="DejaVuSans-67"/>
       <path d="M 54.890625 33.015625 
L 54.890625 0 
L 45.90625 0 
L 45.90625 32.71875 
Q 45.90625 40.484375 42.875 44.328125 
Q 39.84375 48.1875 33.796875 48.1875 
Q 26.515625 48.1875 22.3125 43.546875 
Q 18.109375 38.921875 18.109375 30.90625 
L 18.109375 0 
L 9.078125 0 
L 9.078125 54.6875 
L 18.109375 54.6875 
L 18.109375 46.1875 
Q 21.34375 51.125 25.703125 53.5625 
Q 30.078125 56 35.796875 56 
Q 45.21875 56 50.046875 50.171875 
Q 54.890625 44.34375 54.890625 33.015625 
z
" id="DejaVuSans-110"/>
       <path d="M 34.28125 27.484375 
Q 23.390625 27.484375 19.1875 25 
Q 14.984375 22.515625 14.984375 16.5 
Q 14.984375 11.71875 18.140625 8.90625 
Q 21.296875 6.109375 26.703125 6.109375 
Q 34.1875 6.109375 38.703125 11.40625 
Q 43.21875 16.703125 43.21875 25.484375 
L 43.21875 27.484375 
z
M 52.203125 31.203125 
L 52.203125 0 
L 43.21875 0 
L 43.21875 8.296875 
Q 40.140625 3.328125 35.546875 0.953125 
Q 30.953125 -1.421875 24.3125 -1.421875 
Q 15.921875 -1.421875 10.953125 3.296875 
Q 6 8.015625 6 15.921875 
Q 6 25.140625 12.171875 29.828125 
Q 18.359375 34.515625 30.609375 34.515625 
L 43.21875 34.515625 
L 43.21875 35.40625 
Q 43.21875 41.609375 39.140625 45 
Q 35.0625 48.390625 27.6875 48.390625 
Q 23 48.390625 18.546875 47.265625 
Q 14.109375 46.140625 10.015625 43.890625 
L 10.015625 52.203125 
Q 14.9375 54.109375 19.578125 55.046875 
Q 24.21875 56 28.609375 56 
Q 40.484375 56 46.34375 49.84375 
Q 52.203125 43.703125 52.203125 31.203125 
z
" id="DejaVuSans-97"/>
       <path d="M 41.109375 46.296875 
Q 39.59375 47.171875 37.8125 47.578125 
Q 36.03125 48 33.890625 48 
Q 26.265625 48 22.1875 43.046875 
Q 18.109375 38.09375 18.109375 28.8125 
L 18.109375 0 
L 9.078125 0 
L 9.078125 54.6875 
L 18.109375 54.6875 
L 18.109375 46.1875 
Q 20.953125 51.171875 25.484375 53.578125 
Q 30.03125 56 36.53125 56 
Q 37.453125 56 38.578125 55.875 
Q 39.703125 55.765625 41.0625 55.515625 
z
" id="DejaVuSans-114"/>
       <path d="M 44.28125 53.078125 
L 44.28125 44.578125 
Q 40.484375 46.53125 36.375 47.5 
Q 32.28125 48.484375 27.875 48.484375 
Q 21.1875 48.484375 17.84375 46.4375 
Q 14.5 44.390625 14.5 40.28125 
Q 14.5 37.15625 16.890625 35.375 
Q 19.28125 33.59375 26.515625 31.984375 
L 29.59375 31.296875 
Q 39.15625 29.25 43.1875 25.515625 
Q 47.21875 21.78125 47.21875 15.09375 
Q 47.21875 7.46875 41.1875 3.015625 
Q 35.15625 -1.421875 24.609375 -1.421875 
Q 20.21875 -1.421875 15.453125 -0.5625 
Q 10.6875 0.296875 5.421875 2 
L 5.421875 11.28125 
Q 10.40625 8.6875 15.234375 7.390625 
Q 20.0625 6.109375 24.8125 6.109375 
Q 31.15625 6.109375 34.5625 8.28125 
Q 37.984375 10.453125 37.984375 14.40625 
Q 37.984375 18.0625 35.515625 20.015625 
Q 33.0625 21.96875 24.703125 23.78125 
L 21.578125 24.515625 
Q 13.234375 26.265625 9.515625 29.90625 
Q 5.8125 33.546875 5.8125 39.890625 
Q 5.8125 47.609375 11.28125 51.796875 
Q 16.75 56 26.8125 56 
Q 31.78125 56 36.171875 55.265625 
Q 40.578125 54.546875 44.28125 53.078125 
z
" id="DejaVuSans-115"/>
       <path d="M 9.8125 72.90625 
L 19.671875 72.90625 
L 19.671875 43.015625 
L 55.515625 43.015625 
L 55.515625 72.90625 
L 65.375 72.90625 
L 65.375 0 
L 55.515625 0 
L 55.515625 34.71875 
L 19.671875 34.71875 
L 19.671875 0 
L 9.8125 0 
z
" id="DejaVuSans-72"/>
       <path d="M 45.40625 46.390625 
L 45.40625 75.984375 
L 54.390625 75.984375 
L 54.390625 0 
L 45.40625 0 
L 45.40625 8.203125 
Q 42.578125 3.328125 38.25 0.953125 
Q 33.9375 -1.421875 27.875 -1.421875 
Q 17.96875 -1.421875 11.734375 6.484375 
Q 5.515625 14.40625 5.515625 27.296875 
Q 5.515625 40.1875 11.734375 48.09375 
Q 17.96875 56 27.875 56 
Q 33.9375 56 38.25 53.625 
Q 42.578125 51.265625 45.40625 46.390625 
z
M 14.796875 27.296875 
Q 14.796875 17.390625 18.875 11.75 
Q 22.953125 6.109375 30.078125 6.109375 
Q 37.203125 6.109375 41.296875 11.75 
Q 45.40625 17.390625 45.40625 27.296875 
Q 45.40625 37.203125 41.296875 42.84375 
Q 37.203125 48.484375 30.078125 48.484375 
Q 22.953125 48.484375 18.875 42.84375 
Q 14.796875 37.203125 14.796875 27.296875 
z
" id="DejaVuSans-100"/>
       <path d="M 44.390625 34.1875 
Q 47.5625 33.109375 50.5625 29.59375 
Q 53.5625 26.078125 56.59375 19.921875 
L 66.609375 0 
L 56 0 
L 46.6875 18.703125 
Q 43.0625 26.03125 39.671875 28.421875 
Q 36.28125 30.8125 30.421875 30.8125 
L 19.671875 30.8125 
L 19.671875 0 
L 9.8125 0 
L 9.8125 72.90625 
L 32.078125 72.90625 
Q 44.578125 72.90625 50.734375 67.671875 
Q 56.890625 62.453125 56.890625 51.90625 
Q 56.890625 45.015625 53.6875 40.46875 
Q 50.484375 35.9375 44.390625 34.1875 
z
M 19.671875 64.796875 
L 19.671875 38.921875 
L 32.078125 38.921875 
Q 39.203125 38.921875 42.84375 42.21875 
Q 46.484375 45.515625 46.484375 51.90625 
Q 46.484375 58.296875 42.84375 61.546875 
Q 39.203125 64.796875 32.078125 64.796875 
z
" id="DejaVuSans-82"/>
       <path d="M 14.796875 27.296875 
Q 14.796875 17.390625 18.875 11.75 
Q 22.953125 6.109375 30.078125 6.109375 
Q 37.203125 6.109375 41.296875 11.75 
Q 45.40625 17.390625 45.40625 27.296875 
Q 45.40625 37.203125 41.296875 42.84375 
Q 37.203125 48.484375 30.078125 48.484375 
Q 22.953125 48.484375 18.875 42.84375 
Q 14.796875 37.203125 14.796875 27.296875 
z
M 45.40625 8.203125 
Q 42.578125 3.328125 38.25 0.953125 
Q 33.9375 -1.421875 27.875 -1.421875 
Q 17.96875 -1.421875 11.734375 6.484375 
Q 5.515625 14.40625 5.515625 27.296875 
Q 5.515625 40.1875 11.734375 48.09375 
Q 17.96875 56 27.875 56 
Q 33.9375 56 38.25 53.625 
Q 42.578125 51.265625 45.40625 46.390625 
L 45.40625 54.6875 
L 54.390625 54.6875 
L 54.390625 -20.796875 
L 45.40625 -20.796875 
z
" id="DejaVuSans-113"/>
       <path d="M 8.5 21.578125 
L 8.5 54.6875 
L 17.484375 54.6875 
L 17.484375 21.921875 
Q 17.484375 14.15625 20.5 10.265625 
Q 23.53125 6.390625 29.59375 6.390625 
Q 36.859375 6.390625 41.078125 11.03125 
Q 45.3125 15.671875 45.3125 23.6875 
L 45.3125 54.6875 
L 54.296875 54.6875 
L 54.296875 0 
L 45.3125 0 
L 45.3125 8.40625 
Q 42.046875 3.421875 37.71875 1 
Q 33.40625 -1.421875 27.6875 -1.421875 
Q 18.265625 -1.421875 13.375 4.4375 
Q 8.5 10.296875 8.5 21.578125 
z
M 31.109375 56 
z
" id="DejaVuSans-117"/>
       <path d="M 31 75.875 
Q 24.46875 64.65625 21.28125 53.65625 
Q 18.109375 42.671875 18.109375 31.390625 
Q 18.109375 20.125 21.3125 9.0625 
Q 24.515625 -2 31 -13.1875 
L 23.1875 -13.1875 
Q 15.875 -1.703125 12.234375 9.375 
Q 8.59375 20.453125 8.59375 31.390625 
Q 8.59375 42.28125 12.203125 53.3125 
Q 15.828125 64.359375 23.1875 75.875 
z
" id="DejaVuSans-40"/>
       <path d="M 8.015625 75.875 
L 15.828125 75.875 
Q 23.140625 64.359375 26.78125 53.3125 
Q 30.421875 42.28125 30.421875 31.390625 
Q 30.421875 20.453125 26.78125 9.375 
Q 23.140625 -1.703125 15.828125 -13.1875 
L 8.015625 -13.1875 
Q 14.5 -2 17.703125 9.0625 
Q 20.90625 20.125 20.90625 31.390625 
Q 20.90625 42.671875 17.703125 53.65625 
Q 14.5 64.65625 8.015625 75.875 
z
" id="DejaVuSans-41"/>
       <path d="M 8.59375 75.984375 
L 29.296875 75.984375 
L 29.296875 69 
L 17.578125 69 
L 17.578125 -6.203125 
L 29.296875 -6.203125 
L 29.296875 -13.1875 
L 8.59375 -13.1875 
z
" id="DejaVuSans-91"/>
       <path d="M 30.421875 75.984375 
L 30.421875 -13.1875 
L 9.71875 -13.1875 
L 9.71875 -6.203125 
L 21.390625 -6.203125 
L 21.390625 69 
L 9.71875 69 
L 9.71875 75.984375 
z
" id="DejaVuSans-93"/>
      </defs>
      <use xlink:href="#DejaVuSans-84"/>
      <use x="57.958984" xlink:href="#DejaVuSans-105"/>
      <use x="85.742188" xlink:href="#DejaVuSans-109"/>
      <use x="183.154297" xlink:href="#DejaVuSans-101"/>
      <use x="244.677734" xlink:href="#DejaVuSans-32"/>
      <use x="276.464844" xlink:href="#DejaVuSans-116"/>
      <use x="315.673828" xlink:href="#DejaVuSans-111"/>
      <use x="376.855469" xlink:href="#DejaVuSans-32"/>
      <use x="408.642578" xlink:href="#DejaVuSans-65"/>
      <use x="477.050781" xlink:href="#DejaVuSans-108"/>
      <use x="504.833984" xlink:href="#DejaVuSans-108"/>
      <use x="532.617188" xlink:href="#DejaVuSans-32"/>
      <use x="564.404297" xlink:href="#DejaVuSans-67"/>
      <use x="634.228516" xlink:href="#DejaVuSans-111"/>
      <use x="695.410156" xlink:href="#DejaVuSans-110"/>
      <use x="758.789062" xlink:href="#DejaVuSans-116"/>
      <use x="797.998047" xlink:href="#DejaVuSans-97"/>
      <use x="859.277344" xlink:href="#DejaVuSans-105"/>
      <use x="887.060547" xlink:href="#DejaVuSans-110"/>
      <use x="950.439453" xlink:href="#DejaVuSans-101"/>
      <use x="1011.962891" xlink:href="#DejaVuSans-114"/>
      <use x="1053.076172" xlink:href="#DejaVuSans-115"/>
      <use x="1105.175781" xlink:href="#DejaVuSans-32"/>
      <use x="1136.962891" xlink:href="#DejaVuSans-72"/>
      <use x="1212.158203" xlink:href="#DejaVuSans-97"/>
      <use x="1273.4375" xlink:href="#DejaVuSans-110"/>
      <use x="1336.816406" xlink:href="#DejaVuSans-100"/>
      <use x="1400.292969" xlink:href="#DejaVuSans-108"/>
      <use x="1428.076172" xlink:href="#DejaVuSans-101"/>
      <use x="1489.599609" xlink:href="#DejaVuSans-32"/>
      <use x="1521.386719" xlink:href="#DejaVuSans-82"/>
      <use x="1586.369141" xlink:href="#DejaVuSans-101"/>
      <use x="1647.892578" xlink:href="#DejaVuSans-113"/>
      <use x="1711.369141" xlink:href="#DejaVuSans-117"/>
      <use x="1774.748047" xlink:href="#DejaVuSans-101"/>
      <use x="1836.271484" xlink:href="#DejaVuSans-115"/>
      <use x="1888.371094" xlink:href="#DejaVuSans-116"/>
      <use x="1927.580078" xlink:href="#DejaVuSans-115"/>
      <use x="1979.679688" xlink:href="#DejaVuSans-32"/>
      <use x="2011.466797" xlink:href="#DejaVuSans-40"/>
      <use x="2050.480469" xlink:href="#DejaVuSans-84"/>
      <use x="2103.814453" xlink:href="#DejaVuSans-65"/>
      <use x="2170.472656" xlink:href="#DejaVuSans-67"/>
      <use x="2240.296875" xlink:href="#DejaVuSans-72"/>
      <use x="2315.492188" xlink:href="#DejaVuSans-82"/>
      <use x="2384.974609" xlink:href="#DejaVuSans-41"/>
      <use x="2423.988281" xlink:href="#DejaVuSans-32"/>
      <use x="2455.775391" xlink:href="#DejaVuSans-91"/>
      <use x="2494.789062" xlink:href="#DejaVuSans-115"/>
      <use x="2546.888672" xlink:href="#DejaVuSans-93"/>
     </g>
    </g>
   </g>
   <g id="matplotlib.axis_2">
    <g id="ytick_1">
     <g id="line2d_17">
      <defs>
       <path d="M 0 0 
L -6 0 
" id="me3c8ffa7d3" style="stroke:#262626;stroke-width:1.25;"/>
      </defs>
      <g>
       <use style="fill:#262626;stroke:#262626;stroke-width:1.25;" x="95.118594" xlink:href="#me3c8ffa7d3" y="48.78"/>
      </g>
     </g>
     <g id="text_10">
      <!-- PostgreSQL -->
      <g style="fill:#262626;" transform="translate(22.81375 52.959141)scale(0.11 -0.11)">
       <defs>
        <path d="M 19.671875 64.796875 
L 19.671875 37.40625 
L 32.078125 37.40625 
Q 38.96875 37.40625 42.71875 40.96875 
Q 46.484375 44.53125 46.484375 51.125 
Q 46.484375 57.671875 42.71875 61.234375 
Q 38.96875 64.796875 32.078125 64.796875 
z
M 9.8125 72.90625 
L 32.078125 72.90625 
Q 44.34375 72.90625 50.609375 67.359375 
Q 56.890625 61.8125 56.890625 51.125 
Q 56.890625 40.328125 50.609375 34.8125 
Q 44.34375 29.296875 32.078125 29.296875 
L 19.671875 29.296875 
L 19.671875 0 
L 9.8125 0 
z
" id="DejaVuSans-80"/>
        <path d="M 45.40625 27.984375 
Q 45.40625 37.75 41.375 43.109375 
Q 37.359375 48.484375 30.078125 48.484375 
Q 22.859375 48.484375 18.828125 43.109375 
Q 14.796875 37.75 14.796875 27.984375 
Q 14.796875 18.265625 18.828125 12.890625 
Q 22.859375 7.515625 30.078125 7.515625 
Q 37.359375 7.515625 41.375 12.890625 
Q 45.40625 18.265625 45.40625 27.984375 
z
M 54.390625 6.78125 
Q 54.390625 -7.171875 48.1875 -13.984375 
Q 42 -20.796875 29.203125 -20.796875 
Q 24.46875 -20.796875 20.265625 -20.09375 
Q 16.0625 -19.390625 12.109375 -17.921875 
L 12.109375 -9.1875 
Q 16.0625 -11.328125 19.921875 -12.34375 
Q 23.78125 -13.375 27.78125 -13.375 
Q 36.625 -13.375 41.015625 -8.765625 
Q 45.40625 -4.15625 45.40625 5.171875 
L 45.40625 9.625 
Q 42.625 4.78125 38.28125 2.390625 
Q 33.9375 0 27.875 0 
Q 17.828125 0 11.671875 7.65625 
Q 5.515625 15.328125 5.515625 27.984375 
Q 5.515625 40.671875 11.671875 48.328125 
Q 17.828125 56 27.875 56 
Q 33.9375 56 38.28125 53.609375 
Q 42.625 51.21875 45.40625 46.390625 
L 45.40625 54.6875 
L 54.390625 54.6875 
z
" id="DejaVuSans-103"/>
        <path d="M 53.515625 70.515625 
L 53.515625 60.890625 
Q 47.90625 63.578125 42.921875 64.890625 
Q 37.9375 66.21875 33.296875 66.21875 
Q 25.25 66.21875 20.875 63.09375 
Q 16.5 59.96875 16.5 54.203125 
Q 16.5 49.359375 19.40625 46.890625 
Q 22.3125 44.4375 30.421875 42.921875 
L 36.375 41.703125 
Q 47.40625 39.59375 52.65625 34.296875 
Q 57.90625 29 57.90625 20.125 
Q 57.90625 9.515625 50.796875 4.046875 
Q 43.703125 -1.421875 29.984375 -1.421875 
Q 24.8125 -1.421875 18.96875 -0.25 
Q 13.140625 0.921875 6.890625 3.21875 
L 6.890625 13.375 
Q 12.890625 10.015625 18.65625 8.296875 
Q 24.421875 6.59375 29.984375 6.59375 
Q 38.421875 6.59375 43.015625 9.90625 
Q 47.609375 13.234375 47.609375 19.390625 
Q 47.609375 24.75 44.3125 27.78125 
Q 41.015625 30.8125 33.5 32.328125 
L 27.484375 33.5 
Q 16.453125 35.6875 11.515625 40.375 
Q 6.59375 45.0625 6.59375 53.421875 
Q 6.59375 63.09375 13.40625 68.65625 
Q 20.21875 74.21875 32.171875 74.21875 
Q 37.3125 74.21875 42.625 73.28125 
Q 47.953125 72.359375 53.515625 70.515625 
z
" id="DejaVuSans-83"/>
        <path d="M 39.40625 66.21875 
Q 28.65625 66.21875 22.328125 58.203125 
Q 16.015625 50.203125 16.015625 36.375 
Q 16.015625 22.609375 22.328125 14.59375 
Q 28.65625 6.59375 39.40625 6.59375 
Q 50.140625 6.59375 56.421875 14.59375 
Q 62.703125 22.609375 62.703125 36.375 
Q 62.703125 50.203125 56.421875 58.203125 
Q 50.140625 66.21875 39.40625 66.21875 
z
M 53.21875 1.3125 
L 66.21875 -12.890625 
L 54.296875 -12.890625 
L 43.5 -1.21875 
Q 41.890625 -1.3125 41.03125 -1.359375 
Q 40.1875 -1.421875 39.40625 -1.421875 
Q 24.03125 -1.421875 14.8125 8.859375 
Q 5.609375 19.140625 5.609375 36.375 
Q 5.609375 53.65625 14.8125 63.9375 
Q 24.03125 74.21875 39.40625 74.21875 
Q 54.734375 74.21875 63.90625 63.9375 
Q 73.09375 53.65625 73.09375 36.375 
Q 73.09375 23.6875 67.984375 14.640625 
Q 62.890625 5.609375 53.21875 1.3125 
z
" id="DejaVuSans-81"/>
        <path d="M 9.8125 72.90625 
L 19.671875 72.90625 
L 19.671875 8.296875 
L 55.171875 8.296875 
L 55.171875 0 
L 9.8125 0 
z
" id="DejaVuSans-76"/>
       </defs>
       <use xlink:href="#DejaVuSans-80"/>
       <use x="56.677734" xlink:href="#DejaVuSans-111"/>
       <use x="117.859375" xlink:href="#DejaVuSans-115"/>
       <use x="169.958984" xlink:href="#DejaVuSans-116"/>
       <use x="209.167969" xlink:href="#DejaVuSans-103"/>
       <use x="272.644531" xlink:href="#DejaVuSans-114"/>
       <use x="311.507812" xlink:href="#DejaVuSans-101"/>
       <use x="373.03125" xlink:href="#DejaVuSans-83"/>
       <use x="436.507812" xlink:href="#DejaVuSans-81"/>
       <use x="515.21875" xlink:href="#DejaVuSans-76"/>
      </g>
     </g>
    </g>
    <g id="ytick_2">
     <g id="line2d_18">
      <g>
       <use style="fill:#262626;stroke:#262626;stroke-width:1.25;" x="95.118594" xlink:href="#me3c8ffa7d3" y="131.94"/>
      </g>
     </g>
     <g id="text_11">
      <!-- Redis -->
      <g style="fill:#262626;" transform="translate(55.932344 136.119141)scale(0.11 -0.11)">
       <use xlink:href="#DejaVuSans-82"/>
       <use x="64.982422" xlink:href="#DejaVuSans-101"/>
       <use x="126.505859" xlink:href="#DejaVuSans-100"/>
       <use x="189.982422" xlink:href="#DejaVuSans-105"/>
       <use x="217.765625" xlink:href="#DejaVuSans-115"/>
      </g>
     </g>
    </g>
    <g id="text_12">
     <!-- Applications -->
     <g style="fill:#262626;" transform="translate(16.318125 127.010625)rotate(-90)scale(0.12 -0.12)">
      <defs>
       <path d="M 18.109375 8.203125 
L 18.109375 -20.796875 
L 9.078125 -20.796875 
L 9.078125 54.6875 
L 18.109375 54.6875 
L 18.109375 46.390625 
Q 20.953125 51.265625 25.265625 53.625 
Q 29.59375 56 35.59375 56 
Q 45.5625 56 51.78125 48.09375 
Q 58.015625 40.1875 58.015625 27.296875 
Q 58.015625 14.40625 51.78125 6.484375 
Q 45.5625 -1.421875 35.59375 -1.421875 
Q 29.59375 -1.421875 25.265625 0.953125 
Q 20.953125 3.328125 18.109375 8.203125 
z
M 48.6875 27.296875 
Q 48.6875 37.203125 44.609375 42.84375 
Q 40.53125 48.484375 33.40625 48.484375 
Q 26.265625 48.484375 22.1875 42.84375 
Q 18.109375 37.203125 18.109375 27.296875 
Q 18.109375 17.390625 22.1875 11.75 
Q 26.265625 6.109375 33.40625 6.109375 
Q 40.53125 6.109375 44.609375 11.75 
Q 48.6875 17.390625 48.6875 27.296875 
z
" id="DejaVuSans-112"/>
       <path d="M 48.78125 52.59375 
L 48.78125 44.1875 
Q 44.96875 46.296875 41.140625 47.34375 
Q 37.3125 48.390625 33.40625 48.390625 
Q 24.65625 48.390625 19.8125 42.84375 
Q 14.984375 37.3125 14.984375 27.296875 
Q 14.984375 17.28125 19.8125 11.734375 
Q 24.65625 6.203125 33.40625 6.203125 
Q 37.3125 6.203125 41.140625 7.25 
Q 44.96875 8.296875 48.78125 10.40625 
L 48.78125 2.09375 
Q 45.015625 0.34375 40.984375 -0.53125 
Q 36.96875 -1.421875 32.421875 -1.421875 
Q 20.0625 -1.421875 12.78125 6.34375 
Q 5.515625 14.109375 5.515625 27.296875 
Q 5.515625 40.671875 12.859375 48.328125 
Q 20.21875 56 33.015625 56 
Q 37.15625 56 41.109375 55.140625 
Q 45.0625 54.296875 48.78125 52.59375 
z
" id="DejaVuSans-99"/>
      </defs>
      <use xlink:href="#DejaVuSans-65"/>
      <use x="68.408203" xlink:href="#DejaVuSans-112"/>
      <use x="131.884766" xlink:href="#DejaVuSans-112"/>
      <use x="195.361328" xlink:href="#DejaVuSans-108"/>
      <use x="223.144531" xlink:href="#DejaVuSans-105"/>
      <use x="250.927734" xlink:href="#DejaVuSans-99"/>
      <use x="305.908203" xlink:href="#DejaVuSans-97"/>
      <use x="367.1875" xlink:href="#DejaVuSans-116"/>
      <use x="406.396484" xlink:href="#DejaVuSans-105"/>
      <use x="434.179688" xlink:href="#DejaVuSans-111"/>
      <use x="495.361328" xlink:href="#DejaVuSans-110"/>
      <use x="558.740234" xlink:href="#DejaVuSans-115"/>
     </g>
    </g>
   </g>
   <g id="patch_3">
    <path clip-path="url(#pa6c7b0cb04)" d="M 231.347415 15.84864 
L 231.347415 48.44736 
L 295.189895 48.44736 
L 295.189895 15.84864 
L 231.347415 15.84864 
z
" style="fill:#5875a4;stroke:#4c4c4c;stroke-linejoin:miter;stroke-width:1.5;"/>
   </g>
   <g id="patch_4">
    <path clip-path="url(#pa6c7b0cb04)" d="M 252.813603 49.11264 
L 252.813603 81.71136 
L 298.113188 81.71136 
L 298.113188 49.11264 
L 252.813603 49.11264 
z
" style="fill:#cc8963;stroke:#4c4c4c;stroke-linejoin:miter;stroke-width:1.5;"/>
   </g>
   <g id="patch_5">
    <path clip-path="url(#pa6c7b0cb04)" d="M 182.264101 99.00864 
L 182.264101 131.60736 
L 220.10347 131.60736 
L 220.10347 99.00864 
L 182.264101 99.00864 
z
" style="fill:#5875a4;stroke:#4c4c4c;stroke-linejoin:miter;stroke-width:1.5;"/>
   </g>
   <g id="patch_6">
    <path clip-path="url(#pa6c7b0cb04)" d="M 197.783261 132.27264 
L 197.783261 164.87136 
L 246.565557 164.87136 
L 246.565557 132.27264 
L 197.783261 132.27264 
z
" style="fill:#cc8963;stroke:#4c4c4c;stroke-linejoin:miter;stroke-width:1.5;"/>
   </g>
   <g id="PathCollection_1"/>
   <g id="PathCollection_2"/>
   <g id="patch_7">
    <path clip-path="url(#pa6c7b0cb04)" d="M 98.754446 48.78 
L 98.754446 48.78 
L 98.754446 48.78 
L 98.754446 48.78 
z
" style="fill:#5875a4;stroke:#4c4c4c;stroke-linejoin:miter;stroke-width:0.75;"/>
   </g>
   <g id="patch_8">
    <path clip-path="url(#pa6c7b0cb04)" d="M 98.754446 48.78 
L 98.754446 48.78 
L 98.754446 48.78 
L 98.754446 48.78 
z
" style="fill:#cc8963;stroke:#4c4c4c;stroke-linejoin:miter;stroke-width:0.75;"/>
   </g>
   <g id="line2d_19">
    <path clip-path="url(#pa6c7b0cb04)" d="M 231.347415 32.148 
L 215.790085 32.148 
" style="fill:none;stroke:#4c4c4c;stroke-linecap:round;stroke-width:1.5;"/>
   </g>
   <g id="line2d_20">
    <path clip-path="url(#pa6c7b0cb04)" d="M 295.189895 32.148 
L 376.806315 32.148 
" style="fill:none;stroke:#4c4c4c;stroke-linecap:round;stroke-width:1.5;"/>
   </g>
   <g id="line2d_21">
    <path clip-path="url(#pa6c7b0cb04)" d="M 215.790085 23.99832 
L 215.790085 40.29768 
" style="fill:none;stroke:#4c4c4c;stroke-linecap:round;stroke-width:1.5;"/>
   </g>
   <g id="line2d_22">
    <path clip-path="url(#pa6c7b0cb04)" d="M 376.806315 23.99832 
L 376.806315 40.29768 
" style="fill:none;stroke:#4c4c4c;stroke-linecap:round;stroke-width:1.5;"/>
   </g>
   <g id="line2d_23">
    <defs>
     <path d="M -0 3.535534 
L 2.12132 0 
L -0 -3.535534 
L -2.12132 -0 
z
" id="mb730d2e96d" style="stroke:#4c4c4c;stroke-linejoin:miter;"/>
    </defs>
    <g clip-path="url(#pa6c7b0cb04)">
     <use style="fill:#4c4c4c;stroke:#4c4c4c;stroke-linejoin:miter;" x="458.896863" xlink:href="#mb730d2e96d" y="32.148"/>
     <use style="fill:#4c4c4c;stroke:#4c4c4c;stroke-linejoin:miter;" x="629.991027" xlink:href="#mb730d2e96d" y="32.148"/>
    </g>
   </g>
   <g id="line2d_24">
    <path clip-path="url(#pa6c7b0cb04)" d="M 252.813603 65.412 
L 222.526184 65.412 
" style="fill:none;stroke:#4c4c4c;stroke-linecap:round;stroke-width:1.5;"/>
   </g>
   <g id="line2d_25">
    <path clip-path="url(#pa6c7b0cb04)" d="M 298.113188 65.412 
L 329.400338 65.412 
" style="fill:none;stroke:#4c4c4c;stroke-linecap:round;stroke-width:1.5;"/>
   </g>
   <g id="line2d_26">
    <path clip-path="url(#pa6c7b0cb04)" d="M 222.526184 57.26232 
L 222.526184 73.56168 
" style="fill:none;stroke:#4c4c4c;stroke-linecap:round;stroke-width:1.5;"/>
   </g>
   <g id="line2d_27">
    <path clip-path="url(#pa6c7b0cb04)" d="M 329.400338 57.26232 
L 329.400338 73.56168 
" style="fill:none;stroke:#4c4c4c;stroke-linecap:round;stroke-width:1.5;"/>
   </g>
   <g id="line2d_28">
    <g clip-path="url(#pa6c7b0cb04)">
     <use style="fill:#4c4c4c;stroke:#4c4c4c;stroke-linejoin:miter;" x="577.376401" xlink:href="#mb730d2e96d" y="65.412"/>
     <use style="fill:#4c4c4c;stroke:#4c4c4c;stroke-linejoin:miter;" x="512.869111" xlink:href="#mb730d2e96d" y="65.412"/>
     <use style="fill:#4c4c4c;stroke:#4c4c4c;stroke-linejoin:miter;" x="404.187567" xlink:href="#mb730d2e96d" y="65.412"/>
     <use style="fill:#4c4c4c;stroke:#4c4c4c;stroke-linejoin:miter;" x="431.679618" xlink:href="#mb730d2e96d" y="65.412"/>
    </g>
   </g>
   <g id="line2d_29">
    <path clip-path="url(#pa6c7b0cb04)" d="M 182.264101 115.308 
L 168.554028 115.308 
" style="fill:none;stroke:#4c4c4c;stroke-linecap:round;stroke-width:1.5;"/>
   </g>
   <g id="line2d_30">
    <path clip-path="url(#pa6c7b0cb04)" d="M 220.10347 115.308 
L 255.652392 115.308 
" style="fill:none;stroke:#4c4c4c;stroke-linecap:round;stroke-width:1.5;"/>
   </g>
   <g id="line2d_31">
    <path clip-path="url(#pa6c7b0cb04)" d="M 168.554028 107.15832 
L 168.554028 123.45768 
" style="fill:none;stroke:#4c4c4c;stroke-linecap:round;stroke-width:1.5;"/>
   </g>
   <g id="line2d_32">
    <path clip-path="url(#pa6c7b0cb04)" d="M 255.652392 107.15832 
L 255.652392 123.45768 
" style="fill:none;stroke:#4c4c4c;stroke-linecap:round;stroke-width:1.5;"/>
   </g>
   <g id="line2d_33">
    <g clip-path="url(#pa6c7b0cb04)">
     <use style="fill:#4c4c4c;stroke:#4c4c4c;stroke-linejoin:miter;" x="407.490511" xlink:href="#mb730d2e96d" y="115.308"/>
     <use style="fill:#4c4c4c;stroke:#4c4c4c;stroke-linejoin:miter;" x="393.862578" xlink:href="#mb730d2e96d" y="115.308"/>
    </g>
   </g>
   <g id="line2d_34">
    <path clip-path="url(#pa6c7b0cb04)" d="M 197.783261 148.572 
L 167.439686 148.572 
" style="fill:none;stroke:#4c4c4c;stroke-linecap:round;stroke-width:1.5;"/>
   </g>
   <g id="line2d_35">
    <path clip-path="url(#pa6c7b0cb04)" d="M 246.565557 148.572 
L 293.768068 148.572 
" style="fill:none;stroke:#4c4c4c;stroke-linecap:round;stroke-width:1.5;"/>
   </g>
   <g id="line2d_36">
    <path clip-path="url(#pa6c7b0cb04)" d="M 167.439686 140.42232 
L 167.439686 156.72168 
" style="fill:none;stroke:#4c4c4c;stroke-linecap:round;stroke-width:1.5;"/>
   </g>
   <g id="line2d_37">
    <path clip-path="url(#pa6c7b0cb04)" d="M 293.768068 140.42232 
L 293.768068 156.72168 
" style="fill:none;stroke:#4c4c4c;stroke-linecap:round;stroke-width:1.5;"/>
   </g>
   <g id="line2d_38">
    <g clip-path="url(#pa6c7b0cb04)">
     <use style="fill:#4c4c4c;stroke:#4c4c4c;stroke-linejoin:miter;" x="377.419161" xlink:href="#mb730d2e96d" y="148.572"/>
     <use style="fill:#4c4c4c;stroke:#4c4c4c;stroke-linejoin:miter;" x="338.841505" xlink:href="#mb730d2e96d" y="148.572"/>
     <use style="fill:#4c4c4c;stroke:#4c4c4c;stroke-linejoin:miter;" x="549.835942" xlink:href="#mb730d2e96d" y="148.572"/>
    </g>
   </g>
   <g id="line2d_39">
    <path clip-path="url(#pa6c7b0cb04)" d="M 254.956719 15.84864 
L 254.956719 48.44736 
" style="fill:none;stroke:#4c4c4c;stroke-linecap:round;stroke-width:1.5;"/>
   </g>
   <g id="line2d_40">
    <path clip-path="url(#pa6c7b0cb04)" d="M 281.113482 49.11264 
L 281.113482 81.71136 
" style="fill:none;stroke:#4c4c4c;stroke-linecap:round;stroke-width:1.5;"/>
   </g>
   <g id="line2d_41">
    <path clip-path="url(#pa6c7b0cb04)" d="M 197.558068 99.00864 
L 197.558068 131.60736 
" style="fill:none;stroke:#4c4c4c;stroke-linecap:round;stroke-width:1.5;"/>
   </g>
   <g id="line2d_42">
    <path clip-path="url(#pa6c7b0cb04)" d="M 216.422279 132.27264 
L 216.422279 164.87136 
" style="fill:none;stroke:#4c4c4c;stroke-linecap:round;stroke-width:1.5;"/>
   </g>
   <g id="patch_9">
    <path d="M 95.118594 173.52 
L 95.118594 7.2 
" style="fill:none;stroke:#262626;stroke-linecap:square;stroke-linejoin:miter;stroke-width:1.25;"/>
   </g>
   <g id="patch_10">
    <path d="M 653.118594 173.52 
L 653.118594 7.2 
" style="fill:none;stroke:#262626;stroke-linecap:square;stroke-linejoin:miter;stroke-width:1.25;"/>
   </g>
   <g id="patch_11">
    <path d="M 95.118594 173.52 
L 653.118594 173.52 
" style="fill:none;stroke:#262626;stroke-linecap:square;stroke-linejoin:miter;stroke-width:1.25;"/>
   </g>
   <g id="patch_12">
    <path d="M 95.118594 7.2 
L 653.118594 7.2 
" style="fill:none;stroke:#262626;stroke-linecap:square;stroke-linejoin:miter;stroke-width:1.25;"/>
   </g>
   <g id="PathCollection_3">
    <defs>
     <path d="M 0 1.5 
C 0.397805 1.5 0.77937 1.341951 1.06066 1.06066 
C 1.341951 0.77937 1.5 0.397805 1.5 -0 
C 1.5 -0.397805 1.341951 -0.77937 1.06066 -1.06066 
C 0.77937 -1.341951 0.397805 -1.5 0 -1.5 
C -0.397805 -1.5 -0.77937 -1.341951 -1.06066 -1.06066 
C -1.341951 -0.77937 -1.5 -0.397805 -1.5 0 
C -1.5 0.397805 -1.341951 0.77937 -1.06066 1.06066 
C -0.77937 1.341951 -0.397805 1.5 0 1.5 
z
" id="C0_0_76f4e37f84"/>
    </defs>
    <g clip-path="url(#pa6c7b0cb04)">
     <use style="fill:#4c72b0;fill-opacity:0.5;" x="215.790085" xlink:href="#C0_0_76f4e37f84" y="48.78"/>
    </g>
    <g clip-path="url(#pa6c7b0cb04)">
     <use style="fill:#4c72b0;fill-opacity:0.5;" x="216.140963" xlink:href="#C0_0_76f4e37f84" y="45.65602"/>
    </g>
    <g clip-path="url(#pa6c7b0cb04)">
     <use style="fill:#4c72b0;fill-opacity:0.5;" x="216.273992" xlink:href="#C0_0_76f4e37f84" y="51.880322"/>
    </g>
    <g clip-path="url(#pa6c7b0cb04)">
     <use style="fill:#4c72b0;fill-opacity:0.5;" x="217.465016" xlink:href="#C0_0_76f4e37f84" y="42.899595"/>
    </g>
    <g clip-path="url(#pa6c7b0cb04)">
     <use style="fill:#4c72b0;fill-opacity:0.5;" x="218.090291" xlink:href="#C0_0_76f4e37f84" y="54.235767"/>
    </g>
    <g clip-path="url(#pa6c7b0cb04)">
     <use style="fill:#4c72b0;fill-opacity:0.5;" x="221.776023" xlink:href="#C0_0_76f4e37f84" y="48.78"/>
    </g>
    <g clip-path="url(#pa6c7b0cb04)">
     <use style="fill:#dd8452;fill-opacity:0.5;" x="222.526184" xlink:href="#C0_0_76f4e37f84" y="45.750758"/>
    </g>
    <g clip-path="url(#pa6c7b0cb04)">
     <use style="fill:#4c72b0;fill-opacity:0.5;" x="222.780609" xlink:href="#C0_0_76f4e37f84" y="51.7099"/>
    </g>
    <g clip-path="url(#pa6c7b0cb04)">
     <use style="fill:#4c72b0;fill-opacity:0.5;" x="224.283788" xlink:href="#C0_0_76f4e37f84" y="43.33699"/>
    </g>
    <g clip-path="url(#pa6c7b0cb04)">
     <use style="fill:#4c72b0;fill-opacity:0.5;" x="225.902393" xlink:href="#C0_0_76f4e37f84" y="48.78"/>
    </g>
    <g clip-path="url(#pa6c7b0cb04)">
     <use style="fill:#4c72b0;fill-opacity:0.5;" x="227.732448" xlink:href="#C0_0_76f4e37f84" y="46.438716"/>
    </g>
    <g clip-path="url(#pa6c7b0cb04)">
     <use style="fill:#4c72b0;fill-opacity:0.5;" x="228.543992" xlink:href="#C0_0_76f4e37f84" y="49.59832"/>
    </g>
    <g clip-path="url(#pa6c7b0cb04)">
     <use style="fill:#4c72b0;fill-opacity:0.5;" x="229.614863" xlink:href="#C0_0_76f4e37f84" y="52.496922"/>
    </g>
    <g clip-path="url(#pa6c7b0cb04)">
     <use style="fill:#dd8452;fill-opacity:0.5;" x="230.884762" xlink:href="#C0_0_76f4e37f84" y="47.968256"/>
    </g>
    <g clip-path="url(#pa6c7b0cb04)">
     <use style="fill:#4c72b0;fill-opacity:0.5;" x="231.127044" xlink:href="#C0_0_76f4e37f84" y="44.830635"/>
    </g>
    <g clip-path="url(#pa6c7b0cb04)">
     <use style="fill:#dd8452;fill-opacity:0.5;" x="231.428274" xlink:href="#C0_0_76f4e37f84" y="54.855316"/>
    </g>
    <g clip-path="url(#pa6c7b0cb04)">
     <use style="fill:#dd8452;fill-opacity:0.5;" x="231.79046" xlink:href="#C0_0_76f4e37f84" y="41.774674"/>
    </g>
    <g clip-path="url(#pa6c7b0cb04)">
     <use style="fill:#4c72b0;fill-opacity:0.5;" x="232.008531" xlink:href="#C0_0_76f4e37f84" y="50.840182"/>
    </g>
    <g clip-path="url(#pa6c7b0cb04)">
     <use style="fill:#4c72b0;fill-opacity:0.5;" x="233.063925" xlink:href="#C0_0_76f4e37f84" y="57.380191"/>
    </g>
    <g clip-path="url(#pa6c7b0cb04)">
     <use style="fill:#4c72b0;fill-opacity:0.5;" x="235.284324" xlink:href="#C0_0_76f4e37f84" y="48.78"/>
    </g>
    <g clip-path="url(#pa6c7b0cb04)">
     <use style="fill:#dd8452;fill-opacity:0.5;" x="236.752812" xlink:href="#C0_0_76f4e37f84" y="46.12236"/>
    </g>
    <g clip-path="url(#pa6c7b0cb04)">
     <use style="fill:#4c72b0;fill-opacity:0.5;" x="237.698371" xlink:href="#C0_0_76f4e37f84" y="50.261587"/>
    </g>
    <g clip-path="url(#pa6c7b0cb04)">
     <use style="fill:#dd8452;fill-opacity:0.5;" x="237.901309" xlink:href="#C0_0_76f4e37f84" y="53.402907"/>
    </g>
    <g clip-path="url(#pa6c7b0cb04)">
     <use style="fill:#4c72b0;fill-opacity:0.5;" x="238.619295" xlink:href="#C0_0_76f4e37f84" y="43.819524"/>
    </g>
    <g clip-path="url(#pa6c7b0cb04)">
     <use style="fill:#dd8452;fill-opacity:0.5;" x="241.523986" xlink:href="#C0_0_76f4e37f84" y="48.78"/>
    </g>
    <g clip-path="url(#pa6c7b0cb04)">
     <use style="fill:#4c72b0;fill-opacity:0.5;" x="241.752938" xlink:href="#C0_0_76f4e37f84" y="45.641052"/>
    </g>
    <g clip-path="url(#pa6c7b0cb04)">
     <use style="fill:#dd8452;fill-opacity:0.5;" x="242.182961" xlink:href="#C0_0_76f4e37f84" y="51.837236"/>
    </g>
    <g clip-path="url(#pa6c7b0cb04)">
     <use style="fill:#4c72b0;fill-opacity:0.5;" x="242.260485" xlink:href="#C0_0_76f4e37f84" y="54.98597"/>
    </g>
    <g clip-path="url(#pa6c7b0cb04)">
     <use style="fill:#dd8452;fill-opacity:0.5;" x="243.990536" xlink:href="#C0_0_76f4e37f84" y="47.453081"/>
    </g>
    <g clip-path="url(#pa6c7b0cb04)">
     <use style="fill:#4c72b0;fill-opacity:0.5;" x="245.596846" xlink:href="#C0_0_76f4e37f84" y="50.002812"/>
    </g>
    <g clip-path="url(#pa6c7b0cb04)">
     <use style="fill:#4c72b0;fill-opacity:0.5;" x="246.30704" xlink:href="#C0_0_76f4e37f84" y="45.777682"/>
    </g>
    <g clip-path="url(#pa6c7b0cb04)">
     <use style="fill:#4c72b0;fill-opacity:0.5;" x="246.60635" xlink:href="#C0_0_76f4e37f84" y="52.93047"/>
    </g>
    <g clip-path="url(#pa6c7b0cb04)">
     <use style="fill:#dd8452;fill-opacity:0.5;" x="246.8012" xlink:href="#C0_0_76f4e37f84" y="42.679506"/>
    </g>
    <g clip-path="url(#pa6c7b0cb04)">
     <use style="fill:#dd8452;fill-opacity:0.5;" x="248.317071" xlink:href="#C0_0_76f4e37f84" y="48.78"/>
    </g>
    <g clip-path="url(#pa6c7b0cb04)">
     <use style="fill:#4c72b0;fill-opacity:0.5;" x="250.395487" xlink:href="#C0_0_76f4e37f84" y="46.731964"/>
    </g>
    <g clip-path="url(#pa6c7b0cb04)">
     <use style="fill:#dd8452;fill-opacity:0.5;" x="250.676688" xlink:href="#C0_0_76f4e37f84" y="50.373624"/>
    </g>
    <g clip-path="url(#pa6c7b0cb04)">
     <use style="fill:#dd8452;fill-opacity:0.5;" x="252.770052" xlink:href="#C0_0_76f4e37f84" y="48.345876"/>
    </g>
    <g clip-path="url(#pa6c7b0cb04)">
     <use style="fill:#dd8452;fill-opacity:0.5;" x="252.944256" xlink:href="#C0_0_76f4e37f84" y="52.135559"/>
    </g>
    <g clip-path="url(#pa6c7b0cb04)">
     <use style="fill:#4c72b0;fill-opacity:0.5;" x="254.945408" xlink:href="#C0_0_76f4e37f84" y="46.435991"/>
    </g>
    <g clip-path="url(#pa6c7b0cb04)">
     <use style="fill:#4c72b0;fill-opacity:0.5;" x="254.96803" xlink:href="#C0_0_76f4e37f84" y="54.254916"/>
    </g>
    <g clip-path="url(#pa6c7b0cb04)">
     <use style="fill:#dd8452;fill-opacity:0.5;" x="258.351391" xlink:href="#C0_0_76f4e37f84" y="48.78"/>
    </g>
    <g clip-path="url(#pa6c7b0cb04)">
     <use style="fill:#dd8452;fill-opacity:0.5;" x="258.360273" xlink:href="#C0_0_76f4e37f84" y="45.630017"/>
    </g>
    <g clip-path="url(#pa6c7b0cb04)">
     <use style="fill:#dd8452;fill-opacity:0.5;" x="261.500762" xlink:href="#C0_0_76f4e37f84" y="48.78"/>
    </g>
    <g clip-path="url(#pa6c7b0cb04)">
     <use style="fill:#4c72b0;fill-opacity:0.5;" x="262.483711" xlink:href="#C0_0_76f4e37f84" y="45.840385"/>
    </g>
    <g clip-path="url(#pa6c7b0cb04)">
     <use style="fill:#4c72b0;fill-opacity:0.5;" x="263.070862" xlink:href="#C0_0_76f4e37f84" y="51.359465"/>
    </g>
    <g clip-path="url(#pa6c7b0cb04)">
     <use style="fill:#4c72b0;fill-opacity:0.5;" x="264.385967" xlink:href="#C0_0_76f4e37f84" y="48.597366"/>
    </g>
    <g clip-path="url(#pa6c7b0cb04)">
     <use style="fill:#dd8452;fill-opacity:0.5;" x="265.909298" xlink:href="#C0_0_76f4e37f84" y="51.213753"/>
    </g>
    <g clip-path="url(#pa6c7b0cb04)">
     <use style="fill:#4c72b0;fill-opacity:0.5;" x="268.715112" xlink:href="#C0_0_76f4e37f84" y="48.78"/>
    </g>
    <g clip-path="url(#pa6c7b0cb04)">
     <use style="fill:#dd8452;fill-opacity:0.5;" x="270.484685" xlink:href="#C0_0_76f4e37f84" y="46.377856"/>
    </g>
    <g clip-path="url(#pa6c7b0cb04)">
     <use style="fill:#4c72b0;fill-opacity:0.5;" x="271.958299" xlink:href="#C0_0_76f4e37f84" y="49.031731"/>
    </g>
    <g clip-path="url(#pa6c7b0cb04)">
     <use style="fill:#4c72b0;fill-opacity:0.5;" x="274.256158" xlink:href="#C0_0_76f4e37f84" y="47.322626"/>
    </g>
    <g clip-path="url(#pa6c7b0cb04)">
     <use style="fill:#dd8452;fill-opacity:0.5;" x="276.482608" xlink:href="#C0_0_76f4e37f84" y="49.152774"/>
    </g>
    <g clip-path="url(#pa6c7b0cb04)">
     <use style="fill:#dd8452;fill-opacity:0.5;" x="276.540028" xlink:href="#C0_0_76f4e37f84" y="45.588836"/>
    </g>
    <g clip-path="url(#pa6c7b0cb04)">
     <use style="fill:#dd8452;fill-opacity:0.5;" x="277.536692" xlink:href="#C0_0_76f4e37f84" y="52.059524"/>
    </g>
    <g clip-path="url(#pa6c7b0cb04)">
     <use style="fill:#4c72b0;fill-opacity:0.5;" x="278.502004" xlink:href="#C0_0_76f4e37f84" y="43.393777"/>
    </g>
    <g clip-path="url(#pa6c7b0cb04)">
     <use style="fill:#dd8452;fill-opacity:0.5;" x="278.826362" xlink:href="#C0_0_76f4e37f84" y="47.528407"/>
    </g>
    <g clip-path="url(#pa6c7b0cb04)">
     <use style="fill:#dd8452;fill-opacity:0.5;" x="279.368253" xlink:href="#C0_0_76f4e37f84" y="54.399246"/>
    </g>
    <g clip-path="url(#pa6c7b0cb04)">
     <use style="fill:#dd8452;fill-opacity:0.5;" x="280.665885" xlink:href="#C0_0_76f4e37f84" y="49.859831"/>
    </g>
    <g clip-path="url(#pa6c7b0cb04)">
     <use style="fill:#dd8452;fill-opacity:0.5;" x="281.561078" xlink:href="#C0_0_76f4e37f84" y="46.883275"/>
    </g>
    <g clip-path="url(#pa6c7b0cb04)">
     <use style="fill:#dd8452;fill-opacity:0.5;" x="282.21914" xlink:href="#C0_0_76f4e37f84" y="52.452785"/>
    </g>
    <g clip-path="url(#pa6c7b0cb04)">
     <use style="fill:#4c72b0;fill-opacity:0.5;" x="282.635747" xlink:href="#C0_0_76f4e37f84" y="43.986537"/>
    </g>
    <g clip-path="url(#pa6c7b0cb04)">
     <use style="fill:#dd8452;fill-opacity:0.5;" x="283.173318" xlink:href="#C0_0_76f4e37f84" y="55.404943"/>
    </g>
    <g clip-path="url(#pa6c7b0cb04)">
     <use style="fill:#dd8452;fill-opacity:0.5;" x="283.366153" xlink:href="#C0_0_76f4e37f84" y="49.250134"/>
    </g>
    <g clip-path="url(#pa6c7b0cb04)">
     <use style="fill:#dd8452;fill-opacity:0.5;" x="284.226712" xlink:href="#C0_0_76f4e37f84" y="41.424081"/>
    </g>
    <g clip-path="url(#pa6c7b0cb04)">
     <use style="fill:#4c72b0;fill-opacity:0.5;" x="284.800963" xlink:href="#C0_0_76f4e37f84" y="46.568213"/>
    </g>
    <g clip-path="url(#pa6c7b0cb04)">
     <use style="fill:#dd8452;fill-opacity:0.5;" x="285.38685" xlink:href="#C0_0_76f4e37f84" y="51.373381"/>
    </g>
    <g clip-path="url(#pa6c7b0cb04)">
     <use style="fill:#4c72b0;fill-opacity:0.5;" x="286.636503" xlink:href="#C0_0_76f4e37f84" y="44.23263"/>
    </g>
    <g clip-path="url(#pa6c7b0cb04)">
     <use style="fill:#dd8452;fill-opacity:0.5;" x="287.236717" xlink:href="#C0_0_76f4e37f84" y="48.78"/>
    </g>
    <g clip-path="url(#pa6c7b0cb04)">
     <use style="fill:#dd8452;fill-opacity:0.5;" x="288.311009" xlink:href="#C0_0_76f4e37f84" y="51.676923"/>
    </g>
    <g clip-path="url(#pa6c7b0cb04)">
     <use style="fill:#dd8452;fill-opacity:0.5;" x="288.46697" xlink:href="#C0_0_76f4e37f84" y="54.8218"/>
    </g>
    <g clip-path="url(#pa6c7b0cb04)">
     <use style="fill:#dd8452;fill-opacity:0.5;" x="292.569757" xlink:href="#C0_0_76f4e37f84" y="48.78"/>
    </g>
    <g clip-path="url(#pa6c7b0cb04)">
     <use style="fill:#4c72b0;fill-opacity:0.5;" x="292.570189" xlink:href="#C0_0_76f4e37f84" y="45.63"/>
    </g>
    <g clip-path="url(#pa6c7b0cb04)">
     <use style="fill:#dd8452;fill-opacity:0.5;" x="293.414485" xlink:href="#C0_0_76f4e37f84" y="51.77605"/>
    </g>
    <g clip-path="url(#pa6c7b0cb04)">
     <use style="fill:#dd8452;fill-opacity:0.5;" x="295.825939" xlink:href="#C0_0_76f4e37f84" y="48.78"/>
    </g>
    <g clip-path="url(#pa6c7b0cb04)">
     <use style="fill:#4c72b0;fill-opacity:0.5;" x="296.06313" xlink:href="#C0_0_76f4e37f84" y="45.641864"/>
    </g>
    <g clip-path="url(#pa6c7b0cb04)">
     <use style="fill:#dd8452;fill-opacity:0.5;" x="298.875604" xlink:href="#C0_0_76f4e37f84" y="48.78"/>
    </g>
    <g clip-path="url(#pa6c7b0cb04)">
     <use style="fill:#dd8452;fill-opacity:0.5;" x="299.528139" xlink:href="#C0_0_76f4e37f84" y="45.720933"/>
    </g>
    <g clip-path="url(#pa6c7b0cb04)">
     <use style="fill:#dd8452;fill-opacity:0.5;" x="300.346768" xlink:href="#C0_0_76f4e37f84" y="51.435676"/>
    </g>
    <g clip-path="url(#pa6c7b0cb04)">
     <use style="fill:#4c72b0;fill-opacity:0.5;" x="304.932382" xlink:href="#C0_0_76f4e37f84" y="48.78"/>
    </g>
    <g clip-path="url(#pa6c7b0cb04)">
     <use style="fill:#dd8452;fill-opacity:0.5;" x="307.107284" xlink:href="#C0_0_76f4e37f84" y="46.869428"/>
    </g>
    <g clip-path="url(#pa6c7b0cb04)">
     <use style="fill:#dd8452;fill-opacity:0.5;" x="307.544734" xlink:href="#C0_0_76f4e37f84" y="49.97889"/>
    </g>
    <g clip-path="url(#pa6c7b0cb04)">
     <use style="fill:#dd8452;fill-opacity:0.5;" x="308.04826" xlink:href="#C0_0_76f4e37f84" y="53.075066"/>
    </g>
    <g clip-path="url(#pa6c7b0cb04)">
     <use style="fill:#dd8452;fill-opacity:0.5;" x="308.41277" xlink:href="#C0_0_76f4e37f84" y="44.101285"/>
    </g>
    <g clip-path="url(#pa6c7b0cb04)">
     <use style="fill:#4c72b0;fill-opacity:0.5;" x="308.826383" xlink:href="#C0_0_76f4e37f84" y="56.094941"/>
    </g>
    <g clip-path="url(#pa6c7b0cb04)">
     <use style="fill:#4c72b0;fill-opacity:0.5;" x="311.702855" xlink:href="#C0_0_76f4e37f84" y="48.78"/>
    </g>
    <g clip-path="url(#pa6c7b0cb04)">
     <use style="fill:#4c72b0;fill-opacity:0.5;" x="313.139209" xlink:href="#C0_0_76f4e37f84" y="46.099175"/>
    </g>
    <g clip-path="url(#pa6c7b0cb04)">
     <use style="fill:#4c72b0;fill-opacity:0.5;" x="322.720266" xlink:href="#C0_0_76f4e37f84" y="48.78"/>
    </g>
    <g clip-path="url(#pa6c7b0cb04)">
     <use style="fill:#dd8452;fill-opacity:0.5;" x="328.30652" xlink:href="#C0_0_76f4e37f84" y="48.78"/>
    </g>
    <g clip-path="url(#pa6c7b0cb04)">
     <use style="fill:#dd8452;fill-opacity:0.5;" x="329.400338" xlink:href="#C0_0_76f4e37f84" y="45.892782"/>
    </g>
    <g clip-path="url(#pa6c7b0cb04)">
     <use style="fill:#4c72b0;fill-opacity:0.5;" x="334.32286" xlink:href="#C0_0_76f4e37f84" y="48.78"/>
    </g>
    <g clip-path="url(#pa6c7b0cb04)">
     <use style="fill:#4c72b0;fill-opacity:0.5;" x="347.153045" xlink:href="#C0_0_76f4e37f84" y="48.78"/>
    </g>
    <g clip-path="url(#pa6c7b0cb04)">
     <use style="fill:#4c72b0;fill-opacity:0.5;" x="353.340525" xlink:href="#C0_0_76f4e37f84" y="48.78"/>
    </g>
    <g clip-path="url(#pa6c7b0cb04)">
     <use style="fill:#4c72b0;fill-opacity:0.5;" x="357.493203" xlink:href="#C0_0_76f4e37f84" y="48.78"/>
    </g>
    <g clip-path="url(#pa6c7b0cb04)">
     <use style="fill:#4c72b0;fill-opacity:0.5;" x="376.806315" xlink:href="#C0_0_76f4e37f84" y="48.78"/>
    </g>
    <g clip-path="url(#pa6c7b0cb04)">
     <use style="fill:#dd8452;fill-opacity:0.5;" x="404.187567" xlink:href="#C0_0_76f4e37f84" y="48.78"/>
    </g>
    <g clip-path="url(#pa6c7b0cb04)">
     <use style="fill:#dd8452;fill-opacity:0.5;" x="431.679618" xlink:href="#C0_0_76f4e37f84" y="48.78"/>
    </g>
    <g clip-path="url(#pa6c7b0cb04)">
     <use style="fill:#4c72b0;fill-opacity:0.5;" x="458.896863" xlink:href="#C0_0_76f4e37f84" y="48.78"/>
    </g>
    <g clip-path="url(#pa6c7b0cb04)">
     <use style="fill:#dd8452;fill-opacity:0.5;" x="512.869111" xlink:href="#C0_0_76f4e37f84" y="48.78"/>
    </g>
    <g clip-path="url(#pa6c7b0cb04)">
     <use style="fill:#dd8452;fill-opacity:0.5;" x="577.376401" xlink:href="#C0_0_76f4e37f84" y="48.78"/>
    </g>
    <g clip-path="url(#pa6c7b0cb04)">
     <use style="fill:#4c72b0;fill-opacity:0.5;" x="629.991027" xlink:href="#C0_0_76f4e37f84" y="48.78"/>
    </g>
   </g>
   <g id="PathCollection_4">
    <defs>
     <path d="M 0 1.5 
C 0.397805 1.5 0.77937 1.341951 1.06066 1.06066 
C 1.341951 0.77937 1.5 0.397805 1.5 -0 
C 1.5 -0.397805 1.341951 -0.77937 1.06066 -1.06066 
C 0.77937 -1.341951 0.397805 -1.5 0 -1.5 
C -0.397805 -1.5 -0.77937 -1.341951 -1.06066 -1.06066 
C -1.341951 -0.77937 -1.5 -0.397805 -1.5 0 
C -1.5 0.397805 -1.341951 0.77937 -1.06066 1.06066 
C -0.77937 1.341951 -0.397805 1.5 0 1.5 
z
" id="C1_0_33f83daef6"/>
    </defs>
    <g clip-path="url(#pa6c7b0cb04)">
     <use style="fill:#dd8452;fill-opacity:0.5;" x="167.439686" xlink:href="#C1_0_33f83daef6" y="131.94"/>
    </g>
    <g clip-path="url(#pa6c7b0cb04)">
     <use style="fill:#4c72b0;fill-opacity:0.5;" x="168.554028" xlink:href="#C1_0_33f83daef6" y="129.063207"/>
    </g>
    <g clip-path="url(#pa6c7b0cb04)">
     <use style="fill:#4c72b0;fill-opacity:0.5;" x="168.998707" xlink:href="#C1_0_33f83daef6" y="134.52836"/>
    </g>
    <g clip-path="url(#pa6c7b0cb04)">
     <use style="fill:#dd8452;fill-opacity:0.5;" x="170.726116" xlink:href="#C1_0_33f83daef6" y="131.94"/>
    </g>
    <g clip-path="url(#pa6c7b0cb04)">
     <use style="fill:#4c72b0;fill-opacity:0.5;" x="171.908698" xlink:href="#C1_0_33f83daef6" y="129.099561"/>
    </g>
    <g clip-path="url(#pa6c7b0cb04)">
     <use style="fill:#4c72b0;fill-opacity:0.5;" x="173.570326" xlink:href="#C1_0_33f83daef6" y="131.94"/>
    </g>
    <g clip-path="url(#pa6c7b0cb04)">
     <use style="fill:#4c72b0;fill-opacity:0.5;" x="174.03422" xlink:href="#C1_0_33f83daef6" y="135.044376"/>
    </g>
    <g clip-path="url(#pa6c7b0cb04)">
     <use style="fill:#4c72b0;fill-opacity:0.5;" x="175.311095" xlink:href="#C1_0_33f83daef6" y="129.510109"/>
    </g>
    <g clip-path="url(#pa6c7b0cb04)">
     <use style="fill:#4c72b0;fill-opacity:0.5;" x="176.445685" xlink:href="#C1_0_33f83daef6" y="132.376388"/>
    </g>
    <g clip-path="url(#pa6c7b0cb04)">
     <use style="fill:#4c72b0;fill-opacity:0.5;" x="177.407649" xlink:href="#C1_0_33f83daef6" y="135.325195"/>
    </g>
    <g clip-path="url(#pa6c7b0cb04)">
     <use style="fill:#dd8452;fill-opacity:0.5;" x="179.019291" xlink:href="#C1_0_33f83daef6" y="131.308753"/>
    </g>
    <g clip-path="url(#pa6c7b0cb04)">
     <use style="fill:#4c72b0;fill-opacity:0.5;" x="179.664455" xlink:href="#C1_0_33f83daef6" y="128.247614"/>
    </g>
    <g clip-path="url(#pa6c7b0cb04)">
     <use style="fill:#4c72b0;fill-opacity:0.5;" x="179.689527" xlink:href="#C1_0_33f83daef6" y="137.06246"/>
    </g>
    <g clip-path="url(#pa6c7b0cb04)">
     <use style="fill:#4c72b0;fill-opacity:0.5;" x="179.692646" xlink:href="#C1_0_33f83daef6" y="125.097782"/>
    </g>
    <g clip-path="url(#pa6c7b0cb04)">
     <use style="fill:#4c72b0;fill-opacity:0.5;" x="179.766785" xlink:href="#C1_0_33f83daef6" y="140.211203"/>
    </g>
    <g clip-path="url(#pa6c7b0cb04)">
     <use style="fill:#4c72b0;fill-opacity:0.5;" x="181.6196" xlink:href="#C1_0_33f83daef6" y="132.286835"/>
    </g>
    <g clip-path="url(#pa6c7b0cb04)">
     <use style="fill:#dd8452;fill-opacity:0.5;" x="182.367645" xlink:href="#C1_0_33f83daef6" y="129.256899"/>
    </g>
    <g clip-path="url(#pa6c7b0cb04)">
     <use style="fill:#4c72b0;fill-opacity:0.5;" x="184.197602" xlink:href="#C1_0_33f83daef6" y="133.340313"/>
    </g>
    <g clip-path="url(#pa6c7b0cb04)">
     <use style="fill:#dd8452;fill-opacity:0.5;" x="184.869745" xlink:href="#C1_0_33f83daef6" y="127.983672"/>
    </g>
    <g clip-path="url(#pa6c7b0cb04)">
     <use style="fill:#dd8452;fill-opacity:0.5;" x="185.391649" xlink:href="#C1_0_33f83daef6" y="136.174386"/>
    </g>
    <g clip-path="url(#pa6c7b0cb04)">
     <use style="fill:#dd8452;fill-opacity:0.5;" x="186.51583" xlink:href="#C1_0_33f83daef6" y="131.668079"/>
    </g>
    <g clip-path="url(#pa6c7b0cb04)">
     <use style="fill:#4c72b0;fill-opacity:0.5;" x="187.399959" xlink:href="#C1_0_33f83daef6" y="126.786381"/>
    </g>
    <g clip-path="url(#pa6c7b0cb04)">
     <use style="fill:#4c72b0;fill-opacity:0.5;" x="187.554345" xlink:href="#C1_0_33f83daef6" y="138.103242"/>
    </g>
    <g clip-path="url(#pa6c7b0cb04)">
     <use style="fill:#4c72b0;fill-opacity:0.5;" x="187.88536" xlink:href="#C1_0_33f83daef6" y="134.394881"/>
    </g>
    <g clip-path="url(#pa6c7b0cb04)">
     <use style="fill:#4c72b0;fill-opacity:0.5;" x="189.044968" xlink:href="#C1_0_33f83daef6" y="130.467778"/>
    </g>
    <g clip-path="url(#pa6c7b0cb04)">
     <use style="fill:#dd8452;fill-opacity:0.5;" x="189.075481" xlink:href="#C1_0_33f83daef6" y="124.296413"/>
    </g>
    <g clip-path="url(#pa6c7b0cb04)">
     <use style="fill:#4c72b0;fill-opacity:0.5;" x="189.935624" xlink:href="#C1_0_33f83daef6" y="136.480204"/>
    </g>
    <g clip-path="url(#pa6c7b0cb04)">
     <use style="fill:#dd8452;fill-opacity:0.5;" x="192.821169" xlink:href="#C1_0_33f83daef6" y="131.94"/>
    </g>
    <g clip-path="url(#pa6c7b0cb04)">
     <use style="fill:#4c72b0;fill-opacity:0.5;" x="193.964626" xlink:href="#C1_0_33f83daef6" y="129.078398"/>
    </g>
    <g clip-path="url(#pa6c7b0cb04)">
     <use style="fill:#4c72b0;fill-opacity:0.5;" x="194.017636" xlink:href="#C1_0_33f83daef6" y="134.772718"/>
    </g>
    <g clip-path="url(#pa6c7b0cb04)">
     <use style="fill:#dd8452;fill-opacity:0.5;" x="194.711539" xlink:href="#C1_0_33f83daef6" y="137.819689"/>
    </g>
    <g clip-path="url(#pa6c7b0cb04)">
     <use style="fill:#4c72b0;fill-opacity:0.5;" x="195.643724" xlink:href="#C1_0_33f83daef6" y="131.94"/>
    </g>
    <g clip-path="url(#pa6c7b0cb04)">
     <use style="fill:#4c72b0;fill-opacity:0.5;" x="195.988385" xlink:href="#C1_0_33f83daef6" y="126.95902"/>
    </g>
    <g clip-path="url(#pa6c7b0cb04)">
     <use style="fill:#4c72b0;fill-opacity:0.5;" x="196.40898" xlink:href="#C1_0_33f83daef6" y="123.846476"/>
    </g>
    <g clip-path="url(#pa6c7b0cb04)">
     <use style="fill:#4c72b0;fill-opacity:0.5;" x="196.616534" xlink:href="#C1_0_33f83daef6" y="140.080322"/>
    </g>
    <g clip-path="url(#pa6c7b0cb04)">
     <use style="fill:#dd8452;fill-opacity:0.5;" x="196.841639" xlink:href="#C1_0_33f83daef6" y="134.771907"/>
    </g>
    <g clip-path="url(#pa6c7b0cb04)">
     <use style="fill:#dd8452;fill-opacity:0.5;" x="197.171657" xlink:href="#C1_0_33f83daef6" y="120.821381"/>
    </g>
    <g clip-path="url(#pa6c7b0cb04)">
     <use style="fill:#dd8452;fill-opacity:0.5;" x="197.77197" xlink:href="#C1_0_33f83daef6" y="129.960986"/>
    </g>
    <g clip-path="url(#pa6c7b0cb04)">
     <use style="fill:#dd8452;fill-opacity:0.5;" x="197.817134" xlink:href="#C1_0_33f83daef6" y="142.91072"/>
    </g>
    <g clip-path="url(#pa6c7b0cb04)">
     <use style="fill:#4c72b0;fill-opacity:0.5;" x="198.499602" xlink:href="#C1_0_33f83daef6" y="137.277411"/>
    </g>
    <g clip-path="url(#pa6c7b0cb04)">
     <use style="fill:#4c72b0;fill-opacity:0.5;" x="199.18324" xlink:href="#C1_0_33f83daef6" y="132.659419"/>
    </g>
    <g clip-path="url(#pa6c7b0cb04)">
     <use style="fill:#4c72b0;fill-opacity:0.5;" x="199.277137" xlink:href="#C1_0_33f83daef6" y="127.330696"/>
    </g>
    <g clip-path="url(#pa6c7b0cb04)">
     <use style="fill:#dd8452;fill-opacity:0.5;" x="200.015833" xlink:href="#C1_0_33f83daef6" y="124.29772"/>
    </g>
    <g clip-path="url(#pa6c7b0cb04)">
     <use style="fill:#4c72b0;fill-opacity:0.5;" x="201.965442" xlink:href="#C1_0_33f83daef6" y="131.94"/>
    </g>
    <g clip-path="url(#pa6c7b0cb04)">
     <use style="fill:#dd8452;fill-opacity:0.5;" x="202.00583" xlink:href="#C1_0_33f83daef6" y="128.790343"/>
    </g>
    <g clip-path="url(#pa6c7b0cb04)">
     <use style="fill:#4c72b0;fill-opacity:0.5;" x="202.769399" xlink:href="#C1_0_33f83daef6" y="134.950888"/>
    </g>
    <g clip-path="url(#pa6c7b0cb04)">
     <use style="fill:#4c72b0;fill-opacity:0.5;" x="203.477222" xlink:href="#C1_0_33f83daef6" y="126.134834"/>
    </g>
    <g clip-path="url(#pa6c7b0cb04)">
     <use style="fill:#dd8452;fill-opacity:0.5;" x="203.672294" xlink:href="#C1_0_33f83daef6" y="137.924358"/>
    </g>
    <g clip-path="url(#pa6c7b0cb04)">
     <use style="fill:#4c72b0;fill-opacity:0.5;" x="203.739236" xlink:href="#C1_0_33f83daef6" y="122.999317"/>
    </g>
    <g clip-path="url(#pa6c7b0cb04)">
     <use style="fill:#dd8452;fill-opacity:0.5;" x="204.174899" xlink:href="#C1_0_33f83daef6" y="141.020733"/>
    </g>
    <g clip-path="url(#pa6c7b0cb04)">
     <use style="fill:#4c72b0;fill-opacity:0.5;" x="204.363335" xlink:href="#C1_0_33f83daef6" y="130.424026"/>
    </g>
    <g clip-path="url(#pa6c7b0cb04)">
     <use style="fill:#dd8452;fill-opacity:0.5;" x="204.957578" xlink:href="#C1_0_33f83daef6" y="120.178989"/>
    </g>
    <g clip-path="url(#pa6c7b0cb04)">
     <use style="fill:#dd8452;fill-opacity:0.5;" x="204.988108" xlink:href="#C1_0_33f83daef6" y="144.028325"/>
    </g>
    <g clip-path="url(#pa6c7b0cb04)">
     <use style="fill:#dd8452;fill-opacity:0.5;" x="206.160591" xlink:href="#C1_0_33f83daef6" y="132.798761"/>
    </g>
    <g clip-path="url(#pa6c7b0cb04)">
     <use style="fill:#4c72b0;fill-opacity:0.5;" x="206.293801" xlink:href="#C1_0_33f83daef6" y="128.19223"/>
    </g>
    <g clip-path="url(#pa6c7b0cb04)">
     <use style="fill:#4c72b0;fill-opacity:0.5;" x="206.594751" xlink:href="#C1_0_33f83daef6" y="135.908834"/>
    </g>
    <g clip-path="url(#pa6c7b0cb04)">
     <use style="fill:#dd8452;fill-opacity:0.5;" x="210.732403" xlink:href="#C1_0_33f83daef6" y="131.94"/>
    </g>
    <g clip-path="url(#pa6c7b0cb04)">
     <use style="fill:#dd8452;fill-opacity:0.5;" x="211.907169" xlink:href="#C1_0_33f83daef6" y="129.095263"/>
    </g>
    <g clip-path="url(#pa6c7b0cb04)">
     <use style="fill:#4c72b0;fill-opacity:0.5;" x="213.519766" xlink:href="#C1_0_33f83daef6" y="131.94"/>
    </g>
    <g clip-path="url(#pa6c7b0cb04)">
     <use style="fill:#dd8452;fill-opacity:0.5;" x="213.961619" xlink:href="#C1_0_33f83daef6" y="135.048637"/>
    </g>
    <g clip-path="url(#pa6c7b0cb04)">
     <use style="fill:#4c72b0;fill-opacity:0.5;" x="215.755979" xlink:href="#C1_0_33f83daef6" y="130.125705"/>
    </g>
    <g clip-path="url(#pa6c7b0cb04)">
     <use style="fill:#dd8452;fill-opacity:0.5;" x="216.136198" xlink:href="#C1_0_33f83daef6" y="133.137579"/>
    </g>
    <g clip-path="url(#pa6c7b0cb04)">
     <use style="fill:#dd8452;fill-opacity:0.5;" x="216.70836" xlink:href="#C1_0_33f83daef6" y="136.217905"/>
    </g>
    <g clip-path="url(#pa6c7b0cb04)">
     <use style="fill:#dd8452;fill-opacity:0.5;" x="219.235894" xlink:href="#C1_0_33f83daef6" y="131.94"/>
    </g>
    <g clip-path="url(#pa6c7b0cb04)">
     <use style="fill:#4c72b0;fill-opacity:0.5;" x="221.552634" xlink:href="#C1_0_33f83daef6" y="130.265033"/>
    </g>
    <g clip-path="url(#pa6c7b0cb04)">
     <use style="fill:#4c72b0;fill-opacity:0.5;" x="222.426096" xlink:href="#C1_0_33f83daef6" y="133.250138"/>
    </g>
    <g clip-path="url(#pa6c7b0cb04)">
     <use style="fill:#4c72b0;fill-opacity:0.5;" x="222.654017" xlink:href="#C1_0_33f83daef6" y="136.389185"/>
    </g>
    <g clip-path="url(#pa6c7b0cb04)">
     <use style="fill:#dd8452;fill-opacity:0.5;" x="223.918773" xlink:href="#C1_0_33f83daef6" y="128.684284"/>
    </g>
    <g clip-path="url(#pa6c7b0cb04)">
     <use style="fill:#dd8452;fill-opacity:0.5;" x="226.171632" xlink:href="#C1_0_33f83daef6" y="131.94"/>
    </g>
    <g clip-path="url(#pa6c7b0cb04)">
     <use style="fill:#4c72b0;fill-opacity:0.5;" x="227.620766" xlink:href="#C1_0_33f83daef6" y="129.26831"/>
    </g>
    <g clip-path="url(#pa6c7b0cb04)">
     <use style="fill:#4c72b0;fill-opacity:0.5;" x="229.73828" xlink:href="#C1_0_33f83daef6" y="131.94"/>
    </g>
    <g clip-path="url(#pa6c7b0cb04)">
     <use style="fill:#dd8452;fill-opacity:0.5;" x="230.037215" xlink:href="#C1_0_33f83daef6" y="135.071135"/>
    </g>
    <g clip-path="url(#pa6c7b0cb04)">
     <use style="fill:#4c72b0;fill-opacity:0.5;" x="234.126252" xlink:href="#C1_0_33f83daef6" y="131.94"/>
    </g>
    <g clip-path="url(#pa6c7b0cb04)">
     <use style="fill:#dd8452;fill-opacity:0.5;" x="234.587328" xlink:href="#C1_0_33f83daef6" y="128.835068"/>
    </g>
    <g clip-path="url(#pa6c7b0cb04)">
     <use style="fill:#dd8452;fill-opacity:0.5;" x="235.944025" xlink:href="#C1_0_33f83daef6" y="134.293937"/>
    </g>
    <g clip-path="url(#pa6c7b0cb04)">
     <use style="fill:#4c72b0;fill-opacity:0.5;" x="236.891845" xlink:href="#C1_0_33f83daef6" y="131.339064"/>
    </g>
    <g clip-path="url(#pa6c7b0cb04)">
     <use style="fill:#4c72b0;fill-opacity:0.5;" x="237.689539" xlink:href="#C1_0_33f83daef6" y="128.325968"/>
    </g>
    <g clip-path="url(#pa6c7b0cb04)">
     <use style="fill:#dd8452;fill-opacity:0.5;" x="237.851825" xlink:href="#C1_0_33f83daef6" y="136.551429"/>
    </g>
    <g clip-path="url(#pa6c7b0cb04)">
     <use style="fill:#dd8452;fill-opacity:0.5;" x="239.183761" xlink:href="#C1_0_33f83daef6" y="133.058717"/>
    </g>
    <g clip-path="url(#pa6c7b0cb04)">
     <use style="fill:#dd8452;fill-opacity:0.5;" x="240.73934" xlink:href="#C1_0_33f83daef6" y="130.467613"/>
    </g>
    <g clip-path="url(#pa6c7b0cb04)">
     <use style="fill:#dd8452;fill-opacity:0.5;" x="242.09749" xlink:href="#C1_0_33f83daef6" y="133.201952"/>
    </g>
    <g clip-path="url(#pa6c7b0cb04)">
     <use style="fill:#dd8452;fill-opacity:0.5;" x="242.124177" xlink:href="#C1_0_33f83daef6" y="127.751082"/>
    </g>
    <g clip-path="url(#pa6c7b0cb04)">
     <use style="fill:#4c72b0;fill-opacity:0.5;" x="244.721431" xlink:href="#C1_0_33f83daef6" y="131.94"/>
    </g>
    <g clip-path="url(#pa6c7b0cb04)">
     <use style="fill:#4c72b0;fill-opacity:0.5;" x="244.803189" xlink:href="#C1_0_33f83daef6" y="128.791407"/>
    </g>
    <g clip-path="url(#pa6c7b0cb04)">
     <use style="fill:#dd8452;fill-opacity:0.5;" x="248.046018" xlink:href="#C1_0_33f83daef6" y="131.94"/>
    </g>
    <g clip-path="url(#pa6c7b0cb04)">
     <use style="fill:#dd8452;fill-opacity:0.5;" x="248.919564" xlink:href="#C1_0_33f83daef6" y="128.954928"/>
    </g>
    <g clip-path="url(#pa6c7b0cb04)">
     <use style="fill:#dd8452;fill-opacity:0.5;" x="253.370945" xlink:href="#C1_0_33f83daef6" y="131.94"/>
    </g>
    <g clip-path="url(#pa6c7b0cb04)">
     <use style="fill:#4c72b0;fill-opacity:0.5;" x="255.652392" xlink:href="#C1_0_33f83daef6" y="130.201984"/>
    </g>
    <g clip-path="url(#pa6c7b0cb04)">
     <use style="fill:#dd8452;fill-opacity:0.5;" x="256.582606" xlink:href="#C1_0_33f83daef6" y="133.164266"/>
    </g>
    <g clip-path="url(#pa6c7b0cb04)">
     <use style="fill:#dd8452;fill-opacity:0.5;" x="258.753149" xlink:href="#C1_0_33f83daef6" y="131.247133"/>
    </g>
    <g clip-path="url(#pa6c7b0cb04)">
     <use style="fill:#dd8452;fill-opacity:0.5;" x="265.55796" xlink:href="#C1_0_33f83daef6" y="131.94"/>
    </g>
    <g clip-path="url(#pa6c7b0cb04)">
     <use style="fill:#dd8452;fill-opacity:0.5;" x="267.309145" xlink:href="#C1_0_33f83daef6" y="129.520054"/>
    </g>
    <g clip-path="url(#pa6c7b0cb04)">
     <use style="fill:#dd8452;fill-opacity:0.5;" x="270.796826" xlink:href="#C1_0_33f83daef6" y="131.94"/>
    </g>
    <g clip-path="url(#pa6c7b0cb04)">
     <use style="fill:#dd8452;fill-opacity:0.5;" x="287.15314" xlink:href="#C1_0_33f83daef6" y="131.94"/>
    </g>
    <g clip-path="url(#pa6c7b0cb04)">
     <use style="fill:#dd8452;fill-opacity:0.5;" x="293.768068" xlink:href="#C1_0_33f83daef6" y="131.94"/>
    </g>
    <g clip-path="url(#pa6c7b0cb04)">
     <use style="fill:#dd8452;fill-opacity:0.5;" x="338.841505" xlink:href="#C1_0_33f83daef6" y="131.94"/>
    </g>
    <g clip-path="url(#pa6c7b0cb04)">
     <use style="fill:#dd8452;fill-opacity:0.5;" x="377.419161" xlink:href="#C1_0_33f83daef6" y="131.94"/>
    </g>
    <g clip-path="url(#pa6c7b0cb04)">
     <use style="fill:#4c72b0;fill-opacity:0.5;" x="393.862578" xlink:href="#C1_0_33f83daef6" y="131.94"/>
    </g>
    <g clip-path="url(#pa6c7b0cb04)">
     <use style="fill:#4c72b0;fill-opacity:0.5;" x="407.490511" xlink:href="#C1_0_33f83daef6" y="131.94"/>
    </g>
    <g clip-path="url(#pa6c7b0cb04)">
     <use style="fill:#dd8452;fill-opacity:0.5;" x="549.835942" xlink:href="#C1_0_33f83daef6" y="131.94"/>
    </g>
   </g>
   <g id="legend_1">
    <g id="patch_13">
     <path d="M 490.810156 168.02 
L 645.418594 168.02 
Q 647.618594 168.02 647.618594 165.82 
L 647.618594 85.2225 
Q 647.618594 83.0225 645.418594 83.0225 
L 490.810156 83.0225 
Q 488.610156 83.0225 488.610156 85.2225 
L 488.610156 165.82 
Q 488.610156 168.02 490.810156 168.02 
z
" style="fill:#ffffff;opacity:0.8;stroke:#cccccc;stroke-linejoin:miter;"/>
    </g>
    <g id="text_13">
     <!-- Experiment Type -->
     <g style="fill:#262626;" transform="translate(517.760312 96.540625)scale(0.12 -0.12)">
      <defs>
       <path d="M 9.8125 72.90625 
L 55.90625 72.90625 
L 55.90625 64.59375 
L 19.671875 64.59375 
L 19.671875 43.015625 
L 54.390625 43.015625 
L 54.390625 34.71875 
L 19.671875 34.71875 
L 19.671875 8.296875 
L 56.78125 8.296875 
L 56.78125 0 
L 9.8125 0 
z
" id="DejaVuSans-69"/>
       <path d="M 54.890625 54.6875 
L 35.109375 28.078125 
L 55.90625 0 
L 45.3125 0 
L 29.390625 21.484375 
L 13.484375 0 
L 2.875 0 
L 24.125 28.609375 
L 4.6875 54.6875 
L 15.28125 54.6875 
L 29.78125 35.203125 
L 44.28125 54.6875 
z
" id="DejaVuSans-120"/>
       <path d="M 32.171875 -5.078125 
Q 28.375 -14.84375 24.75 -17.8125 
Q 21.140625 -20.796875 15.09375 -20.796875 
L 7.90625 -20.796875 
L 7.90625 -13.28125 
L 13.1875 -13.28125 
Q 16.890625 -13.28125 18.9375 -11.515625 
Q 21 -9.765625 23.484375 -3.21875 
L 25.09375 0.875 
L 2.984375 54.6875 
L 12.5 54.6875 
L 29.59375 11.921875 
L 46.6875 54.6875 
L 56.203125 54.6875 
z
" id="DejaVuSans-121"/>
      </defs>
      <use xlink:href="#DejaVuSans-69"/>
      <use x="63.183594" xlink:href="#DejaVuSans-120"/>
      <use x="122.363281" xlink:href="#DejaVuSans-112"/>
      <use x="185.839844" xlink:href="#DejaVuSans-101"/>
      <use x="247.363281" xlink:href="#DejaVuSans-114"/>
      <use x="288.476562" xlink:href="#DejaVuSans-105"/>
      <use x="316.259766" xlink:href="#DejaVuSans-109"/>
      <use x="413.671875" xlink:href="#DejaVuSans-101"/>
      <use x="475.195312" xlink:href="#DejaVuSans-110"/>
      <use x="538.574219" xlink:href="#DejaVuSans-116"/>
      <use x="577.783203" xlink:href="#DejaVuSans-32"/>
      <use x="609.570312" xlink:href="#DejaVuSans-84"/>
      <use x="655.029297" xlink:href="#DejaVuSans-121"/>
      <use x="714.208984" xlink:href="#DejaVuSans-112"/>
      <use x="777.685547" xlink:href="#DejaVuSans-101"/>
     </g>
    </g>
    <g id="patch_14">
     <path d="M 493.010156 112.894531 
L 515.010156 112.894531 
L 515.010156 105.194531 
L 493.010156 105.194531 
z
" style="fill:#5875a4;stroke:#4c4c4c;stroke-linejoin:miter;stroke-width:0.75;"/>
    </g>
    <g id="text_14">
     <!-- Reference Run -->
     <g style="fill:#262626;" transform="translate(523.810156 112.894531)scale(0.11 -0.11)">
      <defs>
       <path d="M 37.109375 75.984375 
L 37.109375 68.5 
L 28.515625 68.5 
Q 23.6875 68.5 21.796875 66.546875 
Q 19.921875 64.59375 19.921875 59.515625 
L 19.921875 54.6875 
L 34.71875 54.6875 
L 34.71875 47.703125 
L 19.921875 47.703125 
L 19.921875 0 
L 10.890625 0 
L 10.890625 47.703125 
L 2.296875 47.703125 
L 2.296875 54.6875 
L 10.890625 54.6875 
L 10.890625 58.5 
Q 10.890625 67.625 15.140625 71.796875 
Q 19.390625 75.984375 28.609375 75.984375 
z
" id="DejaVuSans-102"/>
      </defs>
      <use xlink:href="#DejaVuSans-82"/>
      <use x="64.982422" xlink:href="#DejaVuSans-101"/>
      <use x="126.505859" xlink:href="#DejaVuSans-102"/>
      <use x="161.710938" xlink:href="#DejaVuSans-101"/>
      <use x="223.234375" xlink:href="#DejaVuSans-114"/>
      <use x="262.097656" xlink:href="#DejaVuSans-101"/>
      <use x="323.621094" xlink:href="#DejaVuSans-110"/>
      <use x="387" xlink:href="#DejaVuSans-99"/>
      <use x="441.980469" xlink:href="#DejaVuSans-101"/>
      <use x="503.503906" xlink:href="#DejaVuSans-32"/>
      <use x="535.291016" xlink:href="#DejaVuSans-82"/>
      <use x="600.273438" xlink:href="#DejaVuSans-117"/>
      <use x="663.652344" xlink:href="#DejaVuSans-110"/>
     </g>
    </g>
    <g id="patch_15">
     <path d="M 493.010156 129.040469 
L 515.010156 129.040469 
L 515.010156 121.340469 
L 493.010156 121.340469 
z
" style="fill:#cc8963;stroke:#4c4c4c;stroke-linejoin:miter;stroke-width:0.75;"/>
    </g>
    <g id="text_15">
     <!-- Perturbation Disabled -->
     <g style="fill:#262626;" transform="translate(523.810156 129.040469)scale(0.11 -0.11)">
      <defs>
       <path d="M 48.6875 27.296875 
Q 48.6875 37.203125 44.609375 42.84375 
Q 40.53125 48.484375 33.40625 48.484375 
Q 26.265625 48.484375 22.1875 42.84375 
Q 18.109375 37.203125 18.109375 27.296875 
Q 18.109375 17.390625 22.1875 11.75 
Q 26.265625 6.109375 33.40625 6.109375 
Q 40.53125 6.109375 44.609375 11.75 
Q 48.6875 17.390625 48.6875 27.296875 
z
M 18.109375 46.390625 
Q 20.953125 51.265625 25.265625 53.625 
Q 29.59375 56 35.59375 56 
Q 45.5625 56 51.78125 48.09375 
Q 58.015625 40.1875 58.015625 27.296875 
Q 58.015625 14.40625 51.78125 6.484375 
Q 45.5625 -1.421875 35.59375 -1.421875 
Q 29.59375 -1.421875 25.265625 0.953125 
Q 20.953125 3.328125 18.109375 8.203125 
L 18.109375 0 
L 9.078125 0 
L 9.078125 75.984375 
L 18.109375 75.984375 
z
" id="DejaVuSans-98"/>
       <path d="M 19.671875 64.796875 
L 19.671875 8.109375 
L 31.59375 8.109375 
Q 46.6875 8.109375 53.6875 14.9375 
Q 60.6875 21.78125 60.6875 36.53125 
Q 60.6875 51.171875 53.6875 57.984375 
Q 46.6875 64.796875 31.59375 64.796875 
z
M 9.8125 72.90625 
L 30.078125 72.90625 
Q 51.265625 72.90625 61.171875 64.09375 
Q 71.09375 55.28125 71.09375 36.53125 
Q 71.09375 17.671875 61.125 8.828125 
Q 51.171875 0 30.078125 0 
L 9.8125 0 
z
" id="DejaVuSans-68"/>
      </defs>
      <use xlink:href="#DejaVuSans-80"/>
      <use x="56.677734" xlink:href="#DejaVuSans-101"/>
      <use x="118.201172" xlink:href="#DejaVuSans-114"/>
      <use x="159.314453" xlink:href="#DejaVuSans-116"/>
      <use x="198.523438" xlink:href="#DejaVuSans-117"/>
      <use x="261.902344" xlink:href="#DejaVuSans-114"/>
      <use x="303.015625" xlink:href="#DejaVuSans-98"/>
      <use x="366.492188" xlink:href="#DejaVuSans-97"/>
      <use x="427.771484" xlink:href="#DejaVuSans-116"/>
      <use x="466.980469" xlink:href="#DejaVuSans-105"/>
      <use x="494.763672" xlink:href="#DejaVuSans-111"/>
      <use x="555.945312" xlink:href="#DejaVuSans-110"/>
      <use x="619.324219" xlink:href="#DejaVuSans-32"/>
      <use x="651.111328" xlink:href="#DejaVuSans-68"/>
      <use x="728.113281" xlink:href="#DejaVuSans-105"/>
      <use x="755.896484" xlink:href="#DejaVuSans-115"/>
      <use x="807.996094" xlink:href="#DejaVuSans-97"/>
      <use x="869.275391" xlink:href="#DejaVuSans-98"/>
      <use x="932.751953" xlink:href="#DejaVuSans-108"/>
      <use x="960.535156" xlink:href="#DejaVuSans-101"/>
      <use x="1022.058594" xlink:href="#DejaVuSans-100"/>
     </g>
    </g>
    <g id="PathCollection_5">
     <defs>
      <path d="M 0 3.872983 
C 1.027127 3.872983 2.012324 3.464901 2.738613 2.738613 
C 3.464901 2.012324 3.872983 1.027127 3.872983 0 
C 3.872983 -1.027127 3.464901 -2.012324 2.738613 -2.738613 
C 2.012324 -3.464901 1.027127 -3.872983 0 -3.872983 
C -1.027127 -3.872983 -2.012324 -3.464901 -2.738613 -2.738613 
C -3.464901 -2.012324 -3.872983 -1.027127 -3.872983 0 
C -3.872983 1.027127 -3.464901 2.012324 -2.738613 2.738613 
C -2.012324 3.464901 -1.027127 3.872983 0 3.872983 
z
" id="ma9ac2173a8" style="stroke:#4c72b0;"/>
     </defs>
     <g>
      <use style="fill:#4c72b0;stroke:#4c72b0;" x="504.010156" xlink:href="#ma9ac2173a8" y="142.298906"/>
     </g>
    </g>
    <g id="text_16">
     <!-- Reference Run -->
     <g style="fill:#262626;" transform="translate(523.810156 145.186406)scale(0.11 -0.11)">
      <use xlink:href="#DejaVuSans-82"/>
      <use x="64.982422" xlink:href="#DejaVuSans-101"/>
      <use x="126.505859" xlink:href="#DejaVuSans-102"/>
      <use x="161.710938" xlink:href="#DejaVuSans-101"/>
      <use x="223.234375" xlink:href="#DejaVuSans-114"/>
      <use x="262.097656" xlink:href="#DejaVuSans-101"/>
      <use x="323.621094" xlink:href="#DejaVuSans-110"/>
      <use x="387" xlink:href="#DejaVuSans-99"/>
      <use x="441.980469" xlink:href="#DejaVuSans-101"/>
      <use x="503.503906" xlink:href="#DejaVuSans-32"/>
      <use x="535.291016" xlink:href="#DejaVuSans-82"/>
      <use x="600.273438" xlink:href="#DejaVuSans-117"/>
      <use x="663.652344" xlink:href="#DejaVuSans-110"/>
     </g>
    </g>
    <g id="PathCollection_6">
     <defs>
      <path d="M 0 3.872983 
C 1.027127 3.872983 2.012324 3.464901 2.738613 2.738613 
C 3.464901 2.012324 3.872983 1.027127 3.872983 0 
C 3.872983 -1.027127 3.464901 -2.012324 2.738613 -2.738613 
C 2.012324 -3.464901 1.027127 -3.872983 0 -3.872983 
C -1.027127 -3.872983 -2.012324 -3.464901 -2.738613 -2.738613 
C -3.464901 -2.012324 -3.872983 -1.027127 -3.872983 0 
C -3.872983 1.027127 -3.464901 2.012324 -2.738613 2.738613 
C -2.012324 3.464901 -1.027127 3.872983 0 3.872983 
z
" id="m20263b8e68" style="stroke:#dd8452;"/>
     </defs>
     <g>
      <use style="fill:#dd8452;stroke:#dd8452;" x="504.010156" xlink:href="#m20263b8e68" y="158.444844"/>
     </g>
    </g>
    <g id="text_17">
     <!-- Perturbation Disabled -->
     <g style="fill:#262626;" transform="translate(523.810156 161.332344)scale(0.11 -0.11)">
      <use xlink:href="#DejaVuSans-80"/>
      <use x="56.677734" xlink:href="#DejaVuSans-101"/>
      <use x="118.201172" xlink:href="#DejaVuSans-114"/>
      <use x="159.314453" xlink:href="#DejaVuSans-116"/>
      <use x="198.523438" xlink:href="#DejaVuSans-117"/>
      <use x="261.902344" xlink:href="#DejaVuSans-114"/>
      <use x="303.015625" xlink:href="#DejaVuSans-98"/>
      <use x="366.492188" xlink:href="#DejaVuSans-97"/>
      <use x="427.771484" xlink:href="#DejaVuSans-116"/>
      <use x="466.980469" xlink:href="#DejaVuSans-105"/>
      <use x="494.763672" xlink:href="#DejaVuSans-111"/>
      <use x="555.945312" xlink:href="#DejaVuSans-110"/>
      <use x="619.324219" xlink:href="#DejaVuSans-32"/>
      <use x="651.111328" xlink:href="#DejaVuSans-68"/>
      <use x="728.113281" xlink:href="#DejaVuSans-105"/>
      <use x="755.896484" xlink:href="#DejaVuSans-115"/>
      <use x="807.996094" xlink:href="#DejaVuSans-97"/>
      <use x="869.275391" xlink:href="#DejaVuSans-98"/>
      <use x="932.751953" xlink:href="#DejaVuSans-108"/>
      <use x="960.535156" xlink:href="#DejaVuSans-101"/>
      <use x="1022.058594" xlink:href="#DejaVuSans-100"/>
     </g>
    </g>
   </g>
  </g>
 </g>
 <defs>
  <clipPath id="pa6c7b0cb04">
   <rect height="166.32" width="558" x="95.118594" y="7.2"/>
  </clipPath>
 </defs>
</svg>
