<?xml version="1.0" encoding="utf-8" standalone="no"?>
<!DOCTYPE svg PUBLIC "-//W3C//DTD SVG 1.1//EN"
  "http://www.w3.org/Graphics/SVG/1.1/DTD/svg11.dtd">
<!-- Created with matplotlib (https://matplotlib.org/) -->
<svg height="216.479688pt" version="1.1" viewBox="0 0 771.918594 216.479688" width="771.918594pt" xmlns="http://www.w3.org/2000/svg" xmlns:xlink="http://www.w3.org/1999/xlink">
 <metadata>
  <rdf:RDF xmlns:cc="http://creativecommons.org/ns#" xmlns:dc="http://purl.org/dc/elements/1.1/" xmlns:rdf="http://www.w3.org/1999/02/22-rdf-syntax-ns#">
   <cc:Work>
    <dc:type rdf:resource="http://purl.org/dc/dcmitype/StillImage"/>
    <dc:date>2020-09-11T12:29:34.505426</dc:date>
    <dc:format>image/svg+xml</dc:format>
    <dc:creator>
     <cc:Agent>
      <dc:title>Matplotlib v3.3.1, https://matplotlib.org/</dc:title>
     </cc:Agent>
    </dc:creator>
   </cc:Work>
  </rdf:RDF>
 </metadata>
 <defs>
  <style type="text/css">*{stroke-linecap:butt;stroke-linejoin:round;}</style>
 </defs>
 <g id="figure_1">
  <g id="patch_1">
   <path d="M 0 216.479688 
L 771.918594 216.479688 
L 771.918594 0 
L 0 0 
z
" style="fill:none;"/>
  </g>
  <g id="axes_1">
   <g id="patch_2">
    <path d="M 95.118594 173.52 
L 764.718594 173.52 
L 764.718594 7.2 
L 95.118594 7.2 
z
" style="fill:none;"/>
   </g>
   <g id="matplotlib.axis_1">
    <g id="xtick_1">
     <g id="line2d_1">
      <path clip-path="url(#p00fbe5413f)" d="M 101.16869 173.52 
L 101.16869 7.2 
" style="fill:none;stroke:#cccccc;stroke-linecap:round;"/>
     </g>
     <g id="line2d_2">
      <defs>
       <path d="M 0 0 
L 0 6 
" id="ma347e685ea" style="stroke:#262626;stroke-width:1.25;"/>
      </defs>
      <g>
       <use style="fill:#262626;stroke:#262626;stroke-width:1.25;" x="101.16869" xlink:href="#ma347e685ea" y="173.52"/>
      </g>
     </g>
     <g id="text_1">
      <!-- 0 -->
      <g style="fill:#262626;" transform="translate(97.669315 191.378281)scale(0.11 -0.11)">
       <defs>
        <path d="M 31.78125 66.40625 
Q 24.171875 66.40625 20.328125 58.90625 
Q 16.5 51.421875 16.5 36.375 
Q 16.5 21.390625 20.328125 13.890625 
Q 24.171875 6.390625 31.78125 6.390625 
Q 39.453125 6.390625 43.28125 13.890625 
Q 47.125 21.390625 47.125 36.375 
Q 47.125 51.421875 43.28125 58.90625 
Q 39.453125 66.40625 31.78125 66.40625 
z
M 31.78125 74.21875 
Q 44.046875 74.21875 50.515625 64.515625 
Q 56.984375 54.828125 56.984375 36.375 
Q 56.984375 17.96875 50.515625 8.265625 
Q 44.046875 -1.421875 31.78125 -1.421875 
Q 19.53125 -1.421875 13.0625 8.265625 
Q 6.59375 17.96875 6.59375 36.375 
Q 6.59375 54.828125 13.0625 64.515625 
Q 19.53125 74.21875 31.78125 74.21875 
z
" id="DejaVuSans-48"/>
       </defs>
       <use xlink:href="#DejaVuSans-48"/>
      </g>
     </g>
    </g>
    <g id="xtick_2">
     <g id="line2d_3">
      <path clip-path="url(#p00fbe5413f)" d="M 222.170608 173.52 
L 222.170608 7.2 
" style="fill:none;stroke:#cccccc;stroke-linecap:round;"/>
     </g>
     <g id="line2d_4">
      <g>
       <use style="fill:#262626;stroke:#262626;stroke-width:1.25;" x="222.170608" xlink:href="#ma347e685ea" y="173.52"/>
      </g>
     </g>
     <g id="text_2">
      <!-- 20 -->
      <g style="fill:#262626;" transform="translate(215.171858 191.378281)scale(0.11 -0.11)">
       <defs>
        <path d="M 19.1875 8.296875 
L 53.609375 8.296875 
L 53.609375 0 
L 7.328125 0 
L 7.328125 8.296875 
Q 12.9375 14.109375 22.625 23.890625 
Q 32.328125 33.6875 34.8125 36.53125 
Q 39.546875 41.84375 41.421875 45.53125 
Q 43.3125 49.21875 43.3125 52.78125 
Q 43.3125 58.59375 39.234375 62.25 
Q 35.15625 65.921875 28.609375 65.921875 
Q 23.96875 65.921875 18.8125 64.3125 
Q 13.671875 62.703125 7.8125 59.421875 
L 7.8125 69.390625 
Q 13.765625 71.78125 18.9375 73 
Q 24.125 74.21875 28.421875 74.21875 
Q 39.75 74.21875 46.484375 68.546875 
Q 53.21875 62.890625 53.21875 53.421875 
Q 53.21875 48.921875 51.53125 44.890625 
Q 49.859375 40.875 45.40625 35.40625 
Q 44.1875 33.984375 37.640625 27.21875 
Q 31.109375 20.453125 19.1875 8.296875 
z
" id="DejaVuSans-50"/>
       </defs>
       <use xlink:href="#DejaVuSans-50"/>
       <use x="63.623047" xlink:href="#DejaVuSans-48"/>
      </g>
     </g>
    </g>
    <g id="xtick_3">
     <g id="line2d_5">
      <path clip-path="url(#p00fbe5413f)" d="M 343.172526 173.52 
L 343.172526 7.2 
" style="fill:none;stroke:#cccccc;stroke-linecap:round;"/>
     </g>
     <g id="line2d_6">
      <g>
       <use style="fill:#262626;stroke:#262626;stroke-width:1.25;" x="343.172526" xlink:href="#ma347e685ea" y="173.52"/>
      </g>
     </g>
     <g id="text_3">
      <!-- 40 -->
      <g style="fill:#262626;" transform="translate(336.173776 191.378281)scale(0.11 -0.11)">
       <defs>
        <path d="M 37.796875 64.3125 
L 12.890625 25.390625 
L 37.796875 25.390625 
z
M 35.203125 72.90625 
L 47.609375 72.90625 
L 47.609375 25.390625 
L 58.015625 25.390625 
L 58.015625 17.1875 
L 47.609375 17.1875 
L 47.609375 0 
L 37.796875 0 
L 37.796875 17.1875 
L 4.890625 17.1875 
L 4.890625 26.703125 
z
" id="DejaVuSans-52"/>
       </defs>
       <use xlink:href="#DejaVuSans-52"/>
       <use x="63.623047" xlink:href="#DejaVuSans-48"/>
      </g>
     </g>
    </g>
    <g id="xtick_4">
     <g id="line2d_7">
      <path clip-path="url(#p00fbe5413f)" d="M 464.174444 173.52 
L 464.174444 7.2 
" style="fill:none;stroke:#cccccc;stroke-linecap:round;"/>
     </g>
     <g id="line2d_8">
      <g>
       <use style="fill:#262626;stroke:#262626;stroke-width:1.25;" x="464.174444" xlink:href="#ma347e685ea" y="173.52"/>
      </g>
     </g>
     <g id="text_4">
      <!-- 60 -->
      <g style="fill:#262626;" transform="translate(457.175694 191.378281)scale(0.11 -0.11)">
       <defs>
        <path d="M 33.015625 40.375 
Q 26.375 40.375 22.484375 35.828125 
Q 18.609375 31.296875 18.609375 23.390625 
Q 18.609375 15.53125 22.484375 10.953125 
Q 26.375 6.390625 33.015625 6.390625 
Q 39.65625 6.390625 43.53125 10.953125 
Q 47.40625 15.53125 47.40625 23.390625 
Q 47.40625 31.296875 43.53125 35.828125 
Q 39.65625 40.375 33.015625 40.375 
z
M 52.59375 71.296875 
L 52.59375 62.3125 
Q 48.875 64.0625 45.09375 64.984375 
Q 41.3125 65.921875 37.59375 65.921875 
Q 27.828125 65.921875 22.671875 59.328125 
Q 17.53125 52.734375 16.796875 39.40625 
Q 19.671875 43.65625 24.015625 45.921875 
Q 28.375 48.1875 33.59375 48.1875 
Q 44.578125 48.1875 50.953125 41.515625 
Q 57.328125 34.859375 57.328125 23.390625 
Q 57.328125 12.15625 50.6875 5.359375 
Q 44.046875 -1.421875 33.015625 -1.421875 
Q 20.359375 -1.421875 13.671875 8.265625 
Q 6.984375 17.96875 6.984375 36.375 
Q 6.984375 53.65625 15.1875 63.9375 
Q 23.390625 74.21875 37.203125 74.21875 
Q 40.921875 74.21875 44.703125 73.484375 
Q 48.484375 72.75 52.59375 71.296875 
z
" id="DejaVuSans-54"/>
       </defs>
       <use xlink:href="#DejaVuSans-54"/>
       <use x="63.623047" xlink:href="#DejaVuSans-48"/>
      </g>
     </g>
    </g>
    <g id="xtick_5">
     <g id="line2d_9">
      <path clip-path="url(#p00fbe5413f)" d="M 585.176362 173.52 
L 585.176362 7.2 
" style="fill:none;stroke:#cccccc;stroke-linecap:round;"/>
     </g>
     <g id="line2d_10">
      <g>
       <use style="fill:#262626;stroke:#262626;stroke-width:1.25;" x="585.176362" xlink:href="#ma347e685ea" y="173.52"/>
      </g>
     </g>
     <g id="text_5">
      <!-- 80 -->
      <g style="fill:#262626;" transform="translate(578.177612 191.378281)scale(0.11 -0.11)">
       <defs>
        <path d="M 31.78125 34.625 
Q 24.75 34.625 20.71875 30.859375 
Q 16.703125 27.09375 16.703125 20.515625 
Q 16.703125 13.921875 20.71875 10.15625 
Q 24.75 6.390625 31.78125 6.390625 
Q 38.8125 6.390625 42.859375 10.171875 
Q 46.921875 13.96875 46.921875 20.515625 
Q 46.921875 27.09375 42.890625 30.859375 
Q 38.875 34.625 31.78125 34.625 
z
M 21.921875 38.8125 
Q 15.578125 40.375 12.03125 44.71875 
Q 8.5 49.078125 8.5 55.328125 
Q 8.5 64.0625 14.71875 69.140625 
Q 20.953125 74.21875 31.78125 74.21875 
Q 42.671875 74.21875 48.875 69.140625 
Q 55.078125 64.0625 55.078125 55.328125 
Q 55.078125 49.078125 51.53125 44.71875 
Q 48 40.375 41.703125 38.8125 
Q 48.828125 37.15625 52.796875 32.3125 
Q 56.78125 27.484375 56.78125 20.515625 
Q 56.78125 9.90625 50.3125 4.234375 
Q 43.84375 -1.421875 31.78125 -1.421875 
Q 19.734375 -1.421875 13.25 4.234375 
Q 6.78125 9.90625 6.78125 20.515625 
Q 6.78125 27.484375 10.78125 32.3125 
Q 14.796875 37.15625 21.921875 38.8125 
z
M 18.3125 54.390625 
Q 18.3125 48.734375 21.84375 45.5625 
Q 25.390625 42.390625 31.78125 42.390625 
Q 38.140625 42.390625 41.71875 45.5625 
Q 45.3125 48.734375 45.3125 54.390625 
Q 45.3125 60.0625 41.71875 63.234375 
Q 38.140625 66.40625 31.78125 66.40625 
Q 25.390625 66.40625 21.84375 63.234375 
Q 18.3125 60.0625 18.3125 54.390625 
z
" id="DejaVuSans-56"/>
       </defs>
       <use xlink:href="#DejaVuSans-56"/>
       <use x="63.623047" xlink:href="#DejaVuSans-48"/>
      </g>
     </g>
    </g>
    <g id="xtick_6">
     <g id="line2d_11">
      <path clip-path="url(#p00fbe5413f)" d="M 706.17828 173.52 
L 706.17828 7.2 
" style="fill:none;stroke:#cccccc;stroke-linecap:round;"/>
     </g>
     <g id="line2d_12">
      <g>
       <use style="fill:#262626;stroke:#262626;stroke-width:1.25;" x="706.17828" xlink:href="#ma347e685ea" y="173.52"/>
      </g>
     </g>
     <g id="text_6">
      <!-- 100 -->
      <g style="fill:#262626;" transform="translate(695.680155 191.378281)scale(0.11 -0.11)">
       <defs>
        <path d="M 12.40625 8.296875 
L 28.515625 8.296875 
L 28.515625 63.921875 
L 10.984375 60.40625 
L 10.984375 69.390625 
L 28.421875 72.90625 
L 38.28125 72.90625 
L 38.28125 8.296875 
L 54.390625 8.296875 
L 54.390625 0 
L 12.40625 0 
z
" id="DejaVuSans-49"/>
       </defs>
       <use xlink:href="#DejaVuSans-49"/>
       <use x="63.623047" xlink:href="#DejaVuSans-48"/>
       <use x="127.246094" xlink:href="#DejaVuSans-48"/>
      </g>
     </g>
    </g>
    <g id="text_7">
     <!-- Time to First Request (TFR) [s] -->
     <g style="fill:#262626;" transform="translate(338.907031 206.784063)scale(0.12 -0.12)">
      <defs>
       <path d="M -0.296875 72.90625 
L 61.375 72.90625 
L 61.375 64.59375 
L 35.5 64.59375 
L 35.5 0 
L 25.59375 0 
L 25.59375 64.59375 
L -0.296875 64.59375 
z
" id="DejaVuSans-84"/>
       <path d="M 9.421875 54.6875 
L 18.40625 54.6875 
L 18.40625 0 
L 9.421875 0 
z
M 9.421875 75.984375 
L 18.40625 75.984375 
L 18.40625 64.59375 
L 9.421875 64.59375 
z
" id="DejaVuSans-105"/>
       <path d="M 52 44.1875 
Q 55.375 50.25 60.0625 53.125 
Q 64.75 56 71.09375 56 
Q 79.640625 56 84.28125 50.015625 
Q 88.921875 44.046875 88.921875 33.015625 
L 88.921875 0 
L 79.890625 0 
L 79.890625 32.71875 
Q 79.890625 40.578125 77.09375 44.375 
Q 74.3125 48.1875 68.609375 48.1875 
Q 61.625 48.1875 57.5625 43.546875 
Q 53.515625 38.921875 53.515625 30.90625 
L 53.515625 0 
L 44.484375 0 
L 44.484375 32.71875 
Q 44.484375 40.625 41.703125 44.40625 
Q 38.921875 48.1875 33.109375 48.1875 
Q 26.21875 48.1875 22.15625 43.53125 
Q 18.109375 38.875 18.109375 30.90625 
L 18.109375 0 
L 9.078125 0 
L 9.078125 54.6875 
L 18.109375 54.6875 
L 18.109375 46.1875 
Q 21.1875 51.21875 25.484375 53.609375 
Q 29.78125 56 35.6875 56 
Q 41.65625 56 45.828125 52.96875 
Q 50 49.953125 52 44.1875 
z
" id="DejaVuSans-109"/>
       <path d="M 56.203125 29.59375 
L 56.203125 25.203125 
L 14.890625 25.203125 
Q 15.484375 15.921875 20.484375 11.0625 
Q 25.484375 6.203125 34.421875 6.203125 
Q 39.59375 6.203125 44.453125 7.46875 
Q 49.3125 8.734375 54.109375 11.28125 
L 54.109375 2.78125 
Q 49.265625 0.734375 44.1875 -0.34375 
Q 39.109375 -1.421875 33.890625 -1.421875 
Q 20.796875 -1.421875 13.15625 6.1875 
Q 5.515625 13.8125 5.515625 26.8125 
Q 5.515625 40.234375 12.765625 48.109375 
Q 20.015625 56 32.328125 56 
Q 43.359375 56 49.78125 48.890625 
Q 56.203125 41.796875 56.203125 29.59375 
z
M 47.21875 32.234375 
Q 47.125 39.59375 43.09375 43.984375 
Q 39.0625 48.390625 32.421875 48.390625 
Q 24.90625 48.390625 20.390625 44.140625 
Q 15.875 39.890625 15.1875 32.171875 
z
" id="DejaVuSans-101"/>
       <path id="DejaVuSans-32"/>
       <path d="M 18.3125 70.21875 
L 18.3125 54.6875 
L 36.8125 54.6875 
L 36.8125 47.703125 
L 18.3125 47.703125 
L 18.3125 18.015625 
Q 18.3125 11.328125 20.140625 9.421875 
Q 21.96875 7.515625 27.59375 7.515625 
L 36.8125 7.515625 
L 36.8125 0 
L 27.59375 0 
Q 17.1875 0 13.234375 3.875 
Q 9.28125 7.765625 9.28125 18.015625 
L 9.28125 47.703125 
L 2.6875 47.703125 
L 2.6875 54.6875 
L 9.28125 54.6875 
L 9.28125 70.21875 
z
" id="DejaVuSans-116"/>
       <path d="M 30.609375 48.390625 
Q 23.390625 48.390625 19.1875 42.75 
Q 14.984375 37.109375 14.984375 27.296875 
Q 14.984375 17.484375 19.15625 11.84375 
Q 23.34375 6.203125 30.609375 6.203125 
Q 37.796875 6.203125 41.984375 11.859375 
Q 46.1875 17.53125 46.1875 27.296875 
Q 46.1875 37.015625 41.984375 42.703125 
Q 37.796875 48.390625 30.609375 48.390625 
z
M 30.609375 56 
Q 42.328125 56 49.015625 48.375 
Q 55.71875 40.765625 55.71875 27.296875 
Q 55.71875 13.875 49.015625 6.21875 
Q 42.328125 -1.421875 30.609375 -1.421875 
Q 18.84375 -1.421875 12.171875 6.21875 
Q 5.515625 13.875 5.515625 27.296875 
Q 5.515625 40.765625 12.171875 48.375 
Q 18.84375 56 30.609375 56 
z
" id="DejaVuSans-111"/>
       <path d="M 9.8125 72.90625 
L 51.703125 72.90625 
L 51.703125 64.59375 
L 19.671875 64.59375 
L 19.671875 43.109375 
L 48.578125 43.109375 
L 48.578125 34.8125 
L 19.671875 34.8125 
L 19.671875 0 
L 9.8125 0 
z
" id="DejaVuSans-70"/>
       <path d="M 41.109375 46.296875 
Q 39.59375 47.171875 37.8125 47.578125 
Q 36.03125 48 33.890625 48 
Q 26.265625 48 22.1875 43.046875 
Q 18.109375 38.09375 18.109375 28.8125 
L 18.109375 0 
L 9.078125 0 
L 9.078125 54.6875 
L 18.109375 54.6875 
L 18.109375 46.1875 
Q 20.953125 51.171875 25.484375 53.578125 
Q 30.03125 56 36.53125 56 
Q 37.453125 56 38.578125 55.875 
Q 39.703125 55.765625 41.0625 55.515625 
z
" id="DejaVuSans-114"/>
       <path d="M 44.28125 53.078125 
L 44.28125 44.578125 
Q 40.484375 46.53125 36.375 47.5 
Q 32.28125 48.484375 27.875 48.484375 
Q 21.1875 48.484375 17.84375 46.4375 
Q 14.5 44.390625 14.5 40.28125 
Q 14.5 37.15625 16.890625 35.375 
Q 19.28125 33.59375 26.515625 31.984375 
L 29.59375 31.296875 
Q 39.15625 29.25 43.1875 25.515625 
Q 47.21875 21.78125 47.21875 15.09375 
Q 47.21875 7.46875 41.1875 3.015625 
Q 35.15625 -1.421875 24.609375 -1.421875 
Q 20.21875 -1.421875 15.453125 -0.5625 
Q 10.6875 0.296875 5.421875 2 
L 5.421875 11.28125 
Q 10.40625 8.6875 15.234375 7.390625 
Q 20.0625 6.109375 24.8125 6.109375 
Q 31.15625 6.109375 34.5625 8.28125 
Q 37.984375 10.453125 37.984375 14.40625 
Q 37.984375 18.0625 35.515625 20.015625 
Q 33.0625 21.96875 24.703125 23.78125 
L 21.578125 24.515625 
Q 13.234375 26.265625 9.515625 29.90625 
Q 5.8125 33.546875 5.8125 39.890625 
Q 5.8125 47.609375 11.28125 51.796875 
Q 16.75 56 26.8125 56 
Q 31.78125 56 36.171875 55.265625 
Q 40.578125 54.546875 44.28125 53.078125 
z
" id="DejaVuSans-115"/>
       <path d="M 44.390625 34.1875 
Q 47.5625 33.109375 50.5625 29.59375 
Q 53.5625 26.078125 56.59375 19.921875 
L 66.609375 0 
L 56 0 
L 46.6875 18.703125 
Q 43.0625 26.03125 39.671875 28.421875 
Q 36.28125 30.8125 30.421875 30.8125 
L 19.671875 30.8125 
L 19.671875 0 
L 9.8125 0 
L 9.8125 72.90625 
L 32.078125 72.90625 
Q 44.578125 72.90625 50.734375 67.671875 
Q 56.890625 62.453125 56.890625 51.90625 
Q 56.890625 45.015625 53.6875 40.46875 
Q 50.484375 35.9375 44.390625 34.1875 
z
M 19.671875 64.796875 
L 19.671875 38.921875 
L 32.078125 38.921875 
Q 39.203125 38.921875 42.84375 42.21875 
Q 46.484375 45.515625 46.484375 51.90625 
Q 46.484375 58.296875 42.84375 61.546875 
Q 39.203125 64.796875 32.078125 64.796875 
z
" id="DejaVuSans-82"/>
       <path d="M 14.796875 27.296875 
Q 14.796875 17.390625 18.875 11.75 
Q 22.953125 6.109375 30.078125 6.109375 
Q 37.203125 6.109375 41.296875 11.75 
Q 45.40625 17.390625 45.40625 27.296875 
Q 45.40625 37.203125 41.296875 42.84375 
Q 37.203125 48.484375 30.078125 48.484375 
Q 22.953125 48.484375 18.875 42.84375 
Q 14.796875 37.203125 14.796875 27.296875 
z
M 45.40625 8.203125 
Q 42.578125 3.328125 38.25 0.953125 
Q 33.9375 -1.421875 27.875 -1.421875 
Q 17.96875 -1.421875 11.734375 6.484375 
Q 5.515625 14.40625 5.515625 27.296875 
Q 5.515625 40.1875 11.734375 48.09375 
Q 17.96875 56 27.875 56 
Q 33.9375 56 38.25 53.625 
Q 42.578125 51.265625 45.40625 46.390625 
L 45.40625 54.6875 
L 54.390625 54.6875 
L 54.390625 -20.796875 
L 45.40625 -20.796875 
z
" id="DejaVuSans-113"/>
       <path d="M 8.5 21.578125 
L 8.5 54.6875 
L 17.484375 54.6875 
L 17.484375 21.921875 
Q 17.484375 14.15625 20.5 10.265625 
Q 23.53125 6.390625 29.59375 6.390625 
Q 36.859375 6.390625 41.078125 11.03125 
Q 45.3125 15.671875 45.3125 23.6875 
L 45.3125 54.6875 
L 54.296875 54.6875 
L 54.296875 0 
L 45.3125 0 
L 45.3125 8.40625 
Q 42.046875 3.421875 37.71875 1 
Q 33.40625 -1.421875 27.6875 -1.421875 
Q 18.265625 -1.421875 13.375 4.4375 
Q 8.5 10.296875 8.5 21.578125 
z
M 31.109375 56 
z
" id="DejaVuSans-117"/>
       <path d="M 31 75.875 
Q 24.46875 64.65625 21.28125 53.65625 
Q 18.109375 42.671875 18.109375 31.390625 
Q 18.109375 20.125 21.3125 9.0625 
Q 24.515625 -2 31 -13.1875 
L 23.1875 -13.1875 
Q 15.875 -1.703125 12.234375 9.375 
Q 8.59375 20.453125 8.59375 31.390625 
Q 8.59375 42.28125 12.203125 53.3125 
Q 15.828125 64.359375 23.1875 75.875 
z
" id="DejaVuSans-40"/>
       <path d="M 8.015625 75.875 
L 15.828125 75.875 
Q 23.140625 64.359375 26.78125 53.3125 
Q 30.421875 42.28125 30.421875 31.390625 
Q 30.421875 20.453125 26.78125 9.375 
Q 23.140625 -1.703125 15.828125 -13.1875 
L 8.015625 -13.1875 
Q 14.5 -2 17.703125 9.0625 
Q 20.90625 20.125 20.90625 31.390625 
Q 20.90625 42.671875 17.703125 53.65625 
Q 14.5 64.65625 8.015625 75.875 
z
" id="DejaVuSans-41"/>
       <path d="M 8.59375 75.984375 
L 29.296875 75.984375 
L 29.296875 69 
L 17.578125 69 
L 17.578125 -6.203125 
L 29.296875 -6.203125 
L 29.296875 -13.1875 
L 8.59375 -13.1875 
z
" id="DejaVuSans-91"/>
       <path d="M 30.421875 75.984375 
L 30.421875 -13.1875 
L 9.71875 -13.1875 
L 9.71875 -6.203125 
L 21.390625 -6.203125 
L 21.390625 69 
L 9.71875 69 
L 9.71875 75.984375 
z
" id="DejaVuSans-93"/>
      </defs>
      <use xlink:href="#DejaVuSans-84"/>
      <use x="57.958984" xlink:href="#DejaVuSans-105"/>
      <use x="85.742188" xlink:href="#DejaVuSans-109"/>
      <use x="183.154297" xlink:href="#DejaVuSans-101"/>
      <use x="244.677734" xlink:href="#DejaVuSans-32"/>
      <use x="276.464844" xlink:href="#DejaVuSans-116"/>
      <use x="315.673828" xlink:href="#DejaVuSans-111"/>
      <use x="376.855469" xlink:href="#DejaVuSans-32"/>
      <use x="408.642578" xlink:href="#DejaVuSans-70"/>
      <use x="458.912109" xlink:href="#DejaVuSans-105"/>
      <use x="486.695312" xlink:href="#DejaVuSans-114"/>
      <use x="527.808594" xlink:href="#DejaVuSans-115"/>
      <use x="579.908203" xlink:href="#DejaVuSans-116"/>
      <use x="619.117188" xlink:href="#DejaVuSans-32"/>
      <use x="650.904297" xlink:href="#DejaVuSans-82"/>
      <use x="715.886719" xlink:href="#DejaVuSans-101"/>
      <use x="777.410156" xlink:href="#DejaVuSans-113"/>
      <use x="840.886719" xlink:href="#DejaVuSans-117"/>
      <use x="904.265625" xlink:href="#DejaVuSans-101"/>
      <use x="965.789062" xlink:href="#DejaVuSans-115"/>
      <use x="1017.888672" xlink:href="#DejaVuSans-116"/>
      <use x="1057.097656" xlink:href="#DejaVuSans-32"/>
      <use x="1088.884766" xlink:href="#DejaVuSans-40"/>
      <use x="1127.898438" xlink:href="#DejaVuSans-84"/>
      <use x="1188.982422" xlink:href="#DejaVuSans-70"/>
      <use x="1246.501953" xlink:href="#DejaVuSans-82"/>
      <use x="1315.984375" xlink:href="#DejaVuSans-41"/>
      <use x="1354.998047" xlink:href="#DejaVuSans-32"/>
      <use x="1386.785156" xlink:href="#DejaVuSans-91"/>
      <use x="1425.798828" xlink:href="#DejaVuSans-115"/>
      <use x="1477.898438" xlink:href="#DejaVuSans-93"/>
     </g>
    </g>
   </g>
   <g id="matplotlib.axis_2">
    <g id="ytick_1">
     <g id="line2d_13">
      <defs>
       <path d="M 0 0 
L -6 0 
" id="m0e5d503db9" style="stroke:#262626;stroke-width:1.25;"/>
      </defs>
      <g>
       <use style="fill:#262626;stroke:#262626;stroke-width:1.25;" x="95.118594" xlink:href="#m0e5d503db9" y="48.78"/>
      </g>
     </g>
     <g id="text_8">
      <!-- PostgreSQL -->
      <g style="fill:#262626;" transform="translate(22.81375 52.959141)scale(0.11 -0.11)">
       <defs>
        <path d="M 19.671875 64.796875 
L 19.671875 37.40625 
L 32.078125 37.40625 
Q 38.96875 37.40625 42.71875 40.96875 
Q 46.484375 44.53125 46.484375 51.125 
Q 46.484375 57.671875 42.71875 61.234375 
Q 38.96875 64.796875 32.078125 64.796875 
z
M 9.8125 72.90625 
L 32.078125 72.90625 
Q 44.34375 72.90625 50.609375 67.359375 
Q 56.890625 61.8125 56.890625 51.125 
Q 56.890625 40.328125 50.609375 34.8125 
Q 44.34375 29.296875 32.078125 29.296875 
L 19.671875 29.296875 
L 19.671875 0 
L 9.8125 0 
z
" id="DejaVuSans-80"/>
        <path d="M 45.40625 27.984375 
Q 45.40625 37.75 41.375 43.109375 
Q 37.359375 48.484375 30.078125 48.484375 
Q 22.859375 48.484375 18.828125 43.109375 
Q 14.796875 37.75 14.796875 27.984375 
Q 14.796875 18.265625 18.828125 12.890625 
Q 22.859375 7.515625 30.078125 7.515625 
Q 37.359375 7.515625 41.375 12.890625 
Q 45.40625 18.265625 45.40625 27.984375 
z
M 54.390625 6.78125 
Q 54.390625 -7.171875 48.1875 -13.984375 
Q 42 -20.796875 29.203125 -20.796875 
Q 24.46875 -20.796875 20.265625 -20.09375 
Q 16.0625 -19.390625 12.109375 -17.921875 
L 12.109375 -9.1875 
Q 16.0625 -11.328125 19.921875 -12.34375 
Q 23.78125 -13.375 27.78125 -13.375 
Q 36.625 -13.375 41.015625 -8.765625 
Q 45.40625 -4.15625 45.40625 5.171875 
L 45.40625 9.625 
Q 42.625 4.78125 38.28125 2.390625 
Q 33.9375 0 27.875 0 
Q 17.828125 0 11.671875 7.65625 
Q 5.515625 15.328125 5.515625 27.984375 
Q 5.515625 40.671875 11.671875 48.328125 
Q 17.828125 56 27.875 56 
Q 33.9375 56 38.28125 53.609375 
Q 42.625 51.21875 45.40625 46.390625 
L 45.40625 54.6875 
L 54.390625 54.6875 
z
" id="DejaVuSans-103"/>
        <path d="M 53.515625 70.515625 
L 53.515625 60.890625 
Q 47.90625 63.578125 42.921875 64.890625 
Q 37.9375 66.21875 33.296875 66.21875 
Q 25.25 66.21875 20.875 63.09375 
Q 16.5 59.96875 16.5 54.203125 
Q 16.5 49.359375 19.40625 46.890625 
Q 22.3125 44.4375 30.421875 42.921875 
L 36.375 41.703125 
Q 47.40625 39.59375 52.65625 34.296875 
Q 57.90625 29 57.90625 20.125 
Q 57.90625 9.515625 50.796875 4.046875 
Q 43.703125 -1.421875 29.984375 -1.421875 
Q 24.8125 -1.421875 18.96875 -0.25 
Q 13.140625 0.921875 6.890625 3.21875 
L 6.890625 13.375 
Q 12.890625 10.015625 18.65625 8.296875 
Q 24.421875 6.59375 29.984375 6.59375 
Q 38.421875 6.59375 43.015625 9.90625 
Q 47.609375 13.234375 47.609375 19.390625 
Q 47.609375 24.75 44.3125 27.78125 
Q 41.015625 30.8125 33.5 32.328125 
L 27.484375 33.5 
Q 16.453125 35.6875 11.515625 40.375 
Q 6.59375 45.0625 6.59375 53.421875 
Q 6.59375 63.09375 13.40625 68.65625 
Q 20.21875 74.21875 32.171875 74.21875 
Q 37.3125 74.21875 42.625 73.28125 
Q 47.953125 72.359375 53.515625 70.515625 
z
" id="DejaVuSans-83"/>
        <path d="M 39.40625 66.21875 
Q 28.65625 66.21875 22.328125 58.203125 
Q 16.015625 50.203125 16.015625 36.375 
Q 16.015625 22.609375 22.328125 14.59375 
Q 28.65625 6.59375 39.40625 6.59375 
Q 50.140625 6.59375 56.421875 14.59375 
Q 62.703125 22.609375 62.703125 36.375 
Q 62.703125 50.203125 56.421875 58.203125 
Q 50.140625 66.21875 39.40625 66.21875 
z
M 53.21875 1.3125 
L 66.21875 -12.890625 
L 54.296875 -12.890625 
L 43.5 -1.21875 
Q 41.890625 -1.3125 41.03125 -1.359375 
Q 40.1875 -1.421875 39.40625 -1.421875 
Q 24.03125 -1.421875 14.8125 8.859375 
Q 5.609375 19.140625 5.609375 36.375 
Q 5.609375 53.65625 14.8125 63.9375 
Q 24.03125 74.21875 39.40625 74.21875 
Q 54.734375 74.21875 63.90625 63.9375 
Q 73.09375 53.65625 73.09375 36.375 
Q 73.09375 23.6875 67.984375 14.640625 
Q 62.890625 5.609375 53.21875 1.3125 
z
" id="DejaVuSans-81"/>
        <path d="M 9.8125 72.90625 
L 19.671875 72.90625 
L 19.671875 8.296875 
L 55.171875 8.296875 
L 55.171875 0 
L 9.8125 0 
z
" id="DejaVuSans-76"/>
       </defs>
       <use xlink:href="#DejaVuSans-80"/>
       <use x="56.677734" xlink:href="#DejaVuSans-111"/>
       <use x="117.859375" xlink:href="#DejaVuSans-115"/>
       <use x="169.958984" xlink:href="#DejaVuSans-116"/>
       <use x="209.167969" xlink:href="#DejaVuSans-103"/>
       <use x="272.644531" xlink:href="#DejaVuSans-114"/>
       <use x="311.507812" xlink:href="#DejaVuSans-101"/>
       <use x="373.03125" xlink:href="#DejaVuSans-83"/>
       <use x="436.507812" xlink:href="#DejaVuSans-81"/>
       <use x="515.21875" xlink:href="#DejaVuSans-76"/>
      </g>
     </g>
    </g>
    <g id="ytick_2">
     <g id="line2d_14">
      <g>
       <use style="fill:#262626;stroke:#262626;stroke-width:1.25;" x="95.118594" xlink:href="#m0e5d503db9" y="131.94"/>
      </g>
     </g>
     <g id="text_9">
      <!-- Redis -->
      <g style="fill:#262626;" transform="translate(55.932344 136.119141)scale(0.11 -0.11)">
       <defs>
        <path d="M 45.40625 46.390625 
L 45.40625 75.984375 
L 54.390625 75.984375 
L 54.390625 0 
L 45.40625 0 
L 45.40625 8.203125 
Q 42.578125 3.328125 38.25 0.953125 
Q 33.9375 -1.421875 27.875 -1.421875 
Q 17.96875 -1.421875 11.734375 6.484375 
Q 5.515625 14.40625 5.515625 27.296875 
Q 5.515625 40.1875 11.734375 48.09375 
Q 17.96875 56 27.875 56 
Q 33.9375 56 38.25 53.625 
Q 42.578125 51.265625 45.40625 46.390625 
z
M 14.796875 27.296875 
Q 14.796875 17.390625 18.875 11.75 
Q 22.953125 6.109375 30.078125 6.109375 
Q 37.203125 6.109375 41.296875 11.75 
Q 45.40625 17.390625 45.40625 27.296875 
Q 45.40625 37.203125 41.296875 42.84375 
Q 37.203125 48.484375 30.078125 48.484375 
Q 22.953125 48.484375 18.875 42.84375 
Q 14.796875 37.203125 14.796875 27.296875 
z
" id="DejaVuSans-100"/>
       </defs>
       <use xlink:href="#DejaVuSans-82"/>
       <use x="64.982422" xlink:href="#DejaVuSans-101"/>
       <use x="126.505859" xlink:href="#DejaVuSans-100"/>
       <use x="189.982422" xlink:href="#DejaVuSans-105"/>
       <use x="217.765625" xlink:href="#DejaVuSans-115"/>
      </g>
     </g>
    </g>
    <g id="text_10">
     <!-- Applications -->
     <g style="fill:#262626;" transform="translate(16.318125 127.010625)rotate(-90)scale(0.12 -0.12)">
      <defs>
       <path d="M 34.1875 63.1875 
L 20.796875 26.90625 
L 47.609375 26.90625 
z
M 28.609375 72.90625 
L 39.796875 72.90625 
L 67.578125 0 
L 57.328125 0 
L 50.6875 18.703125 
L 17.828125 18.703125 
L 11.1875 0 
L 0.78125 0 
z
" id="DejaVuSans-65"/>
       <path d="M 18.109375 8.203125 
L 18.109375 -20.796875 
L 9.078125 -20.796875 
L 9.078125 54.6875 
L 18.109375 54.6875 
L 18.109375 46.390625 
Q 20.953125 51.265625 25.265625 53.625 
Q 29.59375 56 35.59375 56 
Q 45.5625 56 51.78125 48.09375 
Q 58.015625 40.1875 58.015625 27.296875 
Q 58.015625 14.40625 51.78125 6.484375 
Q 45.5625 -1.421875 35.59375 -1.421875 
Q 29.59375 -1.421875 25.265625 0.953125 
Q 20.953125 3.328125 18.109375 8.203125 
z
M 48.6875 27.296875 
Q 48.6875 37.203125 44.609375 42.84375 
Q 40.53125 48.484375 33.40625 48.484375 
Q 26.265625 48.484375 22.1875 42.84375 
Q 18.109375 37.203125 18.109375 27.296875 
Q 18.109375 17.390625 22.1875 11.75 
Q 26.265625 6.109375 33.40625 6.109375 
Q 40.53125 6.109375 44.609375 11.75 
Q 48.6875 17.390625 48.6875 27.296875 
z
" id="DejaVuSans-112"/>
       <path d="M 9.421875 75.984375 
L 18.40625 75.984375 
L 18.40625 0 
L 9.421875 0 
z
" id="DejaVuSans-108"/>
       <path d="M 48.78125 52.59375 
L 48.78125 44.1875 
Q 44.96875 46.296875 41.140625 47.34375 
Q 37.3125 48.390625 33.40625 48.390625 
Q 24.65625 48.390625 19.8125 42.84375 
Q 14.984375 37.3125 14.984375 27.296875 
Q 14.984375 17.28125 19.8125 11.734375 
Q 24.65625 6.203125 33.40625 6.203125 
Q 37.3125 6.203125 41.140625 7.25 
Q 44.96875 8.296875 48.78125 10.40625 
L 48.78125 2.09375 
Q 45.015625 0.34375 40.984375 -0.53125 
Q 36.96875 -1.421875 32.421875 -1.421875 
Q 20.0625 -1.421875 12.78125 6.34375 
Q 5.515625 14.109375 5.515625 27.296875 
Q 5.515625 40.671875 12.859375 48.328125 
Q 20.21875 56 33.015625 56 
Q 37.15625 56 41.109375 55.140625 
Q 45.0625 54.296875 48.78125 52.59375 
z
" id="DejaVuSans-99"/>
       <path d="M 34.28125 27.484375 
Q 23.390625 27.484375 19.1875 25 
Q 14.984375 22.515625 14.984375 16.5 
Q 14.984375 11.71875 18.140625 8.90625 
Q 21.296875 6.109375 26.703125 6.109375 
Q 34.1875 6.109375 38.703125 11.40625 
Q 43.21875 16.703125 43.21875 25.484375 
L 43.21875 27.484375 
z
M 52.203125 31.203125 
L 52.203125 0 
L 43.21875 0 
L 43.21875 8.296875 
Q 40.140625 3.328125 35.546875 0.953125 
Q 30.953125 -1.421875 24.3125 -1.421875 
Q 15.921875 -1.421875 10.953125 3.296875 
Q 6 8.015625 6 15.921875 
Q 6 25.140625 12.171875 29.828125 
Q 18.359375 34.515625 30.609375 34.515625 
L 43.21875 34.515625 
L 43.21875 35.40625 
Q 43.21875 41.609375 39.140625 45 
Q 35.0625 48.390625 27.6875 48.390625 
Q 23 48.390625 18.546875 47.265625 
Q 14.109375 46.140625 10.015625 43.890625 
L 10.015625 52.203125 
Q 14.9375 54.109375 19.578125 55.046875 
Q 24.21875 56 28.609375 56 
Q 40.484375 56 46.34375 49.84375 
Q 52.203125 43.703125 52.203125 31.203125 
z
" id="DejaVuSans-97"/>
       <path d="M 54.890625 33.015625 
L 54.890625 0 
L 45.90625 0 
L 45.90625 32.71875 
Q 45.90625 40.484375 42.875 44.328125 
Q 39.84375 48.1875 33.796875 48.1875 
Q 26.515625 48.1875 22.3125 43.546875 
Q 18.109375 38.921875 18.109375 30.90625 
L 18.109375 0 
L 9.078125 0 
L 9.078125 54.6875 
L 18.109375 54.6875 
L 18.109375 46.1875 
Q 21.34375 51.125 25.703125 53.5625 
Q 30.078125 56 35.796875 56 
Q 45.21875 56 50.046875 50.171875 
Q 54.890625 44.34375 54.890625 33.015625 
z
" id="DejaVuSans-110"/>
      </defs>
      <use xlink:href="#DejaVuSans-65"/>
      <use x="68.408203" xlink:href="#DejaVuSans-112"/>
      <use x="131.884766" xlink:href="#DejaVuSans-112"/>
      <use x="195.361328" xlink:href="#DejaVuSans-108"/>
      <use x="223.144531" xlink:href="#DejaVuSans-105"/>
      <use x="250.927734" xlink:href="#DejaVuSans-99"/>
      <use x="305.908203" xlink:href="#DejaVuSans-97"/>
      <use x="367.1875" xlink:href="#DejaVuSans-116"/>
      <use x="406.396484" xlink:href="#DejaVuSans-105"/>
      <use x="434.179688" xlink:href="#DejaVuSans-111"/>
      <use x="495.361328" xlink:href="#DejaVuSans-110"/>
      <use x="558.740234" xlink:href="#DejaVuSans-115"/>
     </g>
    </g>
   </g>
   <g id="patch_3">
    <path clip-path="url(#p00fbe5413f)" d="M 263.626529 15.84864 
L 263.626529 48.44736 
L 333.901414 48.44736 
L 333.901414 15.84864 
L 263.626529 15.84864 
z
" style="fill:#5875a4;stroke:#4c4c4c;stroke-linejoin:miter;stroke-width:1.5;"/>
   </g>
   <g id="patch_4">
    <path clip-path="url(#p00fbe5413f)" d="M 285.35772 49.11264 
L 285.35772 81.71136 
L 350.048884 81.71136 
L 350.048884 49.11264 
L 285.35772 49.11264 
z
" style="fill:#cc8963;stroke:#4c4c4c;stroke-linejoin:miter;stroke-width:1.5;"/>
   </g>
   <g id="patch_5">
    <path clip-path="url(#p00fbe5413f)" d="M 207.903512 99.00864 
L 207.903512 131.60736 
L 244.348987 131.60736 
L 244.348987 99.00864 
L 207.903512 99.00864 
z
" style="fill:#5875a4;stroke:#4c4c4c;stroke-linejoin:miter;stroke-width:1.5;"/>
   </g>
   <g id="patch_6">
    <path clip-path="url(#p00fbe5413f)" d="M 218.667342 132.27264 
L 218.667342 164.87136 
L 262.706191 164.87136 
L 262.706191 132.27264 
L 218.667342 132.27264 
z
" style="fill:#cc8963;stroke:#4c4c4c;stroke-linejoin:miter;stroke-width:1.5;"/>
   </g>
   <g id="PathCollection_1"/>
   <g id="PathCollection_2"/>
   <g id="patch_7">
    <path clip-path="url(#p00fbe5413f)" d="M 101.16869 48.78 
L 101.16869 48.78 
L 101.16869 48.78 
L 101.16869 48.78 
z
" style="fill:#5875a4;stroke:#4c4c4c;stroke-linejoin:miter;stroke-width:0.75;"/>
   </g>
   <g id="patch_8">
    <path clip-path="url(#p00fbe5413f)" d="M 101.16869 48.78 
L 101.16869 48.78 
L 101.16869 48.78 
L 101.16869 48.78 
z
" style="fill:#cc8963;stroke:#4c4c4c;stroke-linejoin:miter;stroke-width:0.75;"/>
   </g>
   <g id="line2d_15">
    <path clip-path="url(#p00fbe5413f)" d="M 263.626529 32.148 
L 242.37451 32.148 
" style="fill:none;stroke:#4c4c4c;stroke-linecap:round;stroke-width:1.5;"/>
   </g>
   <g id="line2d_16">
    <path clip-path="url(#p00fbe5413f)" d="M 333.901414 32.148 
L 394.289785 32.148 
" style="fill:none;stroke:#4c4c4c;stroke-linecap:round;stroke-width:1.5;"/>
   </g>
   <g id="line2d_17">
    <path clip-path="url(#p00fbe5413f)" d="M 242.37451 23.99832 
L 242.37451 40.29768 
" style="fill:none;stroke:#4c4c4c;stroke-linecap:round;stroke-width:1.5;"/>
   </g>
   <g id="line2d_18">
    <path clip-path="url(#p00fbe5413f)" d="M 394.289785 23.99832 
L 394.289785 40.29768 
" style="fill:none;stroke:#4c4c4c;stroke-linecap:round;stroke-width:1.5;"/>
   </g>
   <g id="line2d_19">
    <defs>
     <path d="M -0 3.535534 
L 2.12132 0 
L -0 -3.535534 
L -2.12132 -0 
z
" id="mca5232907f" style="stroke:#4c4c4c;stroke-linejoin:miter;"/>
    </defs>
    <g clip-path="url(#p00fbe5413f)">
     <use style="fill:#4c4c4c;stroke:#4c4c4c;stroke-linejoin:miter;" x="494.869038" xlink:href="#mca5232907f" y="32.148"/>
     <use style="fill:#4c4c4c;stroke:#4c4c4c;stroke-linejoin:miter;" x="499.001838" xlink:href="#mca5232907f" y="32.148"/>
     <use style="fill:#4c4c4c;stroke:#4c4c4c;stroke-linejoin:miter;" x="631.52734" xlink:href="#mca5232907f" y="32.148"/>
     <use style="fill:#4c4c4c;stroke:#4c4c4c;stroke-linejoin:miter;" x="447.661161" xlink:href="#mca5232907f" y="32.148"/>
    </g>
   </g>
   <g id="line2d_20">
    <path clip-path="url(#p00fbe5413f)" d="M 285.35772 65.412 
L 256.519639 65.412 
" style="fill:none;stroke:#4c4c4c;stroke-linecap:round;stroke-width:1.5;"/>
   </g>
   <g id="line2d_21">
    <path clip-path="url(#p00fbe5413f)" d="M 350.048884 65.412 
L 394.261907 65.412 
" style="fill:none;stroke:#4c4c4c;stroke-linecap:round;stroke-width:1.5;"/>
   </g>
   <g id="line2d_22">
    <path clip-path="url(#p00fbe5413f)" d="M 256.519639 57.26232 
L 256.519639 73.56168 
" style="fill:none;stroke:#4c4c4c;stroke-linecap:round;stroke-width:1.5;"/>
   </g>
   <g id="line2d_23">
    <path clip-path="url(#p00fbe5413f)" d="M 394.261907 57.26232 
L 394.261907 73.56168 
" style="fill:none;stroke:#4c4c4c;stroke-linecap:round;stroke-width:1.5;"/>
   </g>
   <g id="line2d_24">
    <g clip-path="url(#p00fbe5413f)">
     <use style="fill:#4c4c4c;stroke:#4c4c4c;stroke-linejoin:miter;" x="737.060567" xlink:href="#mca5232907f" y="65.412"/>
     <use style="fill:#4c4c4c;stroke:#4c4c4c;stroke-linejoin:miter;" x="449.752768" xlink:href="#mca5232907f" y="65.412"/>
     <use style="fill:#4c4c4c;stroke:#4c4c4c;stroke-linejoin:miter;" x="575.126208" xlink:href="#mca5232907f" y="65.412"/>
    </g>
   </g>
   <g id="line2d_25">
    <path clip-path="url(#p00fbe5413f)" d="M 207.903512 115.308 
L 183.900024 115.308 
" style="fill:none;stroke:#4c4c4c;stroke-linecap:round;stroke-width:1.5;"/>
   </g>
   <g id="line2d_26">
    <path clip-path="url(#p00fbe5413f)" d="M 244.348987 115.308 
L 295.449816 115.308 
" style="fill:none;stroke:#4c4c4c;stroke-linecap:round;stroke-width:1.5;"/>
   </g>
   <g id="line2d_27">
    <path clip-path="url(#p00fbe5413f)" d="M 183.900024 107.15832 
L 183.900024 123.45768 
" style="fill:none;stroke:#4c4c4c;stroke-linecap:round;stroke-width:1.5;"/>
   </g>
   <g id="line2d_28">
    <path clip-path="url(#p00fbe5413f)" d="M 295.449816 107.15832 
L 295.449816 123.45768 
" style="fill:none;stroke:#4c4c4c;stroke-linecap:round;stroke-width:1.5;"/>
   </g>
   <g id="line2d_29">
    <g clip-path="url(#p00fbe5413f)">
     <use style="fill:#4c4c4c;stroke:#4c4c4c;stroke-linejoin:miter;" x="547.934802" xlink:href="#mca5232907f" y="115.308"/>
     <use style="fill:#4c4c4c;stroke:#4c4c4c;stroke-linejoin:miter;" x="313.765127" xlink:href="#mca5232907f" y="115.308"/>
     <use style="fill:#4c4c4c;stroke:#4c4c4c;stroke-linejoin:miter;" x="325.562102" xlink:href="#mca5232907f" y="115.308"/>
    </g>
   </g>
   <g id="line2d_30">
    <path clip-path="url(#p00fbe5413f)" d="M 218.667342 148.572 
L 193.793195 148.572 
" style="fill:none;stroke:#4c4c4c;stroke-linecap:round;stroke-width:1.5;"/>
   </g>
   <g id="line2d_31">
    <path clip-path="url(#p00fbe5413f)" d="M 262.706191 148.572 
L 321.100886 148.572 
" style="fill:none;stroke:#4c4c4c;stroke-linecap:round;stroke-width:1.5;"/>
   </g>
   <g id="line2d_32">
    <path clip-path="url(#p00fbe5413f)" d="M 193.793195 140.42232 
L 193.793195 156.72168 
" style="fill:none;stroke:#4c4c4c;stroke-linecap:round;stroke-width:1.5;"/>
   </g>
   <g id="line2d_33">
    <path clip-path="url(#p00fbe5413f)" d="M 321.100886 140.42232 
L 321.100886 156.72168 
" style="fill:none;stroke:#4c4c4c;stroke-linecap:round;stroke-width:1.5;"/>
   </g>
   <g id="line2d_34">
    <g clip-path="url(#p00fbe5413f)">
     <use style="fill:#4c4c4c;stroke:#4c4c4c;stroke-linejoin:miter;" x="393.47465" xlink:href="#mca5232907f" y="148.572"/>
     <use style="fill:#4c4c4c;stroke:#4c4c4c;stroke-linejoin:miter;" x="467.852739" xlink:href="#mca5232907f" y="148.572"/>
     <use style="fill:#4c4c4c;stroke:#4c4c4c;stroke-linejoin:miter;" x="448.792389" xlink:href="#mca5232907f" y="148.572"/>
     <use style="fill:#4c4c4c;stroke:#4c4c4c;stroke-linejoin:miter;" x="340.547335" xlink:href="#mca5232907f" y="148.572"/>
     <use style="fill:#4c4c4c;stroke:#4c4c4c;stroke-linejoin:miter;" x="558.848443" xlink:href="#mca5232907f" y="148.572"/>
    </g>
   </g>
   <g id="line2d_35">
    <path clip-path="url(#p00fbe5413f)" d="M 294.917322 15.84864 
L 294.917322 48.44736 
" style="fill:none;stroke:#4c4c4c;stroke-linecap:round;stroke-width:1.5;"/>
   </g>
   <g id="line2d_36">
    <path clip-path="url(#p00fbe5413f)" d="M 318.592135 49.11264 
L 318.592135 81.71136 
" style="fill:none;stroke:#4c4c4c;stroke-linecap:round;stroke-width:1.5;"/>
   </g>
   <g id="line2d_37">
    <path clip-path="url(#p00fbe5413f)" d="M 222.377185 99.00864 
L 222.377185 131.60736 
" style="fill:none;stroke:#4c4c4c;stroke-linecap:round;stroke-width:1.5;"/>
   </g>
   <g id="line2d_38">
    <path clip-path="url(#p00fbe5413f)" d="M 237.090575 132.27264 
L 237.090575 164.87136 
" style="fill:none;stroke:#4c4c4c;stroke-linecap:round;stroke-width:1.5;"/>
   </g>
   <g id="patch_9">
    <path d="M 95.118594 173.52 
L 95.118594 7.2 
" style="fill:none;stroke:#262626;stroke-linecap:square;stroke-linejoin:miter;stroke-width:1.25;"/>
   </g>
   <g id="patch_10">
    <path d="M 764.718594 173.52 
L 764.718594 7.2 
" style="fill:none;stroke:#262626;stroke-linecap:square;stroke-linejoin:miter;stroke-width:1.25;"/>
   </g>
   <g id="patch_11">
    <path d="M 95.118594 173.52 
L 764.718594 173.52 
" style="fill:none;stroke:#262626;stroke-linecap:square;stroke-linejoin:miter;stroke-width:1.25;"/>
   </g>
   <g id="patch_12">
    <path d="M 95.118594 7.2 
L 764.718594 7.2 
" style="fill:none;stroke:#262626;stroke-linecap:square;stroke-linejoin:miter;stroke-width:1.25;"/>
   </g>
   <g id="PathCollection_3">
    <defs>
     <path d="M 0 1.5 
C 0.397805 1.5 0.77937 1.341951 1.06066 1.06066 
C 1.341951 0.77937 1.5 0.397805 1.5 -0 
C 1.5 -0.397805 1.341951 -0.77937 1.06066 -1.06066 
C 0.77937 -1.341951 0.397805 -1.5 0 -1.5 
C -0.397805 -1.5 -0.77937 -1.341951 -1.06066 -1.06066 
C -1.341951 -0.77937 -1.5 -0.397805 -1.5 0 
C -1.5 0.397805 -1.341951 0.77937 -1.06066 1.06066 
C -0.77937 1.341951 -0.397805 1.5 0 1.5 
z
" id="C0_0_482798d026"/>
    </defs>
    <g clip-path="url(#p00fbe5413f)">
     <use style="fill:#4c72b0;fill-opacity:0.5;" x="242.37451" xlink:href="#C0_0_482798d026" y="48.78"/>
    </g>
    <g clip-path="url(#p00fbe5413f)">
     <use style="fill:#4c72b0;fill-opacity:0.5;" x="245.360663" xlink:href="#C0_0_482798d026" y="48.78"/>
    </g>
    <g clip-path="url(#p00fbe5413f)">
     <use style="fill:#4c72b0;fill-opacity:0.5;" x="247.126447" xlink:href="#C0_0_482798d026" y="46.380086"/>
    </g>
    <g clip-path="url(#p00fbe5413f)">
     <use style="fill:#4c72b0;fill-opacity:0.5;" x="248.249305" xlink:href="#C0_0_482798d026" y="49.25048"/>
    </g>
    <g clip-path="url(#p00fbe5413f)">
     <use style="fill:#4c72b0;fill-opacity:0.5;" x="248.794321" xlink:href="#C0_0_482798d026" y="52.336887"/>
    </g>
    <g clip-path="url(#p00fbe5413f)">
     <use style="fill:#4c72b0;fill-opacity:0.5;" x="251.302589" xlink:href="#C0_0_482798d026" y="48.78"/>
    </g>
    <g clip-path="url(#p00fbe5413f)">
     <use style="fill:#4c72b0;fill-opacity:0.5;" x="253.677039" xlink:href="#C0_0_482798d026" y="47.232405"/>
    </g>
    <g clip-path="url(#p00fbe5413f)">
     <use style="fill:#dd8452;fill-opacity:0.5;" x="256.519639" xlink:href="#C0_0_482798d026" y="48.78"/>
    </g>
    <g clip-path="url(#p00fbe5413f)">
     <use style="fill:#4c72b0;fill-opacity:0.5;" x="257.233274" xlink:href="#C0_0_482798d026" y="45.739843"/>
    </g>
    <g clip-path="url(#p00fbe5413f)">
     <use style="fill:#dd8452;fill-opacity:0.5;" x="260.241484" xlink:href="#C0_0_482798d026" y="48.78"/>
    </g>
    <g clip-path="url(#p00fbe5413f)">
     <use style="fill:#4c72b0;fill-opacity:0.5;" x="261.137896" xlink:href="#C0_0_482798d026" y="45.805163"/>
    </g>
    <g clip-path="url(#p00fbe5413f)">
     <use style="fill:#4c72b0;fill-opacity:0.5;" x="261.234215" xlink:href="#C0_0_482798d026" y="51.71372"/>
    </g>
    <g clip-path="url(#p00fbe5413f)">
     <use style="fill:#4c72b0;fill-opacity:0.5;" x="261.493903" xlink:href="#C0_0_482798d026" y="54.849396"/>
    </g>
    <g clip-path="url(#p00fbe5413f)">
     <use style="fill:#4c72b0;fill-opacity:0.5;" x="261.743674" xlink:href="#C0_0_482798d026" y="42.733917"/>
    </g>
    <g clip-path="url(#p00fbe5413f)">
     <use style="fill:#4c72b0;fill-opacity:0.5;" x="262.609769" xlink:href="#C0_0_482798d026" y="57.723428"/>
    </g>
    <g clip-path="url(#p00fbe5413f)">
     <use style="fill:#4c72b0;fill-opacity:0.5;" x="266.676808" xlink:href="#C0_0_482798d026" y="48.78"/>
    </g>
    <g clip-path="url(#p00fbe5413f)">
     <use style="fill:#4c72b0;fill-opacity:0.5;" x="267.312907" xlink:href="#C0_0_482798d026" y="45.71695"/>
    </g>
    <g clip-path="url(#p00fbe5413f)">
     <use style="fill:#4c72b0;fill-opacity:0.5;" x="268.175712" xlink:href="#C0_0_482798d026" y="51.411132"/>
    </g>
    <g clip-path="url(#p00fbe5413f)">
     <use style="fill:#dd8452;fill-opacity:0.5;" x="268.549403" xlink:href="#C0_0_482798d026" y="54.531398"/>
    </g>
    <g clip-path="url(#p00fbe5413f)">
     <use style="fill:#4c72b0;fill-opacity:0.5;" x="269.147628" xlink:href="#C0_0_482798d026" y="43.387099"/>
    </g>
    <g clip-path="url(#p00fbe5413f)">
     <use style="fill:#dd8452;fill-opacity:0.5;" x="270.656191" xlink:href="#C0_0_482798d026" y="48.78"/>
    </g>
    <g clip-path="url(#p00fbe5413f)">
     <use style="fill:#dd8452;fill-opacity:0.5;" x="272.151847" xlink:href="#C0_0_482798d026" y="46.146401"/>
    </g>
    <g clip-path="url(#p00fbe5413f)">
     <use style="fill:#dd8452;fill-opacity:0.5;" x="273.085854" xlink:href="#C0_0_482798d026" y="50.208604"/>
    </g>
    <g clip-path="url(#p00fbe5413f)">
     <use style="fill:#dd8452;fill-opacity:0.5;" x="273.354715" xlink:href="#C0_0_482798d026" y="53.343248"/>
    </g>
    <g clip-path="url(#p00fbe5413f)">
     <use style="fill:#dd8452;fill-opacity:0.5;" x="275.832459" xlink:href="#C0_0_482798d026" y="48.78"/>
    </g>
    <g clip-path="url(#p00fbe5413f)">
     <use style="fill:#4c72b0;fill-opacity:0.5;" x="277.35052" xlink:href="#C0_0_482798d026" y="46.163572"/>
    </g>
    <g clip-path="url(#p00fbe5413f)">
     <use style="fill:#dd8452;fill-opacity:0.5;" x="277.391288" xlink:href="#C0_0_482798d026" y="51.364225"/>
    </g>
    <g clip-path="url(#p00fbe5413f)">
     <use style="fill:#4c72b0;fill-opacity:0.5;" x="278.222289" xlink:href="#C0_0_482798d026" y="54.364311"/>
    </g>
    <g clip-path="url(#p00fbe5413f)">
     <use style="fill:#4c72b0;fill-opacity:0.5;" x="279.671361" xlink:href="#C0_0_482798d026" y="48.78"/>
    </g>
    <g clip-path="url(#p00fbe5413f)">
     <use style="fill:#4c72b0;fill-opacity:0.5;" x="280.032798" xlink:href="#C0_0_482798d026" y="45.600732"/>
    </g>
    <g clip-path="url(#p00fbe5413f)">
     <use style="fill:#dd8452;fill-opacity:0.5;" x="281.69458" xlink:href="#C0_0_482798d026" y="50.891227"/>
    </g>
    <g clip-path="url(#p00fbe5413f)">
     <use style="fill:#dd8452;fill-opacity:0.5;" x="283.430503" xlink:href="#C0_0_482798d026" y="48.4624"/>
    </g>
    <g clip-path="url(#p00fbe5413f)">
     <use style="fill:#dd8452;fill-opacity:0.5;" x="283.823947" xlink:href="#C0_0_482798d026" y="45.345378"/>
    </g>
    <g clip-path="url(#p00fbe5413f)">
     <use style="fill:#dd8452;fill-opacity:0.5;" x="284.189862" xlink:href="#C0_0_482798d026" y="52.159864"/>
    </g>
    <g clip-path="url(#p00fbe5413f)">
     <use style="fill:#dd8452;fill-opacity:0.5;" x="288.861292" xlink:href="#C0_0_482798d026" y="48.78"/>
    </g>
    <g clip-path="url(#p00fbe5413f)">
     <use style="fill:#4c72b0;fill-opacity:0.5;" x="289.64743" xlink:href="#C0_0_482798d026" y="45.763814"/>
    </g>
    <g clip-path="url(#p00fbe5413f)">
     <use style="fill:#4c72b0;fill-opacity:0.5;" x="291.707978" xlink:href="#C0_0_482798d026" y="48.78"/>
    </g>
    <g clip-path="url(#p00fbe5413f)">
     <use style="fill:#4c72b0;fill-opacity:0.5;" x="291.855146" xlink:href="#C0_0_482798d026" y="51.925407"/>
    </g>
    <g clip-path="url(#p00fbe5413f)">
     <use style="fill:#4c72b0;fill-opacity:0.5;" x="293.44887" xlink:href="#C0_0_482798d026" y="46.355927"/>
    </g>
    <g clip-path="url(#p00fbe5413f)">
     <use style="fill:#dd8452;fill-opacity:0.5;" x="294.564221" xlink:href="#C0_0_482798d026" y="49.230226"/>
    </g>
    <g clip-path="url(#p00fbe5413f)">
     <use style="fill:#4c72b0;fill-opacity:0.5;" x="296.385774" xlink:href="#C0_0_482798d026" y="46.88662"/>
    </g>
    <g clip-path="url(#p00fbe5413f)">
     <use style="fill:#dd8452;fill-opacity:0.5;" x="297.586525" xlink:href="#C0_0_482798d026" y="49.714608"/>
    </g>
    <g clip-path="url(#p00fbe5413f)">
     <use style="fill:#dd8452;fill-opacity:0.5;" x="299.218239" xlink:href="#C0_0_482798d026" y="47.191169"/>
    </g>
    <g clip-path="url(#p00fbe5413f)">
     <use style="fill:#dd8452;fill-opacity:0.5;" x="299.830263" xlink:href="#C0_0_482798d026" y="51.503743"/>
    </g>
    <g clip-path="url(#p00fbe5413f)">
     <use style="fill:#4c72b0;fill-opacity:0.5;" x="300.77346" xlink:href="#C0_0_482798d026" y="44.604043"/>
    </g>
    <g clip-path="url(#p00fbe5413f)">
     <use style="fill:#dd8452;fill-opacity:0.5;" x="302.831991" xlink:href="#C0_0_482798d026" y="48.78"/>
    </g>
    <g clip-path="url(#p00fbe5413f)">
     <use style="fill:#4c72b0;fill-opacity:0.5;" x="304.496235" xlink:href="#C0_0_482798d026" y="46.285086"/>
    </g>
    <g clip-path="url(#p00fbe5413f)">
     <use style="fill:#4c72b0;fill-opacity:0.5;" x="305.471257" xlink:href="#C0_0_482798d026" y="49.568917"/>
    </g>
    <g clip-path="url(#p00fbe5413f)">
     <use style="fill:#dd8452;fill-opacity:0.5;" x="308.08411" xlink:href="#C0_0_482798d026" y="48.67025"/>
    </g>
    <g clip-path="url(#p00fbe5413f)">
     <use style="fill:#dd8452;fill-opacity:0.5;" x="309.18014" xlink:href="#C0_0_482798d026" y="51.554455"/>
    </g>
    <g clip-path="url(#p00fbe5413f)">
     <use style="fill:#4c72b0;fill-opacity:0.5;" x="309.327999" xlink:href="#C0_0_482798d026" y="45.867266"/>
    </g>
    <g clip-path="url(#p00fbe5413f)">
     <use style="fill:#dd8452;fill-opacity:0.5;" x="309.601912" xlink:href="#C0_0_482798d026" y="54.666527"/>
    </g>
    <g clip-path="url(#p00fbe5413f)">
     <use style="fill:#dd8452;fill-opacity:0.5;" x="310.891623" xlink:href="#C0_0_482798d026" y="48.78"/>
    </g>
    <g clip-path="url(#p00fbe5413f)">
     <use style="fill:#4c72b0;fill-opacity:0.5;" x="313.117816" xlink:href="#C0_0_482798d026" y="46.961839"/>
    </g>
    <g clip-path="url(#p00fbe5413f)">
     <use style="fill:#dd8452;fill-opacity:0.5;" x="315.242609" xlink:href="#C0_0_482798d026" y="48.935352"/>
    </g>
    <g clip-path="url(#p00fbe5413f)">
     <use style="fill:#dd8452;fill-opacity:0.5;" x="317.496541" xlink:href="#C0_0_482798d026" y="47.163407"/>
    </g>
    <g clip-path="url(#p00fbe5413f)">
     <use style="fill:#dd8452;fill-opacity:0.5;" x="319.68773" xlink:href="#C0_0_482798d026" y="49.037481"/>
    </g>
    <g clip-path="url(#p00fbe5413f)">
     <use style="fill:#4c72b0;fill-opacity:0.5;" x="320.880345" xlink:href="#C0_0_482798d026" y="46.2049"/>
    </g>
    <g clip-path="url(#p00fbe5413f)">
     <use style="fill:#4c72b0;fill-opacity:0.5;" x="321.11762" xlink:href="#C0_0_482798d026" y="51.719406"/>
    </g>
    <g clip-path="url(#p00fbe5413f)">
     <use style="fill:#dd8452;fill-opacity:0.5;" x="322.409003" xlink:href="#C0_0_482798d026" y="48.78"/>
    </g>
    <g clip-path="url(#p00fbe5413f)">
     <use style="fill:#dd8452;fill-opacity:0.5;" x="322.631335" xlink:href="#C0_0_482798d026" y="43.790558"/>
    </g>
    <g clip-path="url(#p00fbe5413f)">
     <use style="fill:#4c72b0;fill-opacity:0.5;" x="323.071741" xlink:href="#C0_0_482798d026" y="53.915814"/>
    </g>
    <g clip-path="url(#p00fbe5413f)">
     <use style="fill:#dd8452;fill-opacity:0.5;" x="324.425287" xlink:href="#C0_0_482798d026" y="46.659933"/>
    </g>
    <g clip-path="url(#p00fbe5413f)">
     <use style="fill:#4c72b0;fill-opacity:0.5;" x="329.59513" xlink:href="#C0_0_482798d026" y="48.78"/>
    </g>
    <g clip-path="url(#p00fbe5413f)">
     <use style="fill:#4c72b0;fill-opacity:0.5;" x="330.931299" xlink:href="#C0_0_482798d026" y="46.034306"/>
    </g>
    <g clip-path="url(#p00fbe5413f)">
     <use style="fill:#dd8452;fill-opacity:0.5;" x="332.750655" xlink:href="#C0_0_482798d026" y="48.78"/>
    </g>
    <g clip-path="url(#p00fbe5413f)">
     <use style="fill:#4c72b0;fill-opacity:0.5;" x="333.563492" xlink:href="#C0_0_482798d026" y="51.786722"/>
    </g>
    <g clip-path="url(#p00fbe5413f)">
     <use style="fill:#4c72b0;fill-opacity:0.5;" x="334.014054" xlink:href="#C0_0_482798d026" y="45.988691"/>
    </g>
    <g clip-path="url(#p00fbe5413f)">
     <use style="fill:#4c72b0;fill-opacity:0.5;" x="335.143407" xlink:href="#C0_0_482798d026" y="54.353793"/>
    </g>
    <g clip-path="url(#p00fbe5413f)">
     <use style="fill:#dd8452;fill-opacity:0.5;" x="339.35629" xlink:href="#C0_0_482798d026" y="48.78"/>
    </g>
    <g clip-path="url(#p00fbe5413f)">
     <use style="fill:#4c72b0;fill-opacity:0.5;" x="340.242471" xlink:href="#C0_0_482798d026" y="45.801073"/>
    </g>
    <g clip-path="url(#p00fbe5413f)">
     <use style="fill:#dd8452;fill-opacity:0.5;" x="340.583399" xlink:href="#C0_0_482798d026" y="51.592841"/>
    </g>
    <g clip-path="url(#p00fbe5413f)">
     <use style="fill:#dd8452;fill-opacity:0.5;" x="341.816076" xlink:href="#C0_0_482798d026" y="43.228833"/>
    </g>
    <g clip-path="url(#p00fbe5413f)">
     <use style="fill:#dd8452;fill-opacity:0.5;" x="343.578094" xlink:href="#C0_0_482798d026" y="48.78"/>
    </g>
    <g clip-path="url(#p00fbe5413f)">
     <use style="fill:#dd8452;fill-opacity:0.5;" x="345.076878" xlink:href="#C0_0_482798d026" y="46.148777"/>
    </g>
    <g clip-path="url(#p00fbe5413f)">
     <use style="fill:#dd8452;fill-opacity:0.5;" x="346.792442" xlink:href="#C0_0_482798d026" y="48.78"/>
    </g>
    <g clip-path="url(#p00fbe5413f)">
     <use style="fill:#dd8452;fill-opacity:0.5;" x="347.430106" xlink:href="#C0_0_482798d026" y="51.842616"/>
    </g>
    <g clip-path="url(#p00fbe5413f)">
     <use style="fill:#dd8452;fill-opacity:0.5;" x="350.92181" xlink:href="#C0_0_482798d026" y="48.78"/>
    </g>
    <g clip-path="url(#p00fbe5413f)">
     <use style="fill:#4c72b0;fill-opacity:0.5;" x="351.694462" xlink:href="#C0_0_482798d026" y="45.759165"/>
    </g>
    <g clip-path="url(#p00fbe5413f)">
     <use style="fill:#dd8452;fill-opacity:0.5;" x="352.343147" xlink:href="#C0_0_482798d026" y="51.467988"/>
    </g>
    <g clip-path="url(#p00fbe5413f)">
     <use style="fill:#dd8452;fill-opacity:0.5;" x="355.147746" xlink:href="#C0_0_482798d026" y="48.78"/>
    </g>
    <g clip-path="url(#p00fbe5413f)">
     <use style="fill:#4c72b0;fill-opacity:0.5;" x="355.686272" xlink:href="#C0_0_482798d026" y="45.692072"/>
    </g>
    <g clip-path="url(#p00fbe5413f)">
     <use style="fill:#dd8452;fill-opacity:0.5;" x="362.118335" xlink:href="#C0_0_482798d026" y="48.78"/>
    </g>
    <g clip-path="url(#p00fbe5413f)">
     <use style="fill:#dd8452;fill-opacity:0.5;" x="366.170091" xlink:href="#C0_0_482798d026" y="48.78"/>
    </g>
    <g clip-path="url(#p00fbe5413f)">
     <use style="fill:#4c72b0;fill-opacity:0.5;" x="367.185382" xlink:href="#C0_0_482798d026" y="45.856606"/>
    </g>
    <g clip-path="url(#p00fbe5413f)">
     <use style="fill:#dd8452;fill-opacity:0.5;" x="372.2237" xlink:href="#C0_0_482798d026" y="48.78"/>
    </g>
    <g clip-path="url(#p00fbe5413f)">
     <use style="fill:#4c72b0;fill-opacity:0.5;" x="374.118518" xlink:href="#C0_0_482798d026" y="46.51528"/>
    </g>
    <g clip-path="url(#p00fbe5413f)">
     <use style="fill:#dd8452;fill-opacity:0.5;" x="377.146506" xlink:href="#C0_0_482798d026" y="48.78"/>
    </g>
    <g clip-path="url(#p00fbe5413f)">
     <use style="fill:#4c72b0;fill-opacity:0.5;" x="377.947274" xlink:href="#C0_0_482798d026" y="45.768957"/>
    </g>
    <g clip-path="url(#p00fbe5413f)">
     <use style="fill:#dd8452;fill-opacity:0.5;" x="380.465202" xlink:href="#C0_0_482798d026" y="48.78"/>
    </g>
    <g clip-path="url(#p00fbe5413f)">
     <use style="fill:#dd8452;fill-opacity:0.5;" x="386.461755" xlink:href="#C0_0_482798d026" y="48.78"/>
    </g>
    <g clip-path="url(#p00fbe5413f)">
     <use style="fill:#dd8452;fill-opacity:0.5;" x="394.261907" xlink:href="#C0_0_482798d026" y="48.78"/>
    </g>
    <g clip-path="url(#p00fbe5413f)">
     <use style="fill:#4c72b0;fill-opacity:0.5;" x="394.289785" xlink:href="#C0_0_482798d026" y="45.630165"/>
    </g>
    <g clip-path="url(#p00fbe5413f)">
     <use style="fill:#4c72b0;fill-opacity:0.5;" x="447.661161" xlink:href="#C0_0_482798d026" y="48.78"/>
    </g>
    <g clip-path="url(#p00fbe5413f)">
     <use style="fill:#dd8452;fill-opacity:0.5;" x="449.752768" xlink:href="#C0_0_482798d026" y="46.759709"/>
    </g>
    <g clip-path="url(#p00fbe5413f)">
     <use style="fill:#4c72b0;fill-opacity:0.5;" x="494.869038" xlink:href="#C0_0_482798d026" y="48.78"/>
    </g>
    <g clip-path="url(#p00fbe5413f)">
     <use style="fill:#4c72b0;fill-opacity:0.5;" x="499.001838" xlink:href="#C0_0_482798d026" y="48.78"/>
    </g>
    <g clip-path="url(#p00fbe5413f)">
     <use style="fill:#dd8452;fill-opacity:0.5;" x="575.126208" xlink:href="#C0_0_482798d026" y="48.78"/>
    </g>
    <g clip-path="url(#p00fbe5413f)">
     <use style="fill:#4c72b0;fill-opacity:0.5;" x="631.52734" xlink:href="#C0_0_482798d026" y="48.78"/>
    </g>
    <g clip-path="url(#p00fbe5413f)">
     <use style="fill:#dd8452;fill-opacity:0.5;" x="737.060567" xlink:href="#C0_0_482798d026" y="48.78"/>
    </g>
   </g>
   <g id="PathCollection_4">
    <defs>
     <path d="M 0 1.5 
C 0.397805 1.5 0.77937 1.341951 1.06066 1.06066 
C 1.341951 0.77937 1.5 0.397805 1.5 -0 
C 1.5 -0.397805 1.341951 -0.77937 1.06066 -1.06066 
C 0.77937 -1.341951 0.397805 -1.5 0 -1.5 
C -0.397805 -1.5 -0.77937 -1.341951 -1.06066 -1.06066 
C -1.341951 -0.77937 -1.5 -0.397805 -1.5 0 
C -1.5 0.397805 -1.341951 0.77937 -1.06066 1.06066 
C -0.77937 1.341951 -0.397805 1.5 0 1.5 
z
" id="C1_0_b8bf11b53a"/>
    </defs>
    <g clip-path="url(#p00fbe5413f)">
     <use style="fill:#4c72b0;fill-opacity:0.5;" x="183.900024" xlink:href="#C1_0_b8bf11b53a" y="131.94"/>
    </g>
    <g clip-path="url(#p00fbe5413f)">
     <use style="fill:#4c72b0;fill-opacity:0.5;" x="191.307676" xlink:href="#C1_0_b8bf11b53a" y="131.94"/>
    </g>
    <g clip-path="url(#p00fbe5413f)">
     <use style="fill:#4c72b0;fill-opacity:0.5;" x="192.105504" xlink:href="#C1_0_b8bf11b53a" y="128.927915"/>
    </g>
    <g clip-path="url(#p00fbe5413f)">
     <use style="fill:#4c72b0;fill-opacity:0.5;" x="192.769508" xlink:href="#C1_0_b8bf11b53a" y="134.598835"/>
    </g>
    <g clip-path="url(#p00fbe5413f)">
     <use style="fill:#dd8452;fill-opacity:0.5;" x="193.793195" xlink:href="#C1_0_b8bf11b53a" y="126.45412"/>
    </g>
    <g clip-path="url(#p00fbe5413f)">
     <use style="fill:#4c72b0;fill-opacity:0.5;" x="195.293874" xlink:href="#C1_0_b8bf11b53a" y="131.94"/>
    </g>
    <g clip-path="url(#p00fbe5413f)">
     <use style="fill:#dd8452;fill-opacity:0.5;" x="196.425106" xlink:href="#C1_0_b8bf11b53a" y="134.806"/>
    </g>
    <g clip-path="url(#p00fbe5413f)">
     <use style="fill:#4c72b0;fill-opacity:0.5;" x="197.983154" xlink:href="#C1_0_b8bf11b53a" y="131.423692"/>
    </g>
    <g clip-path="url(#p00fbe5413f)">
     <use style="fill:#4c72b0;fill-opacity:0.5;" x="198.455646" xlink:href="#C1_0_b8bf11b53a" y="128.321364"/>
    </g>
    <g clip-path="url(#p00fbe5413f)">
     <use style="fill:#dd8452;fill-opacity:0.5;" x="199.260147" xlink:href="#C1_0_b8bf11b53a" y="134.206729"/>
    </g>
    <g clip-path="url(#p00fbe5413f)">
     <use style="fill:#4c72b0;fill-opacity:0.5;" x="199.463462" xlink:href="#C1_0_b8bf11b53a" y="137.347957"/>
    </g>
    <g clip-path="url(#p00fbe5413f)">
     <use style="fill:#4c72b0;fill-opacity:0.5;" x="199.973267" xlink:href="#C1_0_b8bf11b53a" y="125.704595"/>
    </g>
    <g clip-path="url(#p00fbe5413f)">
     <use style="fill:#4c72b0;fill-opacity:0.5;" x="201.885271" xlink:href="#C1_0_b8bf11b53a" y="131.94"/>
    </g>
    <g clip-path="url(#p00fbe5413f)">
     <use style="fill:#dd8452;fill-opacity:0.5;" x="201.958762" xlink:href="#C1_0_b8bf11b53a" y="135.088855"/>
    </g>
    <g clip-path="url(#p00fbe5413f)">
     <use style="fill:#dd8452;fill-opacity:0.5;" x="202.349931" xlink:href="#C1_0_b8bf11b53a" y="128.836094"/>
    </g>
    <g clip-path="url(#p00fbe5413f)">
     <use style="fill:#dd8452;fill-opacity:0.5;" x="203.02289" xlink:href="#C1_0_b8bf11b53a" y="137.988967"/>
    </g>
    <g clip-path="url(#p00fbe5413f)">
     <use style="fill:#dd8452;fill-opacity:0.5;" x="203.335242" xlink:href="#C1_0_b8bf11b53a" y="125.899035"/>
    </g>
    <g clip-path="url(#p00fbe5413f)">
     <use style="fill:#dd8452;fill-opacity:0.5;" x="203.385774" xlink:href="#C1_0_b8bf11b53a" y="141.110935"/>
    </g>
    <g clip-path="url(#p00fbe5413f)">
     <use style="fill:#dd8452;fill-opacity:0.5;" x="203.389337" xlink:href="#C1_0_b8bf11b53a" y="122.749656"/>
    </g>
    <g clip-path="url(#p00fbe5413f)">
     <use style="fill:#4c72b0;fill-opacity:0.5;" x="204.425744" xlink:href="#C1_0_b8bf11b53a" y="130.797368"/>
    </g>
    <g clip-path="url(#p00fbe5413f)">
     <use style="fill:#4c72b0;fill-opacity:0.5;" x="207.158977" xlink:href="#C1_0_b8bf11b53a" y="131.94"/>
    </g>
    <g clip-path="url(#p00fbe5413f)">
     <use style="fill:#4c72b0;fill-opacity:0.5;" x="207.496101" xlink:href="#C1_0_b8bf11b53a" y="128.814178"/>
    </g>
    <g clip-path="url(#p00fbe5413f)">
     <use style="fill:#4c72b0;fill-opacity:0.5;" x="209.125748" xlink:href="#C1_0_b8bf11b53a" y="134.121282"/>
    </g>
    <g clip-path="url(#p00fbe5413f)">
     <use style="fill:#4c72b0;fill-opacity:0.5;" x="209.434932" xlink:href="#C1_0_b8bf11b53a" y="137.250957"/>
    </g>
    <g clip-path="url(#p00fbe5413f)">
     <use style="fill:#4c72b0;fill-opacity:0.5;" x="210.461197" xlink:href="#C1_0_b8bf11b53a" y="131.37512"/>
    </g>
    <g clip-path="url(#p00fbe5413f)">
     <use style="fill:#4c72b0;fill-opacity:0.5;" x="210.870237" xlink:href="#C1_0_b8bf11b53a" y="128.26078"/>
    </g>
    <g clip-path="url(#p00fbe5413f)">
     <use style="fill:#4c72b0;fill-opacity:0.5;" x="211.921802" xlink:href="#C1_0_b8bf11b53a" y="134.034855"/>
    </g>
    <g clip-path="url(#p00fbe5413f)">
     <use style="fill:#4c72b0;fill-opacity:0.5;" x="213.06986" xlink:href="#C1_0_b8bf11b53a" y="130.460344"/>
    </g>
    <g clip-path="url(#p00fbe5413f)">
     <use style="fill:#4c72b0;fill-opacity:0.5;" x="213.42146" xlink:href="#C1_0_b8bf11b53a" y="136.665414"/>
    </g>
    <g clip-path="url(#p00fbe5413f)">
     <use style="fill:#4c72b0;fill-opacity:0.5;" x="213.808953" xlink:href="#C1_0_b8bf11b53a" y="127.428319"/>
    </g>
    <g clip-path="url(#p00fbe5413f)">
     <use style="fill:#dd8452;fill-opacity:0.5;" x="215.859335" xlink:href="#C1_0_b8bf11b53a" y="131.94"/>
    </g>
    <g clip-path="url(#p00fbe5413f)">
     <use style="fill:#dd8452;fill-opacity:0.5;" x="216.338236" xlink:href="#C1_0_b8bf11b53a" y="135.041015"/>
    </g>
    <g clip-path="url(#p00fbe5413f)">
     <use style="fill:#4c72b0;fill-opacity:0.5;" x="216.873774" xlink:href="#C1_0_b8bf11b53a" y="129.016211"/>
    </g>
    <g clip-path="url(#p00fbe5413f)">
     <use style="fill:#dd8452;fill-opacity:0.5;" x="217.758956" xlink:href="#C1_0_b8bf11b53a" y="137.729439"/>
    </g>
    <g clip-path="url(#p00fbe5413f)">
     <use style="fill:#dd8452;fill-opacity:0.5;" x="217.911689" xlink:href="#C1_0_b8bf11b53a" y="126.103444"/>
    </g>
    <g clip-path="url(#p00fbe5413f)">
     <use style="fill:#4c72b0;fill-opacity:0.5;" x="217.919496" xlink:href="#C1_0_b8bf11b53a" y="140.873972"/>
    </g>
    <g clip-path="url(#p00fbe5413f)">
     <use style="fill:#4c72b0;fill-opacity:0.5;" x="219.211419" xlink:href="#C1_0_b8bf11b53a" y="131.94"/>
    </g>
    <g clip-path="url(#p00fbe5413f)">
     <use style="fill:#dd8452;fill-opacity:0.5;" x="220.934301" xlink:href="#C1_0_b8bf11b53a" y="129.498807"/>
    </g>
    <g clip-path="url(#p00fbe5413f)">
     <use style="fill:#4c72b0;fill-opacity:0.5;" x="221.7205" xlink:href="#C1_0_b8bf11b53a" y="133.171765"/>
    </g>
    <g clip-path="url(#p00fbe5413f)">
     <use style="fill:#4c72b0;fill-opacity:0.5;" x="223.033871" xlink:href="#C1_0_b8bf11b53a" y="135.932107"/>
    </g>
    <g clip-path="url(#p00fbe5413f)">
     <use style="fill:#4c72b0;fill-opacity:0.5;" x="223.884382" xlink:href="#C1_0_b8bf11b53a" y="131.255797"/>
    </g>
    <g clip-path="url(#p00fbe5413f)">
     <use style="fill:#dd8452;fill-opacity:0.5;" x="224.596613" xlink:href="#C1_0_b8bf11b53a" y="128.215201"/>
    </g>
    <g clip-path="url(#p00fbe5413f)">
     <use style="fill:#dd8452;fill-opacity:0.5;" x="225.65855" xlink:href="#C1_0_b8bf11b53a" y="133.647442"/>
    </g>
    <g clip-path="url(#p00fbe5413f)">
     <use style="fill:#4c72b0;fill-opacity:0.5;" x="225.717949" xlink:href="#C1_0_b8bf11b53a" y="136.796695"/>
    </g>
    <g clip-path="url(#p00fbe5413f)">
     <use style="fill:#4c72b0;fill-opacity:0.5;" x="225.902972" xlink:href="#C1_0_b8bf11b53a" y="125.450421"/>
    </g>
    <g clip-path="url(#p00fbe5413f)">
     <use style="fill:#dd8452;fill-opacity:0.5;" x="227.993886" xlink:href="#C1_0_b8bf11b53a" y="131.94"/>
    </g>
    <g clip-path="url(#p00fbe5413f)">
     <use style="fill:#dd8452;fill-opacity:0.5;" x="228.085406" xlink:href="#C1_0_b8bf11b53a" y="135.082403"/>
    </g>
    <g clip-path="url(#p00fbe5413f)">
     <use style="fill:#dd8452;fill-opacity:0.5;" x="228.581615" xlink:href="#C1_0_b8bf11b53a" y="128.864075"/>
    </g>
    <g clip-path="url(#p00fbe5413f)">
     <use style="fill:#dd8452;fill-opacity:0.5;" x="228.687507" xlink:href="#C1_0_b8bf11b53a" y="138.154614"/>
    </g>
    <g clip-path="url(#p00fbe5413f)">
     <use style="fill:#dd8452;fill-opacity:0.5;" x="228.741744" xlink:href="#C1_0_b8bf11b53a" y="125.719514"/>
    </g>
    <g clip-path="url(#p00fbe5413f)">
     <use style="fill:#dd8452;fill-opacity:0.5;" x="228.813335" xlink:href="#C1_0_b8bf11b53a" y="141.301257"/>
    </g>
    <g clip-path="url(#p00fbe5413f)">
     <use style="fill:#4c72b0;fill-opacity:0.5;" x="229.315875" xlink:href="#C1_0_b8bf11b53a" y="122.640162"/>
    </g>
    <g clip-path="url(#p00fbe5413f)">
     <use style="fill:#4c72b0;fill-opacity:0.5;" x="232.876798" xlink:href="#C1_0_b8bf11b53a" y="131.94"/>
    </g>
    <g clip-path="url(#p00fbe5413f)">
     <use style="fill:#4c72b0;fill-opacity:0.5;" x="233.09388" xlink:href="#C1_0_b8bf11b53a" y="128.800003"/>
    </g>
    <g clip-path="url(#p00fbe5413f)">
     <use style="fill:#dd8452;fill-opacity:0.5;" x="233.67259" xlink:href="#C1_0_b8bf11b53a" y="134.952803"/>
    </g>
    <g clip-path="url(#p00fbe5413f)">
     <use style="fill:#dd8452;fill-opacity:0.5;" x="236.411765" xlink:href="#C1_0_b8bf11b53a" y="131.94"/>
    </g>
    <g clip-path="url(#p00fbe5413f)">
     <use style="fill:#dd8452;fill-opacity:0.5;" x="236.60345" xlink:href="#C1_0_b8bf11b53a" y="128.797796"/>
    </g>
    <g clip-path="url(#p00fbe5413f)">
     <use style="fill:#dd8452;fill-opacity:0.5;" x="237.577699" xlink:href="#C1_0_b8bf11b53a" y="134.787372"/>
    </g>
    <g clip-path="url(#p00fbe5413f)">
     <use style="fill:#4c72b0;fill-opacity:0.5;" x="237.869384" xlink:href="#C1_0_b8bf11b53a" y="126.008021"/>
    </g>
    <g clip-path="url(#p00fbe5413f)">
     <use style="fill:#4c72b0;fill-opacity:0.5;" x="238.215644" xlink:href="#C1_0_b8bf11b53a" y="137.849911"/>
    </g>
    <g clip-path="url(#p00fbe5413f)">
     <use style="fill:#dd8452;fill-opacity:0.5;" x="240.45217" xlink:href="#C1_0_b8bf11b53a" y="131.94"/>
    </g>
    <g clip-path="url(#p00fbe5413f)">
     <use style="fill:#4c72b0;fill-opacity:0.5;" x="242.028451" xlink:href="#C1_0_b8bf11b53a" y="129.369948"/>
    </g>
    <g clip-path="url(#p00fbe5413f)">
     <use style="fill:#dd8452;fill-opacity:0.5;" x="242.343418" xlink:href="#C1_0_b8bf11b53a" y="134.208701"/>
    </g>
    <g clip-path="url(#p00fbe5413f)">
     <use style="fill:#dd8452;fill-opacity:0.5;" x="242.408433" xlink:href="#C1_0_b8bf11b53a" y="137.357805"/>
    </g>
    <g clip-path="url(#p00fbe5413f)">
     <use style="fill:#4c72b0;fill-opacity:0.5;" x="243.343027" xlink:href="#C1_0_b8bf11b53a" y="126.610372"/>
    </g>
    <g clip-path="url(#p00fbe5413f)">
     <use style="fill:#4c72b0;fill-opacity:0.5;" x="243.39602" xlink:href="#C1_0_b8bf11b53a" y="140.293842"/>
    </g>
    <g clip-path="url(#p00fbe5413f)">
     <use style="fill:#4c72b0;fill-opacity:0.5;" x="244.666642" xlink:href="#C1_0_b8bf11b53a" y="131.94"/>
    </g>
    <g clip-path="url(#p00fbe5413f)">
     <use style="fill:#4c72b0;fill-opacity:0.5;" x="245.517129" xlink:href="#C1_0_b8bf11b53a" y="128.947214"/>
    </g>
    <g clip-path="url(#p00fbe5413f)">
     <use style="fill:#4c72b0;fill-opacity:0.5;" x="245.738189" xlink:href="#C1_0_b8bf11b53a" y="134.836462"/>
    </g>
    <g clip-path="url(#p00fbe5413f)">
     <use style="fill:#dd8452;fill-opacity:0.5;" x="246.471181" xlink:href="#C1_0_b8bf11b53a" y="137.870464"/>
    </g>
    <g clip-path="url(#p00fbe5413f)">
     <use style="fill:#4c72b0;fill-opacity:0.5;" x="251.693389" xlink:href="#C1_0_b8bf11b53a" y="131.94"/>
    </g>
    <g clip-path="url(#p00fbe5413f)">
     <use style="fill:#4c72b0;fill-opacity:0.5;" x="254.041126" xlink:href="#C1_0_b8bf11b53a" y="130.338917"/>
    </g>
    <g clip-path="url(#p00fbe5413f)">
     <use style="fill:#dd8452;fill-opacity:0.5;" x="254.58952" xlink:href="#C1_0_b8bf11b53a" y="133.424525"/>
    </g>
    <g clip-path="url(#p00fbe5413f)">
     <use style="fill:#dd8452;fill-opacity:0.5;" x="254.643438" xlink:href="#C1_0_b8bf11b53a" y="136.573909"/>
    </g>
    <g clip-path="url(#p00fbe5413f)">
     <use style="fill:#4c72b0;fill-opacity:0.5;" x="255.635407" xlink:href="#C1_0_b8bf11b53a" y="127.783731"/>
    </g>
    <g clip-path="url(#p00fbe5413f)">
     <use style="fill:#dd8452;fill-opacity:0.5;" x="257.172998" xlink:href="#C1_0_b8bf11b53a" y="131.94"/>
    </g>
    <g clip-path="url(#p00fbe5413f)">
     <use style="fill:#dd8452;fill-opacity:0.5;" x="257.797984" xlink:href="#C1_0_b8bf11b53a" y="135.006104"/>
    </g>
    <g clip-path="url(#p00fbe5413f)">
     <use style="fill:#dd8452;fill-opacity:0.5;" x="259.183515" xlink:href="#C1_0_b8bf11b53a" y="129.812634"/>
    </g>
    <g clip-path="url(#p00fbe5413f)">
     <use style="fill:#4c72b0;fill-opacity:0.5;" x="259.259541" xlink:href="#C1_0_b8bf11b53a" y="126.663859"/>
    </g>
    <g clip-path="url(#p00fbe5413f)">
     <use style="fill:#dd8452;fill-opacity:0.5;" x="262.254802" xlink:href="#C1_0_b8bf11b53a" y="131.94"/>
    </g>
    <g clip-path="url(#p00fbe5413f)">
     <use style="fill:#dd8452;fill-opacity:0.5;" x="262.259264" xlink:href="#C1_0_b8bf11b53a" y="128.790004"/>
    </g>
    <g clip-path="url(#p00fbe5413f)">
     <use style="fill:#dd8452;fill-opacity:0.5;" x="262.855167" xlink:href="#C1_0_b8bf11b53a" y="135.012665"/>
    </g>
    <g clip-path="url(#p00fbe5413f)">
     <use style="fill:#dd8452;fill-opacity:0.5;" x="268.990606" xlink:href="#C1_0_b8bf11b53a" y="131.94"/>
    </g>
    <g clip-path="url(#p00fbe5413f)">
     <use style="fill:#dd8452;fill-opacity:0.5;" x="269.370245" xlink:href="#C1_0_b8bf11b53a" y="128.820693"/>
    </g>
    <g clip-path="url(#p00fbe5413f)">
     <use style="fill:#dd8452;fill-opacity:0.5;" x="272.192379" xlink:href="#C1_0_b8bf11b53a" y="131.94"/>
    </g>
    <g clip-path="url(#p00fbe5413f)">
     <use style="fill:#4c72b0;fill-opacity:0.5;" x="273.788538" xlink:href="#C1_0_b8bf11b53a" y="129.386381"/>
    </g>
    <g clip-path="url(#p00fbe5413f)">
     <use style="fill:#dd8452;fill-opacity:0.5;" x="284.215352" xlink:href="#C1_0_b8bf11b53a" y="131.94"/>
    </g>
    <g clip-path="url(#p00fbe5413f)">
     <use style="fill:#dd8452;fill-opacity:0.5;" x="289.359803" xlink:href="#C1_0_b8bf11b53a" y="131.94"/>
    </g>
    <g clip-path="url(#p00fbe5413f)">
     <use style="fill:#4c72b0;fill-opacity:0.5;" x="290.060974" xlink:href="#C1_0_b8bf11b53a" y="128.895973"/>
    </g>
    <g clip-path="url(#p00fbe5413f)">
     <use style="fill:#4c72b0;fill-opacity:0.5;" x="295.449816" xlink:href="#C1_0_b8bf11b53a" y="131.94"/>
    </g>
    <g clip-path="url(#p00fbe5413f)">
     <use style="fill:#dd8452;fill-opacity:0.5;" x="311.087761" xlink:href="#C1_0_b8bf11b53a" y="131.94"/>
    </g>
    <g clip-path="url(#p00fbe5413f)">
     <use style="fill:#4c72b0;fill-opacity:0.5;" x="313.765127" xlink:href="#C1_0_b8bf11b53a" y="131.346751"/>
    </g>
    <g clip-path="url(#p00fbe5413f)">
     <use style="fill:#dd8452;fill-opacity:0.5;" x="321.100886" xlink:href="#C1_0_b8bf11b53a" y="131.94"/>
    </g>
    <g clip-path="url(#p00fbe5413f)">
     <use style="fill:#4c72b0;fill-opacity:0.5;" x="325.562102" xlink:href="#C1_0_b8bf11b53a" y="131.94"/>
    </g>
    <g clip-path="url(#p00fbe5413f)">
     <use style="fill:#dd8452;fill-opacity:0.5;" x="340.547335" xlink:href="#C1_0_b8bf11b53a" y="131.94"/>
    </g>
    <g clip-path="url(#p00fbe5413f)">
     <use style="fill:#dd8452;fill-opacity:0.5;" x="393.47465" xlink:href="#C1_0_b8bf11b53a" y="131.94"/>
    </g>
    <g clip-path="url(#p00fbe5413f)">
     <use style="fill:#dd8452;fill-opacity:0.5;" x="448.792389" xlink:href="#C1_0_b8bf11b53a" y="131.94"/>
    </g>
    <g clip-path="url(#p00fbe5413f)">
     <use style="fill:#dd8452;fill-opacity:0.5;" x="467.852739" xlink:href="#C1_0_b8bf11b53a" y="131.94"/>
    </g>
    <g clip-path="url(#p00fbe5413f)">
     <use style="fill:#4c72b0;fill-opacity:0.5;" x="547.934802" xlink:href="#C1_0_b8bf11b53a" y="131.94"/>
    </g>
    <g clip-path="url(#p00fbe5413f)">
     <use style="fill:#dd8452;fill-opacity:0.5;" x="558.848443" xlink:href="#C1_0_b8bf11b53a" y="131.94"/>
    </g>
   </g>
   <g id="legend_1">
    <g id="patch_13">
     <path d="M 602.410156 168.02 
L 757.018594 168.02 
Q 759.218594 168.02 759.218594 165.82 
L 759.218594 85.2225 
Q 759.218594 83.0225 757.018594 83.0225 
L 602.410156 83.0225 
Q 600.210156 83.0225 600.210156 85.2225 
L 600.210156 165.82 
Q 600.210156 168.02 602.410156 168.02 
z
" style="fill:#ffffff;opacity:0.8;stroke:#cccccc;stroke-linejoin:miter;"/>
    </g>
    <g id="text_11">
     <!-- Experiment Type -->
     <g style="fill:#262626;" transform="translate(629.360313 96.540625)scale(0.12 -0.12)">
      <defs>
       <path d="M 9.8125 72.90625 
L 55.90625 72.90625 
L 55.90625 64.59375 
L 19.671875 64.59375 
L 19.671875 43.015625 
L 54.390625 43.015625 
L 54.390625 34.71875 
L 19.671875 34.71875 
L 19.671875 8.296875 
L 56.78125 8.296875 
L 56.78125 0 
L 9.8125 0 
z
" id="DejaVuSans-69"/>
       <path d="M 54.890625 54.6875 
L 35.109375 28.078125 
L 55.90625 0 
L 45.3125 0 
L 29.390625 21.484375 
L 13.484375 0 
L 2.875 0 
L 24.125 28.609375 
L 4.6875 54.6875 
L 15.28125 54.6875 
L 29.78125 35.203125 
L 44.28125 54.6875 
z
" id="DejaVuSans-120"/>
       <path d="M 32.171875 -5.078125 
Q 28.375 -14.84375 24.75 -17.8125 
Q 21.140625 -20.796875 15.09375 -20.796875 
L 7.90625 -20.796875 
L 7.90625 -13.28125 
L 13.1875 -13.28125 
Q 16.890625 -13.28125 18.9375 -11.515625 
Q 21 -9.765625 23.484375 -3.21875 
L 25.09375 0.875 
L 2.984375 54.6875 
L 12.5 54.6875 
L 29.59375 11.921875 
L 46.6875 54.6875 
L 56.203125 54.6875 
z
" id="DejaVuSans-121"/>
      </defs>
      <use xlink:href="#DejaVuSans-69"/>
      <use x="63.183594" xlink:href="#DejaVuSans-120"/>
      <use x="122.363281" xlink:href="#DejaVuSans-112"/>
      <use x="185.839844" xlink:href="#DejaVuSans-101"/>
      <use x="247.363281" xlink:href="#DejaVuSans-114"/>
      <use x="288.476562" xlink:href="#DejaVuSans-105"/>
      <use x="316.259766" xlink:href="#DejaVuSans-109"/>
      <use x="413.671875" xlink:href="#DejaVuSans-101"/>
      <use x="475.195312" xlink:href="#DejaVuSans-110"/>
      <use x="538.574219" xlink:href="#DejaVuSans-116"/>
      <use x="577.783203" xlink:href="#DejaVuSans-32"/>
      <use x="609.570312" xlink:href="#DejaVuSans-84"/>
      <use x="655.029297" xlink:href="#DejaVuSans-121"/>
      <use x="714.208984" xlink:href="#DejaVuSans-112"/>
      <use x="777.685547" xlink:href="#DejaVuSans-101"/>
     </g>
    </g>
    <g id="patch_14">
     <path d="M 604.610156 112.894531 
L 626.610156 112.894531 
L 626.610156 105.194531 
L 604.610156 105.194531 
z
" style="fill:#5875a4;stroke:#4c4c4c;stroke-linejoin:miter;stroke-width:0.75;"/>
    </g>
    <g id="text_12">
     <!-- Control Test -->
     <g style="fill:#262626;" transform="translate(635.410156 112.894531)scale(0.11 -0.11)">
      <defs>
       <path d="M 64.40625 67.28125 
L 64.40625 56.890625 
Q 59.421875 61.53125 53.78125 63.8125 
Q 48.140625 66.109375 41.796875 66.109375 
Q 29.296875 66.109375 22.65625 58.46875 
Q 16.015625 50.828125 16.015625 36.375 
Q 16.015625 21.96875 22.65625 14.328125 
Q 29.296875 6.6875 41.796875 6.6875 
Q 48.140625 6.6875 53.78125 8.984375 
Q 59.421875 11.28125 64.40625 15.921875 
L 64.40625 5.609375 
Q 59.234375 2.09375 53.4375 0.328125 
Q 47.65625 -1.421875 41.21875 -1.421875 
Q 24.65625 -1.421875 15.125 8.703125 
Q 5.609375 18.84375 5.609375 36.375 
Q 5.609375 53.953125 15.125 64.078125 
Q 24.65625 74.21875 41.21875 74.21875 
Q 47.75 74.21875 53.53125 72.484375 
Q 59.328125 70.75 64.40625 67.28125 
z
" id="DejaVuSans-67"/>
      </defs>
      <use xlink:href="#DejaVuSans-67"/>
      <use x="69.824219" xlink:href="#DejaVuSans-111"/>
      <use x="131.005859" xlink:href="#DejaVuSans-110"/>
      <use x="194.384766" xlink:href="#DejaVuSans-116"/>
      <use x="233.59375" xlink:href="#DejaVuSans-114"/>
      <use x="272.457031" xlink:href="#DejaVuSans-111"/>
      <use x="333.638672" xlink:href="#DejaVuSans-108"/>
      <use x="361.421875" xlink:href="#DejaVuSans-32"/>
      <use x="393.208984" xlink:href="#DejaVuSans-84"/>
      <use x="437.292969" xlink:href="#DejaVuSans-101"/>
      <use x="498.816406" xlink:href="#DejaVuSans-115"/>
      <use x="550.916016" xlink:href="#DejaVuSans-116"/>
     </g>
    </g>
    <g id="patch_15">
     <path d="M 604.610156 129.040469 
L 626.610156 129.040469 
L 626.610156 121.340469 
L 604.610156 121.340469 
z
" style="fill:#cc8963;stroke:#4c4c4c;stroke-linejoin:miter;stroke-width:0.75;"/>
    </g>
    <g id="text_13">
     <!-- Perturbation Disabled -->
     <g style="fill:#262626;" transform="translate(635.410156 129.040469)scale(0.11 -0.11)">
      <defs>
       <path d="M 48.6875 27.296875 
Q 48.6875 37.203125 44.609375 42.84375 
Q 40.53125 48.484375 33.40625 48.484375 
Q 26.265625 48.484375 22.1875 42.84375 
Q 18.109375 37.203125 18.109375 27.296875 
Q 18.109375 17.390625 22.1875 11.75 
Q 26.265625 6.109375 33.40625 6.109375 
Q 40.53125 6.109375 44.609375 11.75 
Q 48.6875 17.390625 48.6875 27.296875 
z
M 18.109375 46.390625 
Q 20.953125 51.265625 25.265625 53.625 
Q 29.59375 56 35.59375 56 
Q 45.5625 56 51.78125 48.09375 
Q 58.015625 40.1875 58.015625 27.296875 
Q 58.015625 14.40625 51.78125 6.484375 
Q 45.5625 -1.421875 35.59375 -1.421875 
Q 29.59375 -1.421875 25.265625 0.953125 
Q 20.953125 3.328125 18.109375 8.203125 
L 18.109375 0 
L 9.078125 0 
L 9.078125 75.984375 
L 18.109375 75.984375 
z
" id="DejaVuSans-98"/>
       <path d="M 19.671875 64.796875 
L 19.671875 8.109375 
L 31.59375 8.109375 
Q 46.6875 8.109375 53.6875 14.9375 
Q 60.6875 21.78125 60.6875 36.53125 
Q 60.6875 51.171875 53.6875 57.984375 
Q 46.6875 64.796875 31.59375 64.796875 
z
M 9.8125 72.90625 
L 30.078125 72.90625 
Q 51.265625 72.90625 61.171875 64.09375 
Q 71.09375 55.28125 71.09375 36.53125 
Q 71.09375 17.671875 61.125 8.828125 
Q 51.171875 0 30.078125 0 
L 9.8125 0 
z
" id="DejaVuSans-68"/>
      </defs>
      <use xlink:href="#DejaVuSans-80"/>
      <use x="56.677734" xlink:href="#DejaVuSans-101"/>
      <use x="118.201172" xlink:href="#DejaVuSans-114"/>
      <use x="159.314453" xlink:href="#DejaVuSans-116"/>
      <use x="198.523438" xlink:href="#DejaVuSans-117"/>
      <use x="261.902344" xlink:href="#DejaVuSans-114"/>
      <use x="303.015625" xlink:href="#DejaVuSans-98"/>
      <use x="366.492188" xlink:href="#DejaVuSans-97"/>
      <use x="427.771484" xlink:href="#DejaVuSans-116"/>
      <use x="466.980469" xlink:href="#DejaVuSans-105"/>
      <use x="494.763672" xlink:href="#DejaVuSans-111"/>
      <use x="555.945312" xlink:href="#DejaVuSans-110"/>
      <use x="619.324219" xlink:href="#DejaVuSans-32"/>
      <use x="651.111328" xlink:href="#DejaVuSans-68"/>
      <use x="728.113281" xlink:href="#DejaVuSans-105"/>
      <use x="755.896484" xlink:href="#DejaVuSans-115"/>
      <use x="807.996094" xlink:href="#DejaVuSans-97"/>
      <use x="869.275391" xlink:href="#DejaVuSans-98"/>
      <use x="932.751953" xlink:href="#DejaVuSans-108"/>
      <use x="960.535156" xlink:href="#DejaVuSans-101"/>
      <use x="1022.058594" xlink:href="#DejaVuSans-100"/>
     </g>
    </g>
    <g id="PathCollection_5">
     <defs>
      <path d="M 0 3.872983 
C 1.027127 3.872983 2.012324 3.464901 2.738613 2.738613 
C 3.464901 2.012324 3.872983 1.027127 3.872983 0 
C 3.872983 -1.027127 3.464901 -2.012324 2.738613 -2.738613 
C 2.012324 -3.464901 1.027127 -3.872983 0 -3.872983 
C -1.027127 -3.872983 -2.012324 -3.464901 -2.738613 -2.738613 
C -3.464901 -2.012324 -3.872983 -1.027127 -3.872983 0 
C -3.872983 1.027127 -3.464901 2.012324 -2.738613 2.738613 
C -2.012324 3.464901 -1.027127 3.872983 0 3.872983 
z
" id="m75c763ce00" style="stroke:#4c72b0;"/>
     </defs>
     <g>
      <use style="fill:#4c72b0;stroke:#4c72b0;" x="615.610156" xlink:href="#m75c763ce00" y="142.298906"/>
     </g>
    </g>
    <g id="text_14">
     <!-- Control Test -->
     <g style="fill:#262626;" transform="translate(635.410156 145.186406)scale(0.11 -0.11)">
      <use xlink:href="#DejaVuSans-67"/>
      <use x="69.824219" xlink:href="#DejaVuSans-111"/>
      <use x="131.005859" xlink:href="#DejaVuSans-110"/>
      <use x="194.384766" xlink:href="#DejaVuSans-116"/>
      <use x="233.59375" xlink:href="#DejaVuSans-114"/>
      <use x="272.457031" xlink:href="#DejaVuSans-111"/>
      <use x="333.638672" xlink:href="#DejaVuSans-108"/>
      <use x="361.421875" xlink:href="#DejaVuSans-32"/>
      <use x="393.208984" xlink:href="#DejaVuSans-84"/>
      <use x="437.292969" xlink:href="#DejaVuSans-101"/>
      <use x="498.816406" xlink:href="#DejaVuSans-115"/>
      <use x="550.916016" xlink:href="#DejaVuSans-116"/>
     </g>
    </g>
    <g id="PathCollection_6">
     <defs>
      <path d="M 0 3.872983 
C 1.027127 3.872983 2.012324 3.464901 2.738613 2.738613 
C 3.464901 2.012324 3.872983 1.027127 3.872983 0 
C 3.872983 -1.027127 3.464901 -2.012324 2.738613 -2.738613 
C 2.012324 -3.464901 1.027127 -3.872983 0 -3.872983 
C -1.027127 -3.872983 -2.012324 -3.464901 -2.738613 -2.738613 
C -3.464901 -2.012324 -3.872983 -1.027127 -3.872983 0 
C -3.872983 1.027127 -3.464901 2.012324 -2.738613 2.738613 
C -2.012324 3.464901 -1.027127 3.872983 0 3.872983 
z
" id="mbac90efef7" style="stroke:#dd8452;"/>
     </defs>
     <g>
      <use style="fill:#dd8452;stroke:#dd8452;" x="615.610156" xlink:href="#mbac90efef7" y="158.444844"/>
     </g>
    </g>
    <g id="text_15">
     <!-- Perturbation Disabled -->
     <g style="fill:#262626;" transform="translate(635.410156 161.332344)scale(0.11 -0.11)">
      <use xlink:href="#DejaVuSans-80"/>
      <use x="56.677734" xlink:href="#DejaVuSans-101"/>
      <use x="118.201172" xlink:href="#DejaVuSans-114"/>
      <use x="159.314453" xlink:href="#DejaVuSans-116"/>
      <use x="198.523438" xlink:href="#DejaVuSans-117"/>
      <use x="261.902344" xlink:href="#DejaVuSans-114"/>
      <use x="303.015625" xlink:href="#DejaVuSans-98"/>
      <use x="366.492188" xlink:href="#DejaVuSans-97"/>
      <use x="427.771484" xlink:href="#DejaVuSans-116"/>
      <use x="466.980469" xlink:href="#DejaVuSans-105"/>
      <use x="494.763672" xlink:href="#DejaVuSans-111"/>
      <use x="555.945312" xlink:href="#DejaVuSans-110"/>
      <use x="619.324219" xlink:href="#DejaVuSans-32"/>
      <use x="651.111328" xlink:href="#DejaVuSans-68"/>
      <use x="728.113281" xlink:href="#DejaVuSans-105"/>
      <use x="755.896484" xlink:href="#DejaVuSans-115"/>
      <use x="807.996094" xlink:href="#DejaVuSans-97"/>
      <use x="869.275391" xlink:href="#DejaVuSans-98"/>
      <use x="932.751953" xlink:href="#DejaVuSans-108"/>
      <use x="960.535156" xlink:href="#DejaVuSans-101"/>
      <use x="1022.058594" xlink:href="#DejaVuSans-100"/>
     </g>
    </g>
   </g>
  </g>
 </g>
 <defs>
  <clipPath id="p00fbe5413f">
   <rect height="166.32" width="669.6" x="95.118594" y="7.2"/>
  </clipPath>
 </defs>
</svg>
